<svg viewBox="0 0 1200 900" fill="none" xmlns="http://www.w3.org/2000/svg"><path fill="#fff" d="M0 0h1200v900H0z"></path><g clip-path="url(#clip0_1_598)"><path fill-rule="evenodd" clip-rule="evenodd" d="M391 666.1c0 1.491-.877 2.7-1.959 2.7H112.959c-1.082 0-1.959-1.209-1.959-2.7V434.8a5 5 0 015-5h270a5 5 0 015 5v231.3z" fill="#FF003C"></path><path d="M111 434.8a5 5 0 015-5h270a5 5 0 015 5v18H111v-18z" fill="#CCC"></path><path fill-rule="evenodd" clip-rule="evenodd" d="M128 442.3a4.5 4.5 0 11-9 0 4.5 4.5 0 019 0" fill="#E74C3C"></path><path fill-rule="evenodd" clip-rule="evenodd" d="M144 442.3a4.5 4.5 0 11-9 0 4.5 4.5 0 019 0" fill="#F1C40F"></path><path fill-rule="evenodd" clip-rule="evenodd" d="M159 442.3a4.5 4.5 0 11-9 0 4.5 4.5 0 019 0" fill="#2ECC71"></path><path d="M112.77 410h4.305v-6.602h3.62c4.683 0 7.407-2.794 7.407-6.861 0-4.047-2.674-6.901-7.298-6.901h-8.034V410zm4.305-10.053v-6.791h2.904c2.485 0 3.689 1.353 3.689 3.381 0 2.018-1.204 3.41-3.669 3.41h-2.924zm20.399 10.351c4.633 0 7.517-3.172 7.517-7.875 0-4.733-2.884-7.895-7.517-7.895-4.634 0-7.517 3.162-7.517 7.895 0 4.703 2.883 7.875 7.517 7.875zm.02-3.281c-2.138 0-3.232-1.959-3.232-4.624 0-2.664 1.094-4.633 3.232-4.633 2.098 0 3.191 1.969 3.191 4.633 0 2.665-1.093 4.624-3.191 4.624zm15.879 3.232c2.466 0 3.748-1.422 4.335-2.695h.179V410h4.176v-20.364h-4.226v7.657h-.129c-.567-1.243-1.79-2.765-4.345-2.765-3.351 0-6.185 2.606-6.185 7.856 0 5.11 2.715 7.865 6.195 7.865zm1.342-3.371c-2.078 0-3.211-1.85-3.211-4.514 0-2.645 1.113-4.465 3.211-4.465 2.058 0 3.212 1.74 3.212 4.465 0 2.724-1.173 4.514-3.212 4.514zm26.131-17.242h-4.047l-5.041 3.192v3.818l4.663-2.923h.119V410h4.306v-20.364z" fill="#4A4A4A"></path></g><path d="M1085 280.8a5 5 0 015 5v20H510v-20a5 5 0 015-5h570z" fill="#D2D2D2"></path><path fill="#A3A3A3" d="M517 281.8h4v4h-4zm6 0h4v4h-4zm6 0h4v4h-4z"></path><g clip-path="url(#clip1_1_598)"><path d="M652 309.8v120h-3v-120h3z" fill="#9EEBCF"></path><circle cx="650.5" cy="309.3" r="6.5" fill="#fff" stroke="#9EEBCF" stroke-width="3"></circle><path d="M650.5 433.8l-5.5-8h11l-5.5 8z" fill="#9EEBCF"></path><path fill-rule="evenodd" clip-rule="evenodd" d="M790 666.1c0 1.491-.877 2.7-1.959 2.7H511.959c-1.082 0-1.959-1.209-1.959-2.7V434.8a5 5 0 015-5h270a5 5 0 015 5v231.3z" fill="#E3CEBC"></path><path fill-rule="evenodd" clip-rule="evenodd" d="M675.234 575.211l-2.743 6.564c-.506 1.186-1.806 1.861-3.061 1.631l-3.432-.803-3.431-.804a2.696 2.696 0 01-2.083-2.803l.455-7.1a29.009 29.009 0 01-6.673-4.79l-6.598 2.695a2.696 2.696 0 01-3.305-1.067l-1.847-2.976-1.847-2.976a2.697 2.697 0 01.511-3.436l5.343-4.717a29.026 29.026 0 01-1.332-8.104l-6.564-2.743a2.722 2.722 0 01-1.588-3.111l.804-3.431.803-3.431a2.698 2.698 0 012.803-2.084l7.101.455a29.062 29.062 0 014.654-6.508l-2.719-6.636a2.698 2.698 0 011.067-3.306l2.976-1.846 2.976-1.847a2.697 2.697 0 013.436.511l4.662 5.298c2.569-.801 5.295-1.304 8.082-1.369l2.789-6.62a2.723 2.723 0 013.111-1.587l3.431.803 3.432.804a2.697 2.697 0 012.083 2.803l-.441 7.038a28.883 28.883 0 016.688 4.727l6.636-2.718a2.696 2.696 0 013.305 1.066l1.847 2.977 1.848 2.976a2.695 2.695 0 01-.511 3.434l-5.353 4.618c.801 2.569 1.304 5.294 1.37 8.082l6.62 2.789a2.72 2.72 0 011.588 3.11l-.804 3.432-.803 3.431a2.696 2.696 0 01-2.803 2.083l-7.038-.441a27.462 27.462 0 01-4.864 6.852l2.695 6.598a2.697 2.697 0 01-1.066 3.306l-2.977 1.846-2.976 1.847a2.697 2.697 0 01-3.436-.511l-4.716-5.343a29.04 29.04 0 01-8.105 1.332zm14.307-25.598c1.944-8.307-3.215-16.618-11.522-18.562-8.308-1.945-16.618 3.214-18.563 11.522-1.945 8.307 3.214 16.618 11.522 18.562 8.308 1.945 16.618-3.214 18.563-11.522zm-48.775 66.625l.721-4.311a17.794 17.794 0 004.661-1.93l3.568 2.535c.664.468 1.56.391 2.125-.175l1.522-1.522 1.522-1.522a1.653 1.653 0 00.175-2.125l-2.535-3.568a16.906 16.906 0 001.95-4.779l4.271-.721a1.655 1.655 0 001.385-1.638v-4.328c0-.8-.585-1.503-1.385-1.638l-4.348-.741c-.429-1.658-1.112-3.217-1.95-4.641l2.555-3.51a1.656 1.656 0 00-.175-2.125l-1.522-1.522-1.522-1.522a1.654 1.654 0 00-2.125-.175l-3.588 2.555a17.733 17.733 0 00-4.661-1.891l-.721-4.271a1.656 1.656 0 00-1.638-1.385h-4.329c-.799 0-1.502.585-1.638 1.385l-.74 4.348c-1.658.428-3.218 1.112-4.641 1.95l-3.53-2.516a1.656 1.656 0 00-2.125.175l-1.522 1.522-1.522 1.522a1.654 1.654 0 00-.175 2.125l2.555 3.588a17.81 17.81 0 00-1.871 4.545l-4.311.721a1.657 1.657 0 00-1.385 1.638v4.329c0 .799.586 1.502 1.385 1.638l4.311.721a17.787 17.787 0 001.93 4.66l-2.535 3.569a1.654 1.654 0 00.175 2.125l1.522 1.522 1.521 1.522a1.655 1.655 0 002.126.175l3.568-2.536a17.83 17.83 0 004.661 1.931l.721 4.31c.136.8.819 1.385 1.638 1.385h4.329a1.72 1.72 0 001.597-1.404zm5.697-21.62a9.49 9.49 0 10-18.98 0 9.49 9.49 0 0018.98 0zm-31.507-20.781l.597-4.174a17.24 17.24 0 004.454-1.97l3.501 2.364a1.596 1.596 0 002.047-.218l1.434-1.502 1.433-1.502a1.597 1.597 0 00.121-2.056l-2.529-3.385a16.26 16.26 0 001.773-4.655l4.104-.794a1.598 1.598 0 001.3-1.612l-.049-2.089-.049-2.089a1.617 1.617 0 00-1.374-1.55l-4.214-.616a17.48 17.48 0 00-1.988-4.434l2.386-3.445a1.597 1.597 0 00-.219-2.047l-1.502-1.433-1.502-1.434a1.596 1.596 0 00-2.055-.12l-3.405 2.546a17.138 17.138 0 00-4.54-1.719l-.794-4.105a1.6 1.6 0 00-1.613-1.299l-2.089.049-2.088.049a1.615 1.615 0 00-1.55 1.373l-.616 4.214a17.535 17.535 0 00-4.434 1.988l-3.464-2.346a1.596 1.596 0 00-2.046.218l-1.434 1.503-1.434 1.502a1.596 1.596 0 00-.12 2.055l2.547 3.405a17.22 17.22 0 00-1.703 4.427l-4.142.795a1.6 1.6 0 00-1.3 1.613l.049 2.088.049 2.089c.019.772.6 1.435 1.374 1.55l4.175.598a17.197 17.197 0 001.969 4.453l-2.364 3.502a1.596 1.596 0 00.218 2.046l1.502 1.434 1.503 1.434a1.596 1.596 0 002.055.12l3.385-2.528a17.238 17.238 0 004.542 1.757l.795 4.142c.15.769.822 1.318 1.613 1.299l2.088-.049 2.089-.049a1.668 1.668 0 001.514-1.393zm5.002-20.991c-.121-5.058-4.316-9.06-9.373-8.941-5.057.119-9.06 4.317-8.941 9.373a9.16 9.16 0 0018.314-.432z" fill="#6C431E"></path><path d="M510 434.8a5 5 0 015-5h270a5 5 0 015 5v18H510v-18z" fill="#CCC"></path><path fill-rule="evenodd" clip-rule="evenodd" d="M527 442.3a4.5 4.5 0 11-9 0 4.5 4.5 0 019 0" fill="#E74C3C"></path><path fill-rule="evenodd" clip-rule="evenodd" d="M543 442.3a4.5 4.5 0 11-9 0 4.5 4.5 0 019 0" fill="#F1C40F"></path><path fill-rule="evenodd" clip-rule="evenodd" d="M558 442.3a4.5 4.5 0 11-9 0 4.5 4.5 0 019 0" fill="#2ECC71"></path><path d="M511.77 410h4.305v-6.602h3.62c4.683 0 7.407-2.794 7.407-6.861 0-4.047-2.674-6.901-7.298-6.901h-8.034V410zm4.305-10.053v-6.791h2.904c2.485 0 3.689 1.353 3.689 3.381 0 2.018-1.204 3.41-3.669 3.41h-2.924zm20.399 10.351c4.633 0 7.517-3.172 7.517-7.875 0-4.733-2.884-7.895-7.517-7.895-4.634 0-7.517 3.162-7.517 7.895 0 4.703 2.883 7.875 7.517 7.875zm.02-3.281c-2.138 0-3.232-1.959-3.232-4.624 0-2.664 1.094-4.633 3.232-4.633 2.098 0 3.191 1.969 3.191 4.633 0 2.665-1.093 4.624-3.191 4.624zm15.879 3.232c2.466 0 3.748-1.422 4.335-2.695h.179V410h4.176v-20.364h-4.226v7.657h-.129c-.567-1.243-1.79-2.765-4.345-2.765-3.351 0-6.185 2.606-6.185 7.856 0 5.11 2.715 7.865 6.195 7.865zm1.342-3.371c-2.078 0-3.211-1.85-3.211-4.514 0-2.645 1.113-4.465 3.211-4.465 2.058 0 3.212 1.74 3.212 4.465 0 2.724-1.173 4.514-3.212 4.514zm24.709 3.4c4.534 0 7.616-2.953 7.607-7.069.009-3.898-2.715-6.702-6.384-6.702-1.79 0-3.331.746-4.047 1.75h-.119l.527-5.101h8.899v-3.52h-12.449l-.964 10.739 3.828.686c.626-.845 1.839-1.372 3.042-1.372 2.049.01 3.52 1.491 3.52 3.629 0 2.118-1.442 3.58-3.46 3.58-1.71 0-3.092-1.074-3.192-2.655h-4.176c.08 3.52 3.152 6.035 7.368 6.035z" fill="#4A4A4A"></path><path d="M952 309.8v120h-3v-120h3z" fill="#9EEBCF"></path><circle cx="950.5" cy="309.3" r="6.5" fill="#fff" stroke="#9EEBCF" stroke-width="3"></circle><path d="M950.5 433.8l-5.5-8h11l-5.5 8z" fill="#9EEBCF"></path><path fill-rule="evenodd" clip-rule="evenodd" d="M1090 666.1c0 1.491-.88 2.7-1.96 2.7H811.959c-1.082 0-1.959-1.209-1.959-2.7V434.8a5 5 0 015-5h270a5 5 0 015 5v231.3z" fill="#E3CEBC"></path><path fill-rule="evenodd" clip-rule="evenodd" d="M975.234 575.211l-2.743 6.564c-.506 1.186-1.806 1.861-3.061 1.631l-3.432-.803-3.431-.804a2.696 2.696 0 01-2.083-2.803l.455-7.1a29.009 29.009 0 01-6.673-4.79l-6.598 2.695a2.696 2.696 0 01-3.305-1.067l-1.847-2.976-1.847-2.976a2.697 2.697 0 01.511-3.436l5.343-4.717a29.026 29.026 0 01-1.332-8.104l-6.564-2.743a2.722 2.722 0 01-1.588-3.111l.804-3.431.803-3.431a2.698 2.698 0 012.803-2.084l7.101.455a29.062 29.062 0 014.654-6.508l-2.719-6.636a2.698 2.698 0 011.067-3.306l2.976-1.846 2.976-1.847a2.697 2.697 0 013.436.511l4.662 5.298c2.569-.801 5.295-1.304 8.082-1.369l2.789-6.62a2.723 2.723 0 013.111-1.587l3.431.803 3.432.804a2.697 2.697 0 012.083 2.803l-.441 7.038a28.883 28.883 0 016.688 4.727l6.633-2.718a2.701 2.701 0 013.31 1.066l1.84 2.977 1.85 2.976a2.687 2.687 0 01-.51 3.434l-5.35 4.618c.8 2.569 1.3 5.294 1.37 8.082l6.62 2.789a2.726 2.726 0 011.59 3.11l-.81 3.432-.8 3.431a2.69 2.69 0 01-2.8 2.083l-7.04-.441a27.491 27.491 0 01-4.865 6.852l2.695 6.598a2.697 2.697 0 01-1.066 3.306l-2.977 1.846-2.976 1.847a2.697 2.697 0 01-3.436-.511l-4.716-5.343a29.04 29.04 0 01-8.105 1.332zm14.307-25.598c1.944-8.307-3.215-16.618-11.522-18.562-8.308-1.945-16.618 3.214-18.563 11.522-1.945 8.307 3.214 16.618 11.522 18.562 8.308 1.945 16.618-3.214 18.563-11.522zm-48.775 66.625l.721-4.311a17.794 17.794 0 004.661-1.93l3.568 2.535c.664.468 1.56.391 2.125-.175l1.522-1.522 1.522-1.522a1.653 1.653 0 00.175-2.125l-2.535-3.568a16.906 16.906 0 001.95-4.779l4.271-.721a1.655 1.655 0 001.385-1.638v-4.328c0-.8-.585-1.503-1.385-1.638l-4.348-.741c-.429-1.658-1.112-3.217-1.95-4.641l2.555-3.51a1.656 1.656 0 00-.175-2.125l-1.522-1.522-1.522-1.522a1.654 1.654 0 00-2.125-.175l-3.588 2.555a17.733 17.733 0 00-4.661-1.891l-.721-4.271a1.656 1.656 0 00-1.638-1.385h-4.329c-.799 0-1.502.585-1.638 1.385l-.74 4.348c-1.658.428-3.218 1.112-4.641 1.95l-3.53-2.516a1.656 1.656 0 00-2.125.175l-1.522 1.522-1.522 1.522a1.654 1.654 0 00-.175 2.125l2.555 3.588a17.81 17.81 0 00-1.871 4.545l-4.311.721a1.657 1.657 0 00-1.385 1.638v4.329c0 .799.586 1.502 1.385 1.638l4.311.721a17.787 17.787 0 001.93 4.66l-2.535 3.569a1.654 1.654 0 00.175 2.125l1.522 1.522 1.521 1.522a1.655 1.655 0 002.126.175l3.568-2.536a17.83 17.83 0 004.661 1.931l.721 4.31c.136.8.819 1.385 1.638 1.385h4.329a1.72 1.72 0 001.597-1.404zm5.697-21.62a9.49 9.49 0 10-18.98 0 9.49 9.49 0 0018.98 0zm-31.507-20.781l.597-4.174a17.24 17.24 0 004.454-1.97l3.501 2.364a1.596 1.596 0 002.047-.218l1.434-1.502 1.433-1.502a1.597 1.597 0 00.121-2.056l-2.529-3.385a16.26 16.26 0 001.773-4.655l4.104-.794a1.598 1.598 0 001.3-1.612l-.049-2.089-.049-2.089a1.617 1.617 0 00-1.374-1.55l-4.214-.616a17.48 17.48 0 00-1.988-4.434l2.386-3.445a1.597 1.597 0 00-.219-2.047l-1.502-1.433-1.502-1.434a1.596 1.596 0 00-2.055-.12l-3.405 2.546a17.138 17.138 0 00-4.54-1.719l-.794-4.105a1.6 1.6 0 00-1.613-1.299l-2.089.049-2.088.049a1.615 1.615 0 00-1.55 1.373l-.616 4.214a17.535 17.535 0 00-4.434 1.988l-3.464-2.346a1.596 1.596 0 00-2.046.218l-1.434 1.503-1.434 1.502a1.596 1.596 0 00-.12 2.055l2.547 3.405a17.22 17.22 0 00-1.703 4.427l-4.142.795a1.6 1.6 0 00-1.3 1.613l.049 2.088.049 2.089c.019.772.6 1.435 1.374 1.55l4.175.598a17.197 17.197 0 001.969 4.453l-2.364 3.502a1.596 1.596 0 00.218 2.046l1.502 1.434 1.503 1.434a1.596 1.596 0 002.055.12l3.385-2.528a17.238 17.238 0 004.542 1.757l.795 4.142c.15.769.822 1.318 1.613 1.299l2.088-.049 2.089-.049a1.668 1.668 0 001.514-1.393zm5.002-20.991c-.121-5.058-4.316-9.06-9.373-8.941-5.057.119-9.06 4.317-8.941 9.373a9.16 9.16 0 0018.314-.432z" fill="#6C431E"></path><path d="M810 434.8a5 5 0 015-5h270a5 5 0 015 5v18H810v-18z" fill="#CCC"></path><path fill-rule="evenodd" clip-rule="evenodd" d="M827 442.3a4.5 4.5 0 11-9 0 4.5 4.5 0 019 0" fill="#E74C3C"></path><path fill-rule="evenodd" clip-rule="evenodd" d="M843 442.3a4.5 4.5 0 11-9 0 4.5 4.5 0 019 0" fill="#F1C40F"></path><path fill-rule="evenodd" clip-rule="evenodd" d="M858 442.3a4.5 4.5 0 11-9 0 4.5 4.5 0 019 0" fill="#2ECC71"></path><path d="M811.77 410h4.305v-6.602h3.62c4.683 0 7.407-2.794 7.407-6.861 0-4.047-2.674-6.901-7.298-6.901h-8.034V410zm4.305-10.053v-6.791h2.904c2.485 0 3.689 1.353 3.689 3.381 0 2.018-1.204 3.41-3.669 3.41h-2.924zm20.399 10.351c4.633 0 7.517-3.172 7.517-7.875 0-4.733-2.884-7.895-7.517-7.895-4.634 0-7.517 3.162-7.517 7.895 0 4.703 2.883 7.875 7.517 7.875zm.02-3.281c-2.138 0-3.232-1.959-3.232-4.624 0-2.664 1.094-4.633 3.232-4.633 2.098 0 3.191 1.969 3.191 4.633 0 2.665-1.093 4.624-3.191 4.624zm15.879 3.232c2.466 0 3.748-1.422 4.335-2.695h.179V410h4.176v-20.364h-4.226v7.657h-.129c-.567-1.243-1.79-2.765-4.345-2.765-3.351 0-6.185 2.606-6.185 7.856 0 5.11 2.715 7.865 6.195 7.865zm1.342-3.371c-2.078 0-3.211-1.85-3.211-4.514 0-2.645 1.113-4.465 3.211-4.465 2.058 0 3.212 1.74 3.212 4.465 0 2.724-1.173 4.514-3.212 4.514zm25.087 3.4c4.534.02 7.626-2.953 7.616-7.099.01-3.818-2.655-6.572-6.264-6.572-2.237 0-4.216 1.073-5.131 2.873h-.139c.02-3.967 1.412-6.433 4.067-6.433 1.561 0 2.685.855 3.013 2.277h4.246c-.408-3.351-3.192-5.966-7.259-5.966-5.031 0-8.263 4.077-8.283 10.918-.01 7.457 3.948 9.983 8.134 10.002zm-.02-3.38c-1.989 0-3.46-1.601-3.46-3.59.01-1.978 1.511-3.589 3.49-3.589 1.988 0 3.44 1.561 3.43 3.579.01 2.039-1.471 3.6-3.46 3.6z" fill="#4A4A4A"></path></g><path d="M511.77 256h8.7c4.574 0 7.01-2.386 7.01-5.628 0-3.013-2.158-4.832-4.474-4.942v-.198c2.118-.478 3.679-1.979 3.679-4.375 0-3.053-2.267-5.221-6.762-5.221h-8.153V256zm4.305-3.52v-5.409h3.61c2.068 0 3.351 1.193 3.351 2.874 0 1.531-1.045 2.535-3.451 2.535h-3.51zm0-8.322v-5.042h3.272c1.909 0 2.992.985 2.992 2.456 0 1.611-1.312 2.586-3.072 2.586h-3.192zm18.482 12.13c2.257 0 3.719-.984 4.465-2.406h.119V256h4.017v-10.301c0-3.639-3.082-5.171-6.483-5.171-3.659 0-6.065 1.75-6.652 4.534l3.918.319c.288-1.015 1.193-1.76 2.714-1.76 1.442 0 2.267.726 2.267 1.978v.06c0 .984-1.044 1.114-3.699 1.372-3.022.279-5.737 1.293-5.737 4.703 0 3.023 2.158 4.554 5.071 4.554zm1.213-2.923c-1.302 0-2.237-.606-2.237-1.77 0-1.193.984-1.78 2.476-1.988.925-.13 2.436-.348 2.943-.687v1.621c0 1.601-1.322 2.824-3.182 2.824zm17.575 2.933c4.067 0 6.622-2.386 6.821-5.896h-3.997c-.249 1.631-1.323 2.545-2.774 2.545-1.979 0-3.262-1.66-3.262-4.583 0-2.884 1.293-4.534 3.262-4.534 1.551 0 2.545 1.024 2.774 2.545h3.997c-.179-3.53-2.854-5.847-6.841-5.847-4.634 0-7.497 3.212-7.497 7.895 0 4.644 2.814 7.875 7.517 7.875zm9.533-.298h4.236v-4.852l1.143-1.303 4.166 6.155h4.962l-5.956-8.661 5.668-6.612h-4.863l-4.892 5.797h-.228v-10.888h-4.236V256zm22.628.298c3.778 0 6.324-1.839 6.92-4.673l-3.917-.259c-.428 1.164-1.521 1.77-2.933 1.77-2.118 0-3.461-1.402-3.461-3.679v-.01h10.401v-1.163c0-5.19-3.142-7.756-7.179-7.756-4.494 0-7.408 3.192-7.408 7.905 0 4.843 2.874 7.865 7.577 7.865zm-3.391-9.476c.09-1.74 1.412-3.132 3.292-3.132 1.839 0 3.112 1.313 3.122 3.132h-6.414zm17.401.348c.01-1.968 1.183-3.122 2.893-3.122 1.701 0 2.725 1.114 2.715 2.983V256h4.236v-9.724c0-3.56-2.088-5.748-5.27-5.748-2.267 0-3.908 1.114-4.594 2.894h-.179v-2.695h-4.037V256h4.236v-8.83zm18.81 9.079c2.466 0 3.749-1.422 4.335-2.695h.179V256h4.176v-20.364h-4.226v7.657h-.129c-.567-1.243-1.79-2.765-4.345-2.765-3.351 0-6.185 2.606-6.185 7.856 0 5.11 2.715 7.865 6.195 7.865zm1.342-3.371c-2.078 0-3.211-1.85-3.211-4.514 0-2.645 1.113-4.465 3.211-4.465 2.059 0 3.212 1.74 3.212 4.465 0 2.724-1.173 4.514-3.212 4.514zm30.019-7.796c-.378-2.814-2.645-4.554-6.503-4.554-3.908 0-6.483 1.81-6.473 4.753-.01 2.287 1.432 3.769 4.415 4.365l2.645.527c1.332.269 1.939.756 1.958 1.522-.019.904-1.004 1.551-2.485 1.551-1.512 0-2.516-.647-2.775-1.889l-4.166.218c.398 2.924 2.884 4.723 6.931 4.723 3.957 0 6.791-2.018 6.801-5.031-.01-2.207-1.452-3.53-4.415-4.136l-2.764-.557c-1.422-.308-1.949-.796-1.939-1.531-.01-.915 1.024-1.512 2.337-1.512 1.471 0 2.346.806 2.555 1.79l3.878-.239zm9.975 11.216c3.779 0 6.324-1.839 6.921-4.673l-3.918-.259c-.427 1.164-1.521 1.77-2.933 1.77-2.118 0-3.46-1.402-3.46-3.679v-.01h10.4v-1.163c0-5.19-3.142-7.756-7.179-7.756-4.494 0-7.407 3.192-7.407 7.905 0 4.843 2.873 7.865 7.576 7.865zm-3.39-9.476c.089-1.74 1.412-3.132 3.291-3.132 1.839 0 3.112 1.313 3.122 3.132h-6.413zM669.436 256h4.236v-8.641c0-1.879 1.372-3.171 3.242-3.171.586 0 1.392.099 1.789.228v-3.758a6.31 6.31 0 00-1.332-.149c-1.71 0-3.112.994-3.669 2.883h-.159v-2.665h-4.107V256zm26.161-15.273h-4.484l-3.162 10.928h-.159l-3.172-10.928h-4.475l5.34 15.273h4.772l5.34-15.273zM697.765 256H702v-15.273h-4.235V256zm2.127-17.241c1.263 0 2.297-.965 2.297-2.148 0-1.173-1.034-2.138-2.297-2.138-1.252 0-2.287.965-2.287 2.138 0 1.183 1.035 2.148 2.287 2.148zm12.402 17.539c4.067 0 6.622-2.386 6.821-5.896h-3.997c-.249 1.631-1.323 2.545-2.774 2.545-1.979 0-3.262-1.66-3.262-4.583 0-2.884 1.293-4.534 3.262-4.534 1.551 0 2.545 1.024 2.774 2.545h3.997c-.179-3.53-2.854-5.847-6.841-5.847-4.633 0-7.497 3.212-7.497 7.895 0 4.644 2.814 7.875 7.517 7.875zm16.493 0c3.779 0 6.324-1.839 6.921-4.673l-3.918-.259c-.427 1.164-1.521 1.77-2.933 1.77-2.118 0-3.46-1.402-3.46-3.679v-.01h10.4v-1.163c0-5.19-3.142-7.756-7.179-7.756-4.494 0-7.407 3.192-7.407 7.905 0 4.843 2.873 7.865 7.576 7.865zm-3.39-9.476c.089-1.74 1.412-3.132 3.291-3.132 1.839 0 3.112 1.313 3.122 3.132h-6.413z" fill="#4A4A4A"></path><path d="M937.316 217.091h-5.348l-6.661 4.218v5.045l6.162-3.863h.158V244h5.689v-26.909zm7.46 26.909h5.873l11.168-22.192v-4.717h-18.881v4.651h12.995v.184L944.776 244zm20.94 0H984.9v-4.651h-11.3v-.184l3.928-3.85c5.532-5.045 7.017-7.568 7.017-10.63 0-4.664-3.811-7.962-9.579-7.962-5.65 0-9.526 3.377-9.513 8.659h5.401c-.013-2.576 1.616-4.152 4.073-4.152 2.365 0 4.126 1.471 4.126 3.836 0 2.142-1.314 3.614-3.758 5.966l-9.579 8.869V244zm26.63.342c1.682 0 3.14-1.406 3.154-3.154-.014-1.721-1.472-3.127-3.154-3.127-1.734 0-3.166 1.406-3.153 3.127-.013 1.748 1.419 3.154 3.153 3.154zm16.044-27.251h-5.35l-6.66 4.218v5.045l6.16-3.863h.16V244h5.69v-26.909zm7.46 26.909h5.87l11.17-22.192v-4.717h-18.88v4.651H1027v.184L1015.85 244zm19.64.342c1.68 0 3.14-1.406 3.15-3.154-.01-1.721-1.47-3.127-3.15-3.127-1.74 0-3.17 1.406-3.15 3.127-.02 1.748 1.41 3.154 3.15 3.154zm17.13.249c6.76 0 10.85-5.15 10.86-14.019.01-8.804-4.12-13.849-10.86-13.849-6.76 0-10.86 5.032-10.87 13.849-.03 8.842 4.09 14.006 10.87 14.019zm0-4.717c-3.09 0-5.09-3.101-5.08-9.302.02-6.11 2-9.185 5.08-9.185 3.06 0 5.05 3.075 5.05 9.185.02 6.201-1.98 9.302-5.05 9.302zm17.12 4.468c1.68 0 3.14-1.406 3.16-3.154-.02-1.721-1.48-3.127-3.16-3.127-1.73 0-3.16 1.406-3.15 3.127-.01 1.748 1.42 3.154 3.15 3.154zm16.05-27.251h-5.35l-6.66 4.218v5.045l6.16-3.863h.16V244h5.69v-26.909z" fill="#C7C7CC"></path><path d="M650.7 690V293.3H800V184.5H251l.7 383.602" stroke="#FF9500" stroke-width="13" stroke-dasharray="12"></path><path fill="#007AFF" d="M566.5 690h176v48h-176z"></path><path d="M600.525 699.091h-5.348l-6.661 4.218v5.045l6.162-3.863h.158V726h5.689v-26.909zm16.946 27.5c6.767 0 10.853-5.15 10.866-14.019.013-8.804-4.125-13.849-10.866-13.849-6.753 0-10.853 5.032-10.866 13.849-.026 8.842 4.086 14.006 10.866 14.019zm0-4.717c-3.088 0-5.085-3.101-5.072-9.302.014-6.11 1.998-9.185 5.072-9.185 3.062 0 5.059 3.075 5.059 9.185.013 6.201-1.984 9.302-5.059 9.302zm17.127 4.468c1.682 0 3.14-1.406 3.154-3.154-.014-1.721-1.472-3.127-3.154-3.127-1.734 0-3.166 1.406-3.153 3.127-.013 1.748 1.419 3.154 3.153 3.154zm17.127.249c6.767 0 10.853-5.15 10.866-14.019.013-8.804-4.126-13.849-10.866-13.849-6.753 0-10.853 5.032-10.866 13.849-.026 8.842 4.086 14.006 10.866 14.019zm0-4.717c-3.088 0-5.085-3.101-5.072-9.302.013-6.11 1.997-9.185 5.072-9.185 3.061 0 5.059 3.075 5.059 9.185.013 6.201-1.984 9.302-5.059 9.302zm17.127 4.468c1.682 0 3.14-1.406 3.153-3.154-.013-1.721-1.471-3.127-3.153-3.127-1.734 0-3.167 1.406-3.153 3.127-.014 1.748 1.419 3.154 3.153 3.154zm17.127.249c6.767 0 10.853-5.15 10.866-14.019.013-8.804-4.126-13.849-10.866-13.849-6.754 0-10.853 5.032-10.866 13.849-.026 8.842 4.086 14.006 10.866 14.019zm0-4.717c-3.088 0-5.085-3.101-5.072-9.302.013-6.11 1.997-9.185 5.072-9.185 3.061 0 5.059 3.075 5.059 9.185.013 6.201-1.984 9.302-5.059 9.302zm17.127 4.468c1.682 0 3.14-1.406 3.153-3.154-.013-1.721-1.471-3.127-3.153-3.127-1.734 0-3.167 1.406-3.153 3.127-.014 1.748 1.419 3.154 3.153 3.154zm16.043-27.251h-5.348l-6.661 4.218v5.045l6.162-3.863h.158V726h5.689v-26.909z" fill="#fff"></path><path d="M898.243 699.091h-5.348l-6.661 4.218v5.045l6.162-3.863h.158V726h5.689v-26.909zm16.946 27.5c6.767 0 10.853-5.15 10.867-14.019.013-8.804-4.126-13.849-10.867-13.849-6.753 0-10.853 5.032-10.866 13.849-.026 8.842 4.087 14.006 10.866 14.019zm0-4.717c-3.087 0-5.084-3.101-5.071-9.302.013-6.11 1.997-9.185 5.071-9.185 3.062 0 5.059 3.075 5.059 9.185.013 6.201-1.984 9.302-5.059 9.302zm17.127 4.468c1.682 0 3.141-1.406 3.154-3.154-.013-1.721-1.472-3.127-3.154-3.127-1.734 0-3.166 1.406-3.153 3.127-.013 1.748 1.419 3.154 3.153 3.154zm17.127.249c6.767 0 10.853-5.15 10.866-14.019.014-8.804-4.125-13.849-10.866-13.849-6.753 0-10.853 5.032-10.866 13.849-.026 8.842 4.086 14.006 10.866 14.019zm0-4.717c-3.087 0-5.085-3.101-5.071-9.302.013-6.11 1.997-9.185 5.071-9.185 3.062 0 5.059 3.075 5.059 9.185.013 6.201-1.984 9.302-5.059 9.302zm17.127 4.468c1.682 0 3.141-1.406 3.154-3.154-.013-1.721-1.472-3.127-3.154-3.127-1.734 0-3.166 1.406-3.153 3.127-.013 1.748 1.419 3.154 3.153 3.154zm17.127.249c6.767 0 10.853-5.15 10.866-14.019.013-8.804-4.125-13.849-10.866-13.849-6.753 0-10.853 5.032-10.866 13.849-.026 8.842 4.086 14.006 10.866 14.019zm0-4.717c-3.087 0-5.085-3.101-5.072-9.302.014-6.11 1.998-9.185 5.072-9.185 3.062 0 5.059 3.075 5.059 9.185.013 6.201-1.984 9.302-5.059 9.302zm17.123 4.468c1.69 0 3.14-1.406 3.16-3.154-.02-1.721-1.47-3.127-3.16-3.127-1.73 0-3.162 1.406-3.149 3.127-.013 1.748 1.419 3.154 3.149 3.154zm7.7-.342h19.18v-4.651h-11.3v-.184l3.93-3.85c5.53-5.045 7.02-7.568 7.02-10.63 0-4.664-3.81-7.962-9.58-7.962-5.65 0-9.53 3.377-9.51 8.659h5.4c-.02-2.576 1.61-4.152 4.07-4.152 2.37 0 4.13 1.471 4.13 3.836 0 2.142-1.32 3.614-3.76 5.966l-9.58 8.869V726z" fill="#C7C7CC"></path></svg>