<svg viewBox="0 0 1200 900" fill="none" xmlns="http://www.w3.org/2000/svg"><path fill="#fff" d="M0 0h1200v900H0z"></path><rect x="252.4" y="83.4" width="696.2" height="696.2" rx="26.6" fill="#CEE2F6" stroke="#76AADF" stroke-width="2.8"></rect><rect x="304.4" y="83.4" width="595.2" height="372.2" rx="5.6" fill="#FFF2C5" stroke="#AD9E6A" stroke-width="2.8"></rect><rect x="304.4" y="509.4" width="252.2" height="224.2" rx="5.6" fill="#FFF2C5" stroke="#AD9E6A" stroke-width="2.8"></rect><rect x="647.4" y="509.4" width="252.2" height="224.2" rx="5.6" fill="#FFF2C5" stroke="#AD9E6A" stroke-width="2.8"></rect><path d="M576.607 806.062h-6.932v20.715h-.29l-14.217-20.715h-6.112V839h6.964v-20.731h.241L570.591 839h6.016v-32.938zm15.344 33.42c7.495 0 12.159-5.13 12.159-12.737 0-7.656-4.664-12.77-12.159-12.77-7.495 0-12.159 5.114-12.159 12.77 0 7.607 4.664 12.737 12.159 12.737zm.032-5.307c-3.458 0-5.227-3.168-5.227-7.479 0-4.31 1.769-7.494 5.227-7.494 3.394 0 5.163 3.184 5.163 7.494 0 4.311-1.769 7.479-5.163 7.479zm24.242 5.227c3.989 0 6.064-2.3 7.013-4.358h.289V839h6.755v-32.938h-6.835v12.384h-.209c-.917-2.011-2.895-4.471-7.029-4.471-5.42 0-10.003 4.213-10.003 12.705 0 8.267 4.39 12.722 10.019 12.722zm2.172-5.452c-3.362 0-5.195-2.992-5.195-7.302 0-4.278 1.801-7.221 5.195-7.221 3.329 0 5.195 2.814 5.195 7.221s-1.898 7.302-5.195 7.302zm27.334 5.532c6.112 0 10.229-2.975 11.194-7.559l-6.337-.418c-.691 1.882-2.461 2.863-4.744 2.863-3.426 0-5.597-2.268-5.597-5.951v-.016h16.823v-1.881c0-8.396-5.083-12.545-11.612-12.545-7.27 0-11.982 5.162-11.982 12.786 0 7.832 4.648 12.721 12.255 12.721zm-5.484-15.327c.144-2.814 2.283-5.066 5.323-5.066 2.976 0 5.034 2.123 5.05 5.066h-10.373z" fill="#000"></path><path d="M342.519 655.288V665h-4.66v-16.8h4.441v2.964h.197a4.689 4.689 0 011.87-2.319c.875-.576 1.936-.864 3.183-.864 1.167 0 2.184.255 3.052.766.867.51 1.542 1.239 2.023 2.187.481.941.722 2.064.722 3.369V665h-4.659v-9.866c.007-1.028-.256-1.83-.788-2.406-.532-.583-1.265-.875-2.198-.875-.628 0-1.182.135-1.663.405-.474.27-.846.663-1.116 1.181-.262.51-.397 1.127-.404 1.849zm21.176 10.04c-1.729 0-3.216-.35-4.463-1.05a7.187 7.187 0 01-2.866-2.997c-.67-1.298-1.006-2.833-1.006-4.604 0-1.729.336-3.245 1.006-4.55.671-1.306 1.615-2.323 2.833-3.052 1.225-.729 2.662-1.094 4.31-1.094a8.77 8.77 0 013.095.536 6.88 6.88 0 012.516 1.586c.721.707 1.283 1.597 1.684 2.669.401 1.064.601 2.311.601 3.741v1.279h-14.186v-2.887h9.801c0-.671-.146-1.265-.438-1.783a3.127 3.127 0 00-1.214-1.214c-.51-.299-1.105-.449-1.783-.449-.707 0-1.334.164-1.881.493-.54.32-.963.754-1.269 1.301a3.676 3.676 0 00-.47 1.805v2.745c0 .831.153 1.55.459 2.155a3.365 3.365 0 001.324 1.4c.568.328 1.243.492 2.023.492a4.4 4.4 0 001.422-.219c.43-.146.798-.364 1.105-.656.306-.292.539-.649.7-1.072l4.309.285a5.888 5.888 0 01-1.345 2.712c-.671.766-1.539 1.364-2.603 1.794-1.058.423-2.279.634-3.664.634zm18.706-17.128v3.5h-10.117v-3.5h10.117zm-7.82-4.025h4.659v15.663c0 .43.066.765.197 1.006.131.233.314.397.547.492.241.095.518.142.831.142.219 0 .438-.018.656-.055l.504-.098.732 3.467c-.233.073-.561.157-.984.252a7.91 7.91 0 01-1.542.186c-1.123.043-2.107-.106-2.953-.449-.839-.342-1.491-.875-1.958-1.597-.467-.722-.696-1.633-.689-2.734v-16.275zM387.769 665l-4.571-16.8h4.714l2.603 11.287h.153l2.712-11.287h4.627l2.756 11.222h.142l2.56-11.222h4.703l-4.561 16.8h-4.933l-2.887-10.566h-.208L392.691 665h-4.922zm29.073.328c-1.699 0-3.168-.361-4.408-1.083a7.402 7.402 0 01-2.854-3.04c-.671-1.306-1.007-2.819-1.007-4.539 0-1.736.336-3.252 1.007-4.55.67-1.306 1.622-2.319 2.854-3.041 1.24-.729 2.709-1.094 4.408-1.094 1.699 0 3.165.365 4.397 1.094 1.24.722 2.195 1.735 2.866 3.041.67 1.298 1.006 2.814 1.006 4.55 0 1.72-.336 3.233-1.006 4.539a7.385 7.385 0 01-2.866 3.04c-1.232.722-2.698 1.083-4.397 1.083zm.022-3.609c.773 0 1.418-.219 1.936-.656.518-.445.908-1.051 1.17-1.816.27-.766.405-1.637.405-2.614 0-.977-.135-1.849-.405-2.614-.262-.766-.652-1.371-1.17-1.816-.518-.445-1.163-.667-1.936-.667-.78 0-1.437.222-1.969.667-.525.445-.922 1.05-1.192 1.816-.263.765-.394 1.637-.394 2.614 0 .977.131 1.848.394 2.614.27.765.667 1.371 1.192 1.816.532.437 1.189.656 1.969.656zM427.16 665v-16.8h4.517v2.931h.175c.306-1.042.82-1.83 1.542-2.362.722-.54 1.553-.81 2.494-.81.233 0 .485.015.754.044.27.029.507.069.711.12v4.135a6.013 6.013 0 00-.907-.175 8.186 8.186 0 00-1.061-.077c-.686 0-1.298.15-1.838.449-.532.291-.955.7-1.269 1.225-.306.525-.459 1.13-.459 1.815V665h-4.659zm15.843-4.834l.011-5.589h.678l5.382-6.377h5.348l-7.23 8.444h-1.104l-3.085 3.522zM438.781 665v-22.4h4.66V665h-4.66zm10.5 0l-4.943-7.317 3.106-3.292L454.739 665h-5.458zm-106.762 27.288V702h-4.66v-16.8h4.441v2.964h.197a4.689 4.689 0 011.87-2.319c.875-.576 1.936-.864 3.183-.864 1.167 0 2.184.255 3.052.766.867.51 1.542 1.239 2.023 2.187.481.941.722 2.064.722 3.369V702h-4.659v-9.866c.007-1.028-.256-1.83-.788-2.406-.532-.583-1.265-.875-2.198-.875-.628 0-1.182.135-1.663.405-.474.27-.846.663-1.116 1.181-.262.51-.397 1.127-.404 1.849zm18.31 10.029c-1.072 0-2.027-.186-2.866-.558a4.613 4.613 0 01-1.99-1.673c-.482-.744-.722-1.67-.722-2.778 0-.934.171-1.717.514-2.352a4.16 4.16 0 011.4-1.531 6.796 6.796 0 012.012-.875 15.426 15.426 0 012.385-.416 59.34 59.34 0 002.362-.284c.598-.095 1.032-.233 1.302-.416.27-.182.404-.452.404-.809v-.066c0-.692-.218-1.228-.656-1.607-.43-.38-1.043-.569-1.837-.569-.839 0-1.506.186-2.002.558-.496.364-.824.824-.984 1.378l-4.31-.35c.219-1.021.649-1.903 1.291-2.647.642-.751 1.469-1.327 2.483-1.728 1.021-.409 2.202-.613 3.544-.613.933 0 1.826.11 2.679.328a6.994 6.994 0 012.286 1.018 4.94 4.94 0 011.586 1.771c.387.715.58 1.572.58 2.571V702h-4.419v-2.33h-.131c-.27.525-.631.988-1.083 1.389a5.001 5.001 0 01-1.63.93c-.634.219-1.367.328-2.198.328zm1.334-3.215c.686 0 1.291-.135 1.816-.405a3.214 3.214 0 001.236-1.116c.299-.466.448-.995.448-1.586v-1.782a2.522 2.522 0 01-.601.262c-.248.073-.529.142-.842.208-.314.058-.628.113-.941.164l-.853.12a5.75 5.75 0 00-1.433.383c-.408.175-.726.412-.952.711-.226.292-.339.656-.339 1.094 0 .634.23 1.119.689 1.454.467.328 1.058.493 1.772.493zM372.924 702v-16.8h4.44v2.964h.197c.35-.984.934-1.761 1.75-2.33.817-.568 1.794-.853 2.932-.853 1.152 0 2.132.288 2.942.864.809.569 1.349 1.342 1.618 2.319h.175c.343-.962.963-1.732 1.86-2.308.904-.583 1.972-.875 3.205-.875 1.567 0 2.84.5 3.817 1.499.984.991 1.476 2.399 1.476 4.222V702h-4.648v-10.38c0-.933-.248-1.633-.744-2.1-.496-.466-1.116-.7-1.859-.7-.846 0-1.506.27-1.98.81-.474.532-.711 1.236-.711 2.111V702h-4.517v-10.478c0-.824-.237-1.48-.711-1.969-.467-.488-1.083-.733-1.848-.733a2.57 2.57 0 00-1.4.394 2.7 2.7 0 00-.974 1.083c-.241.459-.361.999-.361 1.619V702h-4.659zm34.768.328c-1.728 0-3.216-.35-4.462-1.05a7.187 7.187 0 01-2.866-2.997c-.671-1.298-1.006-2.833-1.006-4.604 0-1.729.335-3.245 1.006-4.55.671-1.306 1.615-2.323 2.833-3.052 1.225-.729 2.661-1.094 4.309-1.094a8.77 8.77 0 013.095.536c.963.35 1.802.879 2.516 1.586.722.707 1.283 1.597 1.684 2.669.402 1.064.602 2.311.602 3.741v1.279h-14.186v-2.887h9.8c0-.671-.146-1.265-.437-1.783a3.134 3.134 0 00-1.214-1.214c-.511-.299-1.105-.449-1.783-.449-.708 0-1.335.164-1.882.493-.539.32-.962.754-1.268 1.301a3.677 3.677 0 00-.471 1.805v2.745c0 .831.154 1.55.46 2.155a3.357 3.357 0 001.323 1.4c.569.328 1.243.492 2.024.492.517 0 .991-.073 1.422-.219.43-.146.798-.364 1.104-.656.306-.292.54-.649.7-1.072l4.31.285a5.89 5.89 0 01-1.346 2.712c-.671.766-1.538 1.364-2.603 1.794-1.057.423-2.278.634-3.664.634zm23.749-12.337l-4.266.262a2.2 2.2 0 00-.47-.984 2.499 2.499 0 00-.952-.711c-.386-.182-.849-.274-1.389-.274-.722 0-1.33.154-1.826.46-.496.299-.744.7-.744 1.203 0 .401.16.74.481 1.017.321.277.872.5 1.652.667l3.04.613c1.634.335 2.851.875 3.654 1.618.802.744 1.203 1.721 1.203 2.932 0 1.101-.325 2.067-.974 2.898-.641.831-1.524 1.48-2.647 1.947-1.115.459-2.402.689-3.861.689-2.224 0-3.995-.463-5.315-1.389-1.313-.933-2.082-2.202-2.308-3.806l4.583-.241c.138.678.474 1.196 1.006 1.553.532.35 1.214.525 2.045.525.817 0 1.473-.156 1.969-.47.503-.321.758-.733.766-1.236-.008-.423-.186-.769-.536-1.039-.35-.277-.89-.489-1.619-.634l-2.909-.58c-1.641-.328-2.862-.897-3.664-1.706-.795-.81-1.193-1.841-1.193-3.096 0-1.079.292-2.008.875-2.789.591-.78 1.419-1.381 2.483-1.804 1.072-.423 2.326-.635 3.763-.635 2.122 0 3.791.449 5.009 1.346 1.225.896 1.94 2.118 2.144 3.664zm2.336 18.309v-23.1h4.594v2.822h.207c.205-.452.5-.912.886-1.378.394-.474.904-.868 1.532-1.181.634-.321 1.421-.482 2.362-.482 1.225 0 2.355.321 3.391.963 1.035.634 1.863 1.593 2.482 2.876.62 1.276.93 2.877.93 4.802 0 1.874-.302 3.456-.908 4.747-.598 1.283-1.414 2.257-2.45 2.92-1.028.656-2.18.984-3.456.984-.904 0-1.673-.149-2.308-.448-.627-.299-1.141-.674-1.542-1.127a5.726 5.726 0 01-.919-1.389h-.142v8.991h-4.659zm4.561-14.7c0 .999.138 1.87.415 2.614.277.744.678 1.323 1.203 1.739.525.408 1.164.613 1.915.613.758 0 1.4-.208 1.925-.624.525-.423.922-1.006 1.192-1.75.277-.751.415-1.615.415-2.592 0-.97-.135-1.823-.404-2.559-.27-.737-.668-1.313-1.193-1.729-.525-.415-1.17-.623-1.935-.623-.759 0-1.4.201-1.925.602-.518.401-.916.969-1.193 1.706-.277.736-.415 1.604-.415 2.603zm18.739 8.717c-1.072 0-2.027-.186-2.865-.558a4.61 4.61 0 01-1.991-1.673c-.481-.744-.722-1.67-.722-2.778 0-.934.171-1.717.514-2.352a4.16 4.16 0 011.4-1.531 6.813 6.813 0 012.013-.875 15.413 15.413 0 012.384-.416 59.11 59.11 0 002.362-.284c.598-.095 1.032-.233 1.302-.416.27-.182.405-.452.405-.809v-.066c0-.692-.219-1.228-.657-1.607-.43-.38-1.042-.569-1.837-.569-.839 0-1.506.186-2.002.558-.495.364-.824.824-.984 1.378l-4.309-.35c.218-1.021.649-1.903 1.29-2.647.642-.751 1.47-1.327 2.483-1.728 1.021-.409 2.202-.613 3.544-.613.933 0 1.826.11 2.68.328.86.219 1.622.558 2.285 1.018a4.94 4.94 0 011.586 1.771c.387.715.58 1.572.58 2.571V702h-4.419v-2.33h-.131c-.27.525-.631.988-1.083 1.389a5.007 5.007 0 01-1.629.93c-.635.219-1.368.328-2.199.328zm1.335-3.215c.685 0 1.29-.135 1.815-.405a3.214 3.214 0 001.236-1.116c.299-.466.449-.995.449-1.586v-1.782a2.532 2.532 0 01-.602.262c-.248.073-.529.142-.842.208-.314.058-.627.113-.941.164l-.853.12a5.763 5.763 0 00-1.433.383c-.408.175-.725.412-.951.711-.226.292-.339.656-.339 1.094 0 .634.229 1.119.689 1.454.466.328 1.057.493 1.772.493zm18.351 3.226c-1.721 0-3.201-.364-4.441-1.094a7.396 7.396 0 01-2.844-3.062c-.656-1.305-.984-2.807-.984-4.506 0-1.721.332-3.231.995-4.529.671-1.305 1.623-2.322 2.855-3.051 1.232-.737 2.698-1.105 4.397-1.105 1.465 0 2.749.266 3.85.799 1.101.532 1.972 1.279 2.614 2.242.642.962.995 2.093 1.061 3.391h-4.397c-.124-.839-.452-1.514-.984-2.024-.525-.518-1.215-.776-2.068-.776-.722 0-1.352.196-1.892.59-.532.387-.948.952-1.247 1.695-.299.744-.448 1.645-.448 2.702 0 1.072.146 1.983.437 2.734.299.751.719 1.324 1.258 1.718.54.393 1.17.59 1.892.59.533 0 1.01-.109 1.433-.328.43-.219.784-.536 1.061-.952.284-.422.47-.929.558-1.52h4.397c-.073 1.284-.423 2.414-1.05 3.391-.62.97-1.477 1.728-2.571 2.275-1.093.547-2.388.82-3.882.82zm17.161 0c-1.728 0-3.215-.35-4.462-1.05a7.187 7.187 0 01-2.866-2.997c-.671-1.298-1.006-2.833-1.006-4.604 0-1.729.335-3.245 1.006-4.55.671-1.306 1.615-2.323 2.833-3.052 1.225-.729 2.661-1.094 4.309-1.094 1.109 0 2.141.179 3.096.536.962.35 1.801.879 2.515 1.586.722.707 1.284 1.597 1.685 2.669.401 1.064.601 2.311.601 3.741v1.279h-14.186v-2.887h9.8c0-.671-.145-1.265-.437-1.783a3.134 3.134 0 00-1.214-1.214c-.511-.299-1.105-.449-1.783-.449-.707 0-1.334.164-1.881.493-.54.32-.963.754-1.269 1.301a3.676 3.676 0 00-.47 1.805v2.745c0 .831.153 1.55.459 2.155a3.37 3.37 0 001.323 1.4c.569.328 1.244.492 2.024.492a4.4 4.4 0 001.422-.219c.43-.146.798-.364 1.104-.656.307-.292.54-.649.7-1.072l4.31.285a5.888 5.888 0 01-1.345 2.712c-.671.766-1.539 1.364-2.604 1.794-1.057.423-2.278.634-3.664.634zm25.62-22.728V702h-4.736v-17.905h-.131l-5.13 3.216v-4.2l5.546-3.511h4.451zm166.975-24.312V665h-4.66v-16.8h4.441v2.964h.197a4.689 4.689 0 011.87-2.319c.875-.576 1.936-.864 3.183-.864 1.167 0 2.184.255 3.052.766.867.51 1.542 1.239 2.023 2.187.481.941.722 2.064.722 3.369V665h-4.659v-9.866c.007-1.028-.256-1.83-.788-2.406-.532-.583-1.265-.875-2.198-.875-.628 0-1.182.135-1.663.405-.474.27-.846.663-1.116 1.181-.262.51-.397 1.127-.404 1.849zm21.176 10.04c-1.729 0-3.216-.35-4.463-1.05a7.187 7.187 0 01-2.866-2.997c-.67-1.298-1.006-2.833-1.006-4.604 0-1.729.336-3.245 1.006-4.55.671-1.306 1.615-2.323 2.833-3.052 1.225-.729 2.662-1.094 4.31-1.094a8.77 8.77 0 013.095.536 6.88 6.88 0 012.516 1.586c.721.707 1.283 1.597 1.684 2.669.401 1.064.601 2.311.601 3.741v1.279h-14.186v-2.887h9.801c0-.671-.146-1.265-.438-1.783a3.127 3.127 0 00-1.214-1.214c-.51-.299-1.105-.449-1.783-.449-.707 0-1.334.164-1.881.493-.54.32-.963.754-1.269 1.301a3.676 3.676 0 00-.47 1.805v2.745c0 .831.153 1.55.459 2.155a3.365 3.365 0 001.324 1.4c.568.328 1.243.492 2.023.492a4.4 4.4 0 001.422-.219c.43-.146.798-.364 1.105-.656.306-.292.539-.649.7-1.072l4.309.285a5.888 5.888 0 01-1.345 2.712c-.671.766-1.539 1.364-2.603 1.794-1.058.423-2.279.634-3.664.634zm18.706-17.128v3.5h-10.117v-3.5h10.117zm-7.82-4.025h4.659v15.663c0 .43.066.765.197 1.006.131.233.314.397.547.492.241.095.518.142.831.142.219 0 .438-.018.656-.055l.504-.098.732 3.467c-.233.073-.561.157-.984.252a7.91 7.91 0 01-1.542.186c-1.123.043-2.107-.106-2.953-.449-.839-.342-1.491-.875-1.958-1.597-.467-.722-.696-1.633-.689-2.734v-16.275zM731.769 665l-4.571-16.8h4.714l2.603 11.287h.153l2.712-11.287h4.627l2.756 11.222h.142l2.56-11.222h4.703l-4.561 16.8h-4.933l-2.887-10.566h-.208L736.691 665h-4.922zm29.073.328c-1.699 0-3.168-.361-4.408-1.083a7.402 7.402 0 01-2.854-3.04c-.671-1.306-1.007-2.819-1.007-4.539 0-1.736.336-3.252 1.007-4.55.67-1.306 1.622-2.319 2.854-3.041 1.24-.729 2.709-1.094 4.408-1.094 1.699 0 3.165.365 4.397 1.094 1.24.722 2.195 1.735 2.866 3.041.67 1.298 1.006 2.814 1.006 4.55 0 1.72-.336 3.233-1.006 4.539a7.385 7.385 0 01-2.866 3.04c-1.232.722-2.698 1.083-4.397 1.083zm.022-3.609c.773 0 1.418-.219 1.936-.656.518-.445.908-1.051 1.17-1.816.27-.766.405-1.637.405-2.614 0-.977-.135-1.849-.405-2.614-.262-.766-.652-1.371-1.17-1.816-.518-.445-1.163-.667-1.936-.667-.78 0-1.437.222-1.969.667-.525.445-.922 1.05-1.192 1.816-.263.765-.394 1.637-.394 2.614 0 .977.131 1.848.394 2.614.27.765.667 1.371 1.192 1.816.532.437 1.189.656 1.969.656zM771.16 665v-16.8h4.517v2.931h.175c.306-1.042.82-1.83 1.542-2.362.722-.54 1.553-.81 2.494-.81.233 0 .485.015.754.044.27.029.507.069.711.12v4.135a6.013 6.013 0 00-.907-.175 8.186 8.186 0 00-1.061-.077c-.686 0-1.298.15-1.838.449-.532.291-.955.7-1.269 1.225-.306.525-.459 1.13-.459 1.815V665h-4.659zm15.843-4.834l.011-5.589h.678l5.382-6.377h5.348l-7.23 8.444h-1.104l-3.085 3.522zM782.781 665v-22.4h4.66V665h-4.66zm10.5 0l-4.943-7.317 3.106-3.292L798.739 665h-5.458zm-106.762 27.288V702h-4.66v-16.8h4.441v2.964h.197a4.689 4.689 0 011.87-2.319c.875-.576 1.936-.864 3.183-.864 1.167 0 2.184.255 3.052.766.867.51 1.542 1.239 2.023 2.187.481.941.722 2.064.722 3.369V702h-4.659v-9.866c.007-1.028-.256-1.83-.788-2.406-.532-.583-1.265-.875-2.198-.875-.628 0-1.182.135-1.663.405-.474.27-.846.663-1.116 1.181-.262.51-.397 1.127-.404 1.849zm18.31 10.029c-1.072 0-2.027-.186-2.866-.558a4.613 4.613 0 01-1.99-1.673c-.482-.744-.722-1.67-.722-2.778 0-.934.171-1.717.514-2.352a4.16 4.16 0 011.4-1.531 6.796 6.796 0 012.012-.875 15.426 15.426 0 012.385-.416 59.34 59.34 0 002.362-.284c.598-.095 1.032-.233 1.302-.416.27-.182.404-.452.404-.809v-.066c0-.692-.218-1.228-.656-1.607-.43-.38-1.043-.569-1.837-.569-.839 0-1.506.186-2.002.558-.496.364-.824.824-.984 1.378l-4.31-.35c.219-1.021.649-1.903 1.291-2.647.642-.751 1.469-1.327 2.483-1.728 1.021-.409 2.202-.613 3.544-.613.933 0 1.826.11 2.679.328a6.994 6.994 0 012.286 1.018 4.94 4.94 0 011.586 1.771c.387.715.58 1.572.58 2.571V702h-4.419v-2.33h-.131c-.27.525-.631.988-1.083 1.389a5.001 5.001 0 01-1.63.93c-.634.219-1.367.328-2.198.328zm1.334-3.215c.686 0 1.291-.135 1.816-.405a3.214 3.214 0 001.236-1.116c.299-.466.448-.995.448-1.586v-1.782a2.522 2.522 0 01-.601.262c-.248.073-.529.142-.842.208-.314.058-.628.113-.941.164l-.853.12a5.75 5.75 0 00-1.433.383c-.408.175-.726.412-.952.711-.226.292-.339.656-.339 1.094 0 .634.23 1.119.689 1.454.467.328 1.058.493 1.772.493zM716.924 702v-16.8h4.44v2.964h.197c.35-.984.934-1.761 1.75-2.33.817-.568 1.794-.853 2.932-.853 1.152 0 2.132.288 2.942.864.809.569 1.349 1.342 1.618 2.319h.175c.343-.962.963-1.732 1.86-2.308.904-.583 1.972-.875 3.205-.875 1.567 0 2.84.5 3.817 1.499.984.991 1.476 2.399 1.476 4.222V702h-4.648v-10.38c0-.933-.248-1.633-.744-2.1-.496-.466-1.116-.7-1.859-.7-.846 0-1.506.27-1.98.81-.474.532-.711 1.236-.711 2.111V702h-4.517v-10.478c0-.824-.237-1.48-.711-1.969-.467-.488-1.083-.733-1.848-.733a2.57 2.57 0 00-1.4.394 2.7 2.7 0 00-.974 1.083c-.241.459-.361.999-.361 1.619V702h-4.659zm34.768.328c-1.728 0-3.216-.35-4.462-1.05a7.187 7.187 0 01-2.866-2.997c-.671-1.298-1.006-2.833-1.006-4.604 0-1.729.335-3.245 1.006-4.55.671-1.306 1.615-2.323 2.833-3.052 1.225-.729 2.661-1.094 4.309-1.094a8.77 8.77 0 013.095.536c.963.35 1.802.879 2.516 1.586.722.707 1.283 1.597 1.684 2.669.402 1.064.602 2.311.602 3.741v1.279h-14.186v-2.887h9.8c0-.671-.146-1.265-.437-1.783a3.134 3.134 0 00-1.214-1.214c-.511-.299-1.105-.449-1.783-.449-.708 0-1.335.164-1.882.493-.539.32-.962.754-1.268 1.301a3.677 3.677 0 00-.471 1.805v2.745c0 .831.154 1.55.46 2.155a3.357 3.357 0 001.323 1.4c.569.328 1.243.492 2.024.492.517 0 .991-.073 1.422-.219.43-.146.798-.364 1.104-.656.306-.292.54-.649.7-1.072l4.31.285a5.89 5.89 0 01-1.346 2.712c-.671.766-1.538 1.364-2.603 1.794-1.057.423-2.278.634-3.664.634zm23.749-12.337l-4.266.262a2.2 2.2 0 00-.47-.984 2.499 2.499 0 00-.952-.711c-.386-.182-.849-.274-1.389-.274-.722 0-1.33.154-1.826.46-.496.299-.744.7-.744 1.203 0 .401.16.74.481 1.017.321.277.872.5 1.652.667l3.04.613c1.634.335 2.851.875 3.654 1.618.802.744 1.203 1.721 1.203 2.932 0 1.101-.325 2.067-.974 2.898-.641.831-1.524 1.48-2.647 1.947-1.115.459-2.402.689-3.861.689-2.224 0-3.995-.463-5.315-1.389-1.313-.933-2.082-2.202-2.308-3.806l4.583-.241c.138.678.474 1.196 1.006 1.553.532.35 1.214.525 2.045.525.817 0 1.473-.156 1.969-.47.503-.321.758-.733.766-1.236-.008-.423-.186-.769-.536-1.039-.35-.277-.89-.489-1.619-.634l-2.909-.58c-1.641-.328-2.862-.897-3.664-1.706-.795-.81-1.193-1.841-1.193-3.096 0-1.079.292-2.008.875-2.789.591-.78 1.419-1.381 2.483-1.804 1.072-.423 2.326-.635 3.763-.635 2.122 0 3.791.449 5.009 1.346 1.225.896 1.94 2.118 2.144 3.664zm2.336 18.309v-23.1h4.594v2.822h.207c.205-.452.5-.912.886-1.378.394-.474.904-.868 1.532-1.181.634-.321 1.421-.482 2.362-.482 1.225 0 2.355.321 3.391.963 1.035.634 1.863 1.593 2.482 2.876.62 1.276.93 2.877.93 4.802 0 1.874-.302 3.456-.908 4.747-.598 1.283-1.414 2.257-2.45 2.92-1.028.656-2.18.984-3.456.984-.904 0-1.673-.149-2.308-.448-.627-.299-1.141-.674-1.542-1.127a5.726 5.726 0 01-.919-1.389h-.142v8.991h-4.659zm4.561-14.7c0 .999.138 1.87.415 2.614.277.744.678 1.323 1.203 1.739.525.408 1.164.613 1.915.613.758 0 1.4-.208 1.925-.624.525-.423.922-1.006 1.192-1.75.277-.751.415-1.615.415-2.592 0-.97-.135-1.823-.404-2.559-.27-.737-.668-1.313-1.193-1.729-.525-.415-1.17-.623-1.935-.623-.759 0-1.4.201-1.925.602-.518.401-.916.969-1.193 1.706-.277.736-.415 1.604-.415 2.603zm18.739 8.717c-1.072 0-2.027-.186-2.865-.558a4.61 4.61 0 01-1.991-1.673c-.481-.744-.722-1.67-.722-2.778 0-.934.171-1.717.514-2.352a4.16 4.16 0 011.4-1.531 6.813 6.813 0 012.013-.875 15.413 15.413 0 012.384-.416 59.11 59.11 0 002.362-.284c.598-.095 1.032-.233 1.302-.416.27-.182.405-.452.405-.809v-.066c0-.692-.219-1.228-.657-1.607-.43-.38-1.042-.569-1.837-.569-.839 0-1.506.186-2.002.558-.495.364-.824.824-.984 1.378l-4.309-.35c.218-1.021.649-1.903 1.29-2.647.642-.751 1.47-1.327 2.483-1.728 1.021-.409 2.202-.613 3.544-.613.933 0 1.826.11 2.68.328.86.219 1.622.558 2.285 1.018a4.94 4.94 0 011.586 1.771c.387.715.58 1.572.58 2.571V702h-4.419v-2.33h-.131c-.27.525-.631.988-1.083 1.389a5.007 5.007 0 01-1.629.93c-.635.219-1.368.328-2.199.328zm1.335-3.215c.685 0 1.29-.135 1.815-.405a3.214 3.214 0 001.236-1.116c.299-.466.449-.995.449-1.586v-1.782a2.532 2.532 0 01-.602.262c-.248.073-.529.142-.842.208-.314.058-.627.113-.941.164l-.853.12a5.763 5.763 0 00-1.433.383c-.408.175-.725.412-.951.711-.226.292-.339.656-.339 1.094 0 .634.229 1.119.689 1.454.466.328 1.057.493 1.772.493zm18.351 3.226c-1.721 0-3.201-.364-4.441-1.094a7.396 7.396 0 01-2.844-3.062c-.656-1.305-.984-2.807-.984-4.506 0-1.721.332-3.231.995-4.529.671-1.305 1.623-2.322 2.855-3.051 1.232-.737 2.698-1.105 4.397-1.105 1.465 0 2.749.266 3.85.799 1.101.532 1.972 1.279 2.614 2.242.642.962.995 2.093 1.061 3.391h-4.397c-.124-.839-.452-1.514-.984-2.024-.525-.518-1.215-.776-2.068-.776-.722 0-1.352.196-1.892.59-.532.387-.948.952-1.247 1.695-.299.744-.448 1.645-.448 2.702 0 1.072.146 1.983.437 2.734.299.751.719 1.324 1.258 1.718.54.393 1.17.59 1.892.59.533 0 1.01-.109 1.433-.328.43-.219.784-.536 1.061-.952.284-.422.47-.929.558-1.52h4.397c-.073 1.284-.423 2.414-1.05 3.391-.62.97-1.477 1.728-2.571 2.275-1.093.547-2.388.82-3.882.82zm17.161 0c-1.728 0-3.215-.35-4.462-1.05a7.187 7.187 0 01-2.866-2.997c-.671-1.298-1.006-2.833-1.006-4.604 0-1.729.335-3.245 1.006-4.55.671-1.306 1.615-2.323 2.833-3.052 1.225-.729 2.661-1.094 4.309-1.094 1.109 0 2.141.179 3.096.536.962.35 1.801.879 2.515 1.586.722.707 1.284 1.597 1.685 2.669.401 1.064.601 2.311.601 3.741v1.279h-14.186v-2.887h9.8c0-.671-.145-1.265-.437-1.783a3.134 3.134 0 00-1.214-1.214c-.511-.299-1.105-.449-1.783-.449-.707 0-1.334.164-1.881.493-.54.32-.963.754-1.269 1.301a3.676 3.676 0 00-.47 1.805v2.745c0 .831.153 1.55.459 2.155a3.37 3.37 0 001.323 1.4c.569.328 1.244.492 2.024.492a4.4 4.4 0 001.422-.219c.43-.146.798-.364 1.104-.656.307-.292.54-.649.7-1.072l4.31.285a5.888 5.888 0 01-1.345 2.712c-.671.766-1.539 1.364-2.604 1.794-1.057.423-2.278.634-3.664.634zm15.875-.328v-3.413l7.973-7.382a30.683 30.683 0 001.707-1.772c.466-.525.82-1.039 1.061-1.542.24-.511.36-1.061.36-1.652 0-.656-.149-1.221-.448-1.695a2.944 2.944 0 00-1.225-1.105c-.518-.262-1.105-.394-1.761-.394-.685 0-1.283.139-1.794.416-.51.277-.904.674-1.181 1.192-.277.518-.416 1.134-.416 1.849h-4.495c0-1.466.332-2.738.995-3.818.664-1.079 1.594-1.914 2.79-2.504 1.195-.591 2.573-.886 4.134-.886 1.604 0 3 .284 4.189.853 1.196.561 2.125 1.342 2.789 2.34.664.999.995 2.144.995 3.435 0 .846-.167 1.681-.503 2.505-.328.824-.915 1.739-1.761 2.745-.846.999-2.038 2.198-3.576 3.598l-3.271 3.205v.153h9.407V702h-15.969zM339.994 420v-31.855h12.568c2.406 0 4.459.431 6.159 1.291 1.711.851 3.012 2.059 3.904 3.625.902 1.555 1.353 3.385 1.353 5.49 0 2.115-.456 3.935-1.368 5.46-.913 1.513-2.235 2.675-3.967 3.484-1.721.808-3.805 1.213-6.252 1.213h-8.415v-5.413h7.326c1.286 0 2.354-.176 3.204-.529.85-.352 1.483-.881 1.898-1.586.425-.705.637-1.582.637-2.629 0-1.058-.212-1.949-.637-2.675-.415-.726-1.053-1.276-1.913-1.649-.851-.384-1.924-.575-3.22-.575h-4.542V420h-6.735zm17.203-14.496L365.114 420h-7.435l-7.746-14.496h7.264zm20.845 14.963c-2.416 0-4.505-.514-6.268-1.54-1.753-1.037-3.106-2.478-4.06-4.324-.954-1.856-1.431-4.008-1.431-6.455 0-2.468.477-4.625 1.431-6.471.954-1.856 2.307-3.297 4.06-4.324 1.763-1.037 3.852-1.555 6.268-1.555s4.5.518 6.253 1.555c1.763 1.027 3.121 2.468 4.075 4.324.954 1.846 1.431 4.003 1.431 6.471 0 2.447-.477 4.599-1.431 6.455-.954 1.846-2.312 3.287-4.075 4.324-1.753 1.026-3.837 1.54-6.253 1.54zm.031-5.133c1.099 0 2.017-.311 2.753-.933.737-.633 1.291-1.494 1.665-2.582.383-1.089.575-2.328.575-3.718 0-1.389-.192-2.628-.575-3.717-.374-1.089-.928-1.95-1.665-2.582-.736-.633-1.654-.949-2.753-.949-1.109 0-2.042.316-2.799.949-.747.632-1.312 1.493-1.696 2.582-.373 1.089-.56 2.328-.56 3.717 0 1.39.187 2.629.56 3.718.384 1.088.949 1.949 1.696 2.582.757.622 1.69.933 2.799.933zm25.85 5.133c-2.416 0-4.505-.514-6.268-1.54-1.753-1.037-3.106-2.478-4.06-4.324-.954-1.856-1.431-4.008-1.431-6.455 0-2.468.477-4.625 1.431-6.471.954-1.856 2.307-3.297 4.06-4.324 1.763-1.037 3.852-1.555 6.268-1.555s4.5.518 6.253 1.555c1.762 1.027 3.121 2.468 4.075 4.324.954 1.846 1.431 4.003 1.431 6.471 0 2.447-.477 4.599-1.431 6.455-.954 1.846-2.313 3.287-4.075 4.324-1.753 1.026-3.837 1.54-6.253 1.54zm.031-5.133c1.099 0 2.017-.311 2.753-.933.736-.633 1.291-1.494 1.664-2.582.384-1.089.576-2.328.576-3.718 0-1.389-.192-2.628-.576-3.717-.373-1.089-.928-1.95-1.664-2.582-.736-.633-1.654-.949-2.753-.949-1.109 0-2.043.316-2.8.949-.746.632-1.311 1.493-1.695 2.582-.373 1.089-.56 2.328-.56 3.717 0 1.39.187 2.629.56 3.718.384 1.088.949 1.949 1.695 2.582.757.622 1.691.933 2.8.933zm27.763-19.225v4.977H417.33v-4.977h14.387zm-11.121-5.724h6.626v22.274c0 .611.093 1.088.28 1.43.186.332.446.566.778.7.342.135.736.203 1.182.203.311 0 .622-.026.933-.078.311-.062.549-.109.715-.14l1.042 4.93c-.331.104-.798.223-1.399.358-.602.145-1.333.234-2.194.265-1.596.062-2.996-.151-4.199-.638-1.193-.487-2.121-1.244-2.784-2.271-.664-1.027-.991-2.323-.98-3.888v-23.145zm30.239 15.803V420h-6.626v-23.891h6.315v4.215h.28a6.663 6.663 0 012.659-3.297c1.245-.819 2.753-1.229 4.527-1.229 1.659 0 3.105.363 4.339 1.089 1.234.726 2.193 1.763 2.878 3.111.684 1.337 1.026 2.934 1.026 4.79V420h-6.626v-14.03c.011-1.462-.363-2.602-1.12-3.422-.757-.829-1.799-1.244-3.126-1.244-.892 0-1.68.192-2.364.576-.674.383-1.203.943-1.587 1.679-.373.726-.565 1.603-.575 2.629zm30.527 14.279c-2.457 0-4.573-.498-6.346-1.494-1.763-1.005-3.121-2.426-4.075-4.261-.954-1.846-1.431-4.029-1.431-6.549 0-2.457.477-4.614 1.431-6.47.954-1.856 2.297-3.303 4.029-4.34 1.742-1.037 3.784-1.555 6.128-1.555 1.576 0 3.043.254 4.402.762a9.781 9.781 0 013.577 2.255c1.027 1.006 1.825 2.271 2.395 3.796.571 1.514.856 3.287.856 5.319v1.82h-20.174v-4.106h13.937c0-.954-.208-1.799-.622-2.536a4.463 4.463 0 00-1.727-1.726c-.726-.425-1.571-.638-2.535-.638-1.006 0-1.898.233-2.676.7a4.909 4.909 0 00-1.804 1.851c-.435.767-.658 1.623-.669 2.566v3.904c0 1.183.218 2.204.654 3.065a4.787 4.787 0 001.882 1.991c.808.466 1.768.699 2.877.699.736 0 1.41-.103 2.022-.311a4.183 4.183 0 001.571-.933c.436-.415.767-.923.996-1.524l6.128.404a8.374 8.374 0 01-1.913 3.858c-.954 1.088-2.188 1.939-3.702 2.55-1.504.602-3.241.903-5.211.903zm27.017-24.358v4.977h-14.388v-4.977h14.388zm-11.122-5.724h6.626v22.274c0 .611.094 1.088.28 1.43.187.332.446.566.778.7.342.135.736.203 1.182.203.311 0 .622-.026.933-.078.312-.062.55-.109.716-.14l1.042 4.93c-.332.104-.798.223-1.4.358-.601.145-1.332.234-2.193.265-1.597.062-2.997-.151-4.199-.638-1.193-.487-2.121-1.244-2.785-2.271-.663-1.027-.99-2.323-.98-3.888v-23.145zM516.427 420l-6.502-23.891h6.704l3.702 16.052h.218l3.857-16.052h6.579l3.92 15.958h.202l3.64-15.958h6.688L538.949 420h-7.015l-4.106-15.025h-.296L523.426 420h-6.999zm41.757.467c-2.416 0-4.505-.514-6.268-1.54-1.752-1.037-3.106-2.478-4.06-4.324-.954-1.856-1.431-4.008-1.431-6.455 0-2.468.477-4.625 1.431-6.471.954-1.856 2.308-3.297 4.06-4.324 1.763-1.037 3.852-1.555 6.268-1.555s4.501.518 6.253 1.555c1.763 1.027 3.121 2.468 4.075 4.324.954 1.846 1.431 4.003 1.431 6.471 0 2.447-.477 4.599-1.431 6.455-.954 1.846-2.312 3.287-4.075 4.324-1.752 1.026-3.837 1.54-6.253 1.54zm.031-5.133c1.1 0 2.017-.311 2.753-.933.737-.633 1.291-1.494 1.665-2.582.383-1.089.575-2.328.575-3.718 0-1.389-.192-2.628-.575-3.717-.374-1.089-.928-1.95-1.665-2.582-.736-.633-1.653-.949-2.753-.949-1.109 0-2.042.316-2.799.949-.747.632-1.312 1.493-1.696 2.582-.373 1.089-.56 2.328-.56 3.717 0 1.39.187 2.629.56 3.718.384 1.088.949 1.949 1.696 2.582.757.622 1.69.933 2.799.933zM573.271 420v-23.891h6.423v4.169h.249c.436-1.483 1.167-2.603 2.193-3.36 1.027-.767 2.209-1.151 3.547-1.151.332 0 .689.021 1.073.062a7.72 7.72 0 011.011.171v5.88c-.311-.094-.741-.177-1.291-.249a11.538 11.538 0 00-1.509-.109c-.974 0-1.846.212-2.613.638a4.687 4.687 0 00-1.804 1.742c-.436.746-.653 1.607-.653 2.582V420h-6.626zm22.945-6.875l.015-7.948h.965l7.652-9.068h7.606l-10.281 12.008h-1.571l-4.386 5.008zM590.212 420v-31.855h6.626V420h-6.626zm14.932 0l-7.031-10.406 4.418-4.681L612.905 420h-7.761zm25.362-13.812V420h-6.626v-23.891h6.315v4.215h.28a6.67 6.67 0 012.66-3.297c1.244-.819 2.753-1.229 4.526-1.229 1.659 0 3.106.363 4.34 1.089s2.193 1.763 2.877 3.111c.685 1.337 1.027 2.934 1.027 4.79V420h-6.626v-14.03c.01-1.462-.363-2.602-1.12-3.422-.757-.829-1.799-1.244-3.126-1.244-.892 0-1.68.192-2.365.576-.674.383-1.203.943-1.586 1.679-.373.726-.565 1.603-.576 2.629zm26.453 14.263c-1.525 0-2.883-.264-4.075-.793-1.193-.539-2.136-1.333-2.831-2.38-.685-1.058-1.027-2.375-1.027-3.951 0-1.327.244-2.442.731-3.344a5.919 5.919 0 011.991-2.177 9.65 9.65 0 012.862-1.245 21.801 21.801 0 013.391-.591 86.776 86.776 0 003.36-.404c.85-.135 1.467-.332 1.85-.591.384-.259.576-.643.576-1.151v-.093c0-.986-.311-1.748-.933-2.287-.612-.539-1.483-.809-2.613-.809-1.193 0-2.142.265-2.847.794-.705.518-1.171 1.171-1.4 1.959l-6.128-.497c.311-1.452.923-2.707 1.835-3.764.913-1.068 2.09-1.888 3.531-2.458 1.452-.581 3.132-.871 5.04-.871 1.327 0 2.597.156 3.81.467 1.224.311 2.308.793 3.251 1.446a7.03 7.03 0 012.256 2.52c.549 1.016.824 2.234.824 3.655V420h-6.284v-3.313h-.187a6.716 6.716 0 01-1.539 1.975c-.643.56-1.416 1.001-2.318 1.322-.902.312-1.944.467-3.126.467zm1.897-4.573c.975 0 1.836-.192 2.582-.575.747-.394 1.333-.923 1.758-1.587.425-.663.638-1.415.638-2.255v-2.535a3.595 3.595 0 01-.856.373c-.352.104-.752.202-1.198.295-.445.083-.891.161-1.337.234l-1.213.171c-.778.114-1.457.295-2.038.544-.581.249-1.032.586-1.353 1.011-.322.415-.482.933-.482 1.556 0 .902.326 1.591.98 2.068.663.467 1.503.7 2.519.7zM674.573 420v-23.891h6.315v4.215h.28c.497-1.4 1.327-2.504 2.488-3.313 1.162-.809 2.551-1.213 4.169-1.213 1.638 0 3.033.41 4.184 1.229 1.151.809 1.918 1.908 2.302 3.297h.249c.487-1.369 1.368-2.462 2.644-3.282 1.285-.829 2.805-1.244 4.557-1.244 2.229 0 4.039.71 5.428 2.131 1.4 1.41 2.1 3.411 2.1 6.004V420h-6.61v-14.761c0-1.327-.353-2.322-1.058-2.986-.705-.664-1.586-.996-2.644-.996-1.203 0-2.141.384-2.815 1.151-.674.757-1.011 1.758-1.011 3.002V420h-6.424v-14.901c0-1.171-.337-2.105-1.011-2.799-.664-.695-1.54-1.043-2.629-1.043-.736 0-1.4.187-1.991.56-.58.363-1.042.877-1.384 1.54-.342.654-.513 1.421-.513 2.302V420h-6.626zm49.857.467c-2.458 0-4.573-.498-6.346-1.494-1.763-1.005-3.121-2.426-4.075-4.261-.954-1.846-1.431-4.029-1.431-6.549 0-2.457.477-4.614 1.431-6.47.954-1.856 2.297-3.303 4.028-4.34 1.742-1.037 3.785-1.555 6.128-1.555 1.577 0 3.044.254 4.402.762a9.785 9.785 0 013.578 2.255c1.026 1.006 1.825 2.271 2.395 3.796.57 1.514.855 3.287.855 5.319v1.82h-20.173v-4.106h13.936c0-.954-.207-1.799-.622-2.536a4.46 4.46 0 00-1.726-1.726c-.726-.425-1.571-.638-2.536-.638-1.005 0-1.897.233-2.675.7a4.902 4.902 0 00-1.804 1.851c-.436.767-.659 1.623-.669 2.566v3.904c0 1.183.218 2.204.653 3.065a4.787 4.787 0 001.882 1.991c.809.466 1.768.699 2.878.699.736 0 1.41-.103 2.022-.311a4.19 4.19 0 001.571-.933c.435-.415.767-.923.995-1.524l6.128.404c-.311 1.473-.948 2.758-1.913 3.858-.954 1.088-2.188 1.939-3.702 2.55-1.503.602-3.24.903-5.21.903zm34.187-17.545l-6.066.373a3.145 3.145 0 00-.669-1.4c-.342-.425-.794-.762-1.353-1.011-.55-.259-1.209-.389-1.976-.389-1.026 0-1.892.218-2.597.654-.705.425-1.058.995-1.058 1.711 0 .57.228 1.052.684 1.446.457.394 1.239.71 2.349.949l4.324.871c2.323.477 4.054 1.244 5.195 2.302s1.711 2.447 1.711 4.168c0 1.566-.461 2.94-1.384 4.122-.913 1.182-2.168 2.105-3.764 2.769-1.587.653-3.417.98-5.491.98-3.163 0-5.682-.659-7.559-1.976-1.867-1.327-2.961-3.131-3.282-5.413l6.517-.342c.197.965.674 1.701 1.431 2.209.757.498 1.727.747 2.909.747 1.161 0 2.094-.223 2.799-.669.716-.457 1.079-1.042 1.089-1.758-.01-.601-.264-1.094-.762-1.477-.498-.395-1.265-.695-2.302-.903l-4.137-.824c-2.333-.467-4.07-1.275-5.211-2.426-1.13-1.151-1.695-2.619-1.695-4.402 0-1.535.414-2.857 1.244-3.966.84-1.11 2.017-1.965 3.531-2.567 1.524-.601 3.308-.902 5.35-.902 3.018 0 5.392.638 7.124 1.913 1.742 1.276 2.758 3.012 3.049 5.211zm3.735 26.037v-32.85h6.533v4.013h.296c.29-.643.71-1.296 1.259-1.96.56-.674 1.286-1.234 2.178-1.68.902-.456 2.022-.684 3.36-.684 1.742 0 3.349.456 4.821 1.369 1.473.902 2.65 2.265 3.531 4.09.882 1.815 1.322 4.091 1.322 6.829 0 2.665-.43 4.915-1.291 6.75-.85 1.825-2.011 3.209-3.484 4.153-1.462.933-3.1 1.4-4.915 1.4-1.286 0-2.38-.213-3.282-.638-.891-.425-1.623-.959-2.193-1.602-.57-.653-1.006-1.312-1.306-1.975h-.203v12.785h-6.626zm6.486-20.904c0 1.42.197 2.659.591 3.717.395 1.058.965 1.882 1.711 2.473.747.581 1.654.871 2.722.871 1.079 0 1.991-.295 2.738-.887.746-.601 1.312-1.43 1.695-2.488.394-1.068.591-2.297.591-3.686 0-1.38-.192-2.593-.575-3.64-.384-1.047-.949-1.867-1.696-2.458-.746-.591-1.664-.886-2.753-.886-1.078 0-1.991.285-2.737.855-.736.571-1.301 1.379-1.696 2.427-.394 1.047-.591 2.281-.591 3.702zm27.063 12.396c-1.524 0-2.882-.264-4.075-.793-1.192-.539-2.136-1.333-2.831-2.38-.684-1.058-1.026-2.375-1.026-3.951 0-1.327.244-2.442.731-3.344a5.91 5.91 0 011.991-2.177 9.65 9.65 0 012.862-1.245 21.788 21.788 0 013.39-.591c1.39-.145 2.51-.28 3.36-.404.85-.135 1.467-.332 1.851-.591.384-.259.576-.643.576-1.151v-.093c0-.986-.312-1.748-.934-2.287-.611-.539-1.482-.809-2.613-.809-1.192 0-2.141.265-2.846.794-.705.518-1.172 1.171-1.4 1.959l-6.128-.497c.311-1.452.923-2.707 1.835-3.764.913-1.068 2.09-1.888 3.531-2.458 1.452-.581 3.131-.871 5.039-.871 1.328 0 2.598.156 3.811.467 1.224.311 2.307.793 3.251 1.446a7.019 7.019 0 012.255 2.52c.55 1.016.825 2.234.825 3.655V420h-6.284v-3.313h-.187a6.736 6.736 0 01-1.54 1.975c-.643.56-1.415 1.001-2.317 1.322-.902.312-1.945.467-3.127.467zm1.898-4.573c.975 0 1.835-.192 2.582-.575.747-.394 1.332-.923 1.758-1.587.425-.663.637-1.415.637-2.255v-2.535a3.567 3.567 0 01-.855.373c-.353.104-.752.202-1.198.295-.446.083-.892.161-1.338.234l-1.213.171c-.777.114-1.457.295-2.037.544-.581.249-1.032.586-1.354 1.011-.321.415-.482.933-.482 1.556 0 .902.327 1.591.98 2.068.664.467 1.504.7 2.52.7zm26.511 4.589c-2.447 0-4.552-.519-6.315-1.556-1.753-1.047-3.101-2.499-4.044-4.355-.933-1.856-1.4-3.992-1.4-6.408 0-2.447.472-4.594 1.415-6.439.954-1.857 2.307-3.303 4.06-4.34 1.752-1.047 3.837-1.571 6.253-1.571 2.084 0 3.909.378 5.475 1.135 1.565.757 2.804 1.82 3.717 3.189.912 1.369 1.415 2.976 1.509 4.822h-6.253c-.176-1.193-.643-2.152-1.4-2.878-.746-.736-1.726-1.104-2.94-1.104-1.026 0-1.923.28-2.69.84-.757.549-1.348 1.353-1.774 2.411-.425 1.057-.637 2.338-.637 3.842 0 1.524.207 2.82.622 3.888.425 1.068 1.021 1.882 1.789 2.442.767.56 1.664.84 2.69.84.757 0 1.437-.156 2.038-.467a3.934 3.934 0 001.509-1.353c.404-.601.669-1.322.793-2.162h6.253c-.104 1.825-.602 3.432-1.493 4.822-.882 1.379-2.1 2.457-3.656 3.235-1.555.778-3.396 1.167-5.521 1.167zm24.819 0c-2.458 0-4.573-.498-6.346-1.494-1.763-1.005-3.121-2.426-4.075-4.261-.954-1.846-1.431-4.029-1.431-6.549 0-2.457.477-4.614 1.431-6.47.954-1.856 2.297-3.303 4.028-4.34 1.742-1.037 3.785-1.555 6.129-1.555 1.576 0 3.043.254 4.401.762a9.777 9.777 0 013.578 2.255c1.026 1.006 1.825 2.271 2.395 3.796.57 1.514.856 3.287.856 5.319v1.82h-20.174v-4.106h13.936c0-.954-.207-1.799-.622-2.536a4.46 4.46 0 00-1.726-1.726c-.726-.425-1.571-.638-2.536-.638-1.005 0-1.897.233-2.675.7a4.902 4.902 0 00-1.804 1.851c-.436.767-.659 1.623-.669 2.566v3.904c0 1.183.218 2.204.653 3.065a4.793 4.793 0 001.882 1.991c.809.466 1.768.699 2.878.699.736 0 1.41-.103 2.022-.311a4.19 4.19 0 001.571-.933c.435-.415.767-.923.995-1.524l6.129.404c-.312 1.473-.949 2.758-1.914 3.858-.954 1.088-2.188 1.939-3.701 2.55-1.504.602-3.241.903-5.211.903z" fill="#AD9E6A"></path><rect x="490.4" y="83.4" width="224" height="116.2" rx="5.6" fill="#D6E9CE" stroke="#7C9D6E" stroke-width="2.8"></rect><path d="M566.234 137.683c6.111 0 10.228-2.976 11.193-7.56l-6.336-.418c-.692 1.882-2.461 2.863-4.745 2.863-3.426 0-5.597-2.268-5.597-5.951v-.016h16.823v-1.881c0-8.396-5.082-12.545-11.612-12.545-7.269 0-11.982 5.162-11.982 12.786 0 7.832 4.648 12.722 12.256 12.722zm-5.485-15.328c.145-2.814 2.284-5.066 5.324-5.066 2.975 0 5.034 2.123 5.05 5.066h-10.374zm32.992-9.859h-4.648v-5.918h-6.852v5.918h-3.377v5.147h3.377v12.866c-.032 4.841 3.265 7.238 8.235 7.029 1.769-.065 3.023-.418 3.715-.644l-1.078-5.098c-.337.064-1.061.225-1.704.225-1.367 0-2.316-.514-2.316-2.412v-11.966h4.648v-5.147zm10.403 10.422c.016-3.184 1.962-5.05 4.76-5.05 2.783 0 4.423 1.785 4.407 4.825V137.2h6.851v-15.729c.016-5.79-3.393-9.296-8.54-9.296-3.747 0-6.256 1.769-7.382 4.68h-.289v-12.593h-6.659V137.2h6.852v-14.282zm32.818 15.006c8.283 0 13.285-6.305 13.301-17.161.016-10.776-5.05-16.951-13.301-16.951-8.266 0-13.284 6.159-13.3 16.951-.033 10.824 5.001 17.145 13.3 17.161zm0-5.774c-3.779 0-6.224-3.796-6.208-11.387.016-7.479 2.445-11.242 6.208-11.242 3.748 0 6.192 3.763 6.192 11.242.016 7.591-2.428 11.387-6.192 11.387zm-99.246 22.894h-4.523l-5.633 3.566v4.267l5.211-3.267h.133v18.19h4.812v-22.756zm13.779 23.256c5.722 0 9.178-4.356 9.189-11.856.011-7.445-3.489-11.711-9.189-11.711-5.711 0-9.178 4.255-9.189 11.711-.023 7.478 3.455 11.845 9.189 11.856zm0-3.989c-2.611 0-4.3-2.622-4.289-7.867.011-5.167 1.689-7.767 4.289-7.767 2.589 0 4.278 2.6 4.278 7.767.011 5.245-1.678 7.867-4.278 7.867zm13.932 3.778c1.422 0 2.656-1.189 2.667-2.667-.011-1.455-1.245-2.644-2.667-2.644-1.467 0-2.678 1.189-2.667 2.644-.011 1.478 1.2 2.667 2.667 2.667zm13.015-23.045h-4.522l-5.634 3.566v4.267l5.212-3.267h.133v18.19h4.811v-22.756zm13.779 23.256c5.723 0 9.179-4.356 9.19-11.856.011-7.445-3.489-11.711-9.19-11.711-5.711 0-9.178 4.255-9.189 11.711-.022 7.478 3.456 11.845 9.189 11.856zm0-3.989c-2.611 0-4.3-2.622-4.289-7.867.011-5.167 1.689-7.767 4.289-7.767 2.589 0 4.278 2.6 4.278 7.767.011 5.245-1.677 7.867-4.278 7.867zm20.991 3.989c5.722 0 9.178-4.356 9.189-11.856.011-7.445-3.489-11.711-9.189-11.711-5.711 0-9.178 4.255-9.189 11.711-.022 7.478 3.455 11.845 9.189 11.856zm0-3.989c-2.611 0-4.3-2.622-4.289-7.867.011-5.167 1.689-7.767 4.289-7.767 2.589 0 4.278 2.6 4.278 7.767.011 5.245-1.678 7.867-4.278 7.867zm13.932 3.778c1.422 0 2.656-1.189 2.667-2.667-.011-1.455-1.245-2.644-2.667-2.644-1.467 0-2.678 1.189-2.667 2.644-.011 1.478 1.2 2.667 2.667 2.667zm13.932.211c5.722 0 9.178-4.356 9.189-11.856.011-7.445-3.489-11.711-9.189-11.711-5.711 0-9.178 4.255-9.189 11.711-.022 7.478 3.455 11.845 9.189 11.856zm0-3.989c-2.611 0-4.3-2.622-4.289-7.867.011-5.167 1.689-7.767 4.289-7.767 2.589 0 4.278 2.6 4.278 7.767.011 5.245-1.678 7.867-4.278 7.867zm13.932 3.778c1.422 0 2.656-1.189 2.667-2.667-.011-1.455-1.245-2.644-2.667-2.644-1.467 0-2.678 1.189-2.667 2.644-.011 1.478 1.2 2.667 2.667 2.667zm5.957-.289h16.222v-3.933h-9.555v-.156l3.322-3.256c4.678-4.267 5.933-6.4 5.933-8.989 0-3.945-3.222-6.733-8.1-6.733-4.778 0-8.056 2.855-8.045 7.322h4.567c-.011-2.178 1.367-3.511 3.445-3.511 2 0 3.489 1.244 3.489 3.244 0 1.811-1.111 3.056-3.178 5.045l-8.1 7.5v3.467z" fill="#000"></path></svg>