<svg viewBox="0 0 1200 900" fill="none" xmlns="http://www.w3.org/2000/svg"><path fill="#fff" d="M0 0h1200v900H0z"></path><rect x="641.98" y="273.98" width="487.04" height="487.04" rx="18.62" fill="#CEE2F6" stroke="#76AADF" stroke-width="1.96"></rect><rect x="677.98" y="273.98" width="417.04" height="260.04" rx="3.92" fill="#FFF2C5" stroke="#AD9E6A" stroke-width="1.96"></rect><rect x="677.98" y="571.98" width="176.04" height="157.04" rx="3.92" fill="#FFF2C5" stroke="#AD9E6A" stroke-width="1.96"></rect><rect x="697.98" y="571.98" width="156.8" height="81.34" rx="3.92" fill="#D6E9CE" stroke="#7C9D6E" stroke-width="1.96"></rect><path d="M751.563 610.178c4.278 0 7.161-2.083 7.836-5.292l-4.436-.292c-.484 1.317-1.722 2.003-3.321 2.003-2.398 0-3.918-1.587-3.918-4.165v-.011H759.5v-1.317c0-5.877-3.557-8.782-8.128-8.782-5.089 0-8.387 3.614-8.387 8.95 0 5.483 3.253 8.906 8.578 8.906zm-3.839-10.729c.102-1.971 1.599-3.547 3.727-3.547 2.083 0 3.524 1.486 3.535 3.547h-7.262zm23.094-6.902h-3.253v-4.143h-4.796v4.143h-2.364v3.603h2.364v9.006c-.023 3.389 2.285 5.067 5.764 4.92a9.322 9.322 0 002.601-.45l-.755-3.569c-.236.045-.743.158-1.193.158-.957 0-1.621-.361-1.621-1.689v-8.376h3.253v-3.603zm7.282 7.296c.012-2.23 1.374-3.535 3.333-3.535 1.947 0 3.096 1.249 3.085 3.377v10.155h4.796v-11.011c.011-4.053-2.376-6.507-5.979-6.507-2.623 0-4.379 1.239-5.167 3.276h-.203v-8.815h-4.661v23.057h4.796v-9.997zm22.973 10.503c5.798 0 9.3-4.413 9.311-12.012.011-7.543-3.535-11.866-9.311-11.866-5.786 0-9.299 4.312-9.31 11.866-.023 7.577 3.501 12.001 9.31 12.012zm0-4.041c-2.645 0-4.356-2.657-4.345-7.971.011-5.235 1.711-7.869 4.345-7.869 2.624 0 4.335 2.634 4.335 7.869.011 5.314-1.7 7.971-4.335 7.971zm-63.141 15.826h-3.165l-3.944 2.496v2.987l3.648-2.287h.093v12.733h3.368v-15.929zm4.03 15.929h3.477l6.611-13.137v-2.792h-11.177v2.753h7.692v.109l-6.603 13.067zm12.01 0h11.356v-2.753h-6.689v-.109l2.325-2.279c3.275-2.987 4.154-4.48 4.154-6.293 0-2.761-2.256-4.713-5.67-4.713-3.345 0-5.639 1.999-5.632 5.126h3.197c-.008-1.525.957-2.458 2.411-2.458 1.4 0 2.443.871 2.443 2.271 0 1.268-.778 2.139-2.225 3.531l-5.67 5.25v2.427zm15.378.202c.995 0 1.859-.832 1.866-1.866-.007-1.019-.871-1.852-1.866-1.852-1.027 0-1.875.833-1.867 1.852a1.862 1.862 0 001.867 1.866zm9.11-16.131h-3.165l-3.944 2.496v2.987l3.648-2.287h.094v12.733h3.367v-15.929zm4.03 15.929h3.477l6.611-13.137v-2.792h-11.177v2.753h7.693v.109l-6.604 13.067zm11.24.202c.996 0 1.859-.832 1.867-1.866-.008-1.019-.871-1.852-1.867-1.852-1.027 0-1.874.833-1.867 1.852a1.862 1.862 0 001.867 1.866zm9.111-16.131h-3.166l-3.943 2.496v2.987l3.648-2.287h.093v12.733h3.368v-15.929zm4.533 16.131c.996 0 1.859-.832 1.867-1.866-.008-1.019-.871-1.852-1.867-1.852-1.027 0-1.874.833-1.867 1.852a1.862 1.862 0 001.867 1.866zm4.17-.202H822.9v-2.753h-6.689v-.109l2.325-2.279c3.275-2.987 4.154-4.48 4.154-6.293 0-2.761-2.256-4.713-5.67-4.713-3.345 0-5.64 1.999-5.632 5.126h3.197c-.008-1.525.957-2.458 2.411-2.458 1.4 0 2.443.871 2.443 2.271 0 1.268-.778 2.139-2.225 3.531l-5.67 5.25v2.427z" fill="#000"></path><rect x="697.98" y="482.98" width="156.8" height="51.94" rx="3.92" fill="#D6E9CE" stroke="#7C9D6E" stroke-width="1.96"></rect><path d="M750.815 501.727h-5.077l-3.58 12.373h-.18l-3.592-12.373h-5.066l6.046 17.293h5.404l6.045-17.293zm8.737 17.631c4.278 0 7.161-2.083 7.836-5.292l-4.436-.292c-.484 1.317-1.722 2.004-3.321 2.004-2.398 0-3.918-1.588-3.918-4.166v-.011h11.776v-1.317c0-5.877-3.557-8.782-8.128-8.782-5.089 0-8.387 3.614-8.387 8.951 0 5.482 3.253 8.905 8.578 8.905zm-3.839-10.729c.102-1.97 1.599-3.547 3.727-3.547 2.083 0 3.524 1.486 3.535 3.547h-7.262zm23.094-6.902h-3.253v-4.143h-4.796v4.143h-2.364v3.603h2.364v9.007c-.023 3.388 2.285 5.066 5.764 4.919a9.322 9.322 0 002.601-.45l-.755-3.569c-.236.045-.743.158-1.193.158-.957 0-1.621-.36-1.621-1.689v-8.376h3.253v-3.603zm7.282 7.296c.012-2.229 1.374-3.535 3.333-3.535 1.947 0 3.096 1.249 3.085 3.377v10.155h4.796v-11.01c.011-4.053-2.376-6.508-5.979-6.508-2.623 0-4.379 1.239-5.167 3.276h-.203v-8.815h-4.661v23.057h4.796v-9.997zm22.973 10.504c5.798 0 9.3-4.414 9.311-12.013.011-7.543-3.535-11.866-9.311-11.866-5.786 0-9.299 4.312-9.31 11.866-.023 7.577 3.501 12.001 9.31 12.013zm0-4.042c-2.645 0-4.356-2.657-4.345-7.971.011-5.235 1.711-7.869 4.345-7.869 2.624 0 4.335 2.634 4.335 7.869.011 5.314-1.7 7.971-4.335 7.971z" fill="#000"></path><rect x="917.98" y="571.98" width="176.04" height="157.04" rx="3.92" fill="#FFF2C5" stroke="#AD9E6A" stroke-width="1.96"></rect><rect x="917.98" y="571.98" width="156.8" height="81.34" rx="3.92" fill="#D6E9CE" stroke="#7C9D6E" stroke-width="1.96"></rect><path d="M971.563 610.178c4.278 0 7.161-2.083 7.836-5.292l-4.436-.292c-.484 1.317-1.722 2.003-3.321 2.003-2.398 0-3.918-1.587-3.918-4.165v-.011H979.5v-1.317c0-5.877-3.557-8.782-8.128-8.782-5.089 0-8.387 3.614-8.387 8.95 0 5.483 3.253 8.906 8.578 8.906zm-3.839-10.729c.102-1.971 1.599-3.547 3.727-3.547 2.083 0 3.524 1.486 3.535 3.547h-7.262zm23.094-6.902h-3.253v-4.143h-4.796v4.143h-2.364v3.603h2.364v9.006c-.023 3.389 2.285 5.067 5.764 4.92a9.322 9.322 0 002.601-.45l-.755-3.569c-.236.045-.743.158-1.193.158-.957 0-1.621-.361-1.621-1.689v-8.376h3.253v-3.603zm7.282 7.296c.012-2.23 1.374-3.535 3.33-3.535 1.95 0 3.1 1.249 3.09 3.377v10.155h4.79v-11.011c.01-4.053-2.37-6.507-5.97-6.507-2.63 0-4.384 1.239-5.172 3.276h-.203v-8.815h-4.661v23.057h4.796v-9.997zm22.97 10.503c5.8 0 9.3-4.413 9.31-12.012.02-7.543-3.53-11.866-9.31-11.866-5.78 0-9.3 4.312-9.31 11.866-.02 7.577 3.5 12.001 9.31 12.012zm0-4.041c-2.64 0-4.35-2.657-4.34-7.971.01-5.235 1.71-7.869 4.34-7.869s4.34 2.634 4.34 7.869c.01 5.314-1.7 7.971-4.34 7.971zm-63.213 15.826h-3.165l-3.944 2.496v2.987l3.648-2.287h.093v12.733h3.368v-15.929zm4.03 15.929h3.477l6.611-13.137v-2.792h-11.177v2.753h7.693v.109l-6.604 13.067zm12.01 0h11.356v-2.753h-6.689v-.109l2.325-2.279c3.275-2.987 4.154-4.48 4.154-6.293 0-2.761-2.256-4.713-5.67-4.713-3.345 0-5.639 1.999-5.632 5.126h3.197c-.008-1.525.957-2.458 2.411-2.458 1.4 0 2.443.871 2.443 2.271 0 1.268-.778 2.139-2.225 3.531l-5.67 5.25v2.427zm15.378.202c.995 0 1.859-.832 1.867-1.866-.008-1.019-.872-1.852-1.867-1.852-1.027 0-1.875.833-1.867 1.852a1.862 1.862 0 001.867 1.866zm9.111-16.131h-3.166l-3.944 2.496v2.987l3.648-2.287h.094v12.733h3.368v-15.929zm4.034 15.929h3.47l6.61-13.137v-2.792h-11.17v2.753h7.69v.109l-6.6 13.067zm11.24.202c.99 0 1.85-.832 1.86-1.866-.01-1.019-.87-1.852-1.86-1.852-1.03 0-1.88.833-1.87 1.852-.01 1.034.84 1.866 1.87 1.866zm9.11-16.131h-3.17l-3.94 2.496v2.987l3.64-2.287h.1v12.733h3.37v-15.929zm4.53 16.131c.99 0 1.86-.832 1.87-1.866-.01-1.019-.88-1.852-1.87-1.852-1.03 0-1.88.833-1.87 1.852-.01 1.034.84 1.866 1.87 1.866zm9.56.016c3.58 0 6.14-1.968 6.13-4.69.01-1.984-1.25-3.399-3.59-3.695v-.124c1.78-.319 3.01-1.579 3-3.368.01-2.513-2.19-4.488-5.49-4.488-3.27 0-5.72 1.913-5.77 4.667h3.23c.04-1.214 1.15-1.999 2.53-1.999 1.36 0 2.27.824 2.26 2.022.01 1.252-1.06 2.1-2.59 2.1h-1.49v2.473h1.49c1.8 0 2.93.903 2.92 2.186.01 1.268-1.08 2.139-2.62 2.139-1.48 0-2.6-.778-2.66-1.944h-3.39c.06 2.784 2.54 4.721 6.04 4.721z" fill="#000"></path><rect x="917.98" y="482.98" width="156.8" height="51.94" rx="3.92" fill="#D6E9CE" stroke="#7C9D6E" stroke-width="1.96"></rect><path d="M974.608 501.727h-5.078l-3.58 12.373h-.18l-3.591-12.373h-5.066l6.045 17.293h5.404l6.046-17.293zm8.737 17.631c4.278 0 7.16-2.083 7.836-5.292l-4.436-.292c-.484 1.317-1.723 2.004-3.321 2.004-2.398 0-3.918-1.588-3.918-4.166v-.011h11.776v-1.317c0-5.877-3.558-8.782-8.128-8.782-5.089 0-8.388 3.614-8.388 8.951 0 5.482 3.254 8.905 8.579 8.905zm-3.839-10.729c.101-1.97 1.599-3.547 3.726-3.547 2.083 0 3.524 1.486 3.535 3.547h-7.261zm23.094-6.902h-3.254v-4.143h-4.796v4.143h-2.364v3.603h2.364v9.007c-.022 3.388 2.286 5.066 5.76 4.919a9.434 9.434 0 002.61-.45l-.76-3.569c-.24.045-.74.158-1.19.158-.96 0-1.624-.36-1.624-1.689v-8.376h3.254v-3.603zm7.28 7.296c.01-2.229 1.38-3.535 3.33-3.535 1.95 0 3.1 1.249 3.09 3.377v10.155h4.8v-11.01c.01-4.053-2.38-6.508-5.98-6.508-2.63 0-4.38 1.239-5.17 3.276h-.2v-8.815h-4.66v23.057h4.79v-9.997zm22.7-13.06h-4.59l-5.7 3.614v4.323l5.28-3.31h.13v18.43h4.88v-23.057zm-177.844 283.98V803h-4.211l-10.031-14.512h-.169V803h-4.875v-23.057h4.278l9.953 14.501h.202v-14.501h4.853zm10.741 23.395c-1.749 0-3.262-.372-4.537-1.115-1.269-.75-2.248-1.794-2.939-3.13-.69-1.343-1.036-2.9-1.036-4.672 0-1.786.346-3.347 1.036-4.683.691-1.344 1.67-2.387 2.939-3.13 1.275-.75 2.788-1.126 4.537-1.126 1.748 0 3.257.376 4.525 1.126 1.276.743 2.26 1.786 2.95 3.13.691 1.336 1.036 2.897 1.036 4.683 0 1.772-.345 3.329-1.036 4.672a7.6 7.6 0 01-2.95 3.13c-1.268.743-2.777 1.115-4.525 1.115zm.022-3.715c.796 0 1.46-.226 1.993-.676.533-.458.934-1.081 1.204-1.869.278-.788.417-1.685.417-2.69 0-1.006-.139-1.903-.417-2.691-.27-.788-.671-1.411-1.204-1.869-.533-.458-1.197-.687-1.993-.687-.803 0-1.478.229-2.026.687-.541.458-.95 1.081-1.227 1.869-.271.788-.406 1.685-.406 2.691 0 1.005.135 1.902.406 2.69.277.788.686 1.411 1.227 1.869.548.45 1.223.676 2.026.676zm16.97 3.658c-1.314 0-2.503-.337-3.569-1.013-1.058-.683-1.899-1.685-2.522-3.006-.615-1.328-.923-2.957-.923-4.886 0-1.981.319-3.629.957-4.942.638-1.321 1.486-2.308 2.544-2.961a6.525 6.525 0 013.502-.991c.968 0 1.775.165 2.42.496.653.322 1.178.728 1.576 1.216.405.48.713.953.923 1.418h.147v-8.669h4.784V803h-4.728v-2.77h-.203a6.16 6.16 0 01-.957 1.43c-.405.466-.934.852-1.587 1.16-.645.308-1.434.461-2.364.461zm1.52-3.816c.773 0 1.426-.21 1.959-.631.54-.427.953-1.024 1.238-1.79.293-.765.439-1.662.439-2.69 0-1.029-.143-1.922-.428-2.68-.285-.758-.698-1.343-1.238-1.756-.541-.413-1.197-.619-1.97-.619-.788 0-1.453.214-1.993.642-.54.427-.95 1.02-1.227 1.778-.278.758-.417 1.637-.417 2.635 0 1.005.139 1.895.417 2.668.285.765.694 1.366 1.227 1.801.54.428 1.205.642 1.993.642zm19.134 3.873c-1.779 0-3.31-.361-4.594-1.081a7.394 7.394 0 01-2.949-3.085c-.691-1.336-1.036-2.916-1.036-4.739 0-1.779.345-3.34 1.036-4.684.69-1.343 1.662-2.39 2.916-3.141 1.26-.75 2.739-1.126 4.435-1.126 1.141 0 2.203.184 3.186.552.991.36 1.854.904 2.59 1.632.743.728 1.321 1.644 1.733 2.747.413 1.096.62 2.38.62 3.851v1.317h-14.602v-2.972h10.087c0-.691-.15-1.302-.45-1.835-.3-.533-.717-.95-1.25-1.25-.525-.308-1.137-.462-1.835-.462-.728 0-1.373.169-1.936.507-.556.33-.991.777-1.306 1.34a3.766 3.766 0 00-.484 1.857v2.826c0 .856.157 1.595.472 2.218a3.462 3.462 0 001.363 1.441c.585.338 1.279.507 2.082.507.533 0 1.021-.075 1.464-.226.443-.15.822-.375 1.137-.675.315-.3.555-.668.721-1.103l4.435.292a6.05 6.05 0 01-1.384 2.792c-.691.789-1.584 1.404-2.68 1.847-1.088.435-2.345.653-3.771.653zm16.475-.338v-23.057h9.231c1.697 0 3.111.252 4.245.755 1.133.502 1.985 1.2 2.555 2.094.571.885.856 1.906.856 3.062 0 .9-.18 1.692-.54 2.375a4.66 4.66 0 01-1.487 1.666 6.07 6.07 0 01-2.139.912v.226c.879.037 1.7.285 2.466.743.773.457 1.4 1.099 1.88 1.925.48.818.721 1.794.721 2.927 0 1.223-.304 2.315-.912 3.276-.601.953-1.49 1.707-2.668 2.263-1.179.555-2.631.833-4.357.833h-9.851zm4.874-3.985h3.975c1.358 0 2.349-.259 2.972-.777.623-.526.934-1.224.934-2.094 0-.638-.154-1.201-.461-1.689-.308-.488-.747-.871-1.318-1.148-.562-.278-1.234-.417-2.015-.417h-4.087v6.125zm0-9.423h3.614c.668 0 1.261-.117 1.779-.349a2.966 2.966 0 001.239-1.014c.307-.435.461-.957.461-1.565 0-.833-.296-1.504-.889-2.015-.586-.51-1.419-.765-2.5-.765h-3.704v5.708z" fill="#000"></path><path d="M710.405 752v-15.68h6.186c1.189 0 2.202.227 3.039.681a4.61 4.61 0 011.914 1.876c.445.796.667 1.715.667 2.756 0 1.042-.225 1.96-.674 2.757-.449.796-1.1 1.416-1.953 1.86-.847.444-1.873.666-3.077.666h-3.943v-2.656h3.407c.638 0 1.163-.11 1.577-.33a2.18 2.18 0 00.934-.926c.209-.398.314-.855.314-1.371 0-.52-.105-.974-.314-1.362a2.096 2.096 0 00-.934-.911c-.419-.22-.949-.33-1.593-.33h-2.235V752h-3.315zm18.335.23c-1.189 0-2.218-.253-3.085-.758a5.19 5.19 0 01-1.999-2.129c-.469-.913-.704-1.972-.704-3.177 0-1.215.235-2.277.704-3.185a5.13 5.13 0 011.999-2.129c.867-.51 1.896-.765 3.085-.765s2.215.255 3.078.765a5.115 5.115 0 012.006 2.129c.469.908.704 1.97.704 3.185 0 1.205-.235 2.264-.704 3.177a5.175 5.175 0 01-2.006 2.129c-.863.505-1.889.758-3.078.758zm.015-2.527c.541 0 .993-.153 1.355-.459.363-.312.636-.735.82-1.271.189-.536.283-1.146.283-1.83 0-.684-.094-1.294-.283-1.83-.184-.536-.457-.959-.82-1.271-.362-.311-.814-.467-1.355-.467-.546 0-1.005.156-1.378.467-.367.312-.646.735-.834 1.271-.184.536-.276 1.146-.276 1.83 0 .684.092 1.294.276 1.83.188.536.467.959.834 1.271.373.306.832.459 1.378.459zm11.541 2.488a4.43 4.43 0 01-2.427-.689c-.72-.464-1.292-1.146-1.715-2.044-.419-.903-.628-2.011-.628-3.323 0-1.347.217-2.468.651-3.361.433-.898 1.01-1.569 1.73-2.013a4.426 4.426 0 012.381-.674c.658 0 1.207.112 1.646.337.444.219.801.495 1.072.827.276.326.485.648.628.964h.099v-5.895h3.254V752h-3.215v-1.883h-.138c-.153.326-.37.65-.651.972a3.238 3.238 0 01-1.079.788c-.439.21-.975.314-1.608.314zm1.033-2.595c.526 0 .97-.143 1.332-.429.368-.291.649-.697.843-1.217.199-.521.298-1.131.298-1.83 0-.699-.097-1.307-.291-1.822-.194-.516-.474-.914-.842-1.195-.367-.28-.814-.421-1.34-.421-.536 0-.987.146-1.355.437-.367.291-.646.694-.834 1.209-.189.516-.284 1.113-.284 1.792 0 .684.095 1.289.284 1.815.194.52.472.928.834 1.225.368.29.819.436 1.355.436zm13.418 2.618c-1.143 0-2.161-.196-3.054-.589-.889-.398-1.59-.944-2.106-1.639-.51-.699-.773-1.505-.789-2.419h3.339c.02.383.145.72.375 1.011.235.285.546.508.934.666.388.158.824.237 1.309.237.505 0 .952-.089 1.34-.268.388-.179.692-.426.911-.743.219-.316.329-.681.329-1.094 0-.419-.117-.789-.352-1.111-.23-.326-.561-.581-.995-.765-.429-.184-.939-.276-1.532-.276h-1.462v-2.434h1.462c.501 0 .942-.087 1.325-.261.388-.173.689-.413.903-.719.215-.312.322-.674.322-1.088 0-.393-.094-.737-.283-1.033a1.877 1.877 0 00-.781-.705c-.332-.168-.72-.252-1.164-.252-.449 0-.86.081-1.233.245a2.15 2.15 0 00-.895.681 1.788 1.788 0 00-.36 1.041h-3.178c.016-.903.273-1.699.774-2.388.5-.689 1.174-1.228 2.021-1.616.852-.393 1.814-.589 2.886-.589 1.082 0 2.029.196 2.841.589.811.393 1.442.924 1.891 1.593.454.663.679 1.408.674 2.235.005.878-.268 1.611-.82 2.198-.546.587-1.258.959-2.136 1.117v.123c1.154.148 2.032.549 2.634 1.202.607.648.909 1.46.904 2.435a3.825 3.825 0 01-.774 2.381c-.515.694-1.227 1.24-2.136 1.638-.908.398-1.95.597-3.124.597zm15.325-7.013V752h-3.261v-11.76h3.108v2.075h.138a3.28 3.28 0 011.309-1.623c.613-.404 1.355-.605 2.228-.605.817 0 1.529.179 2.136.536.608.357 1.08.868 1.417 1.531.337.658.505 1.445.505 2.358V752h-3.261v-6.906c.005-.72-.179-1.281-.552-1.684-.372-.409-.885-.613-1.539-.613-.439 0-.826.095-1.163.283a1.977 1.977 0 00-.781.827c-.184.358-.278.789-.284 1.294zm14.823 7.029c-1.209 0-2.25-.245-3.123-.735a5.031 5.031 0 01-2.006-2.098c-.47-.909-.705-1.983-.705-3.223 0-1.21.235-2.272.705-3.185a5.203 5.203 0 011.983-2.137c.857-.51 1.863-.765 3.016-.765a6.14 6.14 0 012.167.375 4.804 4.804 0 011.761 1.11c.505.495.898 1.118 1.179 1.868.281.746.421 1.618.421 2.619v.896h-9.93v-2.022h6.86c0-.469-.102-.885-.306-1.248a2.204 2.204 0 00-.85-.85c-.357-.209-.773-.313-1.248-.313-.495 0-.934.114-1.317.344a2.412 2.412 0 00-.888.911 2.577 2.577 0 00-.329 1.263v1.922c0 .582.107 1.085.321 1.508.22.424.529.751.927.98.398.23.87.345 1.416.345.362 0 .694-.051.995-.153.302-.102.559-.255.774-.46.214-.204.377-.454.49-.75l3.016.199a4.115 4.115 0 01-.942 1.899c-.469.536-1.076.954-1.822 1.256-.74.296-1.595.444-2.565.444zm13.095-11.99v2.45h-7.082v-2.45h7.082zm-5.474-2.817h3.261v10.963c0 .301.046.536.138.705a.76.76 0 00.383.344c.168.067.362.1.582.1.153 0 .306-.013.459-.039l.352-.069.513 2.428a9.493 9.493 0 01-.689.176 5.606 5.606 0 01-1.079.13c-.786.03-1.475-.074-2.067-.314a2.89 2.89 0 01-1.371-1.118c-.326-.505-.487-1.143-.482-1.914v-11.392zm10.174 7.778V752h-3.262v-11.76h3.109v2.075h.137a3.282 3.282 0 011.31-1.623c.612-.404 1.355-.605 2.228-.605.816 0 1.528.179 2.136.536a3.646 3.646 0 011.416 1.531c.337.658.505 1.445.505 2.358V752h-3.261v-6.906c.005-.72-.179-1.281-.551-1.684-.373-.409-.886-.613-1.539-.613a2.35 2.35 0 00-1.164.283 1.977 1.977 0 00-.781.827c-.184.358-.278.789-.283 1.294zm19.248-1.608l-2.986.184a1.547 1.547 0 00-.329-.689 1.765 1.765 0 00-.666-.498c-.271-.127-.595-.191-.973-.191-.505 0-.931.107-1.278.322-.347.209-.521.49-.521.842 0 .281.112.518.337.712.225.194.61.349 1.156.467l2.129.429c1.143.234 1.995.612 2.557 1.133.561.52.842 1.204.842 2.052 0 .77-.227 1.447-.681 2.029-.45.581-1.067 1.036-1.853 1.362-.781.322-1.682.483-2.703.483-1.557 0-2.797-.324-3.721-.973-.919-.653-1.457-1.541-1.615-2.664l3.208-.168c.097.474.331.837.704 1.087.373.245.85.367 1.432.367.571 0 1.031-.11 1.378-.329.352-.225.531-.513.536-.865a.898.898 0 00-.375-.727c-.245-.194-.623-.342-1.134-.445l-2.036-.405c-1.149-.23-2.003-.628-2.565-1.195-.556-.566-.834-1.289-.834-2.166 0-.756.204-1.407.612-1.953.413-.546.993-.967 1.738-1.263.75-.296 1.628-.444 2.634-.444 1.485 0 2.654.314 3.506.942.858.627 1.358 1.482 1.501 2.564zM950.705 752v-15.68h6.186c1.189 0 2.202.227 3.039.681.837.45 1.476 1.075 1.914 1.876.445.796.667 1.715.667 2.756 0 1.042-.225 1.96-.674 2.757-.449.796-1.1 1.416-1.953 1.86-.847.444-1.873.666-3.077.666h-3.943v-2.656h3.407c.638 0 1.163-.11 1.577-.33a2.18 2.18 0 00.934-.926c.209-.398.314-.855.314-1.371 0-.52-.105-.974-.314-1.362a2.096 2.096 0 00-.934-.911c-.419-.22-.949-.33-1.593-.33h-2.235V752h-3.315zm18.335.23c-1.189 0-2.218-.253-3.086-.758a5.195 5.195 0 01-1.998-2.129c-.469-.913-.704-1.972-.704-3.177 0-1.215.235-2.277.704-3.185a5.135 5.135 0 011.998-2.129c.868-.51 1.897-.765 3.086-.765 1.189 0 2.215.255 3.078.765a5.121 5.121 0 012.006 2.129c.469.908.704 1.97.704 3.185 0 1.205-.235 2.264-.704 3.177a5.181 5.181 0 01-2.006 2.129c-.863.505-1.889.758-3.078.758zm.015-2.527c.541 0 .993-.153 1.355-.459.363-.312.636-.735.82-1.271.189-.536.283-1.146.283-1.83 0-.684-.094-1.294-.283-1.83-.184-.536-.457-.959-.82-1.271-.362-.311-.814-.467-1.355-.467-.546 0-1.005.156-1.378.467-.367.312-.646.735-.834 1.271-.184.536-.276 1.146-.276 1.83 0 .684.092 1.294.276 1.83.188.536.467.959.834 1.271.373.306.832.459 1.378.459zm11.541 2.488a4.43 4.43 0 01-2.427-.689c-.72-.464-1.292-1.146-1.715-2.044-.419-.903-.628-2.011-.628-3.323 0-1.347.217-2.468.651-3.361.433-.898 1.01-1.569 1.73-2.013a4.426 4.426 0 012.381-.674c.658 0 1.207.112 1.646.337.444.219.801.495 1.072.827.276.326.485.648.628.964h.099v-5.895h3.254V752h-3.215v-1.883h-.138c-.153.326-.37.65-.651.972a3.232 3.232 0 01-1.08.788c-.438.21-.974.314-1.607.314zm1.033-2.595c.526 0 .97-.143 1.332-.429.368-.291.649-.697.843-1.217.199-.521.298-1.131.298-1.83 0-.699-.097-1.307-.291-1.822-.194-.516-.474-.914-.842-1.195-.367-.28-.814-.421-1.34-.421-.536 0-.987.146-1.355.437-.367.291-.646.694-.834 1.209-.189.516-.284 1.113-.284 1.792 0 .684.095 1.289.284 1.815.194.52.472.928.834 1.225.368.29.819.436 1.355.436zm7.385-.352v-2.611l6.546-10.313h2.251v3.614h-1.332l-4.127 6.531v.122h9.298v2.657h-12.636zM996.54 752v-3.553l.062-1.156V736.32h3.108V752h-3.17zm14.23-6.799V752h-3.26v-11.76h3.11v2.075h.14a3.24 3.24 0 011.31-1.623c.61-.404 1.35-.605 2.22-.605.82 0 1.53.179 2.14.536.61.357 1.08.868 1.42 1.531.33.658.5 1.445.5 2.358V752h-3.26v-6.906c.01-.72-.18-1.281-.55-1.684-.37-.409-.89-.613-1.54-.613-.44 0-.83.095-1.16.283-.34.189-.6.465-.78.827-.19.358-.28.789-.29 1.294zm14.83 7.029c-1.21 0-2.26-.245-3.13-.735a5.011 5.011 0 01-2-2.098c-.47-.909-.71-1.983-.71-3.223 0-1.21.24-2.272.71-3.185a5.222 5.222 0 011.98-2.137c.86-.51 1.86-.765 3.02-.765.77 0 1.49.125 2.16.375.68.245 1.26.615 1.76 1.11.51.495.9 1.118 1.18 1.868.28.746.42 1.618.42 2.619v.896h-9.93v-2.022h6.86c0-.469-.1-.885-.3-1.248a2.26 2.26 0 00-.85-.85 2.453 2.453 0 00-1.25-.313c-.5 0-.94.114-1.32.344-.38.225-.67.528-.89.911-.21.378-.32.799-.33 1.263v1.922c0 .582.11 1.085.33 1.508.22.424.52.751.92.98.4.23.87.345 1.42.345.36 0 .69-.051.99-.153.31-.102.56-.255.78-.46.21-.204.38-.454.49-.75l3.01.199a4.036 4.036 0 01-.94 1.899c-.47.536-1.07.954-1.82 1.256-.74.296-1.59.444-2.56.444zm13.09-11.99v2.45h-7.08v-2.45h7.08zm-5.47-2.817h3.26v10.963c0 .301.04.536.14.705a.72.72 0 00.38.344c.17.067.36.1.58.1.15 0 .31-.013.46-.039l.35-.069.51 2.428c-.16.051-.39.109-.68.176a5.7 5.7 0 01-1.08.13c-.79.03-1.48-.074-2.07-.314-.59-.24-1.05-.613-1.37-1.118-.33-.505-.49-1.143-.48-1.914v-11.392zm10.17 7.778V752h-3.26v-11.76h3.11v2.075h.13c.26-.684.7-1.225 1.31-1.623.62-.404 1.36-.605 2.23-.605.82 0 1.53.179 2.14.536.61.357 1.08.868 1.41 1.531.34.658.51 1.445.51 2.358V752h-3.26v-6.906c0-.72-.18-1.281-.55-1.684-.38-.409-.89-.613-1.54-.613-.44 0-.83.095-1.17.283-.33.189-.59.465-.78.827-.18.358-.28.789-.28 1.294zm19.25-1.608l-2.99.184a1.518 1.518 0 00-.33-.689 1.791 1.791 0 00-.66-.498c-.27-.127-.6-.191-.98-.191-.5 0-.93.107-1.27.322-.35.209-.52.49-.52.842 0 .281.11.518.33.712.23.194.61.349 1.16.467l2.13.429c1.14.234 1.99.612 2.55 1.133.57.52.85 1.204.85 2.052 0 .77-.23 1.447-.69 2.029-.44.581-1.06 1.036-1.85 1.362-.78.322-1.68.483-2.7.483-1.56 0-2.8-.324-3.72-.973-.92-.653-1.46-1.541-1.62-2.664l3.21-.168c.1.474.33.837.71 1.087.37.245.84.367 1.43.367.57 0 1.03-.11 1.37-.329.36-.225.54-.513.54-.865a.893.893 0 00-.37-.727c-.25-.194-.63-.342-1.14-.445l-2.03-.405c-1.15-.23-2.01-.628-2.57-1.195-.56-.566-.83-1.289-.83-2.166 0-.756.2-1.407.61-1.953s.99-.967 1.74-1.263c.75-.296 1.63-.444 2.63-.444 1.49 0 2.65.314 3.51.942.85.627 1.36 1.482 1.5 2.564z" fill="#948551"></path><path d="M979.468 302h3.315v-5.558h2.42l2.97 5.558h3.66l-3.331-6.094c1.784-.766 2.772-2.32 2.772-4.464 0-3.116-2.059-5.122-5.62-5.122h-6.186V302zm3.315-8.223v-4.747h2.236c1.914 0 2.84.85 2.84 2.412 0 1.554-.926 2.335-2.825 2.335h-2.251zm15.21 8.453c3.567 0 5.787-2.443 5.787-6.064 0-3.644-2.22-6.079-5.787-6.079-3.568 0-5.788 2.435-5.788 6.079 0 3.621 2.22 6.064 5.788 6.064zm.015-2.527c-1.646 0-2.488-1.508-2.488-3.56s.842-3.568 2.488-3.568c1.616 0 2.462 1.516 2.462 3.568s-.846 3.56-2.462 3.56zm12.522 2.527c3.57 0 5.79-2.443 5.79-6.064 0-3.644-2.22-6.079-5.79-6.079s-5.79 2.435-5.79 6.079c0 3.621 2.22 6.064 5.79 6.064zm.01-2.527c-1.64 0-2.48-1.508-2.48-3.56s.84-3.568 2.48-3.568c1.62 0 2.46 1.516 2.46 3.568s-.84 3.56-2.46 3.56zm13.47-9.463h-2.22v-2.817h-3.26v2.817h-1.61v2.45h1.61v6.125c-.01 2.305 1.56 3.445 3.92 3.346a6.404 6.404 0 001.77-.306l-.51-2.428c-.16.031-.51.108-.81.108-.65 0-1.11-.245-1.11-1.149v-5.696h2.22v-2.45zm9 4.961c.01-1.516.91-2.404 2.23-2.404 1.31 0 2.09.858 2.09 2.297V302h3.26v-7.488c0-2.741-1.61-4.425-4.06-4.425-1.74 0-3.01.857-3.54 2.228h-.13v-2.075h-3.11V302h3.26v-6.799zm14.82 7.029c2.91 0 4.87-1.417 5.33-3.599l-3.02-.199c-.33.896-1.17 1.363-2.25 1.363-1.64 0-2.67-1.08-2.67-2.833v-.007h8.01v-.896c0-3.997-2.42-5.972-5.53-5.972-3.46 0-5.7 2.458-5.7 6.087 0 3.728 2.21 6.056 5.83 6.056zm-2.61-7.297c.07-1.34 1.09-2.411 2.54-2.411 1.41 0 2.39 1.01 2.4 2.411h-4.94zm15.71-4.693h-2.22v-2.817h-3.26v2.817h-1.61v2.45h1.61v6.125c-.01 2.305 1.56 3.445 3.92 3.346a6.404 6.404 0 001.77-.306l-.51-2.428c-.16.031-.51.108-.81.108-.65 0-1.11-.245-1.11-1.149v-5.696h2.22v-2.45zm4.7 4.961c0-1.516.91-2.404 2.22-2.404s2.1.858 2.09 2.297V302h3.27v-7.488c0-2.741-1.61-4.425-4.06-4.425-1.75 0-3.01.857-3.54 2.228h-.14v-2.075h-3.11V302h3.27v-6.799zm19.24-1.608c-.29-2.166-2.03-3.506-5-3.506-3.01 0-4.99 1.393-4.99 3.66 0 1.76 1.11 2.901 3.4 3.361l2.04.405c1.02.207 1.49.582 1.51 1.172-.02.697-.78 1.194-1.92 1.194-1.16 0-1.93-.497-2.13-1.454l-3.21.168c.31 2.251 2.22 3.637 5.34 3.637 3.04 0 5.22-1.555 5.23-3.874-.01-1.7-1.12-2.718-3.4-3.185l-2.13-.429c-1.09-.237-1.5-.613-1.49-1.179-.01-.705.79-1.164 1.8-1.164 1.13 0 1.81.62 1.97 1.378l2.98-.184z" fill="#AD9E6A"></path><rect x="807.98" y="273.98" width="156.8" height="81.34" rx="3.92" fill="#D6E9CE" stroke="#7C9D6E" stroke-width="1.96"></rect><path d="M861.563 312.178c4.278 0 7.161-2.083 7.836-5.292l-4.436-.292c-.484 1.317-1.722 2.004-3.321 2.004-2.398 0-3.918-1.588-3.918-4.166v-.011H869.5v-1.317c0-5.877-3.557-8.782-8.128-8.782-5.089 0-8.387 3.614-8.387 8.951 0 5.482 3.253 8.905 8.578 8.905zm-3.839-10.729c.102-1.97 1.599-3.547 3.727-3.547 2.083 0 3.524 1.487 3.535 3.547h-7.262zm23.094-6.901h-3.253v-4.143h-4.796v4.143h-2.364v3.602h2.364v9.007c-.023 3.388 2.285 5.066 5.764 4.92a9.35 9.35 0 002.601-.451l-.755-3.569c-.236.045-.743.158-1.193.158-.957 0-1.621-.36-1.621-1.689v-8.376h3.253v-3.602zm7.282 7.295c.012-2.229 1.374-3.535 3.333-3.535 1.947 0 3.096 1.249 3.085 3.377v10.155h4.796v-11.01c.011-4.053-2.376-6.508-5.979-6.508-2.623 0-4.379 1.239-5.167 3.277h-.203v-8.816h-4.661v23.057h4.796v-9.997zm22.973 10.504c5.798 0 9.3-4.413 9.311-12.013.011-7.543-3.535-11.866-9.311-11.866-5.786 0-9.299 4.312-9.31 11.866-.023 7.577 3.501 12.001 9.31 12.013zm0-4.042c-2.645 0-4.356-2.657-4.345-7.971.011-5.235 1.711-7.869 4.345-7.869 2.624 0 4.335 2.634 4.335 7.869.011 5.314-1.7 7.971-4.335 7.971zm-70.047 15.826h-3.166l-3.943 2.496v2.987l3.648-2.287h.093v12.733h3.368v-15.929zm9.645 16.279c4.006 0 6.425-3.049 6.433-8.299.008-5.211-2.442-8.198-6.433-8.198-3.997 0-6.424 2.979-6.432 8.198-.016 5.235 2.419 8.291 6.432 8.299zm0-2.792c-1.827 0-3.01-1.836-3.002-5.507.008-3.617 1.182-5.437 3.002-5.437 1.813 0 2.995 1.82 2.995 5.437.008 3.671-1.174 5.507-2.995 5.507zm9.753 2.644c.995 0 1.859-.832 1.867-1.866-.008-1.019-.872-1.852-1.867-1.852-1.027 0-1.875.833-1.867 1.852a1.862 1.862 0 001.867 1.866zm9.111-16.131h-3.166l-3.944 2.496v2.987l3.648-2.287h.094v12.733h3.368v-15.929zm9.645 16.279c4.006 0 6.425-3.049 6.432-8.299.008-5.211-2.442-8.198-6.432-8.198-3.998 0-6.425 2.979-6.432 8.198-.016 5.235 2.419 8.291 6.432 8.299zm0-2.792c-1.828 0-3.01-1.836-3.002-5.507.007-3.617 1.182-5.437 3.002-5.437 1.812 0 2.995 1.82 2.995 5.437.007 3.671-1.175 5.507-2.995 5.507zm14.693 2.792c4.006 0 6.425-3.049 6.433-8.299.008-5.211-2.442-8.198-6.433-8.198-3.998 0-6.424 2.979-6.432 8.198-.016 5.235 2.419 8.291 6.432 8.299zm0-2.792c-1.827 0-3.01-1.836-3.002-5.507.008-3.617 1.182-5.437 3.002-5.437 1.813 0 2.995 1.82 2.995 5.437.008 3.671-1.175 5.507-2.995 5.507zm9.753 2.644c.995 0 1.859-.832 1.867-1.866-.008-1.019-.872-1.852-1.867-1.852-1.027 0-1.875.833-1.867 1.852a1.862 1.862 0 001.867 1.866zm9.752.148c4.006 0 6.425-3.049 6.433-8.299.007-5.211-2.443-8.198-6.433-8.198-3.998 0-6.424 2.979-6.432 8.198-.016 5.235 2.419 8.291 6.432 8.299zm0-2.792c-1.828 0-3.01-1.836-3.002-5.507.008-3.617 1.182-5.437 3.002-5.437 1.812 0 2.995 1.82 2.995 5.437.008 3.671-1.175 5.507-2.995 5.507zm9.753 2.644c.995 0 1.859-.832 1.866-1.866-.007-1.019-.871-1.852-1.866-1.852-1.027 0-1.875.833-1.867 1.852a1.862 1.862 0 001.867 1.866zm9.565.016c3.578 0 6.137-1.968 6.129-4.69.008-1.984-1.252-3.399-3.593-3.695v-.124c1.781-.319 3.01-1.579 3.002-3.368.008-2.513-2.193-4.488-5.491-4.488-3.267 0-5.725 1.913-5.771 4.667h3.228c.038-1.214 1.151-1.999 2.527-1.999 1.362 0 2.272.824 2.264 2.022.008 1.252-1.058 2.1-2.59 2.1h-1.486v2.473h1.486c1.804 0 2.932.903 2.924 2.186.008 1.268-1.081 2.139-2.621 2.139-1.486 0-2.598-.778-2.66-1.944h-3.391c.054 2.784 2.543 4.721 6.043 4.721z" fill="#000"></path><rect x="807.98" y="371.98" width="156.8" height="81.34" rx="3.92" fill="#D6E9CE" stroke="#7C9D6E" stroke-width="1.96"></rect><path d="M832.349 410.122c2.792 0 4.245-1.61 4.909-3.051h.202v2.769h4.729v-23.057h-4.785v8.669h-.146c-.642-1.407-2.027-3.13-4.92-3.13-3.794 0-7.003 2.95-7.003 8.894 0 5.787 3.074 8.906 7.014 8.906zm1.52-3.817c-2.353 0-3.636-2.094-3.636-5.111 0-2.995 1.261-5.055 3.636-5.055 2.33 0 3.636 1.97 3.636 5.055s-1.328 5.111-3.636 5.111zm19.067 3.873c5.246 0 8.511-3.592 8.511-8.917 0-5.359-3.265-8.939-8.511-8.939-5.247 0-8.512 3.58-8.512 8.939 0 5.325 3.265 8.917 8.512 8.917zm.022-3.715c-2.42 0-3.659-2.218-3.659-5.235 0-3.018 1.239-5.247 3.659-5.247 2.376 0 3.614 2.229 3.614 5.247 0 3.017-1.238 5.235-3.614 5.235zm18.411 3.715c4.604 0 7.498-2.702 7.723-6.676h-4.526c-.281 1.846-1.497 2.882-3.141 2.882-2.24 0-3.693-1.88-3.693-5.19 0-3.265 1.464-5.134 3.693-5.134 1.756 0 2.882 1.16 3.141 2.882h4.526c-.203-3.996-3.231-6.62-7.746-6.62-5.246 0-8.488 3.637-8.488 8.939 0 5.258 3.186 8.917 8.511 8.917zm9.784-.338h4.796v-5.494l1.295-1.475 4.717 6.969h5.618l-6.744-9.806 6.417-7.486h-5.505l-5.539 6.563h-.259v-12.328h-4.796v23.057zm24.611.338c4.278 0 7.16-2.083 7.836-5.292l-4.436-.292c-.484 1.317-1.723 2.004-3.321 2.004-2.398 0-3.918-1.588-3.918-4.166v-.011h11.776v-1.317c0-5.877-3.558-8.782-8.128-8.782-5.089 0-8.388 3.614-8.388 8.951 0 5.482 3.254 8.905 8.579 8.905zm-3.839-10.729c.101-1.97 1.599-3.547 3.726-3.547 2.083 0 3.524 1.487 3.535 3.547h-7.261zm13.896 10.391h4.796v-9.783c0-2.128 1.554-3.592 3.67-3.592.664 0 1.576.113 2.027.259v-4.255a7.16 7.16 0 00-1.509-.169c-1.936 0-3.524 1.126-4.154 3.265h-.18v-3.017h-4.65v17.292zm20.958.507c5.798 0 9.299-4.413 9.31-12.013.012-7.543-3.535-11.866-9.31-11.866-5.787 0-9.299 4.312-9.311 11.866-.022 7.577 3.502 12.001 9.311 12.013zm0-4.042c-2.646 0-4.357-2.657-4.346-7.971.012-5.235 1.712-7.869 4.346-7.869 2.623 0 4.334 2.634 4.334 7.869.012 5.314-1.7 7.971-4.334 7.971zm-86.812 15.826h-3.166l-3.943 2.496v2.987l3.648-2.287h.093v12.733h3.368v-15.929zm4.03 15.929h3.476l6.612-13.137v-2.792h-11.177v2.753h7.692v.109l-6.603 13.067zm12.01 0h11.355v-2.753h-6.689v-.109l2.326-2.279c3.275-2.987 4.153-4.48 4.153-6.293 0-2.761-2.255-4.713-5.67-4.713-3.344 0-5.639 1.999-5.631 5.126h3.197c-.008-1.525.956-2.458 2.411-2.458 1.4 0 2.442.871 2.442 2.271 0 1.268-.778 2.139-2.224 3.531l-5.67 5.25v2.427zm15.377.202c.996 0 1.859-.832 1.867-1.866-.008-1.019-.871-1.852-1.867-1.852-1.026 0-1.874.833-1.866 1.852a1.862 1.862 0 001.866 1.866zm9.111-16.131h-3.166l-3.943 2.496v2.987l3.648-2.287h.093v12.733h3.368v-15.929zm4.03 15.929h3.477l6.611-13.137v-2.792h-11.177v2.753h7.692v.109l-6.603 13.067zm11.24.202c.995 0 1.859-.832 1.866-1.866-.007-1.019-.871-1.852-1.866-1.852-1.027 0-1.875.833-1.867 1.852a1.862 1.862 0 001.867 1.866zm9.11-16.131h-3.165l-3.944 2.496v2.987l3.648-2.287h.094v12.733h3.367v-15.929zm4.534 16.131c.995 0 1.859-.832 1.867-1.866-.008-1.019-.872-1.852-1.867-1.852-1.027 0-1.875.833-1.867 1.852a1.862 1.862 0 001.867 1.866zm9.11-16.131h-3.165l-3.944 2.496v2.987l3.648-2.287h.094v12.733h3.367v-15.929z" fill="#000"></path><circle cx="888" cy="371" r="15" fill="#D0021B"></circle><path fill="#000" d="M770 536h13v35h-13zm0-129h12.759v76H770z"></path><path d="M807.396 407.036v12.759h-35.532v-12.759h35.532zM1004 407h-12.759v76H1004z" fill="#000"></path><path d="M966.604 407.036v12.759h35.536v-12.759h-35.536zM991 536h13v35h-13zm51.29 173v-32.938h12.99c2.5 0 4.63.477 6.39 1.431 1.76.944 3.1 2.257 4.02 3.941.93 1.672 1.4 3.602 1.4 5.789 0 2.188-.47 4.118-1.42 5.79-.94 1.673-2.31 2.976-4.1 3.909-1.78.932-3.93 1.399-6.46 1.399h-8.29v-5.581h7.16c1.34 0 2.45-.231 3.31-.692.88-.471 1.54-1.12 1.97-1.946.44-.836.66-1.796.66-2.879 0-1.093-.22-2.047-.66-2.862-.43-.826-1.09-1.464-1.97-1.914-.88-.461-1.99-.692-3.34-.692h-4.7V709h-6.96zm38.51.482c-2.49 0-4.65-.53-6.48-1.592-1.81-1.072-3.21-2.562-4.19-4.471-.99-1.919-1.48-4.144-1.48-6.674 0-2.552.49-4.782 1.48-6.691.98-1.919 2.38-3.41 4.19-4.471 1.83-1.072 3.99-1.608 6.48-1.608 2.5 0 4.66.536 6.47 1.608 1.82 1.061 3.23 2.552 4.21 4.471.99 1.909 1.48 4.139 1.48 6.691 0 2.53-.49 4.755-1.48 6.674a10.828 10.828 0 01-4.21 4.471c-1.81 1.062-3.97 1.592-6.47 1.592zm.04-5.307c1.13 0 2.08-.322 2.84-.965.76-.654 1.34-1.544 1.72-2.67.4-1.126.6-2.407.6-3.844 0-1.436-.2-2.718-.6-3.843-.38-1.126-.96-2.016-1.72-2.67-.76-.654-1.71-.981-2.84-.981-1.15 0-2.12.327-2.9.981-.77.654-1.35 1.544-1.75 2.67-.39 1.125-.58 2.407-.58 3.843 0 1.437.19 2.718.58 3.844.4 1.126.98 2.016 1.75 2.67.78.643 1.75.965 2.9.965zm24.24 5.227c-1.88 0-3.58-.482-5.1-1.447-1.51-.976-2.71-2.408-3.6-4.295-.88-1.897-1.32-4.224-1.32-6.98 0-2.83.45-5.184 1.37-7.06.91-1.887 2.12-3.297 3.63-4.23a9.302 9.302 0 015-1.415c1.39 0 2.54.236 3.46.707.93.461 1.68 1.04 2.25 1.737.58.687 1.02 1.362 1.32 2.027h.21v-12.384h6.84V709h-6.76v-3.956h-.29c-.32.686-.78 1.367-1.37 2.042-.57.665-1.33 1.217-2.26 1.657-.93.439-2.05.659-3.38.659zm2.17-5.452c1.1 0 2.04-.3 2.8-.901.77-.611 1.36-1.463 1.77-2.557.42-1.094.62-2.375.62-3.844 0-1.469-.2-2.745-.61-3.828-.4-1.083-.99-1.919-1.77-2.509-.77-.589-1.71-.884-2.81-.884-1.13 0-2.07.305-2.85.917-.77.611-1.35 1.458-1.75 2.541-.4 1.083-.59 2.337-.59 3.763 0 1.437.19 2.708.59 3.812.41 1.094.99 1.951 1.75 2.573.78.611 1.72.917 2.85.917zm25.24 5.05v-32.938h13.19c2.43 0 4.45.359 6.07 1.077 1.62.719 2.83 1.716 3.65 2.992.81 1.265 1.22 2.723 1.22 4.374 0 1.287-.26 2.418-.77 3.394a6.645 6.645 0 01-2.13 2.38c-.89.611-1.9 1.046-3.05 1.303v.322c1.25.053 2.43.407 3.52 1.061 1.11.654 2 1.571 2.69 2.75.68 1.169 1.03 2.563 1.03 4.182 0 1.748-.44 3.308-1.31 4.68-.85 1.362-2.13 2.439-3.81 3.233-1.68.793-3.76 1.19-6.22 1.19h-14.08zm6.97-5.693h5.68c1.94 0 3.35-.37 4.24-1.11.89-.751 1.34-1.748 1.34-2.992 0-.911-.22-1.715-.66-2.412-.44-.697-1.07-1.244-1.88-1.641-.81-.396-1.77-.595-2.88-.595h-5.84v8.75zm0-13.462h5.16c.96 0 1.8-.166 2.54-.499.75-.343 1.34-.825 1.77-1.447.44-.622.66-1.367.66-2.236 0-1.19-.42-2.149-1.27-2.878-.84-.73-2.03-1.094-3.57-1.094h-5.29v8.154z" fill="#000"></path><rect x="70.98" y="273.98" width="487.04" height="487.04" rx="18.62" fill="#CEE2F6" stroke="#76AADF" stroke-width="1.96"></rect><rect x="106.98" y="273.98" width="417.04" height="260.04" rx="3.92" fill="#FFF2C5" stroke="#AD9E6A" stroke-width="1.96"></rect><rect x="106.98" y="571.98" width="176.04" height="157.04" rx="3.92" fill="#FFF2C5" stroke="#AD9E6A" stroke-width="1.96"></rect><rect x="126.98" y="571.98" width="156.8" height="81.34" rx="3.92" fill="#D6E9CE" stroke="#7C9D6E" stroke-width="1.96"></rect><path d="M180.563 610.178c4.278 0 7.161-2.083 7.836-5.292l-4.436-.292c-.484 1.317-1.722 2.003-3.321 2.003-2.398 0-3.918-1.587-3.918-4.165v-.011H188.5v-1.317c0-5.877-3.557-8.782-8.128-8.782-5.089 0-8.387 3.614-8.387 8.95 0 5.483 3.253 8.906 8.578 8.906zm-3.839-10.729c.102-1.971 1.599-3.547 3.727-3.547 2.083 0 3.524 1.486 3.535 3.547h-7.262zm23.094-6.902h-3.253v-4.143h-4.796v4.143h-2.364v3.603h2.364v9.006c-.023 3.389 2.285 5.067 5.764 4.92a9.322 9.322 0 002.601-.45l-.755-3.569c-.236.045-.743.158-1.193.158-.957 0-1.621-.361-1.621-1.689v-8.376h3.253v-3.603zm7.282 7.296c.012-2.23 1.374-3.535 3.333-3.535 1.947 0 3.096 1.249 3.085 3.377v10.155h4.796v-11.011c.011-4.053-2.376-6.507-5.979-6.507-2.623 0-4.379 1.239-5.167 3.276h-.203v-8.815h-4.661v23.057h4.796v-9.997zm22.973 10.503c5.798 0 9.3-4.413 9.311-12.012.011-7.543-3.535-11.866-9.311-11.866-5.786 0-9.299 4.312-9.31 11.866-.023 7.577 3.501 12.001 9.31 12.012zm0-4.041c-2.645 0-4.356-2.657-4.345-7.971.011-5.235 1.711-7.869 4.345-7.869 2.624 0 4.335 2.634 4.335 7.869.011 5.314-1.7 7.971-4.335 7.971zm-66.071 15.826h-3.166l-3.943 2.496v2.987l3.648-2.287h.093v12.733h3.368v-15.929zm4.03 15.929h3.476l6.612-13.137v-2.792h-11.177v2.753h7.692v.109l-6.603 13.067zm12.009 0h11.356v-2.753h-6.689v-.109l2.326-2.279c3.275-2.987 4.153-4.48 4.153-6.293 0-2.761-2.255-4.713-5.67-4.713-3.344 0-5.639 1.999-5.631 5.126h3.197c-.008-1.525.956-2.458 2.411-2.458 1.4 0 2.442.871 2.442 2.271 0 1.268-.778 2.139-2.224 3.531l-5.671 5.25v2.427zm15.378.202c.996 0 1.859-.832 1.867-1.866-.008-1.019-.871-1.852-1.867-1.852-1.026 0-1.874.833-1.866 1.852a1.862 1.862 0 001.866 1.866zm9.111-16.131h-3.166l-3.943 2.496v2.987l3.648-2.287h.093v12.733h3.368v-15.929zm4.03 15.929h3.477l6.611-13.137v-2.792h-11.177v2.753h7.692v.109l-6.603 13.067zm11.24.202c.995 0 1.859-.832 1.866-1.866-.007-1.019-.871-1.852-1.866-1.852-1.027 0-1.875.833-1.867 1.852a1.862 1.862 0 001.867 1.866zm9.752.148c4.006 0 6.425-3.049 6.433-8.299.007-5.211-2.443-8.198-6.433-8.198-3.998 0-6.425 2.979-6.432 8.198-.016 5.235 2.419 8.291 6.432 8.299zm0-2.792c-1.828 0-3.01-1.836-3.002-5.507.008-3.617 1.182-5.437 3.002-5.437 1.812 0 2.995 1.82 2.995 5.437.007 3.671-1.175 5.507-2.995 5.507zm9.752 2.644c.996 0 1.859-.832 1.867-1.866-.008-1.019-.871-1.852-1.867-1.852-1.026 0-1.874.833-1.866 1.852a1.862 1.862 0 001.866 1.866zm4.17-.202h11.356v-2.753h-6.689v-.109l2.326-2.279c3.274-2.987 4.153-4.48 4.153-6.293 0-2.761-2.255-4.713-5.67-4.713-3.345 0-5.639 1.999-5.631 5.126h3.196c-.007-1.525.957-2.458 2.412-2.458 1.4 0 2.442.871 2.442 2.271 0 1.268-.778 2.139-2.225 3.531l-5.67 5.25v2.427z" fill="#000"></path><rect x="126.98" y="482.98" width="156.8" height="51.94" rx="3.92" fill="#D6E9CE" stroke="#7C9D6E" stroke-width="1.96"></rect><path d="M179.815 501.727h-5.077l-3.58 12.373h-.18l-3.592-12.373h-5.066l6.046 17.293h5.404l6.045-17.293zm8.737 17.631c4.278 0 7.161-2.083 7.836-5.292l-4.436-.292c-.484 1.317-1.722 2.004-3.321 2.004-2.398 0-3.918-1.588-3.918-4.166v-.011h11.776v-1.317c0-5.877-3.557-8.782-8.128-8.782-5.089 0-8.387 3.614-8.387 8.951 0 5.482 3.253 8.905 8.578 8.905zm-3.839-10.729c.102-1.97 1.599-3.547 3.727-3.547 2.083 0 3.524 1.486 3.535 3.547h-7.262zm23.094-6.902h-3.253v-4.143h-4.796v4.143h-2.364v3.603h2.364v9.007c-.023 3.388 2.285 5.066 5.764 4.919a9.322 9.322 0 002.601-.45l-.755-3.569c-.236.045-.743.158-1.193.158-.957 0-1.621-.36-1.621-1.689v-8.376h3.253v-3.603zm7.282 7.296c.012-2.229 1.374-3.535 3.333-3.535 1.947 0 3.096 1.249 3.085 3.377v10.155h4.796v-11.01c.011-4.053-2.376-6.508-5.979-6.508-2.623 0-4.379 1.239-5.167 3.276h-.203v-8.815h-4.661v23.057h4.796v-9.997zm22.973 10.504c5.798 0 9.3-4.414 9.311-12.013.011-7.543-3.535-11.866-9.311-11.866-5.786 0-9.299 4.312-9.31 11.866-.023 7.577 3.501 12.001 9.31 12.013zm0-4.042c-2.645 0-4.356-2.657-4.345-7.971.011-5.235 1.711-7.869 4.345-7.869 2.624 0 4.335 2.634 4.335 7.869.011 5.314-1.7 7.971-4.335 7.971z" fill="#000"></path><rect x="346.98" y="571.98" width="176.04" height="157.04" rx="3.92" fill="#FFF2C5" stroke="#AD9E6A" stroke-width="1.96"></rect><rect x="346.98" y="571.98" width="156.8" height="81.34" rx="3.92" fill="#D6E9CE" stroke="#7C9D6E" stroke-width="1.96"></rect><path d="M400.563 610.178c4.278 0 7.161-2.083 7.836-5.292l-4.436-.292c-.484 1.317-1.722 2.003-3.321 2.003-2.398 0-3.918-1.587-3.918-4.165v-.011H408.5v-1.317c0-5.877-3.557-8.782-8.128-8.782-5.089 0-8.387 3.614-8.387 8.95 0 5.483 3.253 8.906 8.578 8.906zm-3.839-10.729c.102-1.971 1.599-3.547 3.727-3.547 2.083 0 3.524 1.486 3.535 3.547h-7.262zm23.094-6.902h-3.253v-4.143h-4.796v4.143h-2.364v3.603h2.364v9.006c-.023 3.389 2.285 5.067 5.764 4.92a9.322 9.322 0 002.601-.45l-.755-3.569c-.236.045-.743.158-1.193.158-.957 0-1.621-.361-1.621-1.689v-8.376h3.253v-3.603zm7.282 7.296c.012-2.23 1.374-3.535 3.333-3.535 1.947 0 3.096 1.249 3.085 3.377v10.155h4.796v-11.011c.011-4.053-2.376-6.507-5.979-6.507-2.623 0-4.379 1.239-5.167 3.276h-.203v-8.815h-4.661v23.057h4.796v-9.997zm22.973 10.503c5.798 0 9.3-4.413 9.311-12.012.011-7.543-3.535-11.866-9.311-11.866-5.786 0-9.299 4.312-9.31 11.866-.023 7.577 3.501 12.001 9.31 12.012zm0-4.041c-2.645 0-4.356-2.657-4.345-7.971.011-5.235 1.711-7.869 4.345-7.869 2.624 0 4.335 2.634 4.335 7.869.011 5.314-1.7 7.971-4.335 7.971zm-66.146 15.826h-3.166l-3.943 2.496v2.987l3.648-2.287h.093v12.733h3.368v-15.929zm4.03 15.929h3.476l6.612-13.137v-2.792h-11.177v2.753h7.692v.109l-6.603 13.067zm12.01 0h11.356v-2.753h-6.69v-.109l2.326-2.279c3.275-2.987 4.154-4.48 4.154-6.293 0-2.761-2.256-4.713-5.671-4.713-3.344 0-5.639 1.999-5.631 5.126h3.197c-.008-1.525.957-2.458 2.411-2.458 1.4 0 2.442.871 2.442 2.271 0 1.268-.777 2.139-2.224 3.531l-5.67 5.25v2.427zm15.377.202c.996 0 1.859-.832 1.867-1.866-.008-1.019-.871-1.852-1.867-1.852-1.026 0-1.874.833-1.866 1.852a1.862 1.862 0 001.866 1.866zm9.111-16.131h-3.165l-3.944 2.496v2.987l3.648-2.287h.093v12.733h3.368v-15.929zm4.03 15.929h3.477l6.611-13.137v-2.792h-11.177v2.753h7.692v.109l-6.603 13.067zm11.24.202c.995 0 1.859-.832 1.867-1.866-.008-1.019-.872-1.852-1.867-1.852-1.027 0-1.875.833-1.867 1.852a1.862 1.862 0 001.867 1.866zm9.752.148c4.006 0 6.425-3.049 6.433-8.299.007-5.211-2.443-8.198-6.433-8.198-3.998 0-6.424 2.979-6.432 8.198-.016 5.235 2.419 8.291 6.432 8.299zm0-2.792c-1.828 0-3.01-1.836-3.002-5.507.008-3.617 1.182-5.437 3.002-5.437 1.813 0 2.995 1.82 2.995 5.437.008 3.671-1.175 5.507-2.995 5.507zm9.753 2.644c.995 0 1.859-.832 1.866-1.866-.007-1.019-.871-1.852-1.866-1.852-1.027 0-1.875.833-1.867 1.852a1.862 1.862 0 001.867 1.866zm9.565.016c3.578 0 6.137-1.968 6.129-4.69.008-1.984-1.252-3.399-3.593-3.695v-.124c1.781-.319 3.01-1.579 3.002-3.368.008-2.513-2.193-4.488-5.491-4.488-3.267 0-5.725 1.913-5.771 4.667h3.228c.038-1.214 1.151-1.999 2.527-1.999 1.362 0 2.272.824 2.264 2.022.008 1.252-1.058 2.1-2.59 2.1h-1.486v2.473h1.486c1.804 0 2.932.903 2.924 2.186.008 1.268-1.081 2.139-2.621 2.139-1.485 0-2.598-.778-2.66-1.944h-3.391c.054 2.784 2.543 4.721 6.043 4.721z" fill="#000"></path><rect x="346.98" y="482.98" width="156.8" height="51.94" rx="3.92" fill="#D6E9CE" stroke="#7C9D6E" stroke-width="1.96"></rect><path d="M403.608 501.727h-5.078l-3.58 12.373h-.18l-3.591-12.373h-5.066l6.045 17.293h5.404l6.046-17.293zm8.737 17.631c4.278 0 7.16-2.083 7.836-5.292l-4.436-.292c-.484 1.317-1.723 2.004-3.321 2.004-2.398 0-3.918-1.588-3.918-4.166v-.011h11.776v-1.317c0-5.877-3.558-8.782-8.128-8.782-5.089 0-8.388 3.614-8.388 8.951 0 5.482 3.254 8.905 8.579 8.905zm-3.839-10.729c.101-1.97 1.599-3.547 3.726-3.547 2.083 0 3.524 1.486 3.535 3.547h-7.261zm23.094-6.902h-3.254v-4.143h-4.796v4.143h-2.364v3.603h2.364v9.007c-.022 3.388 2.286 5.066 5.765 4.919a9.313 9.313 0 002.6-.45l-.754-3.569c-.236.045-.743.158-1.193.158-.957 0-1.622-.36-1.622-1.689v-8.376h3.254v-3.603zm7.282 7.296c.011-2.229 1.374-3.535 3.332-3.535 1.948 0 3.096 1.249 3.085 3.377v10.155h4.796v-11.01c.011-4.053-2.375-6.508-5.978-6.508-2.623 0-4.379 1.239-5.167 3.276h-.203v-8.815h-4.661v23.057h4.796v-9.997zm22.694-13.06h-4.582l-5.708 3.614v4.323l5.281-3.31h.135v18.43h4.874v-23.057zm-179.218 283.98V803h-4.211l-10.031-14.512h-.169V803h-4.874v-23.057h4.278l9.952 14.501h.203v-14.501h4.852zm10.741 23.395c-1.749 0-3.261-.372-4.537-1.115-1.269-.75-2.248-1.794-2.939-3.13-.69-1.343-1.035-2.9-1.035-4.672 0-1.786.345-3.347 1.035-4.683.691-1.344 1.67-2.387 2.939-3.13 1.276-.75 2.788-1.126 4.537-1.126s3.257.376 4.526 1.126c1.276.743 2.259 1.786 2.949 3.13.691 1.336 1.036 2.897 1.036 4.683 0 1.772-.345 3.329-1.036 4.672a7.597 7.597 0 01-2.949 3.13c-1.269.743-2.777 1.115-4.526 1.115zm.022-3.715c.796 0 1.46-.226 1.993-.676.533-.458.935-1.081 1.205-1.869.277-.788.416-1.685.416-2.69 0-1.006-.139-1.903-.416-2.691-.27-.788-.672-1.411-1.205-1.869-.533-.458-1.197-.687-1.993-.687-.803 0-1.478.229-2.026.687-.54.458-.95 1.081-1.227 1.869-.27.788-.405 1.685-.405 2.691 0 1.005.135 1.902.405 2.69.277.788.687 1.411 1.227 1.869.548.45 1.223.676 2.026.676zm16.97 3.658c-1.313 0-2.503-.337-3.569-1.013-1.058-.683-1.899-1.685-2.522-3.006-.615-1.328-.923-2.957-.923-4.886 0-1.981.319-3.629.957-4.942.638-1.321 1.486-2.308 2.545-2.961a6.52 6.52 0 013.501-.991c.968 0 1.775.165 2.42.496.653.322 1.179.728 1.576 1.216.406.48.713.953.924 1.418h.146v-8.669h4.785V803h-4.729v-2.77H315a6.225 6.225 0 01-.957 1.43c-.406.466-.935.852-1.588 1.16-.645.308-1.433.461-2.364.461zm1.52-3.816c.773 0 1.426-.21 1.959-.631.54-.427.953-1.024 1.238-1.79.293-.765.439-1.662.439-2.69 0-1.029-.142-1.922-.428-2.68-.285-.758-.698-1.343-1.238-1.756-.54-.413-1.197-.619-1.97-.619-.788 0-1.452.214-1.993.642-.54.427-.949 1.02-1.227 1.778-.278.758-.416 1.637-.416 2.635 0 1.005.138 1.895.416 2.668.285.765.694 1.366 1.227 1.801.541.428 1.205.642 1.993.642zm19.134 3.873c-1.779 0-3.31-.361-4.593-1.081a7.397 7.397 0 01-2.95-3.085c-.691-1.336-1.036-2.916-1.036-4.739 0-1.779.345-3.34 1.036-4.684.69-1.343 1.662-2.39 2.916-3.141 1.261-.75 2.739-1.126 4.436-1.126 1.14 0 2.202.184 3.186.552.99.36 1.853.904 2.589 1.632.743.728 1.321 1.644 1.734 2.747.413 1.096.619 2.38.619 3.851v1.317H324.08v-2.972h10.087c0-.691-.15-1.302-.45-1.835-.3-.533-.717-.95-1.25-1.25-.525-.308-1.137-.462-1.835-.462-.728 0-1.373.169-1.936.507-.555.33-.991.777-1.306 1.34a3.777 3.777 0 00-.484 1.857v2.826c0 .856.158 1.595.473 2.218a3.46 3.46 0 001.362 1.441c.585.338 1.28.507 2.083.507.533 0 1.02-.075 1.463-.226.443-.15.822-.375 1.137-.675.316-.3.556-.668.721-1.103l4.436.292a6.061 6.061 0 01-1.385 2.792c-.691.789-1.584 1.404-2.68 1.847-1.088.435-2.345.653-3.771.653zm20.449-.338h-5.224l7.96-23.057h6.282L368.16 803h-5.224l-5.775-17.788h-.18L351.194 803zm-.326-9.063h12.339v3.805h-12.339v-3.805z" fill="#000"></path><path d="M136.795 752v-15.68h6.186c1.19 0 2.203.227 3.04.681a4.622 4.622 0 011.914 1.876c.444.796.666 1.715.666 2.756 0 1.042-.225 1.96-.674 2.757-.449.796-1.1 1.416-1.952 1.86-.847.444-1.873.666-3.078.666h-3.943v-2.656h3.407c.638 0 1.164-.11 1.577-.33.419-.224.73-.533.934-.926.21-.398.314-.855.314-1.371 0-.52-.104-.974-.314-1.362a2.09 2.09 0 00-.934-.911c-.418-.22-.949-.33-1.592-.33h-2.236V752h-3.315zm18.335.23c-1.189 0-2.217-.253-3.085-.758a5.182 5.182 0 01-1.998-2.129c-.47-.913-.705-1.972-.705-3.177 0-1.215.235-2.277.705-3.185a5.122 5.122 0 011.998-2.129c.868-.51 1.896-.765 3.085-.765 1.19 0 2.216.255 3.078.765a5.115 5.115 0 012.006 2.129c.47.908.704 1.97.704 3.185 0 1.205-.234 2.264-.704 3.177a5.175 5.175 0 01-2.006 2.129c-.862.505-1.888.758-3.078.758zm.016-2.527c.541 0 .992-.153 1.355-.459.362-.312.635-.735.819-1.271.189-.536.283-1.146.283-1.83 0-.684-.094-1.294-.283-1.83-.184-.536-.457-.959-.819-1.271-.363-.311-.814-.467-1.355-.467-.547 0-1.006.156-1.378.467-.368.312-.646.735-.835 1.271-.184.536-.276 1.146-.276 1.83 0 .684.092 1.294.276 1.83.189.536.467.959.835 1.271.372.306.831.459 1.378.459zm11.54 2.488a4.435 4.435 0 01-2.427-.689c-.72-.464-1.291-1.146-1.715-2.044-.419-.903-.628-2.011-.628-3.323 0-1.347.217-2.468.651-3.361.434-.898 1.011-1.569 1.73-2.013a4.428 4.428 0 012.381-.674c.659 0 1.208.112 1.646.337.445.219.802.495 1.072.827.276.326.485.648.628.964h.1v-5.895h3.254V752h-3.216v-1.883h-.138c-.153.326-.37.65-.651.972a3.227 3.227 0 01-1.079.788c-.439.21-.975.314-1.608.314zm1.034-2.595c.525 0 .969-.143 1.332-.429.367-.291.648-.697.842-1.217.199-.521.299-1.131.299-1.83 0-.699-.097-1.307-.291-1.822-.194-.516-.475-.914-.843-1.195-.367-.28-.814-.421-1.339-.421-.536 0-.988.146-1.356.437-.367.291-.645.694-.834 1.209-.189.516-.283 1.113-.283 1.792 0 .684.094 1.289.283 1.815.194.52.472.928.834 1.225.368.29.82.436 1.356.436zM182.44 752h-3.553l5.413-15.68h4.272l5.406 15.68h-3.553l-3.927-12.097h-.123L182.44 752zm-.222-6.163h8.391v2.588h-8.391v-2.588zm20.464-.636V752h-3.261v-11.76h3.108v2.075h.138a3.275 3.275 0 011.309-1.623c.612-.404 1.355-.605 2.228-.605.817 0 1.529.179 2.136.536a3.64 3.64 0 011.416 1.531c.337.658.506 1.445.506 2.358V752H207v-6.906c.005-.72-.178-1.281-.551-1.684-.373-.409-.886-.613-1.539-.613a2.35 2.35 0 00-1.164.283 1.984 1.984 0 00-.781.827c-.183.358-.278.789-.283 1.294zm14.823 7.029c-1.21 0-2.251-.245-3.124-.735a5.043 5.043 0 01-2.006-2.098c-.469-.909-.704-1.983-.704-3.223 0-1.21.235-2.272.704-3.185a5.216 5.216 0 011.983-2.137c.858-.51 1.863-.765 3.017-.765a6.14 6.14 0 012.167.375 4.82 4.82 0 011.761 1.11c.505.495.898 1.118 1.179 1.868.28.746.421 1.618.421 2.619v.896h-9.93v-2.022h6.86c0-.469-.102-.885-.307-1.248a2.202 2.202 0 00-.849-.85c-.358-.209-.774-.313-1.248-.313-.496 0-.935.114-1.317.344a2.412 2.412 0 00-.888.911 2.567 2.567 0 00-.33 1.263v1.922c0 .582.108 1.085.322 1.508.219.424.528.751.926.98.398.23.871.345 1.417.345.362 0 .694-.051.995-.153a1.984 1.984 0 001.263-1.21l3.017.199a4.115 4.115 0 01-.942 1.899c-.469.536-1.077.954-1.822 1.256-.74.296-1.595.444-2.565.444zm13.095-11.99v2.45h-7.082v-2.45h7.082zm-5.474-2.817h3.261v10.963c0 .301.046.536.138.705a.757.757 0 00.383.344c.168.067.362.1.582.1.153 0 .306-.013.459-.039l.352-.069.513 2.428a9.493 9.493 0 01-.689.176 5.616 5.616 0 01-1.079.13c-.787.03-1.476-.074-2.068-.314a2.888 2.888 0 01-1.37-1.118c-.327-.505-.488-1.143-.482-1.914v-11.392zm10.173 7.778V752h-3.261v-11.76h3.108v2.075h.138a3.28 3.28 0 011.309-1.623c.613-.404 1.355-.605 2.228-.605.817 0 1.529.179 2.136.536.608.357 1.08.868 1.417 1.531.337.658.505 1.445.505 2.358V752h-3.262v-6.906c.006-.72-.178-1.281-.551-1.684-.372-.409-.885-.613-1.539-.613-.439 0-.827.095-1.163.283a1.971 1.971 0 00-.781.827c-.184.358-.279.789-.284 1.294zm19.249-1.608l-2.986.184a1.539 1.539 0 00-.33-.689 1.75 1.75 0 00-.666-.498c-.27-.127-.594-.191-.972-.191-.505 0-.931.107-1.279.322-.347.209-.52.49-.52.842 0 .281.112.518.337.712.224.194.61.349 1.156.467l2.128.429c1.144.234 1.996.612 2.557 1.133.562.52.843 1.204.843 2.052 0 .77-.228 1.447-.682 2.029-.449.581-1.067 1.036-1.853 1.362-.781.322-1.681.483-2.702.483-1.557 0-2.797-.324-3.721-.973-.919-.653-1.457-1.541-1.616-2.664l3.208-.168c.097.474.332.837.705 1.087.372.245.849.367 1.431.367.572 0 1.031-.11 1.378-.329.353-.225.531-.513.536-.865a.898.898 0 00-.375-.727c-.245-.194-.622-.342-1.133-.445l-2.036-.405c-1.149-.23-2.004-.628-2.565-1.195-.557-.566-.835-1.289-.835-2.166 0-.756.204-1.407.613-1.953.413-.546.992-.967 1.738-1.263.75-.296 1.628-.444 2.633-.444 1.486 0 2.655.314 3.507.942.857.627 1.358 1.482 1.501 2.564zM376.753 752v-15.68h6.186c1.189 0 2.203.227 3.04.681a4.622 4.622 0 011.914 1.876c.444.796.666 1.715.666 2.756 0 1.042-.225 1.96-.674 2.757-.449.796-1.1 1.416-1.952 1.86-.848.444-1.874.666-3.078.666h-3.943v-2.656h3.407c.638 0 1.164-.11 1.577-.33.419-.224.73-.533.934-.926.209-.398.314-.855.314-1.371 0-.52-.105-.974-.314-1.362a2.09 2.09 0 00-.934-.911c-.418-.22-.949-.33-1.592-.33h-2.236V752h-3.315zm18.335.23c-1.189 0-2.218-.253-3.085-.758a5.19 5.19 0 01-1.999-2.129c-.469-.913-.704-1.972-.704-3.177 0-1.215.235-2.277.704-3.185a5.13 5.13 0 011.999-2.129c.867-.51 1.896-.765 3.085-.765s2.215.255 3.078.765a5.115 5.115 0 012.006 2.129c.47.908.704 1.97.704 3.185 0 1.205-.234 2.264-.704 3.177a5.175 5.175 0 01-2.006 2.129c-.863.505-1.889.758-3.078.758zm.016-2.527c.541 0 .992-.153 1.355-.459.362-.312.635-.735.819-1.271.189-.536.283-1.146.283-1.83 0-.684-.094-1.294-.283-1.83-.184-.536-.457-.959-.819-1.271-.363-.311-.814-.467-1.355-.467-.547 0-1.006.156-1.379.467-.367.312-.645.735-.834 1.271-.184.536-.276 1.146-.276 1.83 0 .684.092 1.294.276 1.83.189.536.467.959.834 1.271.373.306.832.459 1.379.459zm11.54 2.488a4.435 4.435 0 01-2.427-.689c-.72-.464-1.291-1.146-1.715-2.044-.419-.903-.628-2.011-.628-3.323 0-1.347.217-2.468.651-3.361.434-.898 1.01-1.569 1.73-2.013a4.428 4.428 0 012.381-.674c.659 0 1.207.112 1.646.337.444.219.802.495 1.072.827.276.326.485.648.628.964h.1v-5.895h3.253V752h-3.215v-1.883h-.138c-.153.326-.37.65-.651.972a3.227 3.227 0 01-1.079.788c-.439.21-.975.314-1.608.314zm1.034-2.595c.525 0 .969-.143 1.332-.429.367-.291.648-.697.842-1.217.199-.521.298-1.131.298-1.83 0-.699-.096-1.307-.29-1.822-.194-.516-.475-.914-.843-1.195-.367-.28-.814-.421-1.339-.421-.536 0-.988.146-1.356.437-.367.291-.645.694-.834 1.209-.189.516-.283 1.113-.283 1.792 0 .684.094 1.289.283 1.815.194.52.472.928.834 1.225.368.29.82.436 1.356.436zm25.852-7.786h-3.354a3.276 3.276 0 00-.375-1.157 2.94 2.94 0 00-.727-.872 3.207 3.207 0 00-1.026-.552 3.943 3.943 0 00-1.248-.191c-.812 0-1.518.202-2.121.605-.602.398-1.069.98-1.401 1.745-.332.761-.497 1.685-.497 2.772 0 1.118.165 2.057.497 2.818.337.76.807 1.334 1.409 1.722.602.388 1.299.582 2.09.582.444 0 .855-.059 1.233-.176a3.219 3.219 0 001.018-.513c.296-.23.541-.508.735-.835.199-.326.337-.699.413-1.117l3.354.015a6.065 6.065 0 01-.651 2.082 6.241 6.241 0 01-1.386 1.784 6.515 6.515 0 01-2.067 1.241c-.796.301-1.697.451-2.703.451-1.398 0-2.649-.316-3.751-.949-1.097-.633-1.965-1.549-2.603-2.749-.633-1.199-.95-2.651-.95-4.356 0-1.71.322-3.165.965-4.364.643-1.2 1.516-2.113 2.619-2.741 1.102-.633 2.342-.949 3.72-.949a8.05 8.05 0 012.527.382 6.419 6.419 0 012.075 1.118 5.764 5.764 0 011.47 1.784c.383.705.628 1.511.735 2.42zm9.194 3.391V752h-3.261v-11.76h3.108v2.075h.138a3.28 3.28 0 011.309-1.623c.613-.404 1.355-.605 2.228-.605.817 0 1.529.179 2.136.536.608.357 1.08.868 1.417 1.531.336.658.505 1.445.505 2.358V752h-3.262v-6.906c.005-.72-.178-1.281-.551-1.684-.373-.409-.886-.613-1.539-.613a2.35 2.35 0 00-1.164.283 1.984 1.984 0 00-.781.827c-.183.358-.278.789-.283 1.294zm14.823 7.029c-1.209 0-2.251-.245-3.124-.735a5.035 5.035 0 01-2.005-2.098c-.47-.909-.705-1.983-.705-3.223 0-1.21.235-2.272.705-3.185a5.207 5.207 0 011.982-2.137c.858-.51 1.864-.765 3.017-.765a6.14 6.14 0 012.167.375 4.804 4.804 0 011.761 1.11c.505.495.898 1.118 1.179 1.868.281.746.421 1.618.421 2.619v.896h-9.93v-2.022h6.86c0-.469-.102-.885-.307-1.248a2.202 2.202 0 00-.849-.85c-.358-.209-.774-.313-1.248-.313-.495 0-.934.114-1.317.344a2.412 2.412 0 00-.888.911 2.578 2.578 0 00-.33 1.263v1.922c0 .582.108 1.085.322 1.508.219.424.528.751.926.98.399.23.871.345 1.417.345.362 0 .694-.051.995-.153a1.984 1.984 0 001.263-1.21l3.017.199a4.115 4.115 0 01-.942 1.899c-.469.536-1.077.954-1.822 1.256-.74.296-1.595.444-2.565.444zm13.095-11.99v2.45h-7.082v-2.45h7.082zm-5.474-2.817h3.261v10.963c0 .301.046.536.138.705a.757.757 0 00.383.344c.168.067.362.1.582.1.153 0 .306-.013.459-.039l.352-.069.513 2.428a9.493 9.493 0 01-.689.176 5.616 5.616 0 01-1.079.13c-.786.03-1.475-.074-2.068-.314a2.888 2.888 0 01-1.37-1.118c-.327-.505-.487-1.143-.482-1.914v-11.392zm10.173 7.778V752h-3.261v-11.76h3.108v2.075h.138a3.28 3.28 0 011.309-1.623c.613-.404 1.355-.605 2.228-.605.817 0 1.529.179 2.136.536.608.357 1.08.868 1.417 1.531.337.658.505 1.445.505 2.358V752h-3.261v-6.906c.005-.72-.179-1.281-.552-1.684-.372-.409-.885-.613-1.539-.613-.439 0-.827.095-1.163.283a1.977 1.977 0 00-.781.827c-.184.358-.278.789-.284 1.294zm19.249-1.608l-2.986.184a1.547 1.547 0 00-.329-.689 1.76 1.76 0 00-.667-.498c-.27-.127-.594-.191-.972-.191-.505 0-.931.107-1.278.322-.348.209-.521.49-.521.842 0 .281.112.518.337.712.224.194.61.349 1.156.467l2.128.429c1.144.234 1.996.612 2.558 1.133.561.52.842 1.204.842 2.052 0 .77-.227 1.447-.682 2.029-.449.581-1.066 1.036-1.853 1.362-.78.322-1.681.483-2.702.483-1.557 0-2.797-.324-3.721-.973-.919-.653-1.457-1.541-1.616-2.664l3.208-.168c.097.474.332.837.705 1.087.372.245.85.367 1.431.367.572 0 1.032-.11 1.379-.329.352-.225.53-.513.536-.865a.902.902 0 00-.376-.727c-.245-.194-.622-.342-1.133-.445l-2.036-.405c-1.149-.23-2.004-.628-2.565-1.195-.557-.566-.835-1.289-.835-2.166 0-.756.204-1.407.613-1.953.413-.546.993-.967 1.738-1.263.75-.296 1.628-.444 2.634-.444 1.485 0 2.654.314 3.506.942.858.627 1.358 1.482 1.501 2.564z" fill="#948551"></path><path d="M408.468 302h3.315v-5.558h2.42l2.97 5.558h3.66l-3.331-6.094c1.784-.766 2.772-2.32 2.772-4.464 0-3.116-2.059-5.122-5.62-5.122h-6.186V302zm3.315-8.223v-4.747h2.236c1.914 0 2.84.85 2.84 2.412 0 1.554-.926 2.335-2.825 2.335h-2.251zm15.21 8.453c3.568 0 5.788-2.443 5.788-6.064 0-3.644-2.22-6.079-5.788-6.079s-5.788 2.435-5.788 6.079c0 3.621 2.22 6.064 5.788 6.064zm.015-2.527c-1.646 0-2.488-1.508-2.488-3.56s.842-3.568 2.488-3.568c1.616 0 2.458 1.516 2.458 3.568s-.842 3.56-2.458 3.56zm12.521 2.527c3.567 0 5.788-2.443 5.788-6.064 0-3.644-2.221-6.079-5.788-6.079-3.568 0-5.788 2.435-5.788 6.079 0 3.621 2.22 6.064 5.788 6.064zm.015-2.527c-1.646 0-2.488-1.508-2.488-3.56s.842-3.568 2.488-3.568c1.615 0 2.458 1.516 2.458 3.568s-.843 3.56-2.458 3.56zm13.462-9.463h-2.213v-2.817h-3.261v2.817h-1.608v2.45h1.608v6.125c-.015 2.305 1.554 3.445 3.92 3.346a6.362 6.362 0 001.768-.306l-.513-2.428c-.16.031-.505.108-.811.108-.651 0-1.103-.245-1.103-1.149v-5.696h2.213v-2.45zm9.003 4.961c.008-1.516.911-2.404 2.228-2.404 1.309 0 2.098.858 2.09 2.297V302h3.262v-7.488c0-2.741-1.608-4.425-4.058-4.425-1.746 0-3.009.857-3.537 2.228h-.138v-2.075h-3.109V302h3.262v-6.799zm14.823 7.029c2.909 0 4.869-1.417 5.329-3.599l-3.017-.199c-.329.896-1.171 1.363-2.258 1.363-1.631 0-2.665-1.08-2.665-2.833v-.007h8.009v-.896c0-3.997-2.42-5.972-5.528-5.972-3.461 0-5.704 2.458-5.704 6.087 0 3.728 2.213 6.056 5.834 6.056zm-2.611-7.297c.069-1.34 1.087-2.411 2.534-2.411 1.417 0 2.397 1.01 2.405 2.411h-4.939zm15.706-4.693h-2.213v-2.817h-3.262v2.817h-1.607v2.45h1.607v6.125c-.015 2.305 1.555 3.445 3.92 3.346a6.363 6.363 0 001.769-.306l-.513-2.428c-.161.031-.505.108-.812.108-.65 0-1.102-.245-1.102-1.149v-5.696h2.213v-2.45zm4.699 4.961c.008-1.516.911-2.404 2.228-2.404 1.309 0 2.098.858 2.09 2.297V302h3.262v-7.488c0-2.741-1.608-4.425-4.058-4.425-1.746 0-3.009.857-3.537 2.228h-.138v-2.075h-3.108V302h3.261v-6.799zm19.249-1.608c-.291-2.166-2.037-3.506-5.008-3.506-3.009 0-4.992 1.393-4.984 3.66-.008 1.76 1.103 2.901 3.399 3.361l2.037.405c1.026.207 1.493.582 1.508 1.172-.015.697-.773 1.194-1.914 1.194-1.163 0-1.937-.497-2.136-1.454l-3.208.168c.306 2.251 2.221 3.637 5.337 3.637 3.047 0 5.229-1.555 5.236-3.874-.007-1.7-1.117-2.718-3.399-3.185l-2.128-.429c-1.095-.237-1.501-.613-1.493-1.179-.008-.705.788-1.164 1.799-1.164 1.133 0 1.807.62 1.968 1.378l2.986-.184z" fill="#AD9E6A"></path><rect x="236.98" y="273.98" width="156.8" height="81.34" rx="3.92" fill="#D6E9CE" stroke="#7C9D6E" stroke-width="1.96"></rect><path d="M290.563 312.178c4.278 0 7.161-2.083 7.836-5.292l-4.436-.292c-.484 1.317-1.722 2.004-3.321 2.004-2.398 0-3.918-1.588-3.918-4.166v-.011H298.5v-1.317c0-5.877-3.557-8.782-8.128-8.782-5.089 0-8.387 3.614-8.387 8.951 0 5.482 3.253 8.905 8.578 8.905zm-3.839-10.729c.102-1.97 1.599-3.547 3.727-3.547 2.083 0 3.524 1.487 3.535 3.547h-7.262zm23.094-6.901h-3.253v-4.143h-4.796v4.143h-2.364v3.602h2.364v9.007c-.023 3.388 2.285 5.066 5.764 4.92a9.35 9.35 0 002.601-.451l-.755-3.569c-.236.045-.743.158-1.193.158-.957 0-1.621-.36-1.621-1.689v-8.376h3.253v-3.602zm7.282 7.295c.012-2.229 1.374-3.535 3.333-3.535 1.947 0 3.096 1.249 3.085 3.377v10.155h4.796v-11.01c.011-4.053-2.376-6.508-5.979-6.508-2.623 0-4.379 1.239-5.167 3.277h-.203v-8.816h-4.661v23.057h4.796v-9.997zm22.973 10.504c5.798 0 9.3-4.413 9.311-12.013.011-7.543-3.535-11.866-9.311-11.866-5.786 0-9.299 4.312-9.31 11.866-.023 7.577 3.501 12.001 9.31 12.013zm0-4.042c-2.645 0-4.356-2.657-4.345-7.971.011-5.235 1.711-7.869 4.345-7.869 2.624 0 4.335 2.634 4.335 7.869.011 5.314-1.7 7.971-4.335 7.971zm-69.972 15.826h-3.166l-3.943 2.496v2.987l3.648-2.287h.093v12.733h3.368v-15.929zm9.645 16.279c4.006 0 6.425-3.049 6.433-8.299.008-5.211-2.443-8.198-6.433-8.198-3.998 0-6.424 2.979-6.432 8.198-.016 5.235 2.419 8.291 6.432 8.299zm0-2.792c-1.828 0-3.01-1.836-3.002-5.507.008-3.617 1.182-5.437 3.002-5.437 1.813 0 2.995 1.82 2.995 5.437.008 3.671-1.175 5.507-2.995 5.507zm9.753 2.644c.995 0 1.859-.832 1.866-1.866-.007-1.019-.871-1.852-1.866-1.852-1.027 0-1.875.833-1.867 1.852a1.862 1.862 0 001.867 1.866zm9.11-16.131h-3.165l-3.944 2.496v2.987l3.648-2.287h.094v12.733h3.367v-15.929zm9.646 16.279c4.006 0 6.425-3.049 6.432-8.299.008-5.211-2.442-8.198-6.432-8.198-3.998 0-6.425 2.979-6.433 8.198-.015 5.235 2.419 8.291 6.433 8.299zm0-2.792c-1.828 0-3.01-1.836-3.002-5.507.007-3.617 1.182-5.437 3.002-5.437 1.812 0 2.994 1.82 2.994 5.437.008 3.671-1.174 5.507-2.994 5.507zm14.693 2.792c4.006 0 6.425-3.049 6.433-8.299.007-5.211-2.443-8.198-6.433-8.198-3.998 0-6.424 2.979-6.432 8.198-.016 5.235 2.419 8.291 6.432 8.299zm0-2.792c-1.828 0-3.01-1.836-3.002-5.507.008-3.617 1.182-5.437 3.002-5.437 1.813 0 2.995 1.82 2.995 5.437.008 3.671-1.175 5.507-2.995 5.507zm9.753 2.644c.995 0 1.859-.832 1.866-1.866-.007-1.019-.871-1.852-1.866-1.852-1.027 0-1.875.833-1.867 1.852a1.862 1.862 0 001.867 1.866zm9.752.148c4.006 0 6.425-3.049 6.433-8.299.007-5.211-2.443-8.198-6.433-8.198-3.998 0-6.425 2.979-6.432 8.198-.016 5.235 2.419 8.291 6.432 8.299zm0-2.792c-1.828 0-3.01-1.836-3.002-5.507.008-3.617 1.182-5.437 3.002-5.437 1.812 0 2.995 1.82 2.995 5.437.007 3.671-1.175 5.507-2.995 5.507zm9.752 2.644c.996 0 1.859-.832 1.867-1.866-.008-1.019-.871-1.852-1.867-1.852-1.026 0-1.874.833-1.866 1.852a1.862 1.862 0 001.866 1.866zm4.17-.202h11.356v-2.753h-6.689v-.109l2.326-2.279c3.274-2.987 4.153-4.48 4.153-6.293 0-2.761-2.256-4.713-5.67-4.713-3.345 0-5.639 1.999-5.631 5.126h3.196c-.007-1.525.957-2.458 2.412-2.458 1.4 0 2.442.871 2.442 2.271 0 1.268-.778 2.139-2.225 3.531l-5.67 5.25v2.427z" fill="#000"></path><rect x="236.98" y="371.98" width="156.8" height="81.34" rx="3.92" fill="#D6E9CE" stroke="#7C9D6E" stroke-width="1.96"></rect><path d="M261.349 410.122c2.792 0 4.245-1.61 4.909-3.051h.202v2.769h4.729v-23.057h-4.785v8.669h-.146c-.642-1.407-2.027-3.13-4.92-3.13-3.794 0-7.003 2.95-7.003 8.894 0 5.787 3.074 8.906 7.014 8.906zm1.52-3.817c-2.353 0-3.636-2.094-3.636-5.111 0-2.995 1.261-5.055 3.636-5.055 2.33 0 3.636 1.97 3.636 5.055s-1.328 5.111-3.636 5.111zm19.067 3.873c5.246 0 8.511-3.592 8.511-8.917 0-5.359-3.265-8.939-8.511-8.939-5.247 0-8.512 3.58-8.512 8.939 0 5.325 3.265 8.917 8.512 8.917zm.022-3.715c-2.42 0-3.659-2.218-3.659-5.235 0-3.018 1.239-5.247 3.659-5.247 2.376 0 3.614 2.229 3.614 5.247 0 3.017-1.238 5.235-3.614 5.235zm18.411 3.715c4.604 0 7.498-2.702 7.723-6.676h-4.526c-.281 1.846-1.497 2.882-3.141 2.882-2.24 0-3.693-1.88-3.693-5.19 0-3.265 1.464-5.134 3.693-5.134 1.756 0 2.882 1.16 3.141 2.882h4.526c-.203-3.996-3.231-6.62-7.746-6.62-5.246 0-8.488 3.637-8.488 8.939 0 5.258 3.186 8.917 8.511 8.917zm9.784-.338h4.796v-5.494l1.295-1.475 4.717 6.969h5.618l-6.744-9.806 6.417-7.486h-5.505l-5.539 6.563h-.259v-12.328h-4.796v23.057zm24.611.338c4.278 0 7.16-2.083 7.836-5.292l-4.436-.292c-.484 1.317-1.723 2.004-3.321 2.004-2.398 0-3.918-1.588-3.918-4.166v-.011h11.776v-1.317c0-5.877-3.558-8.782-8.128-8.782-5.089 0-8.388 3.614-8.388 8.951 0 5.482 3.254 8.905 8.579 8.905zm-3.839-10.729c.101-1.97 1.599-3.547 3.726-3.547 2.083 0 3.524 1.487 3.535 3.547h-7.261zm13.896 10.391h4.796v-9.783c0-2.128 1.554-3.592 3.67-3.592.664 0 1.576.113 2.027.259v-4.255a7.16 7.16 0 00-1.509-.169c-1.936 0-3.524 1.126-4.154 3.265h-.18v-3.017h-4.65v17.292zm20.958.507c5.798 0 9.299-4.413 9.31-12.013.012-7.543-3.535-11.866-9.31-11.866-5.787 0-9.299 4.312-9.311 11.866-.022 7.577 3.502 12.001 9.311 12.013zm0-4.042c-2.646 0-4.357-2.657-4.346-7.971.012-5.235 1.712-7.869 4.346-7.869 2.623 0 4.334 2.634 4.334 7.869.012 5.314-1.7 7.971-4.334 7.971zm-89.743 15.826h-3.165l-3.944 2.496v2.987l3.648-2.287h.094v12.733h3.367v-15.929zm4.03 15.929h3.477l6.611-13.137v-2.792h-11.177v2.753h7.693v.109l-6.604 13.067zm12.01 0h11.356v-2.753h-6.689v-.109l2.326-2.279c3.274-2.987 4.153-4.48 4.153-6.293 0-2.761-2.256-4.713-5.67-4.713-3.345 0-5.639 1.999-5.631 5.126h3.196c-.007-1.525.957-2.458 2.412-2.458 1.4 0 2.442.871 2.442 2.271 0 1.268-.778 2.139-2.225 3.531l-5.67 5.25v2.427zm15.378.202c.996 0 1.859-.832 1.867-1.866-.008-1.019-.871-1.852-1.867-1.852-1.027 0-1.874.833-1.867 1.852a1.862 1.862 0 001.867 1.866zm9.111-16.131h-3.166l-3.943 2.496v2.987l3.647-2.287h.094v12.733h3.368v-15.929zm4.029 15.929h3.477l6.612-13.137v-2.792h-11.178v2.753h7.693v.109l-6.604 13.067zm11.24.202c.996 0 1.859-.832 1.867-1.866-.008-1.019-.871-1.852-1.867-1.852-1.026 0-1.874.833-1.866 1.852a1.862 1.862 0 001.866 1.866zm9.753.148c4.005 0 6.424-3.049 6.432-8.299.008-5.211-2.442-8.198-6.432-8.198-3.998 0-6.425 2.979-6.433 8.198-.015 5.235 2.419 8.291 6.433 8.299zm0-2.792c-1.828 0-3.01-1.836-3.003-5.507.008-3.617 1.183-5.437 3.003-5.437 1.812 0 2.994 1.82 2.994 5.437.008 3.671-1.174 5.507-2.994 5.507zm9.752 2.644c.996 0 1.859-.832 1.867-1.866-.008-1.019-.871-1.852-1.867-1.852-1.027 0-1.874.833-1.867 1.852a1.862 1.862 0 001.867 1.866zm9.111-16.131h-3.166l-3.943 2.496v2.987l3.648-2.287h.093v12.733h3.368v-15.929z" fill="#000"></path><path fill="#D0021B" d="M199 536h13v35h-13zm0-129h12.759v76H199z"></path><path d="M236.396 407.036v12.759h-35.532v-12.759h35.532z" fill="#D0021B"></path><path fill="#000" d="M433 407h-12.759v76H433z"></path><path d="M395.604 407.036v12.759h35.532v-12.759h-35.532zM420 536h13v35h-13zM310 147h13v126h-13z" fill="#000"></path><path d="M465 147v13H313v-13h152z" fill="#000"></path><path fill="#D0021B" d="M310 147h13v126h-13z"></path><path d="M465 147v13H313v-13h152zm429 0h-13v126h13z" fill="#D0021B"></path><path d="M714 147v13h177v-13H714z" fill="#D0021B"></path><path d="M688.008 102.832a45.851 45.851 0 00-14.573 2.398c-.372-24.808-17.293-46.301-41.32-52.487-24.027-6.185-49.223 4.466-61.528 26.01a34.205 34.205 0 00-59.571 22.976c0 .378.046.745.056 1.12h-.056c-24.761-.027-45.093 19.563-45.986 44.308-.892 24.744 17.976 45.749 42.674 47.506v.169h180.304c25.401 0 45.992-20.591 45.992-45.992 0-25.4-20.591-45.991-45.992-45.991v-.017z" fill="#D1E6FF" stroke="#4A90E2" stroke-width="8"></path><path d="M30.32 709v-32.938h12.995c2.498 0 4.627.477 6.385 1.431 1.759.944 3.099 2.257 4.02 3.941.934 1.672 1.4 3.602 1.4 5.789 0 2.188-.472 4.118-1.415 5.79-.944 1.673-2.31 2.976-4.101 3.909-1.78.932-3.935 1.399-6.466 1.399h-8.282v-5.581h7.157c1.34 0 2.444-.231 3.313-.692.879-.471 1.533-1.12 1.962-1.946.44-.836.66-1.796.66-2.879 0-1.093-.22-2.047-.66-2.862-.43-.826-1.083-1.464-1.962-1.914-.88-.461-1.995-.692-3.346-.692h-4.696V709H30.32zm38.516.482c-2.498 0-4.659-.53-6.481-1.592-1.812-1.072-3.212-2.562-4.198-4.471-.986-1.919-1.48-4.144-1.48-6.674 0-2.552.493-4.782 1.48-6.691.986-1.919 2.386-3.41 4.198-4.471 1.822-1.072 3.983-1.608 6.481-1.608 2.498 0 4.654.536 6.466 1.608 1.822 1.061 3.227 2.552 4.213 4.471.987 1.909 1.48 4.139 1.48 6.691 0 2.53-.493 4.755-1.48 6.674-.986 1.909-2.39 3.399-4.213 4.471-1.813 1.062-3.968 1.592-6.466 1.592zm.032-5.307c1.137 0 2.086-.322 2.847-.965.761-.654 1.335-1.544 1.72-2.67.398-1.126.596-2.407.596-3.844 0-1.436-.198-2.718-.595-3.843-.386-1.126-.96-2.016-1.721-2.67-.761-.654-1.71-.981-2.847-.981-1.147 0-2.112.327-2.895.981-.772.654-1.356 1.544-1.753 2.67-.386 1.125-.579 2.407-.579 3.843 0 1.437.193 2.718.58 3.844.396 1.126.98 2.016 1.752 2.67.783.643 1.748.965 2.895.965zm24.243 5.227c-1.877 0-3.576-.482-5.099-1.447-1.511-.976-2.712-2.408-3.602-4.295-.88-1.897-1.32-4.224-1.32-6.98 0-2.83.457-5.184 1.368-7.06.911-1.887 2.123-3.297 3.635-4.23a9.31 9.31 0 015.002-1.415c1.383 0 2.535.236 3.457.707.933.461 1.684 1.04 2.252 1.737.58.687 1.019 1.362 1.319 2.027h.209v-12.384h6.835V709h-6.755v-3.956h-.289c-.322.686-.778 1.367-1.367 2.042-.58.665-1.335 1.217-2.268 1.657-.922.439-2.048.659-3.377.659zm2.17-5.452c1.105 0 2.038-.3 2.8-.901.771-.611 1.361-1.463 1.769-2.557.418-1.094.627-2.375.627-3.844 0-1.469-.204-2.745-.611-3.828-.408-1.083-.998-1.919-1.77-2.509-.772-.589-1.71-.884-2.814-.884-1.126 0-2.075.305-2.847.917-.772.611-1.356 1.458-1.753 2.541-.397 1.083-.595 2.337-.595 3.763 0 1.437.198 2.708.595 3.812.407 1.094.992 1.951 1.753 2.573.772.611 1.721.917 2.847.917zm30.923 5.05h-7.463l11.371-32.938h8.974L150.441 709h-7.462l-8.251-25.411h-.257L126.204 709zm-.467-12.947h17.628v5.436h-17.628v-5.436z" fill="#000"></path><path d="M966.706 395.719a1.772 1.772 0 010-2.506l11.279-11.278a1.772 1.772 0 012.506 2.506l-10.025 10.025 10.025 10.026a1.772 1.772 0 01-2.506 2.506l-11.279-11.279zm50.524 83.815v-2.962h3.54v2.962h-3.54zm0-8.887v-5.924h3.54v5.924h-3.54zm0-11.848v-5.925h3.54v5.925h-3.54zm0-11.849v-5.924h3.54v5.924h-3.54zm0-11.849v-5.924h3.54v5.924h-3.54zm0-11.848v-5.925h3.54v5.925h-3.54zm0-11.849v-5.925h3.54v5.925h-3.54zm0-11.849v-2.962h3.54v2.962h-3.54zm0-2.962a.292.292 0 00-.03-.135l3.28-1.358c.19.462.29.968.29 1.493h-3.54zm-.22-.328a.368.368 0 00-.14-.026v-3.545c.53 0 1.03.105 1.5.297l-1.36 3.274zm-.14-.026h-3.05v-3.545h3.05v3.545zm-9.17 0h-6.11v-3.545h6.11v3.545zm-12.226 0h-6.115v-3.545h6.115v3.545zm-12.229 0h-6.114v-3.545h6.114v3.545zm-12.228 0h-3.057v-3.545h3.057v3.545z" fill="#2ECC71"></path><path d="M1141.08 698.26c0 32.165-26.07 58.24-58.24 58.24h-509.6c-32.165 0-58.24-26.075-58.24-58.24v-2.436c0-32.165 26.075-58.24 58.24-58.24h307.946l78.937-35.786c2.892-1.311 6.172.803 6.172 3.978v31.808h116.545c32.17 0 58.24 26.075 58.24 58.24v2.436z" fill="#F1C40F"></path><path d="M564.24 679.793v35.709h-7.549v-35.709h7.549zm18.89 8.927v5.58h-16.129v-5.58h16.129zm-12.467-6.416h7.428v24.968c0 .686.104 1.221.313 1.604.21.372.5.634.872.785.384.151.826.227 1.325.227a6.25 6.25 0 001.046-.088c.349-.069.617-.122.803-.157l1.168 5.528c-.372.116-.895.25-1.569.401-.675.162-1.494.261-2.459.296-1.79.07-3.359-.168-4.708-.715-1.336-.546-2.377-1.395-3.121-2.545-.744-1.151-1.11-2.604-1.098-4.359v-25.945zm23.3-2.511v3.766c0 1.07-.209 2.162-.627 3.278a13.962 13.962 0 01-1.639 3.139 13.037 13.037 0 01-2.25 2.493l-3.278-1.935a18.243 18.243 0 001.535-3.052c.453-1.116.68-2.412.68-3.888v-3.801h5.579zm22.446 16.564l-6.8.419a3.504 3.504 0 00-.75-1.569c-.383-.477-.889-.855-1.516-1.134-.617-.29-1.355-.436-2.215-.436-1.151 0-2.121.244-2.912.733-.79.476-1.185 1.115-1.185 1.918 0 .639.255 1.179.767 1.621.511.442 1.389.796 2.633 1.064l4.847.976c2.604.535 4.545 1.395 5.824 2.581 1.278 1.185 1.917 2.743 1.917 4.672 0 1.756-.517 3.296-1.551 4.621-1.023 1.325-2.43 2.36-4.22 3.104-1.778.732-3.83 1.098-6.155 1.098-3.545 0-6.37-.738-8.474-2.214-2.092-1.488-3.318-3.511-3.679-6.068l7.306-.384c.221 1.081.756 1.907 1.604 2.476.849.558 1.936.837 3.261.837 1.302 0 2.348-.25 3.138-.75.802-.511 1.209-1.168 1.221-1.97-.012-.674-.297-1.226-.855-1.656-.558-.442-1.418-.779-2.58-1.012l-4.638-.924c-2.616-.523-4.563-1.429-5.841-2.72-1.267-1.29-1.901-2.935-1.901-4.934 0-1.72.465-3.202 1.395-4.446.942-1.244 2.261-2.203 3.958-2.877 1.709-.674 3.708-1.011 5.998-1.011 3.383 0 6.045.714 7.986 2.144 1.953 1.43 3.092 3.377 3.417 5.841zm13.795 19.145V688.72h7.079v4.725h.314c.558-1.569 1.488-2.807 2.79-3.713 1.302-.907 2.859-1.36 4.673-1.36 1.836 0 3.4.459 4.69 1.377 1.29.907 2.15 2.139 2.58 3.696h.279c.547-1.534 1.535-2.76 2.964-3.679 1.442-.929 3.145-1.394 5.109-1.394 2.499 0 4.528.796 6.085 2.388 1.57 1.581 2.354 3.825 2.354 6.731v18.011h-7.41v-16.547c0-1.488-.395-2.604-1.186-3.347-.79-.744-1.778-1.116-2.964-1.116-1.348 0-2.4.43-3.156 1.29-.755.848-1.133 1.97-1.133 3.365v16.355h-7.201v-16.704c0-1.313-.378-2.359-1.133-3.138-.744-.779-1.727-1.168-2.947-1.168-.825 0-1.569.209-2.232.627-.651.407-1.168.983-1.552 1.726-.383.733-.575 1.593-.575 2.581v16.076h-7.428zm55.561.523c-2.754 0-5.126-.558-7.113-1.674-1.977-1.127-3.499-2.72-4.569-4.777-1.069-2.069-1.604-4.516-1.604-7.341 0-2.755.535-5.172 1.604-7.253 1.07-2.081 2.575-3.702 4.516-4.865 1.953-1.162 4.243-1.743 6.87-1.743 1.767 0 3.412.284 4.934.854a10.958 10.958 0 014.011 2.528c1.15 1.128 2.045 2.546 2.685 4.255.639 1.697.959 3.684.959 5.963v2.04h-22.615v-4.603h15.623c0-1.07-.233-2.017-.698-2.842a4.988 4.988 0 00-1.935-1.936c-.814-.476-1.761-.715-2.842-.715-1.127 0-2.127.262-2.999.785a5.505 5.505 0 00-2.023 2.075c-.488.86-.738 1.819-.749 2.877v4.376c0 1.325.244 2.47.732 3.435.5.965 1.203 1.709 2.11 2.232.906.523 1.982.784 3.225.784.826 0 1.581-.116 2.267-.348a4.72 4.72 0 001.761-1.046 4.558 4.558 0 001.116-1.709l6.87.453c-.349 1.651-1.064 3.092-2.145 4.324-1.069 1.221-2.452 2.174-4.15 2.86-1.685.674-3.632 1.011-5.841 1.011zm41.113-36.232v35.709h-7.55v-28.543h-.209l-8.177 5.126v-6.695l8.84-5.597h7.096zm20.764 36.197a16.105 16.105 0 01-5.318-.924c-1.697-.604-3.22-1.587-4.569-2.947-1.348-1.36-2.417-3.161-3.208-5.405-.779-2.243-1.168-4.998-1.168-8.264.012-2.999.354-5.679 1.029-8.038.685-2.372 1.662-4.383 2.929-6.033 1.279-1.651 2.807-2.906 4.586-3.766 1.778-.872 3.772-1.308 5.98-1.308 2.383 0 4.487.465 6.312 1.395 1.825.918 3.29 2.168 4.394 3.749 1.116 1.58 1.79 3.353 2.022 5.317h-7.445c-.29-1.243-.901-2.22-1.831-2.929-.929-.709-2.08-1.063-3.452-1.063-2.325 0-4.092 1.011-5.3 3.034-1.198 2.022-1.808 4.771-1.831 8.247h.244a8.297 8.297 0 012.162-2.703 9.87 9.87 0 013.121-1.726 11.257 11.257 0 013.714-.61c2.115 0 3.999.5 5.649 1.499 1.651.988 2.953 2.348 3.906 4.08.953 1.732 1.43 3.714 1.43 5.946 0 2.418-.564 4.568-1.692 6.451-1.116 1.883-2.679 3.36-4.69 4.429-1.999 1.058-4.324 1.581-6.974 1.569zm-.035-5.928c1.162 0 2.202-.279 3.121-.837a5.955 5.955 0 002.162-2.267c.523-.953.784-2.022.784-3.208 0-1.186-.261-2.249-.784-3.191a5.916 5.916 0 00-2.127-2.249c-.907-.558-1.942-.837-3.104-.837a5.99 5.99 0 00-2.424.488 6.098 6.098 0 00-1.935 1.36 6.558 6.558 0 00-1.29 2.023 6.252 6.252 0 00-.471 2.424c0 1.15.262 2.202.785 3.155a6.267 6.267 0 002.162 2.285c.918.569 1.958.854 3.121.854zm21.726 5.893c-1.15 0-2.138-.407-2.964-1.22-.813-.826-1.22-1.814-1.22-2.964 0-1.139.407-2.116 1.22-2.93.826-.813 1.814-1.22 2.964-1.22 1.116 0 2.093.407 2.93 1.22.837.814 1.255 1.791 1.255 2.93 0 .767-.198 1.47-.593 2.109a4.493 4.493 0 01-1.517 1.517 3.992 3.992 0 01-2.075.558zm0-18.761c-1.15 0-2.138-.407-2.964-1.22-.813-.814-1.22-1.802-1.22-2.964 0-1.14.407-2.11 1.22-2.912.826-.814 1.814-1.221 2.964-1.221 1.116 0 2.093.407 2.93 1.221.837.802 1.255 1.772 1.255 2.912a3.97 3.97 0 01-.593 2.127 4.354 4.354 0 01-1.517 1.499 3.992 3.992 0 01-2.075.558zm16.492 18.814c-1.709 0-3.231-.297-4.568-.89-1.337-.604-2.395-1.493-3.173-2.667-.768-1.186-1.151-2.662-1.151-4.429 0-1.488.273-2.738.819-3.749a6.64 6.64 0 012.232-2.441c.942-.616 2.011-1.081 3.208-1.395a24.457 24.457 0 013.801-.662 95.38 95.38 0 003.766-.454c.954-.151 1.645-.372 2.075-.662.43-.291.645-.721.645-1.29v-.105c0-1.104-.348-1.959-1.046-2.563-.686-.605-1.662-.907-2.929-.907-1.337 0-2.4.297-3.191.889-.79.582-1.313 1.314-1.569 2.197l-6.87-.558c.349-1.627 1.035-3.033 2.058-4.219 1.023-1.197 2.342-2.116 3.958-2.755 1.627-.651 3.51-.976 5.649-.976 1.488 0 2.912.174 4.272.523 1.371.348 2.586.889 3.644 1.621a7.888 7.888 0 012.528 2.825c.616 1.139.924 2.505.924 4.097v18.064h-7.044v-3.714h-.209a7.561 7.561 0 01-1.726 2.214c-.721.628-1.587 1.122-2.598 1.483-1.012.348-2.18.523-3.505.523zm2.127-5.127c1.093 0 2.058-.215 2.895-.645.837-.441 1.493-1.034 1.97-1.778.476-.744.715-1.587.715-2.528v-2.842c-.233.151-.552.29-.959.418-.395.116-.843.227-1.343.331-.5.093-.999.18-1.499.262l-1.36.192c-.872.127-1.633.331-2.284.61-.651.279-1.157.657-1.517 1.133-.361.465-.541 1.046-.541 1.744 0 1.011.366 1.784 1.099 2.319.744.523 1.685.784 2.824.784zm16.679-1.656v-5.946l14.908-23.486h5.126v8.23h-3.034l-9.398 14.873v.279h21.185v6.05h-28.787zm17.14 6.277v-8.09l.139-2.633v-24.986h7.079v35.709h-7.218zm19.66.453c-1.15 0-2.138-.407-2.964-1.22-.813-.826-1.22-1.814-1.22-2.964 0-1.139.407-2.116 1.22-2.93.826-.813 1.814-1.22 2.964-1.22 1.116 0 2.093.407 2.93 1.22.837.814 1.255 1.791 1.255 2.93 0 .767-.198 1.47-.593 2.109a4.493 4.493 0 01-1.517 1.517 3.992 3.992 0 01-2.075.558zm0-18.761c-1.15 0-2.138-.407-2.964-1.22-.813-.814-1.22-1.802-1.22-2.964 0-1.14.407-2.11 1.22-2.912.826-.814 1.814-1.221 2.964-1.221 1.116 0 2.093.407 2.93 1.221.837.802 1.255 1.772 1.255 2.912a3.97 3.97 0 01-.593 2.127 4.354 4.354 0 01-1.517 1.499 3.992 3.992 0 01-2.075.558zm23.257-8.474v5.58h-16.529v-5.58h16.529zm-12.745 26.782v-28.717c0-1.941.377-3.551 1.133-4.83a7.288 7.288 0 013.138-2.877c1.325-.639 2.831-.959 4.516-.959 1.139 0 2.18.087 3.121.262.953.174 1.663.331 2.127.471l-1.325 5.579a9.192 9.192 0 00-1.081-.261 6.686 6.686 0 00-1.29-.123c-1.093 0-1.854.256-2.284.768-.43.5-.645 1.203-.645 2.109v28.578h-7.41zm29.106.488c-2.685 0-5.074-.436-7.166-1.308-2.081-.883-3.714-2.086-4.9-3.609-1.185-1.523-1.778-3.249-1.778-5.178 0-1.488.337-2.854 1.011-4.098a9.113 9.113 0 012.79-3.121 9.2 9.2 0 013.94-1.604v-.244c-1.906-.384-3.452-1.308-4.637-2.772-1.186-1.477-1.779-3.191-1.779-5.144 0-1.848.541-3.493 1.622-4.934 1.081-1.453 2.563-2.592 4.446-3.418 1.894-.837 4.045-1.255 6.451-1.255 2.406 0 4.551.418 6.434 1.255 1.895.837 3.382 1.982 4.464 3.435 1.081 1.442 1.627 3.081 1.639 4.917-.012 1.965-.617 3.679-1.814 5.144-1.197 1.464-2.731 2.388-4.603 2.772v.244a9.05 9.05 0 013.888 1.604 9.113 9.113 0 012.79 3.121c.697 1.244 1.052 2.61 1.064 4.098-.012 1.929-.611 3.655-1.796 5.178-1.186 1.523-2.825 2.726-4.917 3.609-2.081.872-4.464 1.308-7.149 1.308zm0-5.544c1.197 0 2.243-.216 3.139-.646.895-.441 1.592-1.046 2.092-1.813.511-.779.767-1.674.767-2.685 0-1.035-.262-1.947-.785-2.738a5.398 5.398 0 00-2.127-1.883c-.895-.465-1.924-.697-3.086-.697-1.151 0-2.179.232-3.086.697-.907.454-1.622 1.081-2.145 1.883-.511.791-.767 1.703-.767 2.738 0 1.011.25 1.906.75 2.685.5.767 1.203 1.372 2.11 1.813.906.43 1.952.646 3.138.646zm0-15.954c1 0 1.889-.204 2.668-.611a4.587 4.587 0 001.831-1.691c.441-.721.662-1.552.662-2.493 0-.93-.221-1.744-.662-2.441a4.553 4.553 0 00-1.814-1.657c-.767-.407-1.662-.61-2.685-.61-1.011 0-1.906.203-2.685.61a4.522 4.522 0 00-1.831 1.657c-.43.697-.645 1.511-.645 2.441 0 .941.221 1.772.663 2.493a4.584 4.584 0 001.83 1.691c.779.407 1.668.611 2.668.611zm22.123 16.86c-1.15 0-2.138-.407-2.964-1.22-.813-.814-1.22-1.802-1.22-2.964 0-1.14.407-2.116 1.22-2.93.826-.813 1.814-1.22 2.964-1.22 1.116 0 2.093.407 2.93 1.22.837.814 1.255 1.79 1.255 2.93 0 .767-.197 1.47-.593 2.109a4.493 4.493 0 01-1.517 1.517 3.992 3.992 0 01-2.075.558zm0-17.523c-1.15 0-2.138-.407-2.964-1.22-.813-.814-1.22-1.802-1.22-2.965 0-1.139.407-2.109 1.22-2.911.826-.814 1.814-1.221 2.964-1.221 1.116 0 2.093.407 2.93 1.221.837.802 1.255 1.772 1.255 2.911 0 .779-.197 1.488-.593 2.128a4.354 4.354 0 01-1.517 1.499 3.992 3.992 0 01-2.075.558zm8.245 15.396v-5.946l14.908-23.486h5.126v8.23h-3.034l-9.398 14.873v.279h21.185v6.05h-28.787zm17.139 6.277v-8.09l.14-2.633v-24.986h7.079v35.709h-7.219zm29.722-26.782v5.58h-16.53v-5.58h16.53zm-12.746 26.782v-28.717c0-1.941.378-3.551 1.133-4.83a7.29 7.29 0 013.139-2.877c1.325-.639 2.83-.959 4.516-.959 1.139 0 2.179.087 3.121.262.953.174 1.662.331 2.127.471l-1.325 5.579a9.242 9.242 0 00-1.081-.261 6.704 6.704 0 00-1.291-.123c-1.092 0-1.854.256-2.284.768-.43.5-.645 1.203-.645 2.109v28.578h-7.41zm20.197.453c-1.151 0-2.139-.407-2.964-1.22-.814-.826-1.221-1.814-1.221-2.964 0-1.139.407-2.116 1.221-2.93.825-.813 1.813-1.22 2.964-1.22 1.116 0 2.092.407 2.929 1.22.837.814 1.255 1.791 1.255 2.93 0 .767-.197 1.47-.593 2.109a4.499 4.499 0 01-1.516 1.517 3.997 3.997 0 01-2.075.558zm0-18.761c-1.151 0-2.139-.407-2.964-1.22-.814-.814-1.221-1.802-1.221-2.964 0-1.14.407-2.11 1.221-2.912.825-.814 1.813-1.221 2.964-1.221 1.116 0 2.092.407 2.929 1.221.837.802 1.255 1.772 1.255 2.912 0 .778-.197 1.487-.593 2.127a4.36 4.36 0 01-1.516 1.499 3.997 3.997 0 01-2.075.558zm21.827 18.796c-2.465 0-4.662-.453-6.591-1.36-1.918-.907-3.441-2.156-4.568-3.749-1.128-1.592-1.715-3.417-1.761-5.474h7.323c.081 1.383.662 2.505 1.743 3.365 1.081.86 2.366 1.29 3.854 1.29 1.185 0 2.231-.262 3.138-.785a5.619 5.619 0 002.145-2.214c.523-.953.784-2.046.784-3.278 0-1.255-.267-2.36-.802-3.313a5.67 5.67 0 00-2.179-2.232c-.93-.534-1.994-.808-3.191-.819a7.572 7.572 0 00-3.051.645c-.977.43-1.738 1.017-2.284 1.761l-6.713-1.203 1.691-18.831h21.83v6.172h-15.605l-.924 8.945h.209c.628-.883 1.575-1.616 2.842-2.197 1.267-.581 2.685-.872 4.254-.872 2.151 0 4.069.506 5.754 1.517 1.686 1.012 3.017 2.401 3.993 4.167.973 1.756 1.463 3.778 1.443 6.068.02 2.406-.54 4.545-1.67 6.417-1.116 1.859-2.679 3.324-4.69 4.393-1.999 1.058-4.324 1.587-6.974 1.587zm30.884 0a16.112 16.112 0 01-5.32-.924c-1.7-.604-3.22-1.587-4.57-2.947s-2.42-3.161-3.21-5.405c-.78-2.243-1.17-4.998-1.17-8.264.02-2.999.36-5.679 1.03-8.038.69-2.372 1.66-4.383 2.93-6.033 1.28-1.651 2.81-2.906 4.59-3.766 1.78-.872 3.77-1.308 5.98-1.308 2.38 0 4.48.465 6.31 1.395 1.82.918 3.29 2.168 4.39 3.749 1.12 1.58 1.79 3.353 2.03 5.317h-7.45c-.29-1.243-.9-2.22-1.83-2.929-.93-.709-2.08-1.063-3.45-1.063-2.33 0-4.09 1.011-5.3 3.034-1.2 2.022-1.81 4.771-1.83 8.247h.24a8.45 8.45 0 012.16-2.703 9.909 9.909 0 013.12-1.726c1.18-.407 2.42-.61 3.72-.61 2.11 0 4 .5 5.65 1.499 1.65.988 2.95 2.348 3.9 4.08.96 1.732 1.43 3.714 1.43 5.946 0 2.418-.56 4.568-1.69 6.451-1.11 1.883-2.68 3.36-4.69 4.429-2 1.058-4.32 1.581-6.97 1.569zm-.04-5.928c1.16 0 2.2-.279 3.12-.837a5.913 5.913 0 002.16-2.267c.53-.953.79-2.022.79-3.208 0-1.186-.26-2.249-.79-3.191a5.929 5.929 0 00-2.12-2.249c-.91-.558-1.94-.837-3.11-.837-.87 0-1.68.163-2.42.488-.73.326-1.38.779-1.94 1.36a6.786 6.786 0 00-1.29 2.023 6.326 6.326 0 00-.47 2.424c0 1.15.27 2.202.79 3.155a6.205 6.205 0 002.16 2.285c.92.569 1.96.854 3.12.854zm21.73 1.29c-1.15 0-2.14-.407-2.97-1.22-.81-.814-1.22-1.802-1.22-2.964 0-1.14.41-2.116 1.22-2.93.83-.813 1.82-1.22 2.97-1.22 1.11 0 2.09.407 2.93 1.22.83.814 1.25 1.79 1.25 2.93 0 .767-.19 1.47-.59 2.109a4.458 4.458 0 01-1.52 1.517c-.62.372-1.32.558-2.07.558zm0-17.523c-1.15 0-2.14-.407-2.97-1.22-.81-.814-1.22-1.802-1.22-2.965 0-1.139.41-2.109 1.22-2.911.83-.814 1.82-1.221 2.97-1.221 1.11 0 2.09.407 2.93 1.221.83.802 1.25 1.772 1.25 2.911 0 .779-.19 1.488-.59 2.128a4.321 4.321 0 01-1.52 1.499c-.62.372-1.32.558-2.07.558zm10.2 21.673l14.8-29.292v-.245h-17.25v-6.172h25.06v6.26l-14.82 29.449h-7.79zm28.73 0l14.8-29.292v-.245h-17.24v-6.172h25.05v6.26l-14.82 29.449h-7.79zM64.32 103V70.062h12.995c2.498 0 4.627.477 6.385 1.431 1.759.944 3.099 2.257 4.02 3.94.934 1.673 1.4 3.603 1.4 5.79 0 2.188-.472 4.118-1.415 5.79-.944 1.673-2.31 2.976-4.101 3.909-1.78.932-3.935 1.399-6.466 1.399h-8.282V86.74h7.157c1.34 0 2.444-.23 3.313-.692.879-.471 1.533-1.12 1.962-1.946.44-.836.66-1.796.66-2.879 0-1.093-.22-2.047-.66-2.862-.43-.826-1.083-1.464-1.962-1.914-.88-.461-1.995-.692-3.346-.692h-4.696V103H64.32zm38.516.482c-2.498 0-4.659-.53-6.481-1.592-1.812-1.072-3.212-2.562-4.198-4.47-.986-1.92-1.48-4.145-1.48-6.675 0-2.552.493-4.782 1.48-6.69.986-1.92 2.386-3.41 4.198-4.472 1.822-1.072 3.983-1.608 6.481-1.608 2.498 0 4.654.536 6.466 1.608 1.822 1.061 3.227 2.552 4.213 4.471.987 1.909 1.48 4.139 1.48 6.69 0 2.531-.493 4.756-1.48 6.675-.986 1.909-2.391 3.399-4.213 4.471-1.812 1.062-3.968 1.592-6.466 1.592zm.032-5.307c1.137 0 2.086-.322 2.847-.965.761-.654 1.335-1.544 1.721-2.67.397-1.126.595-2.407.595-3.844 0-1.436-.198-2.718-.595-3.843-.386-1.126-.96-2.016-1.721-2.67-.761-.654-1.71-.981-2.847-.981-1.147 0-2.112.327-2.895.98-.772.655-1.356 1.545-1.753 2.67-.386 1.126-.579 2.408-.579 3.844 0 1.437.193 2.719.58 3.844.396 1.126.98 2.016 1.752 2.67.783.643 1.748.965 2.895.965zm24.243 5.227c-1.877 0-3.576-.482-5.099-1.447-1.511-.976-2.712-2.407-3.602-4.295-.88-1.897-1.319-4.224-1.319-6.98 0-2.83.456-5.184 1.367-7.06.911-1.887 2.123-3.297 3.635-4.23a9.313 9.313 0 015.002-1.415c1.383 0 2.535.236 3.457.707.933.461 1.684 1.04 2.252 1.737.579.687 1.019 1.362 1.319 2.027h.209V70.062h6.835V103h-6.755v-3.956h-.289c-.322.686-.777 1.367-1.367 2.042-.579.665-1.335 1.217-2.268 1.657-.922.439-2.048.659-3.377.659zm2.171-5.452c1.104 0 2.037-.3 2.798-.9.772-.612 1.362-1.464 1.769-2.558.419-1.094.628-2.375.628-3.844 0-1.469-.204-2.745-.611-3.828-.408-1.082-.998-1.919-1.77-2.509-.772-.59-1.71-.884-2.814-.884-1.126 0-2.075.305-2.847.917-.772.61-1.356 1.458-1.753 2.54-.397 1.084-.595 2.338-.595 3.764 0 1.437.198 2.708.595 3.812.408 1.094.992 1.951 1.753 2.573.772.611 1.721.917 2.847.917zm30.922 5.05h-7.463l11.371-32.938h8.974L184.441 103h-7.462l-8.251-25.411h-.257L160.204 103zm-.467-12.947h17.628v5.436h-17.628v-5.436zM62.786 54h3.889v-7.598h7.48v-3.206h-7.48v-4.383h8.289v-3.206H62.786V54zm13.988 0h3.889v-6.52h2.838L86.985 54h4.293l-3.906-7.149c2.092-.898 3.25-2.72 3.25-5.236 0-3.655-2.415-6.008-6.591-6.008h-7.257V54zm3.889-9.645v-5.569h2.622c2.246 0 3.332.997 3.332 2.83 0 1.823-1.086 2.739-3.314 2.739h-2.64zm28.804.449c0-6.018-3.736-9.448-8.612-9.448-4.904 0-8.613 3.43-8.613 9.448 0 5.99 3.71 9.447 8.613 9.447 4.876 0 8.612-3.43 8.612-9.447zm-3.942 0c0 3.897-1.85 6.008-4.67 6.008-2.83 0-4.67-2.11-4.67-6.008s1.84-6.009 4.67-6.009c2.82 0 4.67 2.111 4.67 6.009zm6.018-9.197V54h3.771V41.984h.153l4.76 11.926h2.569l4.759-11.881h.153V54h3.772V35.607h-4.796l-5.065 12.358h-.216l-5.065-12.358h-4.795zm24.5 7.239c1.149 0 2.146-.961 2.155-2.156-.009-1.176-1.006-2.137-2.155-2.137-1.186 0-2.165.96-2.156 2.137a2.15 2.15 0 002.156 2.156zm0 9.017c1.149 0 2.146-.961 2.155-2.156-.009-1.176-1.006-2.137-2.155-2.137-1.186 0-2.165.96-2.156 2.137a2.15 2.15 0 002.156 2.156zm-74.036 89.95h5.63V157h3.845v-15.187h5.63v-3.206H62.008v3.206zm32.875 5.991c0-6.018-3.736-9.448-8.613-9.448-4.903 0-8.612 3.43-8.612 9.448 0 5.99 3.709 9.447 8.612 9.447 4.877 0 8.613-3.43 8.613-9.447zm-3.943 0c0 3.897-1.85 6.008-4.67 6.008-2.829 0-4.67-2.111-4.67-6.008 0-3.898 1.841-6.009 4.67-6.009 2.82 0 4.67 2.111 4.67 6.009zm8.182-1.958c1.15 0 2.147-.961 2.156-2.156-.009-1.176-1.006-2.137-2.156-2.137-1.185 0-2.164.961-2.155 2.137a2.15 2.15 0 002.155 2.156zm0 9.017c1.15 0 2.147-.961 2.156-2.156-.009-1.176-1.006-2.137-2.156-2.137-1.185 0-2.164.961-2.155 2.137a2.15 2.15 0 002.155 2.156zM64.288 206v-32.938h12.995c2.499 0 4.627.477 6.385 1.431 1.759.944 3.099 2.257 4.021 3.941.933 1.672 1.4 3.602 1.4 5.789 0 2.188-.472 4.118-1.416 5.79-.944 1.673-2.31 2.976-4.101 3.909-1.78.932-3.935 1.399-6.466 1.399h-8.282v-5.581h7.157c1.34 0 2.444-.231 3.313-.692.879-.471 1.533-1.12 1.962-1.946.44-.836.66-1.796.66-2.879 0-1.093-.22-2.047-.66-2.862-.429-.826-1.083-1.464-1.962-1.914-.88-.461-1.995-.692-3.346-.692h-4.696V206h-6.964zm38.516.482c-2.498 0-4.658-.53-6.481-1.592-1.812-1.072-3.211-2.562-4.198-4.471-.986-1.919-1.48-4.144-1.48-6.674 0-2.552.494-4.782 1.48-6.691.987-1.919 2.386-3.41 4.198-4.471 1.823-1.072 3.983-1.608 6.481-1.608 2.499 0 4.654.536 6.466 1.608 1.822 1.061 3.227 2.552 4.213 4.471.987 1.909 1.48 4.139 1.48 6.691 0 2.53-.493 4.755-1.48 6.674-.986 1.909-2.391 3.399-4.213 4.471-1.812 1.062-3.967 1.592-6.466 1.592zm.032-5.307c1.137 0 2.086-.322 2.847-.965.761-.654 1.335-1.544 1.721-2.67.397-1.126.595-2.407.595-3.844 0-1.436-.198-2.718-.595-3.843-.386-1.126-.96-2.016-1.721-2.67-.761-.654-1.71-.981-2.847-.981-1.147 0-2.112.327-2.894.981-.772.654-1.357 1.544-1.753 2.67-.386 1.125-.58 2.407-.58 3.843 0 1.437.194 2.718.58 3.844.396 1.126.98 2.016 1.753 2.67.782.643 1.747.965 2.894.965zm24.243 5.227c-1.877 0-3.576-.482-5.099-1.447-1.511-.976-2.712-2.408-3.602-4.295-.879-1.897-1.319-4.224-1.319-6.98 0-2.83.456-5.184 1.367-7.06.911-1.887 2.123-3.297 3.635-4.23a9.308 9.308 0 015.002-1.415c1.383 0 2.536.236 3.458.707.932.461 1.683 1.04 2.251 1.737.579.687 1.019 1.362 1.319 2.027h.209v-12.384h6.835V206h-6.754v-3.956h-.29c-.322.686-.777 1.367-1.367 2.042-.579.665-1.335 1.217-2.268 1.657-.922.439-2.048.659-3.377.659zm2.171-5.452c1.104 0 2.037-.3 2.799-.901.771-.611 1.361-1.463 1.769-2.557.418-1.094.627-2.375.627-3.844 0-1.469-.204-2.745-.611-3.828-.408-1.083-.997-1.919-1.769-2.509-.772-.589-1.711-.884-2.815-.884-1.126 0-2.075.305-2.847.917-.772.611-1.356 1.458-1.753 2.541-.396 1.083-.595 2.337-.595 3.763 0 1.437.199 2.708.595 3.812.408 1.094.992 1.951 1.753 2.573.772.611 1.721.917 2.847.917zm25.245 5.05v-32.938h13.188c2.423 0 4.444.359 6.063 1.077 1.619.719 2.836 1.716 3.651 2.992.815 1.265 1.222 2.723 1.222 4.374 0 1.287-.257 2.418-.772 3.394a6.653 6.653 0 01-2.123 2.38c-.89.611-1.908 1.046-3.055 1.303v.322a7.372 7.372 0 013.522 1.061c1.104.654 1.999 1.571 2.686 2.75.686 1.169 1.029 2.563 1.029 4.182 0 1.748-.434 3.308-1.303 4.68-.858 1.362-2.128 2.439-3.811 3.233-1.684.793-3.759 1.19-6.225 1.19h-14.072zm6.964-5.693h5.677c1.941 0 3.356-.37 4.246-1.11.89-.751 1.335-1.748 1.335-2.992 0-.911-.22-1.715-.66-2.412-.439-.697-1.066-1.244-1.881-1.641-.804-.396-1.764-.595-2.879-.595h-5.838v8.75zm0-13.462h5.162c.955 0 1.802-.166 2.541-.499.751-.343 1.341-.825 1.77-1.447.439-.622.659-1.367.659-2.236 0-1.19-.424-2.149-1.271-2.878-.836-.73-2.026-1.094-3.57-1.094h-5.291v8.154z" fill="#000"></path></svg>