<svg viewBox="0 0 1200 900" fill="none" xmlns="http://www.w3.org/2000/svg"><path fill="#fff" d="M0 0h1200v900H0z"></path><rect x="252.4" y="83.4" width="696.2" height="696.2" rx="26.6" fill="#CEE2F6" stroke="#76AADF" stroke-width="2.8"></rect><rect x="304.4" y="83.4" width="595.2" height="223.2" rx="5.6" fill="#FFF2C5" stroke="#AD9E6A" stroke-width="2.8"></rect><rect x="304.4" y="407.4" width="595.2" height="326.2" rx="5.6" fill="#FFF2C5" stroke="#AD9E6A" stroke-width="2.8"></rect><rect x="332.4" y="582.4" width="250.976" height="130.2" rx="5.6" fill="#E5E5E5" stroke="#979797" stroke-width="2.8"></rect><path d="M369.206 660.2v-32.938h6.851v12.384h.209c.301-.665.735-1.341 1.303-2.027.579-.697 1.33-1.276 2.252-1.737.933-.471 2.091-.707 3.474-.707 1.801 0 3.463.471 4.986 1.415 1.522.933 2.739 2.343 3.65 4.23.912 1.876 1.367 4.23 1.367 7.06 0 2.756-.444 5.083-1.334 6.98-.88 1.887-2.08 3.319-3.603 4.295-1.512.965-3.206 1.447-5.082 1.447-1.33 0-2.461-.22-3.394-.659-.922-.44-1.678-.992-2.268-1.657-.589-.675-1.04-1.356-1.351-2.042h-.305v3.956h-6.755zm6.707-12.352c0 1.469.203 2.75.611 3.844.407 1.094.997 1.946 1.769 2.557.772.601 1.71.901 2.815.901 1.115 0 2.058-.306 2.83-.917.772-.622 1.356-1.48 1.753-2.573.408-1.105.611-2.375.611-3.812 0-1.426-.198-2.68-.595-3.763-.396-1.083-.981-1.93-1.753-2.541-.772-.612-1.721-.917-2.846-.917-1.116 0-2.059.295-2.831.884-.761.59-1.346 1.426-1.753 2.509-.408 1.083-.611 2.359-.611 3.828zm36.357 1.834v-14.186h6.851V660.2h-6.578v-4.487h-.257a7.296 7.296 0 01-2.783 3.49c-1.286.879-2.857 1.319-4.712 1.319-1.651 0-3.104-.376-4.359-1.126-1.254-.751-2.235-1.818-2.943-3.201-.697-1.383-1.051-3.039-1.061-4.969v-15.73h6.851v14.507c.011 1.458.402 2.611 1.174 3.458.772.847 1.807 1.271 3.104 1.271a4.93 4.93 0 002.316-.563c.719-.386 1.298-.954 1.737-1.705.451-.751.67-1.678.66-2.782zm31.443-7.141l-6.272.386a3.242 3.242 0 00-.692-1.448c-.354-.439-.82-.788-1.399-1.045-.568-.268-1.249-.402-2.043-.402-1.061 0-1.956.225-2.685.675-.73.44-1.094 1.03-1.094 1.769 0 .59.236 1.089.708 1.496.471.408 1.281.735 2.428.981l4.471.901c2.402.493 4.193 1.286 5.372 2.38 1.179 1.094 1.769 2.531 1.769 4.31 0 1.619-.477 3.04-1.431 4.262-.944 1.223-2.241 2.177-3.892 2.863-1.641.676-3.533 1.013-5.678 1.013-3.27 0-5.875-.68-7.816-2.042-1.93-1.373-3.061-3.238-3.394-5.597l6.739-.354c.204.997.697 1.759 1.48 2.284.782.515 1.785.772 3.007.772 1.201 0 2.166-.231 2.895-.692.74-.471 1.115-1.077 1.126-1.817-.011-.622-.273-1.131-.788-1.528-.515-.407-1.308-.718-2.38-.933l-4.278-.852c-2.413-.483-4.209-1.319-5.388-2.509-1.169-1.19-1.753-2.707-1.753-4.552 0-1.586.429-2.954 1.286-4.101.869-1.147 2.086-2.032 3.651-2.654 1.576-.621 3.421-.932 5.533-.932 3.12 0 5.575.659 7.366 1.978 1.801 1.319 2.852 3.115 3.152 5.388zm7.665 26.923c-.869 0-1.684-.07-2.445-.209-.75-.129-1.372-.295-1.865-.499l1.544-5.114c.804.246 1.527.38 2.171.402.654.021 1.217-.129 1.689-.451.482-.321.873-.868 1.174-1.64l.402-1.045-8.862-25.412h7.205l5.115 18.142h.257l5.163-18.142h7.253l-9.602 27.374c-.461 1.329-1.088 2.487-1.881 3.474a7.726 7.726 0 01-2.976 2.3c-1.201.546-2.648.82-4.342.82zm20.993-9.264v-32.938h6.852v12.384h.209c.3-.665.734-1.341 1.303-2.027.579-.697 1.329-1.276 2.251-1.737.933-.471 2.091-.707 3.474-.707 1.802 0 3.463.471 4.986 1.415 1.523.933 2.739 2.343 3.651 4.23.911 1.876 1.367 4.23 1.367 7.06 0 2.756-.445 5.083-1.335 6.98-.879 1.887-2.08 3.319-3.603 4.295-1.511.965-3.206 1.447-5.082 1.447-1.329 0-2.461-.22-3.393-.659-.922-.44-1.678-.992-2.268-1.657-.59-.675-1.04-1.356-1.351-2.042h-.306v3.956h-6.755zm6.707-12.352c0 1.469.204 2.75.611 3.844.408 1.094.997 1.946 1.769 2.557.772.601 1.711.901 2.815.901 1.115 0 2.059-.306 2.831-.917.772-.622 1.356-1.48 1.753-2.573.407-1.105.611-2.375.611-3.812 0-1.426-.199-2.68-.595-3.763-.397-1.083-.981-1.93-1.753-2.541-.772-.612-1.721-.917-2.847-.917-1.115 0-2.059.295-2.831.884-.761.59-1.345 1.426-1.753 2.509-.407 1.083-.611 2.359-.611 3.828zm31.677 12.834c-2.498 0-4.659-.53-6.482-1.592-1.812-1.072-3.211-2.562-4.197-4.471-.987-1.919-1.48-4.144-1.48-6.674 0-2.552.493-4.782 1.48-6.691.986-1.919 2.385-3.41 4.197-4.471 1.823-1.072 3.984-1.608 6.482-1.608s4.653.536 6.465 1.608c1.823 1.061 3.228 2.552 4.214 4.471.986 1.909 1.48 4.139 1.48 6.691 0 2.53-.494 4.755-1.48 6.674-.986 1.909-2.391 3.399-4.214 4.471-1.812 1.062-3.967 1.592-6.465 1.592zm.032-5.307c1.137 0 2.085-.322 2.847-.965.761-.654 1.335-1.544 1.721-2.67.396-1.126.595-2.407.595-3.844 0-1.436-.199-2.718-.595-3.843-.386-1.126-.96-2.016-1.721-2.67-.762-.654-1.71-.981-2.847-.981-1.147 0-2.112.327-2.895.981-.772.654-1.356 1.544-1.753 2.67-.386 1.125-.579 2.407-.579 3.843 0 1.437.193 2.718.579 3.844.397 1.126.981 2.016 1.753 2.67.783.643 1.748.965 2.895.965zm19.98-19.879l4.536 8.637 4.648-8.637h7.028l-7.157 12.352 7.35 12.352h-6.996l-4.873-8.54-4.793 8.54h-7.077l7.334-12.352-7.076-12.352h7.076z" fill="#000"></path><rect x="622.4" y="582.4" width="250.976" height="130.2" rx="5.6" fill="#E5E5E5" stroke="#979797" stroke-width="2.8"></rect><path d="M698.122 645.918V660.2h-6.851v-24.704h6.53v4.359h.289a6.899 6.899 0 012.75-3.41c1.287-.847 2.847-1.27 4.68-1.27 1.716 0 3.212.375 4.488 1.125 1.276.751 2.267 1.823 2.975 3.217.708 1.383 1.062 3.034 1.062 4.954V660.2h-6.852v-14.507c.011-1.512-.375-2.691-1.158-3.538-.783-.858-1.86-1.287-3.233-1.287-.922 0-1.737.198-2.444.595-.697.397-1.244.976-1.641 1.737-.386.751-.584 1.657-.595 2.718zm31.01 24.06c-2.22 0-4.123-.305-5.71-.916-1.576-.601-2.831-1.421-3.763-2.461-.933-1.04-1.539-2.209-1.818-3.506l6.337-.852c.193.493.499.954.917 1.383.418.429.97.772 1.656 1.029.697.268 1.544.402 2.541.402 1.491 0 2.718-.365 3.683-1.094.976-.718 1.464-1.924 1.464-3.618v-4.52h-.29c-.3.687-.75 1.335-1.35 1.946-.601.612-1.373 1.11-2.316 1.496-.944.386-2.07.579-3.378.579-1.855 0-3.544-.429-5.066-1.287-1.512-.868-2.718-2.192-3.619-3.972-.89-1.791-1.335-4.053-1.335-6.787 0-2.799.456-5.136 1.367-7.012.912-1.877 2.123-3.281 3.635-4.214a9.393 9.393 0 015.002-1.399c1.383 0 2.541.236 3.474.707.933.461 1.683 1.04 2.252 1.737.579.686 1.024 1.362 1.334 2.027h.258v-4.15h6.803v24.945c0 2.102-.515 3.86-1.544 5.275-1.029 1.416-2.455 2.477-4.278 3.185-1.812.718-3.898 1.077-6.256 1.077zm.144-15.278c1.105 0 2.037-.274 2.799-.821.772-.557 1.361-1.351 1.769-2.38.418-1.04.627-2.284.627-3.731 0-1.448-.204-2.702-.611-3.764-.407-1.072-.997-1.903-1.769-2.493-.772-.589-1.71-.884-2.815-.884-1.126 0-2.074.305-2.846.917-.772.6-1.357 1.436-1.753 2.509-.397 1.072-.596 2.31-.596 3.715 0 1.426.199 2.659.596 3.699.407 1.029.991 1.828 1.753 2.396.772.558 1.72.837 2.846.837zm15.944 5.5v-24.704h6.851V660.2h-6.851zm3.442-27.888c-1.019 0-1.893-.338-2.622-1.013-.718-.687-1.078-1.507-1.078-2.461 0-.944.36-1.753 1.078-2.429.729-.686 1.603-1.029 2.622-1.029 1.018 0 1.887.343 2.605 1.029.729.676 1.094 1.485 1.094 2.429 0 .954-.365 1.774-1.094 2.461-.718.675-1.587 1.013-2.605 1.013zm14.307 13.606V660.2h-6.852v-24.704h6.53v4.359h.289a6.895 6.895 0 012.751-3.41c1.286-.847 2.846-1.27 4.68-1.27 1.715 0 3.211.375 4.487 1.125 1.276.751 2.268 1.823 2.975 3.217.708 1.383 1.062 3.034 1.062 4.954V660.2h-6.852v-14.507c.011-1.512-.375-2.691-1.158-3.538-.782-.858-1.86-1.287-3.232-1.287-.922 0-1.737.198-2.445.595-.697.397-1.244.976-1.64 1.737-.386.751-.585 1.657-.595 2.718zm25.605-10.422l4.535 8.637 4.648-8.637h7.029l-7.157 12.352 7.35 12.352h-6.996l-4.874-8.54-4.792 8.54h-7.077l7.334-12.352-7.077-12.352h7.077z" fill="#000"></path><rect x="622.4" y="433.4" width="250.976" height="130.2" rx="5.6" fill="#E5E5E5" stroke="#979797" stroke-width="2.8"></rect><path d="M685.145 520.464v-33.968h6.755v4.15h.306c.3-.665.734-1.341 1.302-2.027.579-.697 1.33-1.276 2.252-1.737.933-.471 2.091-.707 3.474-.707 1.801 0 3.463.471 4.986 1.415 1.522.933 2.739 2.343 3.651 4.23.911 1.876 1.367 4.23 1.367 7.06 0 2.756-.445 5.083-1.335 6.98-.879 1.887-2.08 3.319-3.603 4.295-1.512.965-3.206 1.447-5.082 1.447-1.33 0-2.461-.22-3.394-.659-.922-.44-1.678-.992-2.267-1.657-.59-.675-1.04-1.356-1.351-2.042h-.209v13.22h-6.852zm6.707-21.616c0 1.469.204 2.75.611 3.844.407 1.094.997 1.946 1.769 2.557.772.601 1.71.901 2.815.901 1.115 0 2.058-.306 2.83-.917.772-.622 1.357-1.48 1.753-2.573.408-1.105.612-2.375.612-3.812 0-1.426-.199-2.68-.596-3.763-.396-1.083-.981-1.93-1.753-2.541-.772-.612-1.72-.917-2.846-.917-1.115 0-2.059.295-2.831.884-.761.59-1.346 1.426-1.753 2.509-.407 1.083-.611 2.359-.611 3.828zm27.555 12.818c-1.576 0-2.98-.273-4.213-.82-1.233-.557-2.209-1.378-2.928-2.461-.707-1.093-1.061-2.455-1.061-4.085 0-1.372.252-2.525.756-3.458a6.126 6.126 0 012.058-2.251c.869-.568 1.855-.997 2.96-1.287a22.626 22.626 0 013.506-.611 87.83 87.83 0 003.474-.418c.879-.14 1.517-.343 1.914-.611.396-.268.595-.665.595-1.19v-.097c0-1.019-.322-1.807-.965-2.364-.633-.558-1.533-.837-2.702-.837-1.233 0-2.214.274-2.943.821-.729.536-1.212 1.211-1.448 2.026l-6.337-.514c.322-1.502.955-2.799 1.898-3.893.944-1.104 2.161-1.951 3.651-2.541 1.501-.6 3.238-.9 5.211-.9 1.372 0 2.686.16 3.94.482 1.266.322 2.386.82 3.362 1.496a7.27 7.27 0 012.332 2.605c.568 1.051.852 2.311.852 3.78V511.2h-6.497v-3.426h-.193a6.981 6.981 0 01-1.593 2.043c-.664.579-1.463 1.034-2.396 1.367-.933.322-2.01.482-3.233.482zm1.962-4.728c1.008 0 1.898-.198 2.67-.595.772-.408 1.378-.954 1.818-1.641.439-.686.659-1.463.659-2.332v-2.621c-.214.139-.509.268-.885.386-.364.107-.777.209-1.238.305-.461.086-.922.167-1.383.242-.461.064-.879.123-1.255.177-.804.117-1.506.305-2.106.562-.601.258-1.067.606-1.4 1.046-.332.429-.498.965-.498 1.608 0 .933.338 1.646 1.013 2.139.686.483 1.555.724 2.605.724zm31.665-6.256v-14.186h6.852V511.2h-6.578v-4.487h-.258a7.294 7.294 0 01-2.782 3.49c-1.287.879-2.858 1.319-4.712 1.319-1.652 0-3.105-.376-4.359-1.126-1.254-.751-2.236-1.818-2.943-3.201-.697-1.383-1.051-3.039-1.062-4.969v-15.73h6.852v14.507c.01 1.458.402 2.611 1.174 3.458.772.847 1.806 1.271 3.104 1.271.825 0 1.597-.188 2.316-.563.718-.386 1.297-.954 1.737-1.705.45-.751.67-1.678.659-2.782zm31.444-7.141l-6.273.386a3.24 3.24 0 00-.691-1.448c-.354-.439-.821-.788-1.4-1.045-.568-.268-1.249-.402-2.042-.402-1.062 0-1.957.225-2.686.675-.729.44-1.094 1.03-1.094 1.769 0 .59.236 1.089.708 1.496.472.408 1.281.735 2.429.981l4.471.901c2.401.493 4.192 1.286 5.371 2.38 1.18 1.094 1.77 2.531 1.77 4.31 0 1.619-.478 3.04-1.432 4.262-.943 1.223-2.241 2.177-3.892 2.863-1.64.676-3.533 1.013-5.677 1.013-3.27 0-5.876-.68-7.817-2.042-1.93-1.373-3.061-3.238-3.393-5.597l6.739-.354c.203.997.697 1.759 1.479 2.284.783.515 1.786.772 3.008.772 1.201 0 2.166-.231 2.895-.692.74-.471 1.115-1.077 1.126-1.817-.011-.622-.274-1.131-.788-1.528-.515-.407-1.309-.718-2.381-.933l-4.278-.852c-2.412-.483-4.208-1.319-5.388-2.509-1.168-1.19-1.753-2.707-1.753-4.552 0-1.586.429-2.954 1.287-4.101.868-1.147 2.085-2.032 3.651-2.654 1.576-.621 3.42-.932 5.532-.932 3.12 0 5.576.659 7.366 1.978 1.802 1.319 2.852 3.115 3.153 5.388zm14.693 18.141c-2.541 0-4.729-.514-6.562-1.544-1.823-1.04-3.228-2.508-4.214-4.406-.986-1.909-1.48-4.166-1.48-6.771 0-2.541.494-4.772 1.48-6.691.986-1.919 2.375-3.415 4.166-4.487 1.801-1.072 3.913-1.608 6.336-1.608 1.63 0 3.147.262 4.552.788a10.093 10.093 0 013.699 2.332c1.061 1.04 1.887 2.348 2.477 3.924.589 1.565.884 3.399.884 5.5v1.882H789.65v-4.246h14.41c0-.986-.214-1.86-.643-2.621a4.604 4.604 0 00-1.786-1.786c-.75-.439-1.624-.659-2.621-.659-1.04 0-1.962.241-2.766.724a5.072 5.072 0 00-1.866 1.914c-.45.793-.681 1.678-.692 2.653v4.037c0 1.223.226 2.279.676 3.169a4.94 4.94 0 001.946 2.058c.836.483 1.828.724 2.975.724a6.46 6.46 0 002.091-.322 4.337 4.337 0 001.625-.965 4.2 4.2 0 001.029-1.576l6.337.418c-.322 1.523-.982 2.852-1.979 3.989-.986 1.126-2.262 2.005-3.827 2.638-1.555.622-3.351.932-5.388.932zm-222.564 294.38h-6.932v20.715h-.29l-14.217-20.715h-6.112V839h6.964v-20.731h.241L570.591 839h6.016v-32.938zm15.344 33.42c7.495 0 12.159-5.13 12.159-12.737 0-7.656-4.664-12.77-12.159-12.77-7.495 0-12.159 5.114-12.159 12.77 0 7.607 4.664 12.737 12.159 12.737zm.032-5.307c-3.458 0-5.227-3.168-5.227-7.479 0-4.31 1.769-7.494 5.227-7.494 3.394 0 5.163 3.184 5.163 7.494 0 4.311-1.769 7.479-5.163 7.479zm24.242 5.227c3.989 0 6.064-2.3 7.013-4.358h.289V839h6.755v-32.938h-6.835v12.384h-.209c-.917-2.011-2.895-4.471-7.029-4.471-5.42 0-10.003 4.213-10.003 12.705 0 8.267 4.39 12.722 10.019 12.722zm2.172-5.452c-3.362 0-5.195-2.992-5.195-7.302 0-4.278 1.801-7.221 5.195-7.221 3.329 0 5.195 2.814 5.195 7.221s-1.898 7.302-5.195 7.302zm27.334 5.532c6.112 0 10.229-2.975 11.194-7.559l-6.337-.418c-.691 1.882-2.461 2.863-4.744 2.863-3.426 0-5.597-2.268-5.597-5.951v-.016h16.823v-1.881c0-8.396-5.083-12.545-11.612-12.545-7.27 0-11.982 5.162-11.982 12.786 0 7.832 4.648 12.721 12.255 12.721zm-5.484-15.327c.144-2.814 2.283-5.066 5.323-5.066 2.976 0 5.034 2.123 5.05 5.066h-10.373z" fill="#000"></path><path d="M592.631 393v-18.764h7.403c1.423 0 2.635.272 3.637.816 1.002.537 1.765 1.285 2.29 2.244.532.953.798 2.053.798 3.299s-.269 2.345-.807 3.298c-.537.953-1.316 1.695-2.336 2.226-1.014.532-2.242.797-3.683.797h-4.719v-3.179h4.078c.763 0 1.392-.131 1.887-.394a2.611 2.611 0 001.118-1.108c.25-.477.375-1.023.375-1.64 0-.623-.125-1.167-.375-1.631a2.51 2.51 0 00-1.118-1.09c-.501-.263-1.136-.394-1.906-.394h-2.675V393h-3.967zm21.782.275c-1.423 0-2.654-.302-3.693-.907a6.21 6.21 0 01-2.391-2.547c-.562-1.094-.843-2.361-.843-3.802 0-1.454.281-2.725.843-3.812a6.138 6.138 0 012.391-2.547c1.039-.611 2.27-.916 3.693-.916s2.651.305 3.683.916a6.121 6.121 0 012.4 2.547c.562 1.087.843 2.358.843 3.812 0 1.441-.281 2.708-.843 3.802a6.193 6.193 0 01-2.4 2.547c-1.032.605-2.26.907-3.683.907zm.018-3.024c.648 0 1.188-.183 1.622-.549.433-.373.76-.88.98-1.521.226-.642.339-1.371.339-2.19 0-.818-.113-1.548-.339-2.19-.22-.641-.547-1.148-.98-1.52-.434-.373-.974-.559-1.622-.559-.653 0-1.203.186-1.649.559-.44.372-.773.879-.999 1.52-.22.642-.33 1.372-.33 2.19 0 .819.11 1.548.33 2.19.226.641.559 1.148.999 1.521.446.366.996.549 1.649.549zm13.651 2.978c-1.069 0-2.037-.275-2.905-.825-.861-.555-1.545-1.371-2.052-2.446-.501-1.081-.751-2.406-.751-3.976 0-1.613.259-2.953.779-4.022.519-1.075 1.209-1.878 2.07-2.41a5.312 5.312 0 012.85-.806c.788 0 1.444.134 1.969.403.532.263.959.593 1.283.99.33.391.58.775.751 1.154h.119v-7.055h3.894V393h-3.848v-2.254h-.165a5.02 5.02 0 01-.778 1.164c-.33.378-.761.693-1.292.943-.525.251-1.167.376-1.924.376zm1.237-3.106c.629 0 1.16-.171 1.594-.513.44-.348.776-.834 1.008-1.457.238-.623.357-1.353.357-2.189 0-.837-.116-1.564-.348-2.181-.232-.617-.568-1.093-1.008-1.429-.44-.336-.974-.504-1.603-.504-.642 0-1.182.174-1.622.522-.44.348-.773.831-.999 1.448-.226.617-.339 1.331-.339 2.144 0 .818.113 1.542.339 2.171.232.623.565 1.112.999 1.466.44.348.98.522 1.622.522zm17.892-5.259V393h-3.903v-14.073h3.72v2.483h.164a3.928 3.928 0 011.567-1.942c.733-.483 1.622-.724 2.666-.724.978 0 1.83.214 2.556.641.727.428 1.292 1.039 1.695 1.833.404.788.605 1.728.605 2.822V393h-3.903v-8.264c.006-.861-.214-1.533-.66-2.016-.445-.488-1.059-.733-1.841-.733-.525 0-.99.113-1.393.339a2.361 2.361 0 00-.934.99c-.22.427-.333.944-.339 1.548zm17.579 8.411c-1.448 0-2.694-.293-3.738-.88a6.019 6.019 0 01-2.401-2.51c-.562-1.087-.843-2.373-.843-3.857 0-1.448.281-2.718.843-3.812.562-1.093 1.353-1.945 2.373-2.556 1.026-.611 2.23-.916 3.61-.916.928 0 1.793.15 2.593.449a5.759 5.759 0 012.107 1.328c.605.593 1.075 1.338 1.411 2.236.336.892.504 1.936.504 3.133v1.072h-11.883v-2.418h8.209c0-.562-.122-1.06-.367-1.494a2.617 2.617 0 00-1.017-1.017c-.427-.25-.925-.375-1.493-.375-.592 0-1.118.137-1.576.412a2.896 2.896 0 00-1.063 1.09 3.095 3.095 0 00-.394 1.512v2.299c0 .697.129 1.298.385 1.805.263.507.632.898 1.109 1.173.476.275 1.041.412 1.695.412a3.7 3.7 0 001.191-.183c.36-.122.669-.305.925-.55a2.39 2.39 0 00.587-.897l3.609.238a4.931 4.931 0 01-1.127 2.272c-.561.641-1.288 1.142-2.18 1.502-.886.355-1.909.532-3.069.532zm15.51-14.348v2.932h-8.475v-2.932h8.475zm-6.551-3.371h3.903v13.12c0 .36.055.641.165.842.11.196.263.333.458.413.202.079.434.119.697.119.183 0 .366-.015.549-.046.184-.037.324-.064.422-.082l.614 2.904c-.196.061-.471.131-.825.211a6.63 6.63 0 01-1.292.155c-.94.037-1.765-.088-2.473-.375a3.449 3.449 0 01-1.64-1.338c-.391-.605-.584-1.368-.578-2.29v-13.633zM684.638 393l-3.83-14.073h3.949l2.181 9.455h.128l2.272-9.455h3.875l2.309 9.4h.119l2.144-9.4h3.94L697.904 393h-4.132l-2.418-8.85h-.175l-2.418 8.85h-4.123zm24.194.275c-1.423 0-2.654-.302-3.693-.907a6.21 6.21 0 01-2.391-2.547c-.562-1.094-.843-2.361-.843-3.802 0-1.454.281-2.725.843-3.812a6.138 6.138 0 012.391-2.547c1.039-.611 2.27-.916 3.693-.916s2.651.305 3.683.916a6.121 6.121 0 012.4 2.547c.562 1.087.843 2.358.843 3.812 0 1.441-.281 2.708-.843 3.802a6.193 6.193 0 01-2.4 2.547c-1.032.605-2.26.907-3.683.907zm.018-3.024c.647 0 1.188-.183 1.622-.549.433-.373.76-.88.98-1.521.226-.642.339-1.371.339-2.19 0-.818-.113-1.548-.339-2.19-.22-.641-.547-1.148-.98-1.52-.434-.373-.975-.559-1.622-.559-.654 0-1.203.186-1.649.559-.44.372-.773.879-.999 1.52-.22.642-.33 1.372-.33 2.19 0 .819.11 1.548.33 2.19.226.641.559 1.148.999 1.521.446.366.995.549 1.649.549zm8.465 2.749v-14.073h3.784v2.456h.147c.256-.874.687-1.533 1.291-1.979a3.396 3.396 0 012.089-.678c.196 0 .406.012.632.036.226.025.425.058.596.101v3.463a5.144 5.144 0 00-.76-.146 6.792 6.792 0 00-.889-.064c-.574 0-1.087.125-1.539.375a2.771 2.771 0 00-1.063 1.026c-.257.44-.385.947-.385 1.521V393h-3.903zm13.112-4.05l.01-4.681h.568l4.507-5.342h4.481L733.937 386h-.926l-2.584 2.95zm-3.536 4.05v-18.764h3.903V393h-3.903zm8.795 0l-4.141-6.129 2.602-2.758 6.111 8.887h-4.572zm14.134-8.136V393h-3.903v-14.073h3.72v2.483h.165a3.921 3.921 0 011.566-1.942c.733-.483 1.622-.724 2.666-.724.978 0 1.83.214 2.557.641.726.428 1.291 1.039 1.695 1.833.403.788.604 1.728.604 2.822V393h-3.903v-8.264c.006-.861-.214-1.533-.659-2.016-.446-.488-1.06-.733-1.842-.733-.525 0-.989.113-1.393.339a2.361 2.361 0 00-.934.99c-.22.427-.333.944-.339 1.548zm15.178 8.402c-.898 0-1.698-.156-2.4-.468a3.866 3.866 0 01-1.668-1.401c-.403-.623-.604-1.399-.604-2.327 0-.782.143-1.439.43-1.97a3.483 3.483 0 011.173-1.283 5.689 5.689 0 011.686-.733 12.816 12.816 0 011.997-.348 52.093 52.093 0 001.979-.238c.501-.08.864-.196 1.09-.348.226-.153.339-.379.339-.678v-.055c0-.581-.183-1.03-.549-1.347-.361-.318-.874-.477-1.539-.477-.703 0-1.262.156-1.677.468-.415.305-.69.69-.825 1.154l-3.609-.293a4.897 4.897 0 011.081-2.217c.537-.629 1.23-1.112 2.079-1.448.855-.342 1.845-.513 2.969-.513.782 0 1.53.092 2.245.275.72.183 1.359.467 1.914.852a4.143 4.143 0 011.329 1.484c.324.599.485 1.316.485 2.153V393h-3.701v-1.951h-.11a3.975 3.975 0 01-.907 1.163c-.379.33-.834.589-1.365.779-.531.183-1.145.275-1.842.275zm1.118-2.694c.574 0 1.081-.113 1.521-.339.44-.232.785-.544 1.035-.934.251-.391.376-.834.376-1.329v-1.493c-.122.079-.29.152-.504.22a9.345 9.345 0 01-.705.174 37.15 37.15 0 01-.788.137l-.715.101a4.801 4.801 0 00-1.2.321 1.915 1.915 0 00-.797.595c-.19.244-.284.55-.284.916 0 .532.192.938.577 1.219.391.275.886.412 1.484.412zm8.855 2.428v-14.073h3.719v2.483h.165c.293-.824.782-1.475 1.466-1.951.684-.477 1.503-.715 2.456-.715.965 0 1.786.241 2.464.724a3.408 3.408 0 011.356 1.942h.147c.287-.806.806-1.45 1.557-1.933.758-.489 1.652-.733 2.685-.733 1.313 0 2.379.418 3.197 1.255.825.831 1.237 2.01 1.237 3.537V393h-3.894v-8.695c0-.781-.208-1.368-.623-1.759-.415-.391-.934-.586-1.557-.586-.709 0-1.262.226-1.659.678-.397.446-.595 1.035-.595 1.768V393h-3.784v-8.777c0-.69-.199-1.24-.596-1.649-.391-.41-.907-.614-1.548-.614-.434 0-.825.11-1.173.33a2.255 2.255 0 00-.815.907c-.202.385-.302.837-.302 1.356V393h-3.903zm28.964.275c-1.447 0-2.693-.293-3.738-.88a6.022 6.022 0 01-2.4-2.51c-.562-1.087-.843-2.373-.843-3.857 0-1.448.281-2.718.843-3.812.562-1.093 1.353-1.945 2.373-2.556 1.026-.611 2.229-.916 3.61-.916.928 0 1.792.15 2.593.449a5.759 5.759 0 012.107 1.328c.604.593 1.075 1.338 1.411 2.236.336.892.504 1.936.504 3.133v1.072h-11.883v-2.418h8.209c0-.562-.122-1.06-.367-1.494a2.617 2.617 0 00-1.017-1.017c-.427-.25-.925-.375-1.493-.375-.593 0-1.118.137-1.576.412a2.896 2.896 0 00-1.063 1.09 3.084 3.084 0 00-.394 1.512v2.299c0 .697.128 1.298.385 1.805.263.507.632.898 1.109 1.173.476.275 1.041.412 1.695.412a3.7 3.7 0 001.191-.183c.36-.122.668-.305.925-.55.257-.244.452-.543.586-.897l3.61.238a4.931 4.931 0 01-1.127 2.272c-.562.641-1.289 1.142-2.18 1.502-.886.355-1.909.532-3.07.532zm19.735-10.335l-3.573.22a1.861 1.861 0 00-.394-.824 2.096 2.096 0 00-.798-.596c-.323-.153-.711-.229-1.163-.229-.605 0-1.115.128-1.53.385-.415.25-.623.586-.623 1.008 0 .335.134.62.403.852.269.232.73.418 1.383.558l2.547.514c1.369.281 2.389.733 3.061 1.356.671.623 1.007 1.441 1.007 2.455 0 .922-.271 1.732-.815 2.428-.538.696-1.277 1.24-2.217 1.631-.935.384-2.013.577-3.234.577-1.863 0-3.348-.388-4.453-1.164-1.1-.782-1.744-1.844-1.933-3.188l3.839-.202c.116.568.397 1.002.842 1.301.446.294 1.017.44 1.714.44.684 0 1.234-.131 1.649-.394.421-.269.635-.614.641-1.035a1.076 1.076 0 00-.449-.87c-.293-.233-.745-.41-1.356-.532l-2.437-.485c-1.374-.275-2.397-.752-3.069-1.43-.666-.678-.999-1.542-.999-2.593 0-.904.245-1.682.733-2.336.495-.653 1.188-1.157 2.08-1.512.898-.354 1.949-.531 3.152-.531 1.777 0 3.176.376 4.196 1.127 1.026.751 1.625 1.774 1.796 3.069zm1.797 15.337v-19.35h3.848v2.364h.174a5.18 5.18 0 01.742-1.154c.33-.397.758-.727 1.283-.99.531-.269 1.191-.403 1.979-.403 1.026 0 1.973.269 2.84.806.868.532 1.561 1.335 2.08 2.41.519 1.069.779 2.409.779 4.022 0 1.57-.254 2.895-.761 3.976-.501 1.075-1.185 1.891-2.052 2.446-.861.55-1.826.825-2.895.825-.758 0-1.402-.125-1.933-.376a3.994 3.994 0 01-1.292-.943 4.793 4.793 0 01-.77-1.164h-.119v7.531h-3.903zm3.821-12.313c0 .836.116 1.566.348 2.189.232.623.568 1.109 1.008 1.457.439.342.974.513 1.603.513.635 0 1.173-.174 1.612-.522.44-.354.773-.843.999-1.466.232-.629.348-1.353.348-2.171 0-.813-.113-1.527-.339-2.144-.226-.617-.559-1.1-.998-1.448-.44-.348-.981-.522-1.622-.522-.635 0-1.173.168-1.613.504-.433.336-.766.812-.998 1.429-.232.617-.348 1.344-.348 2.181zm15.538 7.302c-.898 0-1.698-.156-2.401-.468a3.858 3.858 0 01-1.667-1.401c-.403-.623-.605-1.399-.605-2.327 0-.782.144-1.439.431-1.97a3.489 3.489 0 011.172-1.283 5.689 5.689 0 011.686-.733 12.829 12.829 0 011.998-.348 52.347 52.347 0 001.979-.238c.5-.08.864-.196 1.09-.348.226-.153.339-.379.339-.678v-.055c0-.581-.183-1.03-.55-1.347-.36-.318-.873-.477-1.539-.477-.703 0-1.261.156-1.677.468-.415.305-.69.69-.824 1.154l-3.61-.293a4.907 4.907 0 011.081-2.217c.538-.629 1.231-1.112 2.08-1.448.855-.342 1.844-.513 2.968-.513.782 0 1.53.092 2.245.275a5.863 5.863 0 011.915.852 4.13 4.13 0 011.328 1.484c.324.599.486 1.316.486 2.153V393h-3.702v-1.951h-.11a3.975 3.975 0 01-.907 1.163c-.378.33-.833.589-1.365.779-.531.183-1.145.275-1.841.275zm1.117-2.694c.575 0 1.082-.113 1.521-.339.44-.232.785-.544 1.036-.934.25-.391.375-.834.375-1.329v-1.493c-.122.079-.29.152-.504.22a9.11 9.11 0 01-.705.174c-.263.049-.525.094-.788.137l-.715.101a4.801 4.801 0 00-1.2.321 1.915 1.915 0 00-.797.595c-.189.244-.284.55-.284.916 0 .532.192.938.577 1.219.391.275.886.412 1.484.412zm15.213 2.703c-1.441 0-2.681-.306-3.719-.916a6.19 6.19 0 01-2.383-2.566c-.549-1.093-.824-2.351-.824-3.774 0-1.442.278-2.706.834-3.793a6.194 6.194 0 012.391-2.557c1.032-.617 2.26-.925 3.683-.925 1.228 0 2.303.223 3.225.669.922.446 1.652 1.072 2.19 1.878.537.806.833 1.753.888 2.84h-3.683c-.104-.702-.378-1.267-.824-1.695-.44-.433-1.017-.65-1.732-.65-.605 0-1.133.165-1.585.495-.446.323-.794.797-1.044 1.42-.251.623-.376 1.377-.376 2.263 0 .898.122 1.661.366 2.29.251.629.602 1.109 1.054 1.439.452.329.98.494 1.585.494.446 0 .846-.091 1.2-.275.361-.183.657-.449.889-.797.238-.354.394-.778.467-1.273h3.683c-.061 1.075-.354 2.022-.879 2.84-.519.812-1.237 1.448-2.153 1.906-.916.458-2.001.687-3.253.687zm14.217 0c-1.448 0-2.694-.293-3.738-.88a6.019 6.019 0 01-2.401-2.51c-.562-1.087-.843-2.373-.843-3.857 0-1.448.281-2.718.843-3.812.562-1.093 1.353-1.945 2.373-2.556 1.026-.611 2.23-.916 3.61-.916.928 0 1.793.15 2.593.449a5.75 5.75 0 012.107 1.328c.605.593 1.075 1.338 1.411 2.236.336.892.504 1.936.504 3.133v1.072h-11.883v-2.418h8.209c0-.562-.122-1.06-.366-1.494a2.63 2.63 0 00-1.017-1.017c-.428-.25-.926-.375-1.494-.375-.592 0-1.118.137-1.576.412a2.886 2.886 0 00-1.062 1.09 3.073 3.073 0 00-.394 1.512v2.299c0 .697.128 1.298.384 1.805.263.507.633.898 1.109 1.173s1.041.412 1.695.412c.434 0 .831-.061 1.191-.183.36-.122.669-.305.925-.55a2.39 2.39 0 00.587-.897l3.609.238a4.93 4.93 0 01-1.126 2.272c-.562.641-1.289 1.142-2.181 1.502-.886.355-1.909.532-3.069.532z" fill="#948551"></path><path d="M592.631 293v-18.764h7.403c1.417 0 2.626.254 3.628.761 1.008.501 1.774 1.212 2.299 2.135.532.916.798 1.994.798 3.234 0 1.246-.269 2.318-.807 3.216-.537.891-1.316 1.575-2.336 2.052-1.014.476-2.242.714-3.683.714h-4.957v-3.188h4.316c.757 0 1.386-.104 1.887-.311.501-.208.873-.52 1.118-.935.25-.415.375-.931.375-1.548 0-.623-.125-1.149-.375-1.576-.245-.428-.62-.751-1.127-.971-.501-.226-1.133-.339-1.897-.339h-2.675V293h-3.967zm10.133-8.539l4.663 8.539h-4.379l-4.563-8.539h4.279zm11.876 8.814c-1.424 0-2.654-.302-3.693-.907a6.21 6.21 0 01-2.391-2.547c-.562-1.094-.843-2.361-.843-3.802 0-1.454.281-2.725.843-3.812a6.138 6.138 0 012.391-2.547c1.039-.611 2.269-.916 3.693-.916 1.423 0 2.65.305 3.683.916a6.121 6.121 0 012.4 2.547c.562 1.087.843 2.358.843 3.812 0 1.441-.281 2.708-.843 3.802a6.193 6.193 0 01-2.4 2.547c-1.033.605-2.26.907-3.683.907zm.018-3.024c.647 0 1.188-.183 1.621-.549.434-.373.761-.88.981-1.521.226-.642.339-1.371.339-2.19 0-.818-.113-1.548-.339-2.19-.22-.641-.547-1.148-.981-1.52-.433-.373-.974-.559-1.621-.559-.654 0-1.203.186-1.649.559-.44.372-.773.879-.999 1.52-.22.642-.33 1.372-.33 2.19 0 .819.11 1.548.33 2.19.226.641.559 1.148.999 1.521.446.366.995.549 1.649.549zm14.823 3.024c-1.423 0-2.654-.302-3.692-.907a6.21 6.21 0 01-2.391-2.547c-.562-1.094-.843-2.361-.843-3.802 0-1.454.281-2.725.843-3.812a6.138 6.138 0 012.391-2.547c1.038-.611 2.269-.916 3.692-.916s2.651.305 3.683.916a6.117 6.117 0 012.401 2.547c.562 1.087.843 2.358.843 3.812 0 1.441-.281 2.708-.843 3.802a6.19 6.19 0 01-2.401 2.547c-1.032.605-2.26.907-3.683.907zm.019-3.024c.647 0 1.188-.183 1.621-.549.434-.373.761-.88.981-1.521.226-.642.339-1.371.339-2.19 0-.818-.113-1.548-.339-2.19-.22-.641-.547-1.148-.981-1.52-.433-.373-.974-.559-1.621-.559-.654 0-1.204.186-1.65.559-.439.372-.772.879-.998 1.52-.22.642-.33 1.372-.33 2.19 0 .819.11 1.548.33 2.19.226.641.559 1.148.998 1.521.446.366.996.549 1.65.549zm15.95-11.324v2.932h-8.475v-2.932h8.475zm-6.551-3.371h3.903v13.12c0 .36.055.641.165.842.11.196.263.333.458.413.202.079.434.119.696.119.184 0 .367-.015.55-.046.183-.037.324-.064.422-.082l.613 2.904c-.195.061-.47.131-.824.211a6.63 6.63 0 01-1.292.155c-.941.037-1.765-.088-2.474-.375-.702-.287-1.249-.733-1.64-1.338-.391-.605-.583-1.368-.577-2.29v-13.633zm17.006 9.308V293h-3.903v-14.073h3.72v2.483h.165a3.921 3.921 0 011.566-1.942c.733-.483 1.622-.724 2.666-.724.978 0 1.83.214 2.557.641.726.428 1.291 1.039 1.695 1.833.403.788.604 1.728.604 2.822V293h-3.903v-8.264c.006-.861-.214-1.533-.659-2.016-.446-.488-1.06-.733-1.842-.733-.525 0-.989.113-1.393.339a2.361 2.361 0 00-.934.99c-.22.427-.333.944-.339 1.548zm17.579 8.411c-1.448 0-2.694-.293-3.738-.88a6.019 6.019 0 01-2.401-2.51c-.562-1.087-.843-2.373-.843-3.857 0-1.448.281-2.718.843-3.812.562-1.093 1.353-1.945 2.373-2.556 1.026-.611 2.23-.916 3.61-.916.928 0 1.793.15 2.593.449a5.75 5.75 0 012.107 1.328c.605.593 1.075 1.338 1.411 2.236.336.892.504 1.936.504 3.133v1.072H668.06v-2.418h8.209c0-.562-.122-1.06-.366-1.494a2.63 2.63 0 00-1.017-1.017c-.428-.25-.926-.375-1.494-.375-.592 0-1.118.137-1.576.412a2.886 2.886 0 00-1.062 1.09 3.073 3.073 0 00-.394 1.512v2.299c0 .697.128 1.298.384 1.805.263.507.633.898 1.109 1.173s1.041.412 1.695.412c.434 0 .831-.061 1.191-.183.36-.122.669-.305.925-.55a2.39 2.39 0 00.587-.897l3.609.238a4.93 4.93 0 01-1.126 2.272c-.562.641-1.289 1.142-2.181 1.502-.886.355-1.909.532-3.069.532zm15.51-14.348v2.932h-8.474v-2.932h8.474zm-6.55-3.371h3.903v13.12c0 .36.055.641.164.842a.91.91 0 00.459.413c.201.079.433.119.696.119.183 0 .366-.015.55-.046.183-.037.323-.064.421-.082l.614 2.904c-.196.061-.47.131-.825.211a6.63 6.63 0 01-1.292.155c-.94.037-1.765-.088-2.473-.375a3.449 3.449 0 01-1.64-1.338c-.391-.605-.584-1.368-.577-2.29v-13.633zM693.332 293l-3.83-14.073h3.949l2.181 9.455h.128l2.272-9.455h3.876l2.308 9.4h.119l2.144-9.4h3.94L706.598 293h-4.132l-2.418-8.85h-.174l-2.419 8.85h-4.123zm24.194.275c-1.423 0-2.654-.302-3.692-.907a6.207 6.207 0 01-2.392-2.547c-.562-1.094-.843-2.361-.843-3.802 0-1.454.281-2.725.843-3.812a6.134 6.134 0 012.392-2.547c1.038-.611 2.269-.916 3.692-.916s2.651.305 3.683.916a6.121 6.121 0 012.4 2.547c.562 1.087.843 2.358.843 3.812 0 1.441-.281 2.708-.843 3.802a6.193 6.193 0 01-2.4 2.547c-1.032.605-2.26.907-3.683.907zm.018-3.024c.648 0 1.188-.183 1.622-.549.433-.373.76-.88.98-1.521.226-.642.339-1.371.339-2.19 0-.818-.113-1.548-.339-2.19-.22-.641-.547-1.148-.98-1.52-.434-.373-.974-.559-1.622-.559-.653 0-1.203.186-1.649.559-.44.372-.773.879-.999 1.52-.22.642-.33 1.372-.33 2.19 0 .819.11 1.548.33 2.19.226.641.559 1.148.999 1.521.446.366.996.549 1.649.549zm8.465 2.749v-14.073h3.784v2.456h.147c.256-.874.687-1.533 1.291-1.979a3.396 3.396 0 012.089-.678c.196 0 .407.012.633.036.226.025.424.058.595.101v3.463a5.144 5.144 0 00-.76-.146 6.792 6.792 0 00-.889-.064c-.574 0-1.087.125-1.539.375-.446.245-.8.587-1.063 1.026-.257.44-.385.947-.385 1.521V293h-3.903zm13.113-4.05l.009-4.681h.568l4.507-5.342h4.481L742.631 286h-.926l-2.583 2.95zm-3.537 4.05v-18.764h3.903V293h-3.903zm8.796 0l-4.142-6.129 2.602-2.758 6.111 8.887h-4.571zm14.133-8.136V293h-3.903v-14.073h3.72v2.483h.165a3.921 3.921 0 011.566-1.942c.733-.483 1.622-.724 2.666-.724.978 0 1.83.214 2.557.641.727.428 1.292 1.039 1.695 1.833.403.788.604 1.728.604 2.822V293h-3.903v-8.264c.006-.861-.213-1.533-.659-2.016-.446-.488-1.06-.733-1.842-.733-.525 0-.989.113-1.392.339a2.363 2.363 0 00-.935.99c-.22.427-.333.944-.339 1.548zm15.178 8.402c-.897 0-1.698-.156-2.4-.468a3.858 3.858 0 01-1.667-1.401c-.404-.623-.605-1.399-.605-2.327 0-.782.143-1.439.43-1.97a3.491 3.491 0 011.173-1.283 5.689 5.689 0 011.686-.733 12.816 12.816 0 011.997-.348 52.093 52.093 0 001.979-.238c.501-.08.865-.196 1.091-.348.226-.153.339-.379.339-.678v-.055c0-.581-.184-1.03-.55-1.347-.361-.318-.874-.477-1.539-.477-.703 0-1.262.156-1.677.468-.415.305-.69.69-.825 1.154l-3.609-.293a4.897 4.897 0 011.081-2.217c.537-.629 1.23-1.112 2.079-1.448.856-.342 1.845-.513 2.969-.513.782 0 1.53.092 2.245.275.72.183 1.359.467 1.914.852a4.143 4.143 0 011.329 1.484c.324.599.486 1.316.486 2.153V293h-3.702v-1.951h-.11a3.975 3.975 0 01-.907 1.163c-.379.33-.834.589-1.365.779-.531.183-1.145.275-1.842.275zm1.118-2.694c.574 0 1.081-.113 1.521-.339.44-.232.785-.544 1.035-.934.251-.391.376-.834.376-1.329v-1.493c-.122.079-.29.152-.504.22a9.345 9.345 0 01-.705.174 37.15 37.15 0 01-.788.137l-.715.101a4.801 4.801 0 00-1.2.321 1.915 1.915 0 00-.797.595c-.19.244-.284.55-.284.916 0 .532.192.938.577 1.219.391.275.886.412 1.484.412zm8.855 2.428v-14.073h3.719v2.483h.165c.294-.824.782-1.475 1.466-1.951.684-.477 1.503-.715 2.456-.715.965 0 1.786.241 2.464.724a3.408 3.408 0 011.356 1.942h.147c.287-.806.806-1.45 1.557-1.933.758-.489 1.652-.733 2.685-.733 1.313 0 2.379.418 3.197 1.255.825.831 1.237 2.01 1.237 3.537V293h-3.894v-8.695c0-.781-.207-1.368-.623-1.759-.415-.391-.934-.586-1.557-.586-.709 0-1.262.226-1.659.678-.397.446-.595 1.035-.595 1.768V293h-3.784v-8.777c0-.69-.198-1.24-.596-1.649-.39-.41-.907-.614-1.548-.614-.434 0-.824.11-1.173.33a2.262 2.262 0 00-.815.907c-.202.385-.302.837-.302 1.356V293h-3.903zm28.965.275c-1.448 0-2.694-.293-3.739-.88a6.022 6.022 0 01-2.4-2.51c-.562-1.087-.843-2.373-.843-3.857 0-1.448.281-2.718.843-3.812.562-1.093 1.353-1.945 2.373-2.556 1.026-.611 2.229-.916 3.61-.916.928 0 1.792.15 2.593.449a5.759 5.759 0 012.107 1.328c.605.593 1.075 1.338 1.411 2.236.336.892.504 1.936.504 3.133v1.072h-11.883v-2.418h8.209c0-.562-.122-1.06-.367-1.494a2.617 2.617 0 00-1.017-1.017c-.427-.25-.925-.375-1.493-.375-.593 0-1.118.137-1.576.412a2.896 2.896 0 00-1.063 1.09 3.084 3.084 0 00-.394 1.512v2.299c0 .697.129 1.298.385 1.805.263.507.632.898 1.109 1.173.476.275 1.041.412 1.695.412a3.7 3.7 0 001.191-.183 2.376 2.376 0 001.511-1.447l3.61.238a4.931 4.931 0 01-1.127 2.272c-.562.641-1.288 1.142-2.18 1.502-.886.355-1.909.532-3.069.532zm19.734-10.335l-3.573.22a1.85 1.85 0 00-.394-.824 2.1 2.1 0 00-.797-.596c-.324-.153-.712-.229-1.164-.229-.605 0-1.115.128-1.53.385-.415.25-.623.586-.623 1.008 0 .335.134.62.403.852.269.232.73.418 1.384.558l2.547.514c1.368.281 2.388.733 3.06 1.356.672.623 1.007 1.441 1.007 2.455 0 .922-.271 1.732-.815 2.428-.537.696-1.277 1.24-2.217 1.631-.935.384-2.013.577-3.234.577-1.863 0-3.347-.388-4.453-1.164-1.099-.782-1.744-1.844-1.933-3.188l3.839-.202c.116.568.397 1.002.843 1.301.445.294 1.017.44 1.713.44.684 0 1.234-.131 1.649-.394.421-.269.635-.614.641-1.035a1.073 1.073 0 00-.449-.87c-.293-.233-.745-.41-1.356-.532l-2.437-.485c-1.374-.275-2.397-.752-3.069-1.43-.666-.678-.999-1.542-.999-2.593 0-.904.245-1.682.733-2.336.495-.653 1.188-1.157 2.08-1.512.898-.354 1.949-.531 3.152-.531 1.777 0 3.176.376 4.196 1.127 1.026.751 1.625 1.774 1.796 3.069zm1.797 15.337v-19.35h3.848v2.364h.174a5.18 5.18 0 01.742-1.154c.33-.397.758-.727 1.283-.99.532-.269 1.191-.403 1.979-.403 1.026 0 1.973.269 2.84.806.868.532 1.561 1.335 2.08 2.41.519 1.069.779 2.409.779 4.022 0 1.57-.254 2.895-.761 3.976-.5 1.075-1.185 1.891-2.052 2.446-.861.55-1.826.825-2.895.825-.757 0-1.402-.125-1.933-.376a3.994 3.994 0 01-1.292-.943 4.793 4.793 0 01-.77-1.164h-.119v7.531h-3.903zm3.821-12.313c0 .836.116 1.566.348 2.189.232.623.568 1.109 1.008 1.457.44.342.974.513 1.603.513.635 0 1.173-.174 1.613-.522.439-.354.772-.843.998-1.466.232-.629.348-1.353.348-2.171 0-.813-.113-1.527-.339-2.144-.226-.617-.558-1.1-.998-1.448-.44-.348-.981-.522-1.622-.522-.635 0-1.173.168-1.612.504-.434.336-.767.812-.999 1.429-.232.617-.348 1.344-.348 2.181zm15.538 7.302c-.898 0-1.698-.156-2.401-.468a3.858 3.858 0 01-1.667-1.401c-.403-.623-.605-1.399-.605-2.327 0-.782.144-1.439.431-1.97a3.483 3.483 0 011.173-1.283 5.671 5.671 0 011.685-.733 12.829 12.829 0 011.998-.348 52.347 52.347 0 001.979-.238c.501-.08.864-.196 1.09-.348.226-.153.339-.379.339-.678v-.055c0-.581-.183-1.03-.55-1.347-.36-.318-.873-.477-1.539-.477-.702 0-1.261.156-1.677.468-.415.305-.69.69-.824 1.154l-3.61-.293a4.907 4.907 0 011.081-2.217c.538-.629 1.231-1.112 2.08-1.448.855-.342 1.844-.513 2.968-.513.782 0 1.53.092 2.245.275a5.863 5.863 0 011.915.852 4.13 4.13 0 011.328 1.484c.324.599.486 1.316.486 2.153V293h-3.701v-1.951h-.11a3.992 3.992 0 01-.907 1.163c-.379.33-.834.589-1.366.779-.531.183-1.145.275-1.841.275zm1.118-2.694c.574 0 1.081-.113 1.52-.339.44-.232.785-.544 1.036-.934.25-.391.375-.834.375-1.329v-1.493c-.122.079-.29.152-.503.22a9.259 9.259 0 01-.706.174c-.263.049-.525.094-.788.137l-.715.101a4.801 4.801 0 00-1.2.321 1.921 1.921 0 00-.797.595c-.189.244-.284.55-.284.916 0 .532.193.938.577 1.219.391.275.886.412 1.485.412zm15.212 2.703c-1.441 0-2.681-.306-3.719-.916a6.181 6.181 0 01-2.382-2.566c-.55-1.093-.825-2.351-.825-3.774 0-1.442.278-2.706.834-3.793a6.194 6.194 0 012.391-2.557c1.032-.617 2.26-.925 3.683-.925 1.228 0 2.303.223 3.225.669.922.446 1.652 1.072 2.19 1.878.537.806.834 1.753.889 2.84h-3.684c-.103-.702-.378-1.267-.824-1.695-.44-.433-1.017-.65-1.732-.65-.604 0-1.133.165-1.585.495-.446.323-.794.797-1.044 1.42-.251.623-.376 1.377-.376 2.263 0 .898.122 1.661.367 2.29.25.629.601 1.109 1.053 1.439.452.329.981.494 1.585.494.446 0 .846-.091 1.2-.275.361-.183.657-.449.889-.797.238-.354.394-.778.467-1.273h3.684c-.062 1.075-.355 2.022-.88 2.84-.519.812-1.237 1.448-2.153 1.906-.916.458-2 .687-3.253.687zm14.217 0c-1.448 0-2.694-.293-3.738-.88a6.019 6.019 0 01-2.401-2.51c-.562-1.087-.843-2.373-.843-3.857 0-1.448.281-2.718.843-3.812.562-1.093 1.353-1.945 2.373-2.556 1.026-.611 2.23-.916 3.61-.916.929 0 1.793.15 2.593.449a5.75 5.75 0 012.107 1.328c.605.593 1.075 1.338 1.411 2.236.336.892.504 1.936.504 3.133v1.072h-11.883v-2.418h8.209c0-.562-.122-1.06-.366-1.494a2.63 2.63 0 00-1.017-1.017c-.428-.25-.926-.375-1.494-.375-.592 0-1.117.137-1.576.412a2.886 2.886 0 00-1.062 1.09 3.073 3.073 0 00-.394 1.512v2.299c0 .697.128 1.298.384 1.805.263.507.633.898 1.109 1.173s1.041.412 1.695.412c.434 0 .831-.061 1.191-.183.36-.122.669-.305.925-.55a2.39 2.39 0 00.587-.897l3.61.238a4.94 4.94 0 01-1.127 2.272c-.562.641-1.289 1.142-2.181 1.502-.886.355-1.909.532-3.069.532z" fill="#AD9E6A"></path><rect x="490.4" y="83.4" width="224" height="116.2" rx="5.6" fill="#D6E9CE" stroke="#7C9D6E" stroke-width="2.8"></rect><path d="M566.234 137.683c6.111 0 10.228-2.976 11.193-7.56l-6.336-.418c-.692 1.882-2.461 2.863-4.745 2.863-3.426 0-5.597-2.268-5.597-5.951v-.016h16.823v-1.881c0-8.396-5.082-12.545-11.612-12.545-7.269 0-11.982 5.162-11.982 12.786 0 7.832 4.648 12.722 12.256 12.722zm-5.485-15.328c.145-2.814 2.284-5.066 5.324-5.066 2.975 0 5.034 2.123 5.05 5.066h-10.374zm32.992-9.859h-4.648v-5.918h-6.852v5.918h-3.377v5.147h3.377v12.866c-.032 4.841 3.265 7.238 8.235 7.029 1.769-.065 3.023-.418 3.715-.644l-1.078-5.098c-.337.064-1.061.225-1.704.225-1.367 0-2.316-.514-2.316-2.412v-11.966h4.648v-5.147zm10.403 10.422c.016-3.184 1.962-5.05 4.76-5.05 2.783 0 4.423 1.785 4.407 4.825V137.2h6.851v-15.729c.016-5.79-3.393-9.296-8.54-9.296-3.747 0-6.256 1.769-7.382 4.68h-.289v-12.593h-6.659V137.2h6.852v-14.282zm32.818 15.006c8.283 0 13.285-6.305 13.301-17.161.016-10.776-5.05-16.951-13.301-16.951-8.266 0-13.284 6.159-13.3 16.951-.033 10.824 5.001 17.145 13.3 17.161zm0-5.774c-3.779 0-6.224-3.796-6.208-11.387.016-7.479 2.445-11.242 6.208-11.242 3.748 0 6.192 3.763 6.192 11.242.016 7.591-2.428 11.387-6.192 11.387zm-99.246 22.894h-4.523l-5.633 3.566v4.267l5.211-3.267h.133v18.19h4.812v-22.756zm13.779 23.256c5.722 0 9.178-4.356 9.189-11.856.011-7.445-3.489-11.711-9.189-11.711-5.711 0-9.178 4.255-9.189 11.711-.023 7.478 3.455 11.845 9.189 11.856zm0-3.989c-2.611 0-4.3-2.622-4.289-7.867.011-5.167 1.689-7.767 4.289-7.767 2.589 0 4.278 2.6 4.278 7.767.011 5.245-1.678 7.867-4.278 7.867zm13.932 3.778c1.422 0 2.656-1.189 2.667-2.667-.011-1.455-1.245-2.644-2.667-2.644-1.467 0-2.678 1.189-2.667 2.644-.011 1.478 1.2 2.667 2.667 2.667zm13.015-23.045h-4.522l-5.634 3.566v4.267l5.212-3.267h.133v18.19h4.811v-22.756zm13.779 23.256c5.723 0 9.179-4.356 9.19-11.856.011-7.445-3.489-11.711-9.19-11.711-5.711 0-9.178 4.255-9.189 11.711-.022 7.478 3.456 11.845 9.189 11.856zm0-3.989c-2.611 0-4.3-2.622-4.289-7.867.011-5.167 1.689-7.767 4.289-7.767 2.589 0 4.278 2.6 4.278 7.767.011 5.245-1.677 7.867-4.278 7.867zm20.991 3.989c5.722 0 9.178-4.356 9.189-11.856.011-7.445-3.489-11.711-9.189-11.711-5.711 0-9.178 4.255-9.189 11.711-.022 7.478 3.455 11.845 9.189 11.856zm0-3.989c-2.611 0-4.3-2.622-4.289-7.867.011-5.167 1.689-7.767 4.289-7.767 2.589 0 4.278 2.6 4.278 7.767.011 5.245-1.678 7.867-4.278 7.867zm13.932 3.778c1.422 0 2.656-1.189 2.667-2.667-.011-1.455-1.245-2.644-2.667-2.644-1.467 0-2.678 1.189-2.667 2.644-.011 1.478 1.2 2.667 2.667 2.667zm13.932.211c5.722 0 9.178-4.356 9.189-11.856.011-7.445-3.489-11.711-9.189-11.711-5.711 0-9.178 4.255-9.189 11.711-.022 7.478 3.455 11.845 9.189 11.856zm0-3.989c-2.611 0-4.3-2.622-4.289-7.867.011-5.167 1.689-7.767 4.289-7.767 2.589 0 4.278 2.6 4.278 7.767.011 5.245-1.678 7.867-4.278 7.867zm13.932 3.778c1.422 0 2.656-1.189 2.667-2.667-.011-1.455-1.245-2.644-2.667-2.644-1.467 0-2.678 1.189-2.667 2.644-.011 1.478 1.2 2.667 2.667 2.667zm5.957-.289h16.222v-3.933h-9.555v-.156l3.322-3.256c4.678-4.267 5.933-6.4 5.933-8.989 0-3.945-3.222-6.733-8.1-6.733-4.778 0-8.056 2.855-8.045 7.322h4.567c-.011-2.178 1.367-3.511 3.445-3.511 2 0 3.489 1.244 3.489 3.244 0 1.811-1.111 3.056-3.178 5.045l-8.1 7.5v3.467z" fill="#000"></path></svg>