<svg viewBox="0 0 1200 900" fill="none" xmlns="http://www.w3.org/2000/svg"><path fill="#fff" d="M0 0h1200v900H0z"></path><rect x="252.4" y="83.4" width="696.2" height="696.2" rx="26.6" fill="#CEE2F6" stroke="#76AADF" stroke-width="2.8"></rect><rect x="304.4" y="83.4" width="595.2" height="372.2" rx="5.6" fill="#FFF2C5" stroke="#AD9E6A" stroke-width="2.8"></rect><path d="M576.607 806.062h-6.932v20.715h-.29l-14.217-20.715h-6.112V839h6.964v-20.731h.241L570.591 839h6.016v-32.938zm15.344 33.42c7.495 0 12.159-5.13 12.159-12.737 0-7.656-4.664-12.77-12.159-12.77-7.495 0-12.159 5.114-12.159 12.77 0 7.607 4.664 12.737 12.159 12.737zm.032-5.307c-3.458 0-5.227-3.168-5.227-7.479 0-4.31 1.769-7.494 5.227-7.494 3.394 0 5.163 3.184 5.163 7.494 0 4.311-1.769 7.479-5.163 7.479zm24.242 5.227c3.989 0 6.064-2.3 7.013-4.358h.289V839h6.755v-32.938h-6.835v12.384h-.209c-.917-2.011-2.895-4.471-7.029-4.471-5.42 0-10.003 4.213-10.003 12.705 0 8.267 4.39 12.722 10.019 12.722zm2.172-5.452c-3.362 0-5.195-2.992-5.195-7.302 0-4.278 1.801-7.221 5.195-7.221 3.329 0 5.195 2.814 5.195 7.221s-1.898 7.302-5.195 7.302zm27.334 5.532c6.112 0 10.229-2.975 11.194-7.559l-6.337-.418c-.691 1.882-2.461 2.863-4.744 2.863-3.426 0-5.597-2.268-5.597-5.951v-.016h16.823v-1.881c0-8.396-5.083-12.545-11.612-12.545-7.27 0-11.982 5.162-11.982 12.786 0 7.832 4.648 12.721 12.255 12.721zm-5.484-15.327c.144-2.814 2.283-5.066 5.323-5.066 2.976 0 5.034 2.123 5.05 5.066h-10.373z" fill="#000"></path><path d="M339.994 420v-31.855h12.568c2.406 0 4.459.431 6.159 1.291 1.711.851 3.012 2.059 3.904 3.625.902 1.555 1.353 3.385 1.353 5.49 0 2.115-.456 3.935-1.368 5.46-.913 1.513-2.235 2.675-3.967 3.484-1.721.808-3.805 1.213-6.252 1.213h-8.415v-5.413h7.326c1.286 0 2.354-.176 3.204-.529.85-.352 1.483-.881 1.898-1.586.425-.705.637-1.582.637-2.629 0-1.058-.212-1.949-.637-2.675-.415-.726-1.053-1.276-1.913-1.649-.851-.384-1.924-.575-3.22-.575h-4.542V420h-6.735zm17.203-14.496L365.114 420h-7.435l-7.746-14.496h7.264zm20.845 14.963c-2.416 0-4.505-.514-6.268-1.54-1.753-1.037-3.106-2.478-4.06-4.324-.954-1.856-1.431-4.008-1.431-6.455 0-2.468.477-4.625 1.431-6.471.954-1.856 2.307-3.297 4.06-4.324 1.763-1.037 3.852-1.555 6.268-1.555s4.5.518 6.253 1.555c1.763 1.027 3.121 2.468 4.075 4.324.954 1.846 1.431 4.003 1.431 6.471 0 2.447-.477 4.599-1.431 6.455-.954 1.846-2.312 3.287-4.075 4.324-1.753 1.026-3.837 1.54-6.253 1.54zm.031-5.133c1.099 0 2.017-.311 2.753-.933.737-.633 1.291-1.494 1.665-2.582.383-1.089.575-2.328.575-3.718 0-1.389-.192-2.628-.575-3.717-.374-1.089-.928-1.95-1.665-2.582-.736-.633-1.654-.949-2.753-.949-1.109 0-2.042.316-2.799.949-.747.632-1.312 1.493-1.696 2.582-.373 1.089-.56 2.328-.56 3.717 0 1.39.187 2.629.56 3.718.384 1.088.949 1.949 1.696 2.582.757.622 1.69.933 2.799.933zm25.85 5.133c-2.416 0-4.505-.514-6.268-1.54-1.753-1.037-3.106-2.478-4.06-4.324-.954-1.856-1.431-4.008-1.431-6.455 0-2.468.477-4.625 1.431-6.471.954-1.856 2.307-3.297 4.06-4.324 1.763-1.037 3.852-1.555 6.268-1.555s4.5.518 6.253 1.555c1.762 1.027 3.121 2.468 4.075 4.324.954 1.846 1.431 4.003 1.431 6.471 0 2.447-.477 4.599-1.431 6.455-.954 1.846-2.313 3.287-4.075 4.324-1.753 1.026-3.837 1.54-6.253 1.54zm.031-5.133c1.099 0 2.017-.311 2.753-.933.736-.633 1.291-1.494 1.664-2.582.384-1.089.576-2.328.576-3.718 0-1.389-.192-2.628-.576-3.717-.373-1.089-.928-1.95-1.664-2.582-.736-.633-1.654-.949-2.753-.949-1.109 0-2.043.316-2.8.949-.746.632-1.311 1.493-1.695 2.582-.373 1.089-.56 2.328-.56 3.717 0 1.39.187 2.629.56 3.718.384 1.088.949 1.949 1.695 2.582.757.622 1.691.933 2.8.933zm27.763-19.225v4.977H417.33v-4.977h14.387zm-11.121-5.724h6.626v22.274c0 .611.093 1.088.28 1.43.186.332.446.566.778.7.342.135.736.203 1.182.203.311 0 .622-.026.933-.078.311-.062.549-.109.715-.14l1.042 4.93c-.331.104-.798.223-1.399.358-.602.145-1.333.234-2.194.265-1.596.062-2.996-.151-4.199-.638-1.193-.487-2.121-1.244-2.784-2.271-.664-1.027-.991-2.323-.98-3.888v-23.145zm30.239 15.803V420h-6.626v-23.891h6.315v4.215h.28a6.663 6.663 0 012.659-3.297c1.245-.819 2.753-1.229 4.527-1.229 1.659 0 3.105.363 4.339 1.089 1.234.726 2.193 1.763 2.878 3.111.684 1.337 1.026 2.934 1.026 4.79V420h-6.626v-14.03c.011-1.462-.363-2.602-1.12-3.422-.757-.829-1.799-1.244-3.126-1.244-.892 0-1.68.192-2.364.576-.674.383-1.203.943-1.587 1.679-.373.726-.565 1.603-.575 2.629zm30.527 14.279c-2.457 0-4.573-.498-6.346-1.494-1.763-1.005-3.121-2.426-4.075-4.261-.954-1.846-1.431-4.029-1.431-6.549 0-2.457.477-4.614 1.431-6.47.954-1.856 2.297-3.303 4.029-4.34 1.742-1.037 3.784-1.555 6.128-1.555 1.576 0 3.043.254 4.402.762a9.781 9.781 0 013.577 2.255c1.027 1.006 1.825 2.271 2.395 3.796.571 1.514.856 3.287.856 5.319v1.82h-20.174v-4.106h13.937c0-.954-.208-1.799-.622-2.536a4.463 4.463 0 00-1.727-1.726c-.726-.425-1.571-.638-2.535-.638-1.006 0-1.898.233-2.676.7a4.909 4.909 0 00-1.804 1.851c-.435.767-.658 1.623-.669 2.566v3.904c0 1.183.218 2.204.654 3.065a4.787 4.787 0 001.882 1.991c.808.466 1.768.699 2.877.699.736 0 1.41-.103 2.022-.311a4.183 4.183 0 001.571-.933c.436-.415.767-.923.996-1.524l6.128.404a8.374 8.374 0 01-1.913 3.858c-.954 1.088-2.188 1.939-3.702 2.55-1.504.602-3.241.903-5.211.903zm27.017-24.358v4.977h-14.388v-4.977h14.388zm-11.122-5.724h6.626v22.274c0 .611.094 1.088.28 1.43.187.332.446.566.778.7.342.135.736.203 1.182.203.311 0 .622-.026.933-.078.312-.062.55-.109.716-.14l1.042 4.93c-.332.104-.798.223-1.4.358-.601.145-1.332.234-2.193.265-1.597.062-2.997-.151-4.199-.638-1.193-.487-2.121-1.244-2.785-2.271-.663-1.027-.99-2.323-.98-3.888v-23.145zM516.427 420l-6.502-23.891h6.704l3.702 16.052h.218l3.857-16.052h6.579l3.92 15.958h.202l3.64-15.958h6.688L538.949 420h-7.015l-4.106-15.025h-.296L523.426 420h-6.999zm41.757.467c-2.416 0-4.505-.514-6.268-1.54-1.752-1.037-3.106-2.478-4.06-4.324-.954-1.856-1.431-4.008-1.431-6.455 0-2.468.477-4.625 1.431-6.471.954-1.856 2.308-3.297 4.06-4.324 1.763-1.037 3.852-1.555 6.268-1.555s4.501.518 6.253 1.555c1.763 1.027 3.121 2.468 4.075 4.324.954 1.846 1.431 4.003 1.431 6.471 0 2.447-.477 4.599-1.431 6.455-.954 1.846-2.312 3.287-4.075 4.324-1.752 1.026-3.837 1.54-6.253 1.54zm.031-5.133c1.1 0 2.017-.311 2.753-.933.737-.633 1.291-1.494 1.665-2.582.383-1.089.575-2.328.575-3.718 0-1.389-.192-2.628-.575-3.717-.374-1.089-.928-1.95-1.665-2.582-.736-.633-1.653-.949-2.753-.949-1.109 0-2.042.316-2.799.949-.747.632-1.312 1.493-1.696 2.582-.373 1.089-.56 2.328-.56 3.717 0 1.39.187 2.629.56 3.718.384 1.088.949 1.949 1.696 2.582.757.622 1.69.933 2.799.933zM573.271 420v-23.891h6.423v4.169h.249c.436-1.483 1.167-2.603 2.193-3.36 1.027-.767 2.209-1.151 3.547-1.151.332 0 .689.021 1.073.062a7.72 7.72 0 011.011.171v5.88c-.311-.094-.741-.177-1.291-.249a11.538 11.538 0 00-1.509-.109c-.974 0-1.846.212-2.613.638a4.687 4.687 0 00-1.804 1.742c-.436.746-.653 1.607-.653 2.582V420h-6.626zm22.945-6.875l.015-7.948h.965l7.652-9.068h7.606l-10.281 12.008h-1.571l-4.386 5.008zM590.212 420v-31.855h6.626V420h-6.626zm14.932 0l-7.031-10.406 4.418-4.681L612.905 420h-7.761zm25.362-13.812V420h-6.626v-23.891h6.315v4.215h.28a6.67 6.67 0 012.66-3.297c1.244-.819 2.753-1.229 4.526-1.229 1.659 0 3.106.363 4.34 1.089s2.193 1.763 2.877 3.111c.685 1.337 1.027 2.934 1.027 4.79V420h-6.626v-14.03c.01-1.462-.363-2.602-1.12-3.422-.757-.829-1.799-1.244-3.126-1.244-.892 0-1.68.192-2.365.576-.674.383-1.203.943-1.586 1.679-.373.726-.565 1.603-.576 2.629zm26.453 14.263c-1.525 0-2.883-.264-4.075-.793-1.193-.539-2.136-1.333-2.831-2.38-.685-1.058-1.027-2.375-1.027-3.951 0-1.327.244-2.442.731-3.344a5.919 5.919 0 011.991-2.177 9.65 9.65 0 012.862-1.245 21.801 21.801 0 013.391-.591 86.776 86.776 0 003.36-.404c.85-.135 1.467-.332 1.85-.591.384-.259.576-.643.576-1.151v-.093c0-.986-.311-1.748-.933-2.287-.612-.539-1.483-.809-2.613-.809-1.193 0-2.142.265-2.847.794-.705.518-1.171 1.171-1.4 1.959l-6.128-.497c.311-1.452.923-2.707 1.835-3.764.913-1.068 2.09-1.888 3.531-2.458 1.452-.581 3.132-.871 5.04-.871 1.327 0 2.597.156 3.81.467 1.224.311 2.308.793 3.251 1.446a7.03 7.03 0 012.256 2.52c.549 1.016.824 2.234.824 3.655V420h-6.284v-3.313h-.187a6.716 6.716 0 01-1.539 1.975c-.643.56-1.416 1.001-2.318 1.322-.902.312-1.944.467-3.126.467zm1.897-4.573c.975 0 1.836-.192 2.582-.575.747-.394 1.333-.923 1.758-1.587.425-.663.638-1.415.638-2.255v-2.535a3.595 3.595 0 01-.856.373c-.352.104-.752.202-1.198.295-.445.083-.891.161-1.337.234l-1.213.171c-.778.114-1.457.295-2.038.544-.581.249-1.032.586-1.353 1.011-.322.415-.482.933-.482 1.556 0 .902.326 1.591.98 2.068.663.467 1.503.7 2.519.7zM674.573 420v-23.891h6.315v4.215h.28c.497-1.4 1.327-2.504 2.488-3.313 1.162-.809 2.551-1.213 4.169-1.213 1.638 0 3.033.41 4.184 1.229 1.151.809 1.918 1.908 2.302 3.297h.249c.487-1.369 1.368-2.462 2.644-3.282 1.285-.829 2.805-1.244 4.557-1.244 2.229 0 4.039.71 5.428 2.131 1.4 1.41 2.1 3.411 2.1 6.004V420h-6.61v-14.761c0-1.327-.353-2.322-1.058-2.986-.705-.664-1.586-.996-2.644-.996-1.203 0-2.141.384-2.815 1.151-.674.757-1.011 1.758-1.011 3.002V420h-6.424v-14.901c0-1.171-.337-2.105-1.011-2.799-.664-.695-1.54-1.043-2.629-1.043-.736 0-1.4.187-1.991.56-.58.363-1.042.877-1.384 1.54-.342.654-.513 1.421-.513 2.302V420h-6.626zm49.857.467c-2.458 0-4.573-.498-6.346-1.494-1.763-1.005-3.121-2.426-4.075-4.261-.954-1.846-1.431-4.029-1.431-6.549 0-2.457.477-4.614 1.431-6.47.954-1.856 2.297-3.303 4.028-4.34 1.742-1.037 3.785-1.555 6.128-1.555 1.577 0 3.044.254 4.402.762a9.785 9.785 0 013.578 2.255c1.026 1.006 1.825 2.271 2.395 3.796.57 1.514.855 3.287.855 5.319v1.82h-20.173v-4.106h13.936c0-.954-.207-1.799-.622-2.536a4.46 4.46 0 00-1.726-1.726c-.726-.425-1.571-.638-2.536-.638-1.005 0-1.897.233-2.675.7a4.902 4.902 0 00-1.804 1.851c-.436.767-.659 1.623-.669 2.566v3.904c0 1.183.218 2.204.653 3.065a4.787 4.787 0 001.882 1.991c.809.466 1.768.699 2.878.699.736 0 1.41-.103 2.022-.311a4.19 4.19 0 001.571-.933c.435-.415.767-.923.995-1.524l6.128.404c-.311 1.473-.948 2.758-1.913 3.858-.954 1.088-2.188 1.939-3.702 2.55-1.503.602-3.24.903-5.21.903zm34.187-17.545l-6.066.373a3.145 3.145 0 00-.669-1.4c-.342-.425-.794-.762-1.353-1.011-.55-.259-1.209-.389-1.976-.389-1.026 0-1.892.218-2.597.654-.705.425-1.058.995-1.058 1.711 0 .57.228 1.052.684 1.446.457.394 1.239.71 2.349.949l4.324.871c2.323.477 4.054 1.244 5.195 2.302s1.711 2.447 1.711 4.168c0 1.566-.461 2.94-1.384 4.122-.913 1.182-2.168 2.105-3.764 2.769-1.587.653-3.417.98-5.491.98-3.163 0-5.682-.659-7.559-1.976-1.867-1.327-2.961-3.131-3.282-5.413l6.517-.342c.197.965.674 1.701 1.431 2.209.757.498 1.727.747 2.909.747 1.161 0 2.094-.223 2.799-.669.716-.457 1.079-1.042 1.089-1.758-.01-.601-.264-1.094-.762-1.477-.498-.395-1.265-.695-2.302-.903l-4.137-.824c-2.333-.467-4.07-1.275-5.211-2.426-1.13-1.151-1.695-2.619-1.695-4.402 0-1.535.414-2.857 1.244-3.966.84-1.11 2.017-1.965 3.531-2.567 1.524-.601 3.308-.902 5.35-.902 3.018 0 5.392.638 7.124 1.913 1.742 1.276 2.758 3.012 3.049 5.211zm3.735 26.037v-32.85h6.533v4.013h.296c.29-.643.71-1.296 1.259-1.96.56-.674 1.286-1.234 2.178-1.68.902-.456 2.022-.684 3.36-.684 1.742 0 3.349.456 4.821 1.369 1.473.902 2.65 2.265 3.531 4.09.882 1.815 1.322 4.091 1.322 6.829 0 2.665-.43 4.915-1.291 6.75-.85 1.825-2.011 3.209-3.484 4.153-1.462.933-3.1 1.4-4.915 1.4-1.286 0-2.38-.213-3.282-.638-.891-.425-1.623-.959-2.193-1.602-.57-.653-1.006-1.312-1.306-1.975h-.203v12.785h-6.626zm6.486-20.904c0 1.42.197 2.659.591 3.717.395 1.058.965 1.882 1.711 2.473.747.581 1.654.871 2.722.871 1.079 0 1.991-.295 2.738-.887.746-.601 1.312-1.43 1.695-2.488.394-1.068.591-2.297.591-3.686 0-1.38-.192-2.593-.575-3.64-.384-1.047-.949-1.867-1.696-2.458-.746-.591-1.664-.886-2.753-.886-1.078 0-1.991.285-2.737.855-.736.571-1.301 1.379-1.696 2.427-.394 1.047-.591 2.281-.591 3.702zm27.063 12.396c-1.524 0-2.882-.264-4.075-.793-1.192-.539-2.136-1.333-2.831-2.38-.684-1.058-1.026-2.375-1.026-3.951 0-1.327.244-2.442.731-3.344a5.91 5.91 0 011.991-2.177 9.65 9.65 0 012.862-1.245 21.788 21.788 0 013.39-.591c1.39-.145 2.51-.28 3.36-.404.85-.135 1.467-.332 1.851-.591.384-.259.576-.643.576-1.151v-.093c0-.986-.312-1.748-.934-2.287-.611-.539-1.482-.809-2.613-.809-1.192 0-2.141.265-2.846.794-.705.518-1.172 1.171-1.4 1.959l-6.128-.497c.311-1.452.923-2.707 1.835-3.764.913-1.068 2.09-1.888 3.531-2.458 1.452-.581 3.131-.871 5.039-.871 1.328 0 2.598.156 3.811.467 1.224.311 2.307.793 3.251 1.446a7.019 7.019 0 012.255 2.52c.55 1.016.825 2.234.825 3.655V420h-6.284v-3.313h-.187a6.736 6.736 0 01-1.54 1.975c-.643.56-1.415 1.001-2.317 1.322-.902.312-1.945.467-3.127.467zm1.898-4.573c.975 0 1.835-.192 2.582-.575.747-.394 1.332-.923 1.758-1.587.425-.663.637-1.415.637-2.255v-2.535a3.567 3.567 0 01-.855.373c-.353.104-.752.202-1.198.295-.446.083-.892.161-1.338.234l-1.213.171c-.777.114-1.457.295-2.037.544-.581.249-1.032.586-1.354 1.011-.321.415-.482.933-.482 1.556 0 .902.327 1.591.98 2.068.664.467 1.504.7 2.52.7zm26.511 4.589c-2.447 0-4.552-.519-6.315-1.556-1.753-1.047-3.101-2.499-4.044-4.355-.933-1.856-1.4-3.992-1.4-6.408 0-2.447.472-4.594 1.415-6.439.954-1.857 2.307-3.303 4.06-4.34 1.752-1.047 3.837-1.571 6.253-1.571 2.084 0 3.909.378 5.475 1.135 1.565.757 2.804 1.82 3.717 3.189.912 1.369 1.415 2.976 1.509 4.822h-6.253c-.176-1.193-.643-2.152-1.4-2.878-.746-.736-1.726-1.104-2.94-1.104-1.026 0-1.923.28-2.69.84-.757.549-1.348 1.353-1.774 2.411-.425 1.057-.637 2.338-.637 3.842 0 1.524.207 2.82.622 3.888.425 1.068 1.021 1.882 1.789 2.442.767.56 1.664.84 2.69.84.757 0 1.437-.156 2.038-.467a3.934 3.934 0 001.509-1.353c.404-.601.669-1.322.793-2.162h6.253c-.104 1.825-.602 3.432-1.493 4.822-.882 1.379-2.1 2.457-3.656 3.235-1.555.778-3.396 1.167-5.521 1.167zm24.819 0c-2.458 0-4.573-.498-6.346-1.494-1.763-1.005-3.121-2.426-4.075-4.261-.954-1.846-1.431-4.029-1.431-6.549 0-2.457.477-4.614 1.431-6.47.954-1.856 2.297-3.303 4.028-4.34 1.742-1.037 3.785-1.555 6.129-1.555 1.576 0 3.043.254 4.401.762a9.777 9.777 0 013.578 2.255c1.026 1.006 1.825 2.271 2.395 3.796.57 1.514.856 3.287.856 5.319v1.82h-20.174v-4.106h13.936c0-.954-.207-1.799-.622-2.536a4.46 4.46 0 00-1.726-1.726c-.726-.425-1.571-.638-2.536-.638-1.005 0-1.897.233-2.675.7a4.902 4.902 0 00-1.804 1.851c-.436.767-.659 1.623-.669 2.566v3.904c0 1.183.218 2.204.653 3.065a4.793 4.793 0 001.882 1.991c.809.466 1.768.699 2.878.699.736 0 1.41-.103 2.022-.311a4.19 4.19 0 001.571-.933c.435-.415.767-.923.995-1.524l6.129.404c-.312 1.473-.949 2.758-1.914 3.858-.954 1.088-2.188 1.939-3.701 2.55-1.504.602-3.241.903-5.211.903z" fill="#AD9E6A"></path><rect x="490.4" y="83.4" width="224" height="116.2" rx="5.6" fill="#D6E9CE" stroke="#7C9D6E" stroke-width="2.8"></rect><path d="M566.233 137.683c6.112 0 10.229-2.976 11.194-7.56l-6.336-.418c-.692 1.882-2.461 2.863-4.745 2.863-3.426 0-5.597-2.268-5.597-5.951v-.016h16.823v-1.881c0-8.396-5.082-12.545-11.612-12.545-7.269 0-11.982 5.162-11.982 12.786 0 7.832 4.648 12.722 12.255 12.722zm-5.484-15.328c.145-2.814 2.284-5.066 5.324-5.066 2.975 0 5.034 2.123 5.05 5.066h-10.374zm32.992-9.859h-4.648v-5.918h-6.852v5.918h-3.377v5.147h3.377v12.866c-.032 4.841 3.265 7.238 8.235 7.029 1.769-.065 3.023-.418 3.715-.644l-1.078-5.098c-.337.064-1.061.225-1.704.225-1.367 0-2.316-.514-2.316-2.412v-11.966h4.648v-5.147zm10.403 10.422c.016-3.184 1.962-5.05 4.76-5.05 2.783 0 4.423 1.785 4.407 4.825V137.2h6.851v-15.729c.016-5.79-3.393-9.296-8.54-9.296-3.747 0-6.256 1.769-7.382 4.68h-.289v-12.593h-6.659V137.2h6.852v-14.282zm32.818 15.006c8.283 0 13.285-6.305 13.301-17.161.016-10.776-5.05-16.951-13.301-16.951-8.266 0-13.284 6.159-13.301 16.951-.032 10.824 5.002 17.145 13.301 17.161zm0-5.774c-3.779 0-6.224-3.796-6.208-11.387.016-7.479 2.445-11.242 6.208-11.242 3.748 0 6.192 3.763 6.192 11.242.016 7.591-2.428 11.387-6.192 11.387zm-99.246 22.894h-4.523l-5.633 3.566v4.267l5.211-3.267h.133v18.19h4.812v-22.756zm13.779 23.256c5.722 0 9.178-4.356 9.189-11.856.011-7.445-3.489-11.711-9.189-11.711-5.711 0-9.178 4.255-9.189 11.711-.023 7.478 3.455 11.845 9.189 11.856zm0-3.989c-2.611 0-4.3-2.622-4.289-7.867.011-5.167 1.689-7.767 4.289-7.767 2.589 0 4.278 2.6 4.278 7.767.011 5.245-1.678 7.867-4.278 7.867zm13.932 3.778c1.422 0 2.656-1.189 2.667-2.667-.011-1.455-1.245-2.644-2.667-2.644-1.467 0-2.678 1.189-2.667 2.644-.011 1.478 1.2 2.667 2.667 2.667zm13.015-23.045h-4.522l-5.634 3.566v4.267l5.212-3.267h.133v18.19h4.811v-22.756zm13.779 23.256c5.723 0 9.178-4.356 9.19-11.856.011-7.445-3.489-11.711-9.19-11.711-5.711 0-9.178 4.255-9.189 11.711-.022 7.478 3.456 11.845 9.189 11.856zm0-3.989c-2.611 0-4.3-2.622-4.289-7.867.011-5.167 1.689-7.767 4.289-7.767 2.589 0 4.278 2.6 4.278 7.767.011 5.245-1.678 7.867-4.278 7.867zm20.991 3.989c5.722 0 9.178-4.356 9.189-11.856.011-7.445-3.489-11.711-9.189-11.711-5.711 0-9.178 4.255-9.189 11.711-.022 7.478 3.455 11.845 9.189 11.856zm0-3.989c-2.611 0-4.3-2.622-4.289-7.867.011-5.167 1.689-7.767 4.289-7.767 2.589 0 4.278 2.6 4.278 7.767.011 5.245-1.678 7.867-4.278 7.867zm13.932 3.778c1.422 0 2.656-1.189 2.667-2.667-.011-1.455-1.245-2.644-2.667-2.644-1.467 0-2.678 1.189-2.667 2.644-.011 1.478 1.2 2.667 2.667 2.667zm13.932.211c5.722 0 9.178-4.356 9.189-11.856.011-7.445-3.489-11.711-9.189-11.711-5.711 0-9.178 4.255-9.189 11.711-.022 7.478 3.455 11.845 9.189 11.856zm0-3.989c-2.611 0-4.3-2.622-4.289-7.867.011-5.167 1.689-7.767 4.289-7.767 2.589 0 4.278 2.6 4.278 7.767.011 5.245-1.678 7.867-4.278 7.867zm13.932 3.778c1.422 0 2.656-1.189 2.667-2.667-.011-1.455-1.245-2.644-2.667-2.644-1.467 0-2.678 1.189-2.667 2.644-.011 1.478 1.2 2.667 2.667 2.667zm5.957-.289h16.222v-3.933h-9.555v-.156l3.322-3.256c4.678-4.267 5.933-6.4 5.933-8.989 0-3.945-3.222-6.733-8.1-6.733-4.778 0-8.056 2.855-8.045 7.322h4.567c-.011-2.178 1.367-3.511 3.445-3.511 2 0 3.489 1.244 3.489 3.244 0 1.811-1.111 3.056-3.178 5.045l-8.1 7.5v3.467z" fill="#000"></path></svg>