<svg viewBox="0 0 1200 900" fill="none" xmlns="http://www.w3.org/2000/svg"><path fill="#fff" d="M0 0h1200v900H0z"></path><rect x="252.4" y="83.4" width="696.2" height="696.2" rx="26.6" fill="#CEE2F6" stroke="#76AADF" stroke-width="2.8"></rect><rect x="304.4" y="83.4" width="595.2" height="372.2" rx="5.6" fill="#FFF2C5" stroke="#AD9E6A" stroke-width="2.8"></rect><rect x="304.4" y="509.4" width="252.2" height="224.2" rx="5.6" fill="#FFF2C5" stroke="#AD9E6A" stroke-width="2.8"></rect><rect x="332.4" y="509.4" width="224" height="116.2" rx="5.6" fill="#D6E9CE" stroke="#7C9D6E" stroke-width="2.8"></rect><path d="M408.233 563.682c6.112 0 10.229-2.975 11.194-7.559l-6.336-.418c-.692 1.882-2.461 2.863-4.745 2.863-3.426 0-5.597-2.268-5.597-5.951v-.016h16.823v-1.882c0-8.395-5.082-12.544-11.612-12.544-7.269 0-11.982 5.162-11.982 12.786 0 7.832 4.648 12.721 12.255 12.721zm-5.484-15.327c.145-2.814 2.284-5.066 5.324-5.066 2.975 0 5.034 2.123 5.05 5.066h-10.374zm32.992-9.859h-4.648v-5.918h-6.852v5.918h-3.377v5.147h3.377v12.866c-.032 4.841 3.265 7.238 8.235 7.029 1.769-.065 3.023-.418 3.715-.644l-1.078-5.098c-.337.064-1.061.225-1.704.225-1.367 0-2.316-.514-2.316-2.412v-11.966h4.648v-5.147zm10.403 10.422c.016-3.184 1.962-5.05 4.76-5.05 2.783 0 4.423 1.785 4.407 4.825V563.2h6.851v-15.729c.016-5.79-3.393-9.296-8.54-9.296-3.747 0-6.256 1.769-7.382 4.68h-.289v-12.593h-6.659V563.2h6.852v-14.282zm32.818 15.006c8.283 0 13.285-6.305 13.301-17.161.016-10.776-5.05-16.952-13.301-16.952-8.267 0-13.284 6.16-13.301 16.952-.032 10.824 5.002 17.145 13.301 17.161zm0-5.774c-3.779 0-6.224-3.796-6.208-11.387.016-7.479 2.445-11.242 6.208-11.242 3.748 0 6.192 3.763 6.192 11.242.016 7.591-2.428 11.387-6.192 11.387zm-94.888 22.894h-4.522l-5.634 3.566v4.267l5.212-3.266h.133V603.8h4.811v-22.756zm5.757 22.756h4.967l9.445-18.767v-3.989h-15.968v3.933h10.99v.156l-9.434 18.667zm17.157 0h16.223v-3.933h-9.556v-.156l3.322-3.256c4.678-4.266 5.934-6.4 5.934-8.989 0-3.944-3.223-6.733-8.101-6.733-4.777 0-8.055 2.855-8.044 7.322h4.567c-.012-2.178 1.366-3.511 3.444-3.511 2 0 3.489 1.244 3.489 3.244 0 1.812-1.111 3.056-3.178 5.045l-8.1 7.5v3.467zm21.968.289c1.423 0 2.656-1.189 2.667-2.667-.011-1.455-1.244-2.644-2.667-2.644-1.466 0-2.677 1.189-2.666 2.644-.011 1.478 1.2 2.667 2.666 2.667zm13.016-23.045h-4.523l-5.633 3.566v4.267l5.211-3.266h.133V603.8h4.812v-22.756zm5.756 22.756h4.967l9.445-18.767v-3.989h-15.967v3.933h10.989v.156l-9.434 18.667zm16.057.289c1.423 0 2.656-1.189 2.667-2.667-.011-1.455-1.244-2.644-2.667-2.644-1.466 0-2.677 1.189-2.666 2.644-.011 1.478 1.2 2.667 2.666 2.667zm13.932.211c5.723 0 9.179-4.356 9.19-11.856.011-7.445-3.489-11.711-9.19-11.711-5.711 0-9.178 4.255-9.189 11.711-.022 7.478 3.456 11.845 9.189 11.856zm0-3.989c-2.611 0-4.3-2.622-4.289-7.867.012-5.167 1.689-7.767 4.289-7.767 2.589 0 4.278 2.6 4.278 7.767.011 5.245-1.677 7.867-4.278 7.867zm13.932 3.778c1.423 0 2.656-1.189 2.667-2.667-.011-1.455-1.244-2.644-2.667-2.644-1.466 0-2.677 1.189-2.666 2.644-.011 1.478 1.2 2.667 2.666 2.667zm5.957-.289h16.223v-3.933h-9.556v-.156l3.322-3.256c4.678-4.266 5.934-6.4 5.934-8.989 0-3.944-3.222-6.733-8.1-6.733-4.778 0-8.056 2.855-8.045 7.322h4.567c-.011-2.178 1.366-3.511 3.444-3.511 2 0 3.489 1.244 3.489 3.244 0 1.812-1.111 3.056-3.178 5.045l-8.1 7.5v3.467z" fill="#000"></path><rect x="332.4" y="382.4" width="224" height="74.2" rx="5.6" fill="#D6E9CE" stroke="#7C9D6E" stroke-width="2.8"></rect><path d="M407.879 408.896h-7.253l-5.115 17.676h-.257l-5.131-17.676h-7.237l8.637 24.704h7.719l8.637-24.704zm12.482 25.186c6.111 0 10.229-2.975 11.194-7.559l-6.337-.418c-.692 1.882-2.461 2.863-4.745 2.863-3.425 0-5.597-2.268-5.597-5.951v-.016h16.823v-1.882c0-8.395-5.082-12.544-11.612-12.544-7.269 0-11.982 5.162-11.982 12.786 0 7.832 4.648 12.721 12.256 12.721zm-5.485-15.327c.145-2.814 2.284-5.066 5.324-5.066 2.975 0 5.034 2.123 5.05 5.066h-10.374zm32.992-9.859h-4.648v-5.918h-6.852v5.918h-3.377v5.147h3.377v12.866c-.032 4.841 3.265 7.238 8.235 7.029 1.769-.065 3.024-.418 3.715-.644l-1.077-5.098c-.338.064-1.062.225-1.705.225-1.367 0-2.316-.514-2.316-2.412v-11.966h4.648v-5.147zm10.403 10.422c.016-3.184 1.962-5.05 4.76-5.05 2.783 0 4.423 1.785 4.407 4.825V433.6h6.852v-15.729c.016-5.79-3.394-9.296-8.541-9.296-3.747 0-6.256 1.769-7.382 4.68h-.289v-12.593h-6.659V433.6h6.852v-14.282zm32.818 15.006c8.283 0 13.285-6.305 13.301-17.161.016-10.776-5.05-16.952-13.301-16.952-8.266 0-13.284 6.16-13.3 16.952-.032 10.824 5.002 17.145 13.3 17.161zm0-5.774c-3.779 0-6.224-3.796-6.208-11.387.016-7.479 2.445-11.242 6.208-11.242 3.748 0 6.192 3.763 6.192 11.242.016 7.591-2.428 11.387-6.192 11.387z" fill="#000"></path><rect x="647.4" y="509.4" width="252.2" height="224.2" rx="5.6" fill="#FFF2C5" stroke="#AD9E6A" stroke-width="2.8"></rect><rect x="647.4" y="509.4" width="224" height="116.2" rx="5.6" fill="#D6E9CE" stroke="#7C9D6E" stroke-width="2.8"></rect><path d="M723.233 563.682c6.112 0 10.229-2.975 11.194-7.559l-6.336-.418c-.692 1.882-2.461 2.863-4.745 2.863-3.426 0-5.597-2.268-5.597-5.951v-.016h16.823v-1.882c0-8.395-5.082-12.544-11.612-12.544-7.269 0-11.982 5.162-11.982 12.786 0 7.832 4.648 12.721 12.255 12.721zm-5.484-15.327c.145-2.814 2.284-5.066 5.324-5.066 2.975 0 5.034 2.123 5.05 5.066h-10.374zm32.992-9.859h-4.648v-5.918h-6.852v5.918h-3.377v5.147h3.377v12.866c-.032 4.841 3.265 7.238 8.235 7.029 1.769-.065 3.023-.418 3.715-.644l-1.078-5.098c-.337.064-1.061.225-1.704.225-1.367 0-2.316-.514-2.316-2.412v-11.966h4.648v-5.147zm10.403 10.422c.016-3.184 1.962-5.05 4.76-5.05 2.783 0 4.423 1.785 4.407 4.825V563.2h6.851v-15.729c.016-5.79-3.393-9.296-8.54-9.296-3.747 0-6.256 1.769-7.382 4.68h-.289v-12.593h-6.659V563.2h6.852v-14.282zm32.818 15.006c8.283 0 13.285-6.305 13.301-17.161.016-10.776-5.05-16.952-13.301-16.952-8.266 0-13.284 6.16-13.301 16.952-.032 10.824 5.002 17.145 13.301 17.161zm0-5.774c-3.779 0-6.224-3.796-6.208-11.387.016-7.479 2.445-11.242 6.208-11.242 3.748 0 6.192 3.763 6.192 11.242.016 7.591-2.428 11.387-6.192 11.387zm-94.995 22.894h-4.522l-5.634 3.566v4.267l5.212-3.266h.133V603.8h4.811v-22.756zm5.757 22.756h4.967l9.445-18.767v-3.989h-15.968v3.933h10.99v.156l-9.434 18.667zm17.157 0h16.223v-3.933h-9.556v-.156l3.322-3.256c4.678-4.266 5.934-6.4 5.934-8.989 0-3.944-3.223-6.733-8.1-6.733-4.778 0-8.056 2.855-8.045 7.322h4.567c-.011-2.178 1.366-3.511 3.444-3.511 2 0 3.489 1.244 3.489 3.244 0 1.812-1.111 3.056-3.178 5.045l-8.1 7.5v3.467zm21.968.289c1.423 0 2.656-1.189 2.667-2.667-.011-1.455-1.244-2.644-2.667-2.644-1.466 0-2.677 1.189-2.666 2.644-.011 1.478 1.2 2.667 2.666 2.667zm13.016-23.045h-4.523l-5.633 3.566v4.267l5.211-3.266h.133V603.8h4.812v-22.756zm5.756 22.756h4.967l9.445-18.767v-3.989h-15.967v3.933h10.989v.156l-9.434 18.667zm16.058.289c1.422 0 2.655-1.189 2.666-2.667-.011-1.455-1.244-2.644-2.666-2.644-1.467 0-2.678 1.189-2.667 2.644-.011 1.478 1.2 2.667 2.667 2.667zm13.932.211c5.722 0 9.178-4.356 9.189-11.856.011-7.445-3.489-11.711-9.189-11.711-5.712 0-9.179 4.255-9.19 11.711-.022 7.478 3.456 11.845 9.19 11.856zm0-3.989c-2.612 0-4.301-2.622-4.29-7.867.012-5.167 1.689-7.767 4.29-7.767 2.588 0 4.277 2.6 4.277 7.767.012 5.245-1.677 7.867-4.277 7.867zm13.931 3.778c1.423 0 2.656-1.189 2.667-2.667-.011-1.455-1.244-2.644-2.667-2.644-1.466 0-2.677 1.189-2.666 2.644-.011 1.478 1.2 2.667 2.666 2.667zm13.666.022c5.111 0 8.767-2.811 8.756-6.7.011-2.834-1.789-4.856-5.134-5.278v-.178c2.545-.455 4.3-2.255 4.289-4.811.011-3.589-3.133-6.411-7.845-6.411-4.666 0-8.178 2.733-8.244 6.666h4.611c.056-1.733 1.645-2.855 3.611-2.855 1.945 0 3.245 1.178 3.234 2.889.011 1.789-1.511 3-3.7 3h-2.123v3.533h2.123c2.577 0 4.189 1.289 4.178 3.123.011 1.811-1.545 3.055-3.745 3.055-2.122 0-3.711-1.111-3.8-2.778h-4.845c.078 3.978 3.634 6.745 8.634 6.745z" fill="#000"></path><rect x="647.4" y="382.4" width="224" height="74.2" rx="5.6" fill="#D6E9CE" stroke="#7C9D6E" stroke-width="2.8"></rect><path d="M727.797 408.896h-7.253l-5.115 17.676h-.257l-5.131-17.676h-7.237l8.637 24.704h7.719l8.637-24.704zm12.482 25.186c6.111 0 10.229-2.975 11.194-7.559l-6.337-.418c-.692 1.882-2.461 2.863-4.745 2.863-3.425 0-5.597-2.268-5.597-5.951v-.016h16.823v-1.882c0-8.395-5.082-12.544-11.612-12.544-7.269 0-11.982 5.162-11.982 12.786 0 7.832 4.648 12.721 12.256 12.721zm-5.485-15.327c.145-2.814 2.284-5.066 5.324-5.066 2.975 0 5.034 2.123 5.05 5.066h-10.374zm32.992-9.859h-4.648v-5.918h-6.852v5.918h-3.377v5.147h3.377v12.866c-.032 4.841 3.265 7.238 8.235 7.029 1.769-.065 3.024-.418 3.715-.644l-1.077-5.098c-.338.064-1.062.225-1.705.225-1.367 0-2.316-.514-2.316-2.412v-11.966h4.648v-5.147zm10.403 10.422c.016-3.184 1.962-5.05 4.76-5.05 2.783 0 4.423 1.785 4.407 4.825V433.6h6.852v-15.729c.016-5.79-3.394-9.296-8.541-9.296-3.747 0-6.256 1.769-7.382 4.68h-.289v-12.593h-6.659V433.6h6.852v-14.282zm32.42-18.656h-6.545l-8.155 5.162V412l7.543-4.728h.193V433.6h6.964v-32.938zm-234.002 405.4h-6.932v20.715h-.29l-14.217-20.715h-6.112V839h6.964v-20.731h.241L570.591 839h6.016v-32.938zm15.344 33.42c7.495 0 12.159-5.13 12.159-12.737 0-7.656-4.664-12.77-12.159-12.77-7.495 0-12.159 5.114-12.159 12.77 0 7.607 4.664 12.737 12.159 12.737zm.032-5.307c-3.458 0-5.227-3.168-5.227-7.479 0-4.31 1.769-7.494 5.227-7.494 3.394 0 5.163 3.184 5.163 7.494 0 4.311-1.769 7.479-5.163 7.479zm24.242 5.227c3.989 0 6.064-2.3 7.013-4.358h.289V839h6.755v-32.938h-6.835v12.384h-.209c-.917-2.011-2.895-4.471-7.029-4.471-5.42 0-10.003 4.213-10.003 12.705 0 8.267 4.39 12.722 10.019 12.722zm2.172-5.452c-3.362 0-5.195-2.992-5.195-7.302 0-4.278 1.801-7.221 5.195-7.221 3.329 0 5.195 2.814 5.195 7.221s-1.898 7.302-5.195 7.302zm27.334 5.532c6.112 0 10.229-2.975 11.194-7.559l-6.337-.418c-.691 1.882-2.461 2.863-4.744 2.863-3.426 0-5.597-2.268-5.597-5.951v-.016h16.823v-1.881c0-8.396-5.083-12.545-11.612-12.545-7.27 0-11.982 5.162-11.982 12.786 0 7.832 4.648 12.721 12.255 12.721zm-5.484-15.327c.144-2.814 2.283-5.066 5.323-5.066 2.976 0 5.034 2.123 5.05 5.066h-10.373z" fill="#000"></path><path d="M346.136 767v-22.4h8.837c1.699 0 3.147.324 4.342.973 1.196.642 2.108 1.535 2.735 2.68.634 1.138.951 2.45.951 3.938 0 1.487-.32 2.8-.962 3.937-.642 1.138-1.572 2.024-2.789 2.658-1.211.634-2.676.951-4.397.951h-5.633v-3.795h4.867c.912 0 1.663-.157 2.253-.47.598-.321 1.043-.762 1.335-1.324.299-.568.448-1.221.448-1.957 0-.744-.149-1.393-.448-1.947a2.994 2.994 0 00-1.335-1.302c-.598-.313-1.356-.47-2.275-.47h-3.193V767h-4.736zm26.193.328c-1.699 0-3.168-.361-4.408-1.083a7.402 7.402 0 01-2.854-3.04c-.671-1.306-1.007-2.819-1.007-4.539 0-1.736.336-3.252 1.007-4.55.67-1.306 1.622-2.319 2.854-3.041 1.24-.729 2.709-1.094 4.408-1.094 1.699 0 3.165.365 4.397 1.094a7.304 7.304 0 012.866 3.041c.67 1.298 1.006 2.814 1.006 4.55 0 1.72-.336 3.233-1.006 4.539a7.391 7.391 0 01-2.866 3.04c-1.232.722-2.698 1.083-4.397 1.083zm.022-3.609c.773 0 1.418-.219 1.936-.656.518-.445.908-1.051 1.17-1.816.27-.766.405-1.637.405-2.614 0-.977-.135-1.849-.405-2.614-.262-.766-.652-1.371-1.17-1.816-.518-.445-1.163-.667-1.936-.667-.78 0-1.437.222-1.969.667-.525.445-.922 1.05-1.192 1.816-.263.765-.394 1.637-.394 2.614 0 .977.131 1.848.394 2.614.27.765.667 1.371 1.192 1.816.532.437 1.189.656 1.969.656zm16.486 3.554c-1.276 0-2.432-.328-3.467-.984-1.028-.663-1.845-1.637-2.45-2.92-.598-1.291-.897-2.873-.897-4.747 0-1.925.31-3.526.93-4.802.62-1.283 1.444-2.242 2.472-2.876a6.329 6.329 0 013.401-.963c.941 0 1.725.161 2.352.482.634.313 1.145.707 1.531 1.181.394.466.693.926.897 1.378h.142V744.6h4.649V767h-4.594v-2.691h-.197c-.219.467-.529.93-.93 1.389-.393.453-.908.828-1.542 1.127-.627.299-1.393.448-2.297.448zm1.477-3.707c.751 0 1.385-.205 1.903-.613.525-.416.926-.995 1.203-1.739.284-.744.427-1.615.427-2.614 0-.999-.139-1.867-.416-2.603-.277-.737-.678-1.305-1.203-1.706s-1.163-.602-1.914-.602c-.766 0-1.411.208-1.936.623-.525.416-.923.992-1.192 1.729-.27.736-.405 1.589-.405 2.559 0 .977.135 1.841.405 2.592.277.744.674 1.327 1.192 1.75.525.416 1.17.624 1.936.624zM411.343 767h-5.075L414 744.6h6.104l7.721 22.4h-5.075l-5.611-17.281h-.175L411.343 767zm-.318-8.805h11.988v3.697h-11.988v-3.697zm29.235-.907V767h-4.659v-16.8h4.44v2.964h.197a4.69 4.69 0 011.871-2.319c.875-.576 1.936-.864 3.182-.864 1.167 0 2.184.255 3.052.766.868.51 1.542 1.239 2.023 2.187.482.941.722 2.064.722 3.369V767h-4.659v-9.866c.007-1.028-.255-1.83-.788-2.406-.532-.583-1.265-.875-2.198-.875-.627 0-1.181.135-1.663.405-.474.27-.845.663-1.115 1.181-.263.51-.398 1.127-.405 1.849zm21.176 10.04c-1.728 0-3.216-.35-4.463-1.05a7.19 7.19 0 01-2.865-2.997c-.671-1.298-1.007-2.833-1.007-4.604 0-1.729.336-3.245 1.007-4.55.671-1.306 1.615-2.323 2.833-3.052 1.225-.729 2.661-1.094 4.309-1.094a8.77 8.77 0 013.095.536c.963.35 1.801.879 2.516 1.586.722.707 1.283 1.597 1.684 2.669.401 1.064.602 2.311.602 3.741v1.279h-14.186v-2.887h9.8c0-.671-.146-1.265-.438-1.783a3.12 3.12 0 00-1.214-1.214c-.51-.299-1.104-.449-1.782-.449-.708 0-1.335.164-1.882.493-.539.32-.962.754-1.269 1.301a3.676 3.676 0 00-.47 1.805v2.745c0 .831.153 1.55.46 2.155a3.357 3.357 0 001.323 1.4c.569.328 1.243.492 2.023.492a4.4 4.4 0 001.422-.219 2.941 2.941 0 001.105-.656c.306-.292.54-.649.7-1.072l4.309.285a5.879 5.879 0 01-1.345 2.712c-.671.766-1.538 1.364-2.603 1.794-1.057.423-2.279.634-3.664.634zm18.706-17.128v3.5h-10.117v-3.5h10.117zm-7.82-4.025h4.66v15.663c0 .43.065.765.196 1.006.132.233.314.397.547.492.241.095.518.142.832.142.218 0 .437-.018.656-.055l.503-.098.733 3.467a13.24 13.24 0 01-.985.252 7.91 7.91 0 01-1.542.186c-1.123.043-2.107-.106-2.953-.449-.838-.342-1.491-.875-1.958-1.597-.466-.722-.696-1.633-.689-2.734v-16.275zm14.534 11.113V767h-4.659v-16.8h4.44v2.964h.197a4.69 4.69 0 011.871-2.319c.875-.576 1.935-.864 3.182-.864 1.167 0 2.184.255 3.052.766.868.51 1.542 1.239 2.023 2.187.482.941.722 2.064.722 3.369V767h-4.659v-9.866c.007-1.028-.255-1.83-.788-2.406-.532-.583-1.265-.875-2.198-.875-.627 0-1.181.135-1.663.405-.474.27-.845.663-1.115 1.181-.263.51-.398 1.127-.405 1.849zm27.498-2.297l-4.266.262a2.21 2.21 0 00-.47-.984 2.499 2.499 0 00-.952-.711c-.386-.182-.849-.274-1.389-.274-.722 0-1.331.154-1.826.46-.496.299-.744.7-.744 1.203 0 .401.16.74.481 1.017.321.277.871.5 1.652.667l3.04.613c1.634.335 2.851.875 3.653 1.618.803.744 1.204 1.721 1.204 2.932 0 1.101-.325 2.067-.974 2.898-.642.831-1.524 1.48-2.647 1.947-1.115.459-2.402.689-3.861.689-2.224 0-3.996-.463-5.315-1.389-1.313-.933-2.082-2.202-2.308-3.806l4.583-.241c.138.678.474 1.196 1.006 1.553.532.35 1.214.525 2.045.525.817 0 1.473-.156 1.969-.47.503-.321.758-.733.766-1.236-.008-.423-.186-.769-.536-1.039-.35-.277-.89-.489-1.619-.634l-2.909-.58c-1.641-.328-2.862-.897-3.665-1.706-.794-.81-1.192-1.841-1.192-3.096 0-1.079.292-2.008.875-2.789.591-.78 1.419-1.381 2.483-1.804 1.072-.423 2.326-.635 3.763-.635 2.121 0 3.791.449 5.009 1.346 1.225.896 1.94 2.118 2.144 3.664zM690.974 767v-22.4h8.838c1.699 0 3.146.324 4.342.973 1.196.642 2.107 1.535 2.734 2.68.635 1.138.952 2.45.952 3.938 0 1.487-.321 2.8-.963 3.937-.641 1.138-1.571 2.024-2.789 2.658-1.21.634-2.676.951-4.397.951h-5.632v-3.795h4.867c.911 0 1.662-.157 2.253-.47.598-.321 1.043-.762 1.334-1.324.299-.568.449-1.221.449-1.957 0-.744-.15-1.393-.449-1.947-.291-.562-.736-.996-1.334-1.302-.598-.313-1.356-.47-2.275-.47h-3.194V767h-4.736zm26.194.328c-1.699 0-3.169-.361-4.408-1.083a7.404 7.404 0 01-2.855-3.04c-.671-1.306-1.006-2.819-1.006-4.539 0-1.736.335-3.252 1.006-4.55.671-1.306 1.622-2.319 2.855-3.041 1.239-.729 2.709-1.094 4.408-1.094 1.698 0 3.164.365 4.396 1.094 1.24.722 2.195 1.735 2.866 3.041.671 1.298 1.006 2.814 1.006 4.55 0 1.72-.335 3.233-1.006 4.539a7.385 7.385 0 01-2.866 3.04c-1.232.722-2.698 1.083-4.396 1.083zm.021-3.609c.773 0 1.419-.219 1.936-.656.518-.445.908-1.051 1.171-1.816.269-.766.404-1.637.404-2.614 0-.977-.135-1.849-.404-2.614-.263-.766-.653-1.371-1.171-1.816-.517-.445-1.163-.667-1.936-.667-.78 0-1.436.222-1.968.667-.525.445-.923 1.05-1.193 1.816-.262.765-.393 1.637-.393 2.614 0 .977.131 1.848.393 2.614.27.765.668 1.371 1.193 1.816.532.437 1.188.656 1.968.656zm16.487 3.554c-1.276 0-2.432-.328-3.468-.984-1.028-.663-1.844-1.637-2.45-2.92-.597-1.291-.896-2.873-.896-4.747 0-1.925.31-3.526.929-4.802.62-1.283 1.444-2.242 2.472-2.876a6.332 6.332 0 013.402-.963c.94 0 1.724.161 2.351.482.635.313 1.145.707 1.532 1.181.393.466.692.926.896 1.378h.143V744.6h4.648V767h-4.594v-2.691h-.197c-.218.467-.528.93-.929 1.389-.394.453-.908.828-1.542 1.127-.628.299-1.393.448-2.297.448zm1.476-3.707c.751 0 1.386-.205 1.903-.613.525-.416.926-.995 1.203-1.739.285-.744.427-1.615.427-2.614 0-.999-.138-1.867-.416-2.603-.277-.737-.678-1.305-1.203-1.706s-1.163-.602-1.914-.602c-.765 0-1.411.208-1.936.623-.525.416-.922.992-1.192 1.729-.27.736-.405 1.589-.405 2.559 0 .977.135 1.841.405 2.592.277.744.675 1.327 1.192 1.75.525.416 1.171.624 1.936.624zM752.32 767v-22.4h8.969c1.648 0 3.022.244 4.123.733 1.101.488 1.929 1.166 2.483 2.034.554.861.831 1.852.831 2.975 0 .875-.175 1.644-.525 2.308a4.537 4.537 0 01-1.443 1.619 5.937 5.937 0 01-2.078.886v.218a5.032 5.032 0 012.395.722c.751.445 1.36 1.069 1.826 1.871.467.794.7 1.742.7 2.843 0 1.189-.295 2.25-.886 3.183-.583.926-1.447 1.659-2.592 2.199-1.145.539-2.555.809-4.233.809h-9.57zm4.736-3.872h3.861c1.32 0 2.282-.251 2.888-.755.605-.51.907-1.188.907-2.034 0-.62-.149-1.167-.448-1.641-.299-.474-.726-.845-1.28-1.115-.547-.27-1.199-.405-1.958-.405h-3.97v5.95zm0-9.155h3.511c.649 0 1.225-.113 1.728-.339a2.864 2.864 0 001.203-.984c.299-.423.449-.93.449-1.52 0-.81-.288-1.462-.864-1.958-.569-.496-1.378-.744-2.428-.744h-3.599v5.545zm25.366 3.315V767h-4.66v-16.8h4.441v2.964h.197a4.689 4.689 0 011.87-2.319c.875-.576 1.936-.864 3.183-.864 1.167 0 2.184.255 3.051.766.868.51 1.543 1.239 2.024 2.187.481.941.722 2.064.722 3.369V767h-4.66v-9.866c.008-1.028-.255-1.83-.787-2.406-.532-.583-1.265-.875-2.199-.875-.627 0-1.181.135-1.662.405-.474.27-.846.663-1.116 1.181-.262.51-.397 1.127-.404 1.849zm21.175 10.04c-1.728 0-3.215-.35-4.462-1.05a7.187 7.187 0 01-2.866-2.997c-.671-1.298-1.006-2.833-1.006-4.604 0-1.729.335-3.245 1.006-4.55.671-1.306 1.615-2.323 2.833-3.052 1.225-.729 2.662-1.094 4.309-1.094 1.109 0 2.141.179 3.096.536.962.35 1.801.879 2.515 1.586.722.707 1.284 1.597 1.685 2.669.401 1.064.601 2.311.601 3.741v1.279h-14.186v-2.887h9.8c0-.671-.145-1.265-.437-1.783a3.127 3.127 0 00-1.214-1.214c-.511-.299-1.105-.449-1.783-.449-.707 0-1.334.164-1.881.493-.54.32-.963.754-1.269 1.301a3.676 3.676 0 00-.47 1.805v2.745c0 .831.153 1.55.459 2.155a3.365 3.365 0 001.324 1.4c.568.328 1.243.492 2.023.492a4.4 4.4 0 001.422-.219c.43-.146.798-.364 1.105-.656.306-.292.539-.649.7-1.072l4.309.285a5.888 5.888 0 01-1.345 2.712c-.671.766-1.539 1.364-2.604 1.794-1.057.423-2.278.634-3.664.634zm18.707-17.128v3.5h-10.117v-3.5h10.117zm-7.82-4.025h4.659v15.663c0 .43.066.765.197 1.006.131.233.313.397.547.492.24.095.518.142.831.142.219 0 .438-.018.656-.055l.503-.098.733 3.467c-.233.073-.561.157-.984.252a7.91 7.91 0 01-1.542.186c-1.123.043-2.108-.106-2.953-.449-.839-.342-1.492-.875-1.958-1.597-.467-.722-.697-1.633-.689-2.734v-16.275zm14.534 11.113V767h-4.66v-16.8h4.441v2.964h.197a4.689 4.689 0 011.87-2.319c.875-.576 1.936-.864 3.183-.864 1.167 0 2.184.255 3.051.766.868.51 1.543 1.239 2.024 2.187.481.941.722 2.064.722 3.369V767h-4.66v-9.866c.008-1.028-.255-1.83-.787-2.406-.532-.583-1.265-.875-2.199-.875-.627 0-1.181.135-1.662.405-.474.27-.846.663-1.116 1.181-.262.51-.397 1.127-.404 1.849zm27.497-2.297l-4.265.262a2.201 2.201 0 00-.471-.984 2.487 2.487 0 00-.951-.711c-.387-.182-.85-.274-1.389-.274-.722 0-1.331.154-1.827.46-.496.299-.744.7-.744 1.203 0 .401.161.74.482 1.017.32.277.871.5 1.651.667l3.041.613c1.633.335 2.851.875 3.653 1.618.802.744 1.203 1.721 1.203 2.932 0 1.101-.324 2.067-.973 2.898-.642.831-1.524 1.48-2.647 1.947-1.116.459-2.403.689-3.861.689-2.224 0-3.996-.463-5.316-1.389-1.312-.933-2.082-2.202-2.308-3.806l4.583-.241c.139.678.474 1.196 1.006 1.553.533.35 1.215.525 2.046.525.816 0 1.473-.156 1.969-.47.503-.321.758-.733.765-1.236-.007-.423-.186-.769-.536-1.039-.35-.277-.889-.489-1.619-.634l-2.909-.58c-1.641-.328-2.862-.897-3.664-1.706-.795-.81-1.192-1.841-1.192-3.096 0-1.079.291-2.008.875-2.789.59-.78 1.418-1.381 2.483-1.804 1.072-.423 2.326-.635 3.762-.635 2.122 0 3.792.449 5.01 1.346 1.225.896 1.939 2.118 2.143 3.664z" fill="#73683F"></path><path d="M734.954 124h4.736v-7.941h3.457L747.39 124h5.229l-4.758-8.706c2.548-1.094 3.959-3.314 3.959-6.377 0-4.451-2.942-7.317-8.028-7.317h-8.838V124zm4.736-11.747v-6.781h3.194c2.735 0 4.058 1.214 4.058 3.445 0 2.22-1.323 3.336-4.036 3.336h-3.216zm21.728 12.075c5.097 0 8.269-3.489 8.269-8.662 0-5.207-3.172-8.685-8.269-8.685-5.096 0-8.268 3.478-8.268 8.685 0 5.173 3.172 8.662 8.268 8.662zm.022-3.609c-2.351 0-3.554-2.155-3.554-5.086 0-2.931 1.203-5.097 3.554-5.097 2.308 0 3.511 2.166 3.511 5.097 0 2.931-1.203 5.086-3.511 5.086zm17.887 3.609c5.097 0 8.268-3.489 8.268-8.662 0-5.207-3.171-8.685-8.268-8.685-5.097 0-8.269 3.478-8.269 8.685 0 5.173 3.172 8.662 8.269 8.662zm.022-3.609c-2.352 0-3.555-2.155-3.555-5.086 0-2.931 1.203-5.097 3.555-5.097 2.307 0 3.51 2.166 3.51 5.097 0 2.931-1.203 5.086-3.51 5.086zM798.58 107.2h-3.161v-4.025h-4.659v4.025h-2.297v3.5h2.297v8.75c-.022 3.292 2.22 4.922 5.6 4.78a9.066 9.066 0 002.526-.438l-.732-3.467c-.23.044-.722.153-1.16.153-.929 0-1.575-.35-1.575-1.64V110.7h3.161v-3.5zm12.861 7.088c.011-2.166 1.302-3.435 3.183-3.435 1.871 0 2.997 1.225 2.986 3.281V124h4.66v-10.697c0-3.916-2.297-6.322-5.797-6.322-2.494 0-4.299 1.225-5.053 3.183h-.197V107.2h-4.441V124h4.659v-9.712zm21.176 10.04c4.156 0 6.956-2.023 7.613-5.14l-4.31-.285c-.47 1.28-1.673 1.947-3.226 1.947-2.33 0-3.807-1.542-3.807-4.047v-.011h11.441v-1.279c0-5.71-3.456-8.532-7.897-8.532-4.944 0-8.148 3.511-8.148 8.696 0 5.326 3.161 8.651 8.334 8.651zm-3.73-10.423c.099-1.914 1.554-3.446 3.621-3.446 2.023 0 3.423 1.444 3.434 3.446h-7.055zm22.437-6.705h-3.161v-4.025h-4.66v4.025h-2.296v3.5h2.296v8.75c-.021 3.292 2.221 4.922 5.6 4.78a9.068 9.068 0 002.527-.438l-.733-3.467c-.229.044-.722.153-1.159.153-.93 0-1.575-.35-1.575-1.64V110.7h3.161v-3.5zm6.713 7.088c.011-2.166 1.302-3.435 3.183-3.435 1.871 0 2.997 1.225 2.986 3.281V124h4.66v-10.697c0-3.916-2.297-6.322-5.797-6.322-2.494 0-4.299 1.225-5.053 3.183h-.197V107.2h-4.441V124h4.659v-9.712zm27.498-2.297c-.416-3.096-2.909-5.01-7.153-5.01-4.299 0-7.131 1.991-7.12 5.228-.011 2.516 1.575 4.146 4.856 4.802l2.909.58c1.466.295 2.133.831 2.155 1.673-.022.995-1.105 1.706-2.734 1.706-1.663 0-2.768-.711-3.052-2.078l-4.583.241c.438 3.215 3.172 5.195 7.624 5.195 4.353 0 7.47-2.22 7.481-5.534-.011-2.428-1.597-3.883-4.856-4.55l-3.041-.613c-1.564-.339-2.144-.875-2.133-1.684-.011-1.006 1.127-1.663 2.57-1.663 1.619 0 2.582.886 2.811 1.969l4.266-.262z" fill="#AD9E6A"></path><rect x="490.4" y="83.4" width="224" height="116.2" rx="5.6" fill="#D6E9CE" stroke="#7C9D6E" stroke-width="2.8"></rect><path d="M566.233 137.682c6.112 0 10.229-2.975 11.194-7.559l-6.336-.418c-.692 1.882-2.461 2.863-4.745 2.863-3.426 0-5.597-2.268-5.597-5.951v-.016h16.823v-1.882c0-8.395-5.082-12.544-11.612-12.544-7.269 0-11.982 5.162-11.982 12.786 0 7.832 4.648 12.721 12.255 12.721zm-5.484-15.327c.145-2.814 2.284-5.066 5.324-5.066 2.975 0 5.034 2.123 5.05 5.066h-10.374zm32.992-9.859h-4.648v-5.918h-6.852v5.918h-3.377v5.147h3.377v12.866c-.032 4.841 3.265 7.238 8.235 7.029 1.769-.065 3.023-.418 3.715-.644l-1.078-5.098c-.337.064-1.061.225-1.704.225-1.367 0-2.316-.514-2.316-2.412v-11.966h4.648v-5.147zm10.403 10.422c.016-3.184 1.962-5.05 4.76-5.05 2.783 0 4.423 1.785 4.407 4.825V137.2h6.851v-15.729c.016-5.79-3.393-9.296-8.54-9.296-3.747 0-6.256 1.769-7.382 4.68h-.289v-12.593h-6.659V137.2h6.852v-14.282zm32.818 15.006c8.283 0 13.285-6.305 13.301-17.161.016-10.776-5.05-16.952-13.301-16.952-8.266 0-13.284 6.16-13.301 16.952-.032 10.824 5.002 17.145 13.301 17.161zm0-5.774c-3.779 0-6.224-3.796-6.208-11.387.016-7.479 2.445-11.242 6.208-11.242 3.748 0 6.192 3.763 6.192 11.242.016 7.591-2.428 11.387-6.192 11.387zm-99.246 22.894h-4.523l-5.633 3.566v4.267l5.211-3.266h.133V177.8h4.812v-22.756zm13.779 23.256c5.722 0 9.178-4.356 9.189-11.856.011-7.445-3.489-11.711-9.189-11.711-5.711 0-9.178 4.255-9.189 11.711-.023 7.478 3.455 11.845 9.189 11.856zm0-3.989c-2.611 0-4.3-2.622-4.289-7.867.011-5.167 1.689-7.767 4.289-7.767 2.589 0 4.278 2.6 4.278 7.767.011 5.245-1.678 7.867-4.278 7.867zm13.932 3.778c1.422 0 2.656-1.189 2.667-2.667-.011-1.455-1.245-2.644-2.667-2.644-1.467 0-2.678 1.189-2.667 2.644-.011 1.478 1.2 2.667 2.667 2.667zm13.015-23.045h-4.522l-5.634 3.566v4.267l5.212-3.266h.133V177.8h4.811v-22.756zm13.779 23.256c5.723 0 9.178-4.356 9.19-11.856.011-7.445-3.489-11.711-9.19-11.711-5.711 0-9.178 4.255-9.189 11.711-.022 7.478 3.456 11.845 9.189 11.856zm0-3.989c-2.611 0-4.3-2.622-4.289-7.867.011-5.167 1.689-7.767 4.289-7.767 2.589 0 4.278 2.6 4.278 7.767.011 5.245-1.678 7.867-4.278 7.867zm20.991 3.989c5.722 0 9.178-4.356 9.189-11.856.011-7.445-3.489-11.711-9.189-11.711-5.711 0-9.178 4.255-9.189 11.711-.022 7.478 3.455 11.845 9.189 11.856zm0-3.989c-2.611 0-4.3-2.622-4.289-7.867.011-5.167 1.689-7.767 4.289-7.767 2.589 0 4.278 2.6 4.278 7.767.011 5.245-1.678 7.867-4.278 7.867zm13.932 3.778c1.422 0 2.656-1.189 2.667-2.667-.011-1.455-1.245-2.644-2.667-2.644-1.467 0-2.678 1.189-2.667 2.644-.011 1.478 1.2 2.667 2.667 2.667zm13.932.211c5.722 0 9.178-4.356 9.189-11.856.011-7.445-3.489-11.711-9.189-11.711-5.711 0-9.178 4.255-9.189 11.711-.022 7.478 3.455 11.845 9.189 11.856zm0-3.989c-2.611 0-4.3-2.622-4.289-7.867.011-5.167 1.689-7.767 4.289-7.767 2.589 0 4.278 2.6 4.278 7.767.011 5.245-1.678 7.867-4.278 7.867zm13.932 3.778c1.422 0 2.656-1.189 2.667-2.667-.011-1.455-1.245-2.644-2.667-2.644-1.467 0-2.678 1.189-2.667 2.644-.011 1.478 1.2 2.667 2.667 2.667zm5.957-.289h16.222v-3.933h-9.555v-.156l3.322-3.256c4.678-4.266 5.933-6.4 5.933-8.989 0-3.944-3.222-6.733-8.1-6.733-4.778 0-8.056 2.855-8.045 7.322h4.567c-.011-2.178 1.367-3.511 3.445-3.511 2 0 3.489 1.244 3.489 3.244 0 1.812-1.111 3.056-3.178 5.045l-8.1 7.5v3.467z" fill="#000"></path><rect x="490.4" y="223.4" width="224" height="116.2" rx="5.6" fill="#D6E9CE" stroke="#7C9D6E" stroke-width="2.8"></rect><path d="M525.928 277.602c3.988 0 6.063-2.3 7.012-4.358h.289v3.956h6.755v-32.938h-6.835v12.384h-.209c-.917-2.011-2.895-4.471-7.028-4.471-5.42 0-10.004 4.213-10.004 12.705 0 8.267 4.391 12.722 10.02 12.722zm2.171-5.452c-3.362 0-5.195-2.992-5.195-7.302 0-4.278 1.801-7.221 5.195-7.221 3.329 0 5.195 2.814 5.195 7.221s-1.898 7.302-5.195 7.302zm27.238 5.532c7.494 0 12.158-5.13 12.158-12.737 0-7.656-4.664-12.77-12.158-12.77-7.495 0-12.159 5.114-12.159 12.77 0 7.607 4.664 12.737 12.159 12.737zm.032-5.307c-3.458 0-5.227-3.168-5.227-7.479 0-4.31 1.769-7.494 5.227-7.494 3.393 0 5.162 3.184 5.162 7.494 0 4.311-1.769 7.479-5.162 7.479zm26.301 5.307c6.578 0 10.711-3.859 11.033-9.537h-6.466c-.402 2.638-2.139 4.117-4.487 4.117-3.2 0-5.275-2.685-5.275-7.414 0-4.664 2.091-7.334 5.275-7.334 2.509 0 4.117 1.657 4.487 4.118h6.466c-.29-5.71-4.616-9.457-11.065-9.457-7.495 0-12.127 5.194-12.127 12.77 0 7.51 4.551 12.737 12.159 12.737zm13.977-.482h6.852v-7.849l1.849-2.106 6.739 9.955h8.025l-9.633-14.008 9.167-10.696h-7.865l-7.913 9.377h-.369v-17.611h-6.852V277.2zm35.159.482c6.111 0 10.229-2.975 11.194-7.559l-6.337-.418c-.692 1.882-2.461 2.863-4.745 2.863-3.425 0-5.596-2.268-5.596-5.951v-.016h16.822v-1.882c0-8.395-5.082-12.544-11.612-12.544-7.269 0-11.981 5.162-11.981 12.786 0 7.832 4.648 12.721 12.255 12.721zm-5.484-15.327c.144-2.814 2.283-5.066 5.323-5.066 2.975 0 5.034 2.123 5.05 5.066h-10.373zm19.851 14.845h6.852v-13.976c0-3.04 2.219-5.131 5.243-5.131.949 0 2.251.161 2.895.37v-6.079a10.277 10.277 0 00-2.156-.242c-2.766 0-5.034 1.609-5.934 4.665h-.257v-4.311h-6.643V277.2zm29.94.724c8.283 0 13.285-6.305 13.301-17.161.016-10.776-5.05-16.952-13.301-16.952-8.267 0-13.285 6.16-13.301 16.952-.032 10.824 5.002 17.145 13.301 17.161zm0-5.774c-3.78 0-6.224-3.796-6.208-11.387.016-7.479 2.445-11.242 6.208-11.242 3.747 0 6.192 3.763 6.192 11.242.016 7.591-2.429 11.387-6.192 11.387zm-129.418 22.894h-4.522l-5.634 3.566v4.267l5.212-3.266h.133V317.8h4.811v-22.756zm5.757 22.756h4.967l9.444-18.767v-3.989h-15.967v3.933h10.99v.156l-9.434 18.667zm17.157 0h16.223v-3.933h-9.556v-.156l3.322-3.256c4.678-4.266 5.934-6.4 5.934-8.989 0-3.944-3.223-6.733-8.101-6.733-4.777 0-8.055 2.855-8.044 7.322h4.567c-.012-2.178 1.366-3.511 3.444-3.511 2 0 3.489 1.244 3.489 3.244 0 1.812-1.111 3.056-3.178 5.045l-8.1 7.5v3.467zm21.968.289c1.423 0 2.656-1.189 2.667-2.667-.011-1.455-1.244-2.644-2.667-2.644-1.466 0-2.678 1.189-2.666 2.644-.012 1.478 1.2 2.667 2.666 2.667zm13.016-23.045h-4.523l-5.633 3.566v4.267l5.211-3.266h.133V317.8h4.812v-22.756zm5.756 22.756h4.967l9.445-18.767v-3.989h-15.967v3.933h10.989v.156l-9.434 18.667zm16.057.289c1.423 0 2.656-1.189 2.667-2.667-.011-1.455-1.244-2.644-2.667-2.644-1.466 0-2.677 1.189-2.666 2.644-.011 1.478 1.2 2.667 2.666 2.667zm13.932.211c5.723 0 9.179-4.356 9.19-11.856.011-7.445-3.489-11.711-9.19-11.711-5.711 0-9.178 4.255-9.189 11.711-.022 7.478 3.456 11.845 9.189 11.856zm0-3.989c-2.611 0-4.3-2.622-4.289-7.867.011-5.167 1.689-7.767 4.289-7.767 2.589 0 4.278 2.6 4.278 7.767.011 5.245-1.678 7.867-4.278 7.867zm13.932 3.778c1.423 0 2.656-1.189 2.667-2.667-.011-1.455-1.244-2.644-2.667-2.644-1.466 0-2.677 1.189-2.666 2.644-.011 1.478 1.2 2.667 2.666 2.667zm13.016-23.045h-4.523l-5.633 3.566v4.267l5.211-3.266h.133V317.8h4.812v-22.756zM436 458h18v50h-18zm0-185h18.132v108H436z" fill="#000"></path><path fill="#000" d="M489.141 273.051v18.132h-50.493v-18.132z"></path><path fill-rule="evenodd" clip-rule="evenodd" d="M750.868 273H769v108h-18.132v-89.817h-35.009v-18.132h35.009V273z" fill="#000"></path><path fill="#000" d="M751 458h18v50h-18z"></path><rect x="327.4" y="640.4" width="205.017" height="83.2" rx="5.6" fill="#E5E5E5" stroke="#979797" stroke-width="2.8"></rect><path d="M360.749 695v-26.393h5.49v9.923h.167a7.282 7.282 0 011.044-1.623c.464-.559 1.066-1.023 1.804-1.392.748-.378 1.676-.567 2.784-.567 1.443 0 2.775.378 3.995 1.134 1.22.747 2.195 1.877 2.925 3.389.731 1.504 1.096 3.389 1.096 5.658 0 2.207-.357 4.072-1.07 5.592-.704 1.513-1.667 2.66-2.887 3.441-1.211.774-2.568 1.16-4.072 1.16-1.065 0-1.972-.176-2.719-.528-.739-.352-1.345-.795-1.817-1.328a6.744 6.744 0 01-1.083-1.636h-.244V695h-5.413zm5.374-9.897c0 1.177.163 2.203.49 3.08.326.876.799 1.559 1.417 2.049.619.481 1.37.721 2.255.721.894 0 1.65-.244 2.269-.734.618-.498 1.086-1.186 1.404-2.062.327-.885.49-1.903.49-3.054 0-1.143-.159-2.148-.477-3.016-.318-.868-.786-1.546-1.405-2.036-.618-.49-1.379-.735-2.281-.735-.893 0-1.649.237-2.268.709-.61.473-1.078 1.143-1.404 2.011-.327.867-.49 1.89-.49 3.067zm28.845 1.469v-11.367h5.49V695h-5.271v-3.595h-.206a5.849 5.849 0 01-2.229 2.796c-1.031.704-2.29 1.057-3.776 1.057-1.323 0-2.487-.301-3.493-.902-1.005-.602-1.791-1.457-2.358-2.565-.558-1.108-.842-2.436-.85-3.982v-12.604h5.489v11.625c.009 1.168.323 2.092.941 2.77.619.679 1.448 1.018 2.487 1.018.662 0 1.281-.15 1.856-.451a3.532 3.532 0 001.392-1.366c.361-.601.537-1.344.528-2.229zm24.909-5.722l-5.026.309a2.61 2.61 0 00-.554-1.16 2.95 2.95 0 00-1.121-.837c-.456-.215-1.001-.322-1.637-.322-.851 0-1.568.18-2.152.541-.584.352-.877.825-.877 1.417 0 .473.189.872.567 1.199.378.326 1.027.588 1.946.786l3.583.722c1.924.395 3.359 1.031 4.304 1.907.945.876 1.418 2.028 1.418 3.454 0 1.297-.382 2.435-1.147 3.415-.756.979-1.796 1.744-3.119 2.294-1.314.541-2.831.812-4.549.812-2.62 0-4.708-.546-6.263-1.637-1.546-1.1-2.453-2.595-2.719-4.485l5.4-.283c.163.799.558 1.409 1.185 1.83.627.412 1.431.618 2.41.618.962 0 1.735-.184 2.32-.554.592-.378.893-.863.902-1.456-.009-.498-.219-.906-.632-1.224-.412-.327-1.048-.576-1.907-.748l-3.428-.683c-1.933-.386-3.372-1.057-4.317-2.01-.937-.954-1.405-2.17-1.405-3.647 0-1.272.344-2.367 1.031-3.286.696-.92 1.671-1.629 2.926-2.127 1.262-.498 2.74-.747 4.433-.747 2.5 0 4.467.528 5.902 1.585 1.443 1.057 2.285 2.496 2.526 4.317zm5.855 21.573c-.696 0-1.349-.056-1.959-.168-.601-.103-1.1-.236-1.495-.399l1.237-4.098c.645.197 1.224.305 1.74.322.524.017.975-.103 1.353-.361.387-.258.7-.696.941-1.314l.322-.838-7.101-20.362h5.774l4.098 14.537h.206l4.137-14.537h5.812l-7.694 21.934c-.369 1.066-.872 1.993-1.508 2.784a6.177 6.177 0 01-2.384 1.843c-.962.438-2.122.657-3.479.657zM442.267 695v-26.393h5.49v9.923h.167a7.282 7.282 0 011.044-1.623c.464-.559 1.066-1.023 1.804-1.392.748-.378 1.676-.567 2.784-.567 1.443 0 2.775.378 3.995 1.134 1.22.747 2.195 1.877 2.925 3.389.731 1.504 1.096 3.389 1.096 5.658 0 2.207-.357 4.072-1.07 5.592-.704 1.513-1.667 2.66-2.887 3.441-1.211.774-2.568 1.16-4.072 1.16-1.065 0-1.972-.176-2.719-.528-.739-.352-1.345-.795-1.817-1.328-.473-.541-.834-1.086-1.083-1.636h-.245V695h-5.412zm5.374-9.897c0 1.177.163 2.203.49 3.08.326.876.799 1.559 1.417 2.049.619.481 1.37.721 2.255.721.894 0 1.65-.244 2.268-.734.619-.498 1.087-1.186 1.405-2.062.327-.885.49-1.903.49-3.054 0-1.143-.159-2.148-.477-3.016-.318-.868-.786-1.546-1.405-2.036-.618-.49-1.379-.735-2.281-.735-.893 0-1.649.237-2.268.709-.61.473-1.078 1.143-1.404 2.011-.327.867-.49 1.89-.49 3.067zm25.095 10.284c-2.002 0-3.733-.426-5.193-1.276-1.452-.859-2.573-2.054-3.364-3.583-.79-1.538-1.185-3.32-1.185-5.348 0-2.045.395-3.832 1.185-5.361.791-1.538 1.912-2.732 3.364-3.583 1.46-.859 3.191-1.288 5.193-1.288s3.729.429 5.181 1.288c1.46.851 2.586 2.045 3.376 3.583.791 1.529 1.186 3.316 1.186 5.361 0 2.028-.395 3.81-1.186 5.348a8.707 8.707 0 01-3.376 3.583c-1.452.85-3.179 1.276-5.181 1.276zm.026-4.253c.911 0 1.671-.258 2.281-.773.61-.524 1.07-1.238 1.379-2.14.318-.902.477-1.928.477-3.08 0-1.151-.159-2.178-.477-3.08-.309-.902-.769-1.615-1.379-2.139-.61-.524-1.37-.786-2.281-.786-.919 0-1.693.262-2.32.786-.618.524-1.087 1.237-1.404 2.139-.31.902-.464 1.929-.464 3.08 0 1.152.154 2.178.464 3.08.317.902.786 1.616 1.404 2.14.627.515 1.401.773 2.32.773zm15.723-15.929l3.634 6.921 3.725-6.921h5.631l-5.734 9.898L501.63 695h-5.606l-3.905-6.843-3.84 6.843h-5.67l5.876-9.897-5.67-9.898h5.67z" fill="#000"></path><rect x="671.4" y="640.4" width="205.017" height="83.2" rx="5.6" fill="#E5E5E5" stroke="#979797" stroke-width="2.8"></rect><path d="M704.749 695v-26.393h5.49v9.923h.167a7.282 7.282 0 011.044-1.623c.464-.559 1.066-1.023 1.804-1.392.748-.378 1.676-.567 2.784-.567 1.443 0 2.775.378 3.995 1.134 1.22.747 2.195 1.877 2.925 3.389.731 1.504 1.096 3.389 1.096 5.658 0 2.207-.357 4.072-1.07 5.592-.704 1.513-1.667 2.66-2.887 3.441-1.211.774-2.568 1.16-4.072 1.16-1.065 0-1.972-.176-2.719-.528-.739-.352-1.345-.795-1.817-1.328a6.744 6.744 0 01-1.083-1.636h-.244V695h-5.413zm5.374-9.897c0 1.177.163 2.203.49 3.08.326.876.799 1.559 1.417 2.049.619.481 1.37.721 2.255.721.894 0 1.65-.244 2.269-.734.618-.498 1.086-1.186 1.404-2.062.327-.885.49-1.903.49-3.054 0-1.143-.159-2.148-.477-3.016-.318-.868-.786-1.546-1.405-2.036-.618-.49-1.379-.735-2.281-.735-.893 0-1.649.237-2.268.709-.61.473-1.078 1.143-1.404 2.011-.327.867-.49 1.89-.49 3.067zm28.845 1.469v-11.367h5.49V695h-5.271v-3.595h-.206a5.849 5.849 0 01-2.229 2.796c-1.031.704-2.29 1.057-3.776 1.057-1.323 0-2.487-.301-3.493-.902-1.005-.602-1.791-1.457-2.358-2.565-.558-1.108-.842-2.436-.85-3.982v-12.604h5.489v11.625c.009 1.168.323 2.092.941 2.77.619.679 1.448 1.018 2.487 1.018.662 0 1.281-.15 1.856-.451a3.532 3.532 0 001.392-1.366c.361-.601.537-1.344.528-2.229zm24.909-5.722l-5.026.309a2.61 2.61 0 00-.554-1.16 2.95 2.95 0 00-1.121-.837c-.456-.215-1.001-.322-1.637-.322-.851 0-1.568.18-2.152.541-.584.352-.877.825-.877 1.417 0 .473.189.872.567 1.199.378.326 1.027.588 1.946.786l3.583.722c1.924.395 3.359 1.031 4.304 1.907.945.876 1.418 2.028 1.418 3.454 0 1.297-.382 2.435-1.147 3.415-.756.979-1.796 1.744-3.119 2.294-1.314.541-2.831.812-4.549.812-2.62 0-4.708-.546-6.263-1.637-1.546-1.1-2.453-2.595-2.719-4.485l5.4-.283c.163.799.558 1.409 1.185 1.83.627.412 1.431.618 2.41.618.962 0 1.735-.184 2.32-.554.592-.378.893-.863.902-1.456-.009-.498-.219-.906-.632-1.224-.412-.327-1.048-.576-1.907-.748l-3.428-.683c-1.933-.386-3.372-1.057-4.317-2.01-.937-.954-1.405-2.17-1.405-3.647 0-1.272.344-2.367 1.031-3.286.696-.92 1.671-1.629 2.926-2.127 1.262-.498 2.74-.747 4.433-.747 2.5 0 4.467.528 5.902 1.585 1.443 1.057 2.285 2.496 2.526 4.317zm5.855 21.573c-.696 0-1.349-.056-1.959-.168-.601-.103-1.1-.236-1.495-.399l1.237-4.098c.645.197 1.224.305 1.74.322.524.017.975-.103 1.353-.361.387-.258.7-.696.941-1.314l.322-.838-7.101-20.362h5.774l4.098 14.537h.206l4.137-14.537h5.812l-7.694 21.934c-.369 1.066-.872 1.993-1.508 2.784a6.177 6.177 0 01-2.384 1.843c-.962.438-2.122.657-3.479.657zM786.267 695v-26.393h5.49v9.923h.167a7.282 7.282 0 011.044-1.623c.464-.559 1.066-1.023 1.804-1.392.748-.378 1.676-.567 2.784-.567 1.443 0 2.775.378 3.995 1.134 1.22.747 2.195 1.877 2.925 3.389.731 1.504 1.096 3.389 1.096 5.658 0 2.207-.357 4.072-1.07 5.592-.704 1.513-1.667 2.66-2.887 3.441-1.211.774-2.568 1.16-4.072 1.16-1.065 0-1.972-.176-2.719-.528-.739-.352-1.345-.795-1.817-1.328-.473-.541-.834-1.086-1.083-1.636h-.245V695h-5.412zm5.374-9.897c0 1.177.163 2.203.49 3.08.326.876.799 1.559 1.417 2.049.619.481 1.37.721 2.255.721.894 0 1.65-.244 2.268-.734.619-.498 1.087-1.186 1.405-2.062.327-.885.49-1.903.49-3.054 0-1.143-.159-2.148-.477-3.016-.318-.868-.786-1.546-1.405-2.036-.618-.49-1.379-.735-2.281-.735-.893 0-1.649.237-2.268.709-.61.473-1.078 1.143-1.404 2.011-.327.867-.49 1.89-.49 3.067zm25.095 10.284c-2.002 0-3.733-.426-5.193-1.276-1.452-.859-2.573-2.054-3.364-3.583-.79-1.538-1.185-3.32-1.185-5.348 0-2.045.395-3.832 1.185-5.361.791-1.538 1.912-2.732 3.364-3.583 1.46-.859 3.191-1.288 5.193-1.288s3.729.429 5.181 1.288c1.46.851 2.586 2.045 3.376 3.583.791 1.529 1.186 3.316 1.186 5.361 0 2.028-.395 3.81-1.186 5.348a8.707 8.707 0 01-3.376 3.583c-1.452.85-3.179 1.276-5.181 1.276zm.026-4.253c.911 0 1.671-.258 2.281-.773.61-.524 1.07-1.238 1.379-2.14.318-.902.477-1.928.477-3.08 0-1.151-.159-2.178-.477-3.08-.309-.902-.769-1.615-1.379-2.139-.61-.524-1.37-.786-2.281-.786-.919 0-1.693.262-2.32.786-.618.524-1.087 1.237-1.404 2.139-.31.902-.464 1.929-.464 3.08 0 1.152.154 2.178.464 3.08.317.902.786 1.616 1.404 2.14.627.515 1.401.773 2.32.773zm15.723-15.929l3.634 6.921 3.725-6.921h5.631l-5.734 9.898L845.63 695h-5.606l-3.905-6.843-3.84 6.843h-5.67l5.876-9.897-5.67-9.898h5.67zM743.301 245v-32.938h13.188c2.424 0 4.445.359 6.064 1.077 1.619.719 2.836 1.716 3.651 2.992.814 1.265 1.222 2.723 1.222 4.374 0 1.287-.257 2.418-.772 3.394a6.663 6.663 0 01-2.123 2.38c-.89.611-1.909 1.046-3.056 1.303v.322a7.365 7.365 0 013.522 1.061c1.105.654 2 1.571 2.686 2.75.686 1.169 1.03 2.563 1.03 4.182 0 1.748-.435 3.308-1.303 4.68-.858 1.362-2.129 2.439-3.812 3.233-1.683.793-3.758 1.19-6.224 1.19h-14.073zm6.964-5.693h5.678c1.94 0 3.356-.37 4.245-1.11.89-.751 1.335-1.748 1.335-2.992 0-.911-.219-1.715-.659-2.412-.44-.697-1.067-1.244-1.882-1.641-.804-.396-1.764-.595-2.879-.595h-5.838v8.75zm0-13.462h5.163c.954 0 1.801-.166 2.541-.499.751-.343 1.34-.825 1.769-1.447.44-.622.66-1.367.66-2.236 0-1.19-.424-2.149-1.271-2.878-.836-.73-2.026-1.094-3.57-1.094h-5.292v8.154zM771.673 245v-24.704h6.642v4.311h.258c.45-1.534 1.206-2.692 2.267-3.474 1.062-.794 2.284-1.19 3.667-1.19.343 0 .713.021 1.11.064.397.043.745.102 1.045.177v6.079c-.321-.096-.766-.182-1.335-.257a12 12 0 00-1.56-.113c-1.007 0-1.908.22-2.702.66a4.858 4.858 0 00-1.865 1.801c-.451.772-.676 1.662-.676 2.67V245h-6.851zm17.089 0v-24.704h6.852V245h-6.852zm3.442-27.888c-1.019 0-1.892-.338-2.621-1.013-.719-.687-1.078-1.507-1.078-2.461 0-.944.359-1.753 1.078-2.429.729-.686 1.602-1.029 2.621-1.029s1.887.343 2.606 1.029c.729.676 1.093 1.485 1.093 2.429 0 .954-.364 1.774-1.093 2.461-.719.675-1.587 1.013-2.606 1.013zm16.559 28.29c-1.877 0-3.576-.482-5.099-1.447-1.511-.976-2.712-2.408-3.602-4.295-.879-1.897-1.319-4.224-1.319-6.98 0-2.83.456-5.184 1.367-7.06.911-1.887 2.123-3.297 3.635-4.23a9.308 9.308 0 015.002-1.415c1.383 0 2.535.236 3.458.707.932.461 1.683 1.04 2.251 1.737.579.687 1.019 1.362 1.319 2.027h.209v-12.384h6.835V245h-6.755v-3.956h-.289c-.322.686-.777 1.367-1.367 2.042-.579.665-1.335 1.217-2.268 1.657-.922.439-2.048.659-3.377.659zm2.171-5.452c1.104 0 2.037-.3 2.798-.901.772-.611 1.362-1.463 1.77-2.557.418-1.094.627-2.375.627-3.844 0-1.469-.204-2.745-.611-3.828-.408-1.083-.998-1.919-1.77-2.509-.771-.589-1.71-.884-2.814-.884-1.126 0-2.075.305-2.847.917-.772.611-1.356 1.458-1.753 2.541-.397 1.083-.595 2.337-.595 3.763 0 1.437.198 2.708.595 3.812.408 1.094.992 1.951 1.753 2.573.772.611 1.721.917 2.847.917zm27.206 14.829c-2.22 0-4.123-.306-5.71-.917-1.576-.601-2.831-1.421-3.763-2.461-.933-1.04-1.539-2.209-1.818-3.506l6.337-.852c.193.493.499.954.917 1.383.418.429.97.772 1.656 1.029.697.268 1.544.402 2.541.402 1.491 0 2.718-.364 3.683-1.094.976-.718 1.464-1.924 1.464-3.618v-4.52h-.289c-.301.687-.751 1.335-1.351 1.946-.601.612-1.373 1.11-2.316 1.496-.944.386-2.07.579-3.378.579-1.855 0-3.543-.429-5.066-1.286-1.512-.869-2.718-2.193-3.619-3.973-.89-1.791-1.335-4.053-1.335-6.787 0-2.799.456-5.136 1.367-7.012.912-1.877 2.123-3.281 3.635-4.214a9.393 9.393 0 015.002-1.399c1.383 0 2.541.236 3.474.707.933.461 1.683 1.04 2.252 1.737.579.687 1.024 1.362 1.335 2.027h.257v-4.15h6.803v24.945c0 2.102-.515 3.86-1.544 5.276-1.029 1.415-2.455 2.476-4.278 3.184-1.812.718-3.898 1.078-6.256 1.078zm.144-15.279c1.105 0 2.038-.274 2.799-.821.772-.557 1.362-1.351 1.769-2.38.418-1.04.627-2.284.627-3.731 0-1.448-.204-2.702-.611-3.764-.407-1.072-.997-1.903-1.769-2.493-.772-.589-1.71-.884-2.815-.884-1.125 0-2.074.305-2.846.917-.772.6-1.357 1.436-1.753 2.509-.397 1.072-.595 2.31-.595 3.715 0 1.426.198 2.659.595 3.699.407 1.029.991 1.828 1.753 2.396.772.558 1.721.837 2.846.837zm27.202 5.982c-2.541 0-4.728-.514-6.562-1.543-1.823-1.041-3.227-2.509-4.214-4.407-.986-1.909-1.479-4.166-1.479-6.771 0-2.541.493-4.772 1.479-6.691.987-1.919 2.375-3.415 4.166-4.487 1.801-1.072 3.913-1.608 6.337-1.608 1.629 0 3.147.262 4.551.788a10.093 10.093 0 013.699 2.332c1.062 1.04 1.887 2.348 2.477 3.924.59 1.566.885 3.399.885 5.501v1.881h-20.86v-4.246h14.41c0-.986-.214-1.86-.643-2.621a4.599 4.599 0 00-1.785-1.785c-.751-.44-1.625-.66-2.622-.66-1.04 0-1.962.241-2.766.724a5.079 5.079 0 00-1.866 1.914c-.45.793-.681 1.678-.691 2.653v4.037c0 1.223.225 2.279.675 3.169a4.94 4.94 0 001.946 2.058c.837.483 1.828.724 2.976.724.761 0 1.458-.107 2.09-.322a4.337 4.337 0 001.625-.965c.45-.428.793-.954 1.029-1.576l6.337.418c-.322 1.523-.981 2.853-1.978 3.989-.987 1.126-2.263 2.005-3.828 2.638-1.555.622-3.351.932-5.388.932zm76.566 390.762V659h-4.811v-18.19h-.134l-5.211 3.267v-4.267l5.634-3.566h4.522zM947.809 659l9.433-18.667v-.156h-10.989v-3.933h15.967v3.989L952.775 659h-4.966zm17.157 0v-3.467l8.1-7.5a30.575 30.575 0 001.733-1.8c.475-.533.834-1.056 1.078-1.567a3.876 3.876 0 00.367-1.678c0-.666-.152-1.24-.456-1.722a2.982 2.982 0 00-1.244-1.122c-.526-.267-1.122-.4-1.789-.4-.696 0-1.304.141-1.822.422a2.901 2.901 0 00-1.2 1.211c-.282.526-.423 1.152-.423 1.878h-4.566c0-1.489.337-2.782 1.011-3.878.674-1.096 1.618-1.944 2.833-2.544 1.215-.6 2.615-.9 4.2-.9 1.63 0 3.049.288 4.256.866 1.215.571 2.159 1.363 2.833 2.378.675 1.015 1.012 2.178 1.012 3.489 0 .859-.171 1.708-.512 2.545-.333.837-.929 1.766-1.789 2.789-.859 1.014-2.07 2.233-3.633 3.655l-3.322 3.256v.156h9.556V659h-16.223zm21.968.289a2.595 2.595 0 01-1.889-.778 2.599 2.599 0 01-.778-1.889c0-.726.26-1.348.778-1.867a2.598 2.598 0 011.889-.777c.711 0 1.334.259 1.867.777.533.519.8 1.141.8 1.867 0 .489-.126.937-.378 1.345-.244.4-.567.722-.967.966-.4.237-.84.356-1.322.356zm13.015-23.045V659h-4.811v-18.19h-.133l-5.211 3.267v-4.267l5.633-3.566h4.522zM1005.71 659l9.43-18.667v-.156h-10.99v-3.933h15.97v3.989L1010.67 659h-4.96zm16.05.289c-.73 0-1.36-.259-1.89-.778a2.623 2.623 0 01-.77-1.889c0-.726.26-1.348.77-1.867a2.611 2.611 0 011.89-.777c.71 0 1.34.259 1.87.777.53.519.8 1.141.8 1.867 0 .489-.13.937-.38 1.345-.24.4-.56.722-.96.966-.4.237-.85.356-1.33.356zm13.97.211c-1.92-.007-3.56-.478-4.94-1.411-1.37-.934-2.42-2.285-3.16-4.056-.74-1.77-1.1-3.9-1.09-6.389 0-2.482.36-4.596 1.1-6.345.74-1.748 1.79-3.078 3.16-3.989 1.38-.918 3.02-1.377 4.93-1.377 1.9 0 3.54.459 4.91 1.377 1.37.919 2.43 2.252 3.17 4 .75 1.741 1.11 3.852 1.1 6.334 0 2.496-.37 4.63-1.11 6.4-.73 1.771-1.78 3.123-3.15 4.056-1.37.933-3.01 1.4-4.92 1.4zm0-3.989c1.3 0 2.34-.656 3.12-1.967.78-1.311 1.16-3.278 1.15-5.9 0-1.726-.17-3.163-.53-4.311-.35-1.148-.84-2.011-1.49-2.589a3.25 3.25 0 00-2.25-.867c-1.3 0-2.34.648-3.12 1.945-.77 1.296-1.17 3.237-1.17 5.822 0 1.748.17 3.208.52 4.378.35 1.163.85 2.037 1.5 2.622.64.578 1.4.867 2.27.867zm13.96 3.778c-.74 0-1.36-.259-1.89-.778a2.593 2.593 0 01-.78-1.889c0-.726.26-1.348.78-1.867.53-.518 1.15-.777 1.89-.777.71 0 1.33.259 1.87.777.53.519.8 1.141.8 1.867 0 .489-.13.937-.38 1.345-.25.4-.57.722-.97.966-.4.237-.84.356-1.32.356zm13.63.022c-1.66 0-3.13-.285-4.43-.855-1.29-.578-2.31-1.371-3.06-2.378-.74-1.015-1.12-2.186-1.14-3.512h4.84c.03.556.22 1.045.55 1.467.34.415.79.737 1.35.967.57.229 1.2.344 1.9.344.74 0 1.39-.129 1.95-.389.56-.259 1-.618 1.32-1.077.32-.46.48-.989.48-1.589 0-.608-.17-1.145-.51-1.612-.34-.474-.82-.844-1.45-1.111-.62-.266-1.36-.4-2.22-.4h-2.12v-3.533h2.12c.73 0 1.37-.126 1.92-.378.57-.252 1-.6 1.31-1.044.32-.452.47-.978.47-1.578 0-.571-.14-1.071-.41-1.5a2.724 2.724 0 00-1.13-1.023c-.49-.244-1.05-.366-1.69-.366-.65 0-1.25.118-1.79.355-.54.23-.98.56-1.3.989-.33.43-.5.934-.52 1.511h-4.61c.02-1.311.39-2.466 1.12-3.466.72-1 1.7-1.782 2.93-2.345 1.24-.57 2.63-.855 4.19-.855 1.57 0 2.94.285 4.12.855 1.18.57 2.09 1.341 2.75 2.311.66.963.98 2.045.97 3.245.01 1.274-.38 2.337-1.18 3.189-.8.852-1.83 1.392-3.1 1.622v.178c1.67.215 2.94.796 3.82 1.744.88.941 1.32 2.119 1.31 3.534a5.571 5.571 0 01-1.12 3.456c-.75 1.007-1.78 1.8-3.1 2.377-1.32.578-2.83.867-4.54.867zm-921.146-23.067h-4.522l-5.634 3.566v4.267l5.212-3.267h.133V659h4.811v-22.756zM147.931 659h4.967l9.445-18.767v-3.989h-15.968v3.933h10.99v.156L147.931 659zm17.157 0h16.223v-3.933h-9.556v-.156l3.322-3.256c4.678-4.267 5.934-6.4 5.934-8.989 0-3.944-3.223-6.733-8.101-6.733-4.777 0-8.055 2.855-8.044 7.322h4.567c-.012-2.178 1.366-3.511 3.444-3.511 2 0 3.489 1.244 3.489 3.244 0 1.811-1.111 3.056-3.178 5.045l-8.1 7.5V659zm21.968.289c1.423 0 2.656-1.189 2.667-2.667-.011-1.455-1.244-2.644-2.667-2.644-1.466 0-2.677 1.189-2.666 2.644-.011 1.478 1.2 2.667 2.666 2.667zm13.016-23.045h-4.523l-5.633 3.566v4.267l5.211-3.267h.133V659h4.812v-22.756zM205.828 659h4.967l9.445-18.767v-3.989h-15.967v3.933h10.989v.156L205.828 659zm16.057.289c1.423 0 2.656-1.189 2.667-2.667-.011-1.455-1.244-2.644-2.667-2.644-1.466 0-2.677 1.189-2.666 2.644-.011 1.478 1.2 2.667 2.666 2.667zm13.932.211c5.723 0 9.179-4.356 9.19-11.856.011-7.445-3.489-11.711-9.19-11.711-5.711 0-9.178 4.255-9.189 11.711-.022 7.478 3.456 11.845 9.189 11.856zm0-3.989c-2.611 0-4.3-2.622-4.289-7.867.012-5.167 1.689-7.767 4.289-7.767 2.589 0 4.278 2.6 4.278 7.767.011 5.245-1.677 7.867-4.278 7.867zm13.932 3.778c1.423 0 2.656-1.189 2.667-2.667-.011-1.455-1.244-2.644-2.667-2.644-1.466 0-2.677 1.189-2.666 2.644-.011 1.478 1.2 2.667 2.666 2.667zm5.957-.289h16.223v-3.933h-9.556v-.156l3.322-3.256c4.678-4.267 5.934-6.4 5.934-8.989 0-3.944-3.222-6.733-8.1-6.733-4.778 0-8.056 2.855-8.045 7.322h4.567c-.011-2.178 1.366-3.511 3.444-3.511 2 0 3.489 1.244 3.489 3.244 0 1.811-1.111 3.056-3.178 5.045l-8.1 7.5V659zm677.157-41v-32.938h12.995c2.498 0 4.627.477 6.385 1.431 1.758.944 3.099 2.257 4.021 3.941.933 1.672 1.399 3.602 1.399 5.789 0 2.188-.472 4.118-1.415 5.79-.944 1.673-2.311 2.976-4.102 3.909-1.779.932-3.935 1.399-6.465 1.399h-8.283v-5.581h7.157c1.34 0 2.445-.231 3.313-.692.88-.471 1.534-1.12 1.962-1.946.44-.836.66-1.796.66-2.879 0-1.093-.22-2.047-.66-2.862-.428-.826-1.082-1.464-1.962-1.914-.879-.461-1.994-.692-3.345-.692h-4.696V618h-6.964zm38.516.482c-2.498 0-4.659-.53-6.482-1.592-1.812-1.072-3.211-2.562-4.197-4.471-.987-1.919-1.48-4.144-1.48-6.674 0-2.552.493-4.782 1.48-6.691.986-1.919 2.385-3.41 4.197-4.471 1.823-1.072 3.984-1.608 6.482-1.608s4.653.536 6.465 1.608c1.823 1.061 3.228 2.552 4.214 4.471.986 1.909 1.48 4.139 1.48 6.691 0 2.53-.494 4.755-1.48 6.674-.986 1.909-2.391 3.399-4.214 4.471-1.812 1.062-3.967 1.592-6.465 1.592zm.032-5.307c1.137 0 2.085-.322 2.847-.965.761-.654 1.335-1.544 1.721-2.67.396-1.126.595-2.407.595-3.844 0-1.436-.199-2.718-.595-3.843-.386-1.126-.96-2.016-1.721-2.67-.762-.654-1.71-.981-2.847-.981-1.147 0-2.112.327-2.895.981-.772.654-1.356 1.544-1.753 2.67-.386 1.125-.579 2.407-.579 3.843 0 1.437.193 2.718.579 3.844.397 1.126.981 2.016 1.753 2.67.783.643 1.748.965 2.895.965zm24.242 5.227c-1.876 0-3.575-.482-5.098-1.447-1.512-.976-2.713-2.408-3.603-4.295-.879-1.897-1.318-4.224-1.318-6.98 0-2.83.455-5.184 1.367-7.06.911-1.887 2.123-3.297 3.634-4.23a9.31 9.31 0 015.002-1.415c1.383 0 2.536.236 3.458.707.935.461 1.685 1.04 2.255 1.737.58.687 1.02 1.362 1.32 2.027h.2v-12.384h6.84V618h-6.75v-3.956h-.29a9.104 9.104 0 01-1.37 2.042c-.58.665-1.336 1.217-2.269 1.657-.922.439-2.048.659-3.378.659zm2.172-5.452c1.104 0 2.037-.3 2.795-.901.78-.611 1.36-1.463 1.77-2.557.42-1.094.63-2.375.63-3.844 0-1.469-.2-2.745-.61-3.828-.41-1.083-1-1.919-1.77-2.509-.773-.589-1.711-.884-2.815-.884-1.126 0-2.075.305-2.847.917-.772.611-1.356 1.458-1.753 2.541-.397 1.083-.595 2.337-.595 3.763 0 1.437.198 2.708.595 3.812.407 1.094.992 1.951 1.753 2.573.772.611 1.721.917 2.847.917zm25.245 5.05v-32.938h13.19c2.42 0 4.44.359 6.06 1.077 1.62.719 2.84 1.716 3.65 2.992.82 1.265 1.22 2.723 1.22 4.374 0 1.287-.25 2.418-.77 3.394a6.617 6.617 0 01-2.12 2.38c-.89.611-1.91 1.046-3.06 1.303v.322c1.26.053 2.43.407 3.53 1.061 1.1.654 2 1.571 2.68 2.75.69 1.169 1.03 2.563 1.03 4.182 0 1.748-.43 3.308-1.3 4.68-.86 1.362-2.13 2.439-3.81 3.233-1.69.793-3.76 1.19-6.23 1.19h-14.07zm6.96-5.693h5.68c1.94 0 3.36-.37 4.25-1.11.89-.751 1.33-1.748 1.33-2.992 0-.911-.22-1.715-.66-2.412-.44-.697-1.06-1.244-1.88-1.641-.8-.396-1.76-.595-2.88-.595h-5.84v8.75zm0-13.462h5.17c.95 0 1.8-.166 2.54-.499.75-.343 1.34-.825 1.77-1.447.44-.622.66-1.367.66-2.236 0-1.19-.43-2.149-1.27-2.878-.84-.73-2.03-1.094-3.58-1.094h-5.29v8.154zM132.863 618v-32.938h12.995c2.498 0 4.627.477 6.385 1.431 1.758.944 3.099 2.257 4.021 3.941.933 1.672 1.399 3.602 1.399 5.789 0 2.188-.472 4.118-1.415 5.79-.944 1.673-2.311 2.976-4.102 3.909-1.779.932-3.935 1.399-6.465 1.399h-8.283v-5.581h7.157c1.34 0 2.445-.231 3.313-.692.88-.471 1.534-1.12 1.962-1.946.44-.836.66-1.796.66-2.879 0-1.093-.22-2.047-.66-2.862-.428-.826-1.082-1.464-1.962-1.914-.879-.461-1.994-.692-3.345-.692h-4.696V618h-6.964zm38.516.482c-2.498 0-4.659-.53-6.482-1.592-1.812-1.072-3.211-2.562-4.197-4.471-.987-1.919-1.48-4.144-1.48-6.674 0-2.552.493-4.782 1.48-6.691.986-1.919 2.385-3.41 4.197-4.471 1.823-1.072 3.984-1.608 6.482-1.608s4.653.536 6.465 1.608c1.823 1.061 3.228 2.552 4.214 4.471.986 1.909 1.48 4.139 1.48 6.691 0 2.53-.494 4.755-1.48 6.674-.986 1.909-2.391 3.399-4.214 4.471-1.812 1.062-3.967 1.592-6.465 1.592zm.032-5.307c1.137 0 2.085-.322 2.847-.965.761-.654 1.335-1.544 1.721-2.67.396-1.126.595-2.407.595-3.844 0-1.436-.199-2.718-.595-3.843-.386-1.126-.96-2.016-1.721-2.67-.762-.654-1.71-.981-2.847-.981-1.147 0-2.112.327-2.895.981-.772.654-1.356 1.544-1.753 2.67-.386 1.125-.579 2.407-.579 3.843 0 1.437.193 2.718.579 3.844.397 1.126.981 2.016 1.753 2.67.783.643 1.748.965 2.895.965zm24.242 5.227c-1.876 0-3.575-.482-5.098-1.447-1.512-.976-2.713-2.408-3.603-4.295-.879-1.897-1.318-4.224-1.318-6.98 0-2.83.455-5.184 1.367-7.06.911-1.887 2.123-3.297 3.634-4.23a9.31 9.31 0 015.002-1.415c1.383 0 2.536.236 3.458.707.933.461 1.684 1.04 2.252 1.737.579.687 1.018 1.362 1.319 2.027h.209v-12.384h6.835V618h-6.755v-3.956h-.289c-.322.686-.778 1.367-1.367 2.042-.579.665-1.335 1.217-2.268 1.657-.922.439-2.048.659-3.378.659zm2.172-5.452c1.104 0 2.037-.3 2.798-.901.772-.611 1.362-1.463 1.769-2.557.418-1.094.627-2.375.627-3.844 0-1.469-.203-2.745-.611-3.828-.407-1.083-.997-1.919-1.769-2.509-.772-.589-1.71-.884-2.814-.884-1.126 0-2.075.305-2.847.917-.772.611-1.356 1.458-1.753 2.541-.397 1.083-.595 2.337-.595 3.763 0 1.437.198 2.708.595 3.812.407 1.094.992 1.951 1.753 2.573.772.611 1.721.917 2.847.917zm30.922 5.05h-7.463l11.371-32.938h8.974L252.984 618h-7.463l-8.25-25.411h-.258L228.747 618zm-.467-12.947h17.627v5.436H228.28v-5.436z" fill="#000"></path></svg>