<svg viewBox="0 0 1200 900" fill="none" xmlns="http://www.w3.org/2000/svg"><path fill="#fff" d="M0 0h1200v900H0z"></path><ellipse cx="248.137" cy="241.991" rx="194.137" ry="110.218" fill="#F5FAFF"></ellipse><rect x="110.734" y="176.688" width="112.286" height="37.823" rx="2.364" fill="#7F7F7F"></rect><path d="M153.827 192.399c-.042-.428-.225-.761-.547-.998-.322-.237-.759-.355-1.311-.355-.375 0-.691.053-.95.159a1.333 1.333 0 00-.594.43 1.036 1.036 0 00-.202.626.896.896 0 00.122.509c.092.146.218.271.377.377.159.103.343.193.552.271.209.074.432.138.669.191l.977.234c.474.106.909.247 1.305.424.396.177.74.395 1.03.653.29.258.515.563.674.913.163.35.246.752.249 1.205-.003.665-.173 1.242-.509 1.73-.333.485-.814.862-1.444 1.13-.626.266-1.382.398-2.266.398-.878 0-1.642-.134-2.293-.403-.647-.269-1.153-.667-1.518-1.194-.361-.531-.55-1.187-.568-1.969h2.224c.025.364.129.669.313.913.188.24.437.423.749.546.314.121.67.181 1.066.181.39 0 .727-.057 1.014-.17.29-.113.515-.271.674-.472.159-.202.239-.434.239-.696a.902.902 0 00-.218-.615c-.141-.167-.35-.308-.626-.425a6.285 6.285 0 00-1.003-.318l-1.184-.298c-.916-.222-1.64-.571-2.17-1.045-.531-.474-.795-1.113-.791-1.916-.004-.658.171-1.233.525-1.725.358-.492.848-.876 1.47-1.152.623-.276 1.331-.414 2.123-.414.807 0 1.511.138 2.113.414.605.276 1.075.66 1.412 1.152.336.492.509 1.061.52 1.709h-2.203zm12.513-3.126v10.87h-1.985l-4.729-6.842h-.08v6.842h-2.298v-10.87h2.017l4.692 6.836h.095v-6.836h2.288zm3.296 10.87h-2.462l3.752-10.87h2.962l3.747 10.87h-2.463l-2.723-8.386h-.085l-2.728 8.386zm-.154-4.273h5.817v1.794h-5.817v-1.794zm7.243-4.702v-1.895h8.927v1.895h-3.328v8.975h-2.271v-8.975h-3.328z" fill="#fff"></path><rect x="273.254" y="176.688" width="112.286" height="37.823" rx="2.364" fill="#7F7F7F"></rect><path d="M299.661 192.399c-.042-.428-.224-.761-.546-.998-.322-.237-.759-.355-1.311-.355-.375 0-.692.053-.95.159a1.33 1.33 0 00-.595.43 1.035 1.035 0 00-.201.626.88.88 0 00.122.509c.092.146.217.271.376.377.16.103.344.193.552.271.209.074.432.138.669.191l.977.234c.474.106.909.247 1.305.424.397.177.74.395 1.03.653.29.258.515.563.674.913.163.35.246.752.25 1.205-.004.665-.174 1.242-.51 1.73-.333.485-.814.862-1.444 1.13-.626.266-1.381.398-2.266.398-.877 0-1.642-.134-2.293-.403-.647-.269-1.153-.667-1.518-1.194-.361-.531-.55-1.187-.568-1.969h2.224c.025.364.129.669.313.913.188.24.437.423.749.546.315.121.67.181 1.067.181.389 0 .727-.057 1.013-.17.29-.113.515-.271.674-.472.16-.202.239-.434.239-.696a.901.901 0 00-.217-.615c-.142-.167-.351-.308-.627-.425a6.285 6.285 0 00-1.003-.318l-1.183-.298c-.917-.222-1.64-.571-2.171-1.045-.531-.474-.794-1.113-.791-1.916-.003-.658.172-1.233.525-1.725.358-.492.848-.876 1.471-1.152.622-.276 1.33-.414 2.123-.414.806 0 1.511.138 2.112.414.605.276 1.076.66 1.412 1.152.336.492.509 1.061.52 1.709h-2.203zm3.421 7.744v-10.87h7.325v1.895h-5.026v2.59h4.649v1.894h-4.649v2.596h5.047v1.895h-7.346zm18.267-7.065h-2.325a2.282 2.282 0 00-.26-.801 2.04 2.04 0 00-.504-.605 2.227 2.227 0 00-.712-.382 2.7 2.7 0 00-.865-.133c-.562 0-1.052.14-1.47.419-.417.276-.741.68-.971 1.21-.23.528-.345 1.168-.345 1.922 0 .775.115 1.426.345 1.953.233.527.559.925.976 1.194.418.269.901.403 1.449.403.308 0 .593-.04.855-.122.265-.081.5-.2.706-.355.205-.159.375-.352.509-.579a2.25 2.25 0 00.287-.775l2.325.011a4.332 4.332 0 01-1.412 2.68c-.4.361-.878.648-1.433.86-.552.209-1.177.313-1.874.313-.969 0-1.836-.219-2.601-.658-.76-.439-1.362-1.074-1.804-1.905-.439-.832-.658-1.838-.658-3.02 0-1.186.223-2.194.669-3.026.445-.831 1.05-1.464 1.815-1.9.764-.438 1.624-.658 2.579-.658.63 0 1.214.089 1.752.266a4.46 4.46 0 011.438.774 4.01 4.01 0 011.019 1.237c.265.488.435 1.047.51 1.677zm7.886-3.805h2.298v7.059c0 .792-.19 1.486-.568 2.08-.375.595-.901 1.058-1.577 1.391-.675.329-1.463.493-2.361.493-.903 0-1.692-.164-2.368-.493-.675-.333-1.201-.796-1.576-1.391-.375-.594-.562-1.288-.562-2.08v-7.059h2.298v6.862c0 .414.09.782.27 1.104.184.322.443.575.775.759.333.184.72.276 1.163.276.445 0 .833-.092 1.162-.276a1.94 1.94 0 00.77-.759c.184-.322.276-.69.276-1.104v-6.862zm3.712 10.87v-10.87h4.289c.821 0 1.521.147 2.102.44a3.05 3.05 0 011.332 1.237c.308.531.462 1.155.462 1.874 0 .721-.156 1.342-.467 1.862-.312.517-.763.913-1.354 1.189-.587.276-1.298.414-2.133.414h-2.872v-1.847h2.5c.439 0 .803-.06 1.093-.18.29-.12.506-.301.648-.541.145-.241.217-.54.217-.897 0-.361-.072-.666-.217-.913a1.333 1.333 0 00-.653-.563c-.29-.131-.656-.196-1.099-.196h-1.549v8.991h-2.299zm5.871-4.947l2.701 4.947h-2.537l-2.643-4.947h2.479zm5.76-5.923v10.87h-2.298v-10.87h2.298zm1.001 1.895v-1.895h8.927v1.895h-3.328v8.975h-2.271v-8.975h-3.328zm9.284-1.895h2.574l2.479 4.681h.106l2.479-4.681h2.574l-3.965 7.027v3.843h-2.282V196.3l-3.965-7.027z" fill="#fff"></path><rect x="110.734" y="269.473" width="112.286" height="37.823" rx="2.364" fill="#7F7F7F"></rect><path d="M135.997 282.058h2.834l2.994 7.303h.127l2.993-7.303h2.835v10.87h-2.23v-7.075h-.09l-2.813 7.022h-1.518l-2.813-7.049h-.09v7.102h-2.229v-10.87zm15.074 10.87h-2.463l3.752-10.87h2.962l3.747 10.87h-2.463l-2.722-8.386h-.085l-2.728 8.386zm-.154-4.273h5.817v1.794h-5.817v-1.794zm18.076-6.597v10.87h-1.985l-4.729-6.842h-.08v6.842h-2.298v-10.87h2.017l4.692 6.836h.095v-6.836h2.288zm8.63 3.514a2.352 2.352 0 00-.313-.685 1.93 1.93 0 00-.493-.51 2.121 2.121 0 00-.659-.323 2.753 2.753 0 00-.812-.112c-.555 0-1.043.138-1.464.414-.418.276-.743.678-.977 1.205-.234.524-.35 1.164-.35 1.921 0 .757.115 1.401.345 1.932.23.531.555.936.976 1.216.421.276.918.414 1.492.414.52 0 .964-.092 1.332-.276a1.99 1.99 0 00.849-.791c.198-.34.297-.742.297-1.205l.467.069h-2.802v-1.73h4.548v1.369c0 .955-.201 1.776-.605 2.463a4.112 4.112 0 01-1.666 1.581c-.708.368-1.518.552-2.431.552-1.019 0-1.914-.224-2.686-.674-.771-.453-1.372-1.095-1.804-1.926-.428-.835-.642-1.826-.642-2.973 0-.881.127-1.666.382-2.356a5.018 5.018 0 011.083-1.762 4.678 4.678 0 011.618-1.099 5.252 5.252 0 012.001-.377c.616 0 1.189.091 1.72.271a4.578 4.578 0 011.412.754c.414.325.752.713 1.013 1.162.262.446.43.938.505 1.476h-2.336zm3.687 7.356v-10.87h2.298v8.975h4.66v1.895h-6.958zm8.004 0v-10.87h7.324v1.895h-5.026v2.59h4.649v1.895h-4.649v2.595h5.047v1.895h-7.345z" fill="#fff"></path><rect x="273.254" y="269.473" width="112.286" height="37.823" rx="2.364" fill="#7F7F7F"></rect><path d="M306.738 292.928v-10.87h7.197v1.895h-4.899v2.59h4.421v1.895h-4.421v4.49h-2.298zm10.565-10.87v10.87h-2.298v-10.87h2.298zm1.415 10.87v-10.87h2.298v8.975h4.66v1.895h-6.958zm6.232-8.975v-1.895h8.928v1.895h-3.328v8.975h-2.272v-8.975h-3.328zm9.922 8.975v-10.87h7.324v1.895h-5.026v2.59h4.649v1.895h-4.649v2.595h5.047v1.895h-7.345zm8.675 0v-10.87h4.289c.821 0 1.521.147 2.102.441a3.06 3.06 0 011.332 1.236c.308.531.461 1.155.461 1.874 0 .722-.155 1.342-.467 1.863-.311.516-.762.913-1.353 1.189-.587.275-1.299.413-2.134.413h-2.871v-1.847h2.5c.439 0 .803-.06 1.093-.18.29-.12.506-.301.648-.541.145-.241.217-.54.217-.897 0-.361-.072-.666-.217-.913a1.338 1.338 0 00-.653-.563c-.29-.131-.656-.196-1.099-.196h-1.55v8.991h-2.298zm5.87-4.947l2.702 4.947h-2.537l-2.643-4.947h2.478z" fill="#fff"></path><path d="M273.254 288.383l-17.73-10.236v20.472l17.73-10.236zm-47.094 1.773a1.773 1.773 0 000-3.546v3.546zm6.279-3.546a1.773 1.773 0 000 3.546v-3.546zm6.279 3.546a1.773 1.773 0 100-3.546v3.546zm6.28-3.546a1.773 1.773 0 100 3.546v-3.546zm6.279 3.546a1.773 1.773 0 000-3.546v3.546zm6.279-3.546a1.773 1.773 0 000 3.546v-3.546zm6.279 3.546a1.773 1.773 0 000-3.546v3.546zm6.279-3.546a1.773 1.773 0 000 3.546v-3.546zm-47.093 3.546h3.139v-3.546h-3.139v3.546zm9.418 0h6.279v-3.546h-6.279v3.546zm12.559 0h6.279v-3.546h-6.279v3.546zm12.558 0h6.279v-3.546h-6.279v3.546zm-90.679 17.138l-10.236 17.729h20.473l-10.237-17.729zm79.783 21.275v-1.773 1.773zm-78.01 0v-1.773 1.773zm81.556 53.952a1.773 1.773 0 00-3.546 0h3.546zm-3.546-6.957a1.773 1.773 0 003.546 0h-3.546zm3.546-6.957a1.773 1.773 0 00-3.546 0h3.546zm-3.546-6.958a1.773 1.773 0 103.546 0h-3.546zm3.546-6.957a1.773 1.773 0 00-3.546 0h3.546zm-3.546-6.957a1.773 1.773 0 003.546 0h-3.546zm3.546-6.957a1.773 1.773 0 10-3.546 0h3.546zm-3.546-6.958a1.773 1.773 0 003.546 0h-3.546zm3.276-4.836a1.773 1.773 0 10-3.275 1.358l3.275-1.358zm-3.277 1.357a1.773 1.773 0 001.359-3.275l-1.359 3.275zm-3.9-3.545a1.773 1.773 0 000 3.546v-3.546zm-7.801 3.546a1.773 1.773 0 100-3.546v3.546zm-7.801-3.546a1.772 1.772 0 000 3.546v-3.546zm-7.8 3.546a1.772 1.772 0 000-3.546v3.546zm-7.801-3.546a1.773 1.773 0 100 3.546v-3.546zm-7.801 3.546a1.773 1.773 0 000-3.546v3.546zm-7.801-3.546a1.773 1.773 0 000 3.546v-3.546zm-7.801 3.546a1.773 1.773 0 000-3.546v3.546zm-7.801-3.546a1.773 1.773 0 000 3.546v-3.546zm-7.801 3.546a1.773 1.773 0 000-3.546v3.546zm-3.9-3.546a1.774 1.774 0 00-1.358 3.276l1.358-3.276zm-3.277 1.358a1.773 1.773 0 003.276-1.359l-3.276 1.359zm3.276-6.234a1.773 1.773 0 10-3.546 0h3.546zm-3.546-9.751a1.773 1.773 0 003.546 0h-3.546zM250.206 386v-3.479h-3.546V386h3.546zm0-10.436v-6.957h-3.546v6.957h3.546zm0-13.915v-6.957h-3.546v6.957h3.546zm0-13.914v-6.957h-3.546v6.957h3.546zm0-13.915v-3.478h-3.546v3.478h3.546zm0-3.478c0-.478-.096-.938-.27-1.358l-3.275 1.358h-.001 3.546zm-2.188-3.276a3.534 3.534 0 00-1.358-.27v3.546l-.001-.001 1.359-3.275zm-1.358-.27h-3.901v3.546h3.901v-3.546zm-11.702 0h-7.801v3.546h7.801v-3.546zm-15.601 0h-7.801v3.546h7.801v-3.546zm-15.602 0h-7.801v3.546h7.801v-3.546zm-15.602 0h-7.801v3.546h7.801v-3.546zm-15.602 0h-3.901v3.546h3.901v-3.546zm-3.901 0h.001l-1.358 3.276c.42.174.88.27 1.357.27v-3.546zm0-.001v.001h-3.546c0 .477.096.937.27 1.358l3.276-1.359zm0 .001v-4.876h-3.546v4.876h3.546zM248.432 89l10.237 17.729-20.473.001L248.432 89zm.001 61.684h-1.773 1.773zm-1.773 1.773v1.773-1.773zm3.545-59.602a1.772 1.772 0 11-3.546 0h3.546zm-3.546 7.711a1.773 1.773 0 013.546 0h-3.546zm3.546 7.71a1.772 1.772 0 11-3.545 0h3.545zm-3.545 7.711a1.773 1.773 0 113.545 0h-3.545zm3.546 7.71a1.773 1.773 0 11-3.546 0h3.546zm-3.546 7.711a1.773 1.773 0 113.546 0h-3.546zm3.546 7.711a1.772 1.772 0 01-3.546 0h3.546zm-3.546 7.71a1.773 1.773 0 013.546 0h-3.546zm3.276 5.213a1.773 1.773 0 11-3.275-1.358l3.275 1.358zm-3.277-1.357a1.773 1.773 0 011.359 3.275l-1.359-3.275zm-3.9 3.545a1.773 1.773 0 010-3.546v3.546zm-7.801-3.546a1.773 1.773 0 110 3.546v-3.546zm-7.801 3.546a1.772 1.772 0 010-3.546v3.546zm-7.8-3.546a1.772 1.772 0 010 3.546v-3.546zm-7.801 3.546a1.773 1.773 0 110-3.546v3.546zm-7.801-3.546a1.773 1.773 0 010 3.546v-3.546zm-7.801 3.546a1.773 1.773 0 010-3.546v3.546zm-7.801-3.546a1.773 1.773 0 010 3.546v-3.546zm-7.801 3.546a1.773 1.773 0 010-3.546v3.546zm-7.801-3.546a1.773 1.773 0 010 3.546v-3.546zm-3.9 3.546a1.774 1.774 0 01-1.358-3.276l1.358 3.276zm-3.277-1.358a1.773 1.773 0 013.276 1.359l-3.276-1.359zm3.276 6.529a1.773 1.773 0 11-3.546 0h3.546zm-3.545 10.342a1.772 1.772 0 113.545 0h-3.545zm85.1-69.177v7.71h-3.545l-.001-7.71h3.546zm0 15.421l.001 7.71h-3.546v-7.71h3.545zm.001 15.421v7.711h-3.546v-7.711h3.546zm0 15.421v3.855h-3.546v-3.855h3.546zm0 3.855c0 .478-.096.938-.27 1.358l-3.275-1.358h-.001 3.546zm-2.188 3.276c-.421.175-.881.27-1.358.27v-3.546l-.001.001 1.359 3.275zm-1.358.27h-3.901v-3.546h3.901v3.546zm-11.702 0h-7.801v-3.546h7.801v3.546zm-15.601 0h-7.801v-3.546h7.801v3.546zm-15.602 0h-7.801v-3.546h7.801v3.546zm-15.602 0h-7.801v-3.546h7.801v3.546zm-15.602 0h-3.901v-3.546h3.901v3.546zm-3.901 0h.001l-1.358-3.276c.42-.174.88-.27 1.357-.27v3.546zm0 .001v-.001h-3.546c0-.477.096-.937.27-1.358l3.276 1.359zm0-.001v5.171h-3.546v-5.171h3.546zm0 15.513v5.171h-3.545v-5.171h3.545zm160.747 44.766l-10.236 17.73h20.473l-10.237-17.73zm1.773 51.527a1.772 1.772 0 10-3.545 0h3.545zm-3.545-6.871a1.772 1.772 0 103.545 0h-3.545zm3.545-6.87a1.773 1.773 0 10-3.545 0h3.545zm-3.545-6.87a1.772 1.772 0 103.545 0h-3.545zm3.545-6.87a1.773 1.773 0 10-3.545 0h3.545zm-3.545-6.87a1.772 1.772 0 103.545 0h-3.545zm3.545-6.87a1.773 1.773 0 10-3.545 0h3.545zm-3.545-6.87a1.772 1.772 0 103.545 0h-3.545zm3.545 51.526v-3.435h-3.545v3.435h3.545zm0-10.306v-6.87h-3.545v6.87h3.545zm0-13.74v-6.87h-3.545v6.87h3.545zm0-13.74v-6.87h-3.545v6.87h3.545zm-108.149-36.086l17.729 10.236v-20.472l-17.729 10.236zm3.139 1.773a1.773 1.773 0 000-3.546v3.546zm6.279-3.546a1.773 1.773 0 100 3.546v-3.546zm6.279 3.546a1.773 1.773 0 100-3.546v3.546zm6.28-3.546a1.772 1.772 0 100 3.546v-3.546zm6.279 3.546a1.773 1.773 0 000-3.546v3.546zm6.279-3.546a1.773 1.773 0 100 3.546v-3.546zm6.279 3.546a1.773 1.773 0 000-3.546v3.546zm6.279-3.546a1.773 1.773 0 100 3.546v-3.546zm-37.675 3.546h6.279v-3.546h-6.279v3.546zm12.559 0h6.279v-3.546h-6.279v3.546zm12.558 0h6.279v-3.546h-6.279v3.546zm12.558 0h3.14v-3.546h-3.14v3.546z" fill="#2ECC71"></path><path d="M412.978 229.727V253h-4.921v-23.273h4.921zm23.038 0V253h-4.25l-10.125-14.648h-.17V253h-4.921v-23.273h4.318l10.046 14.637h.204v-14.637h4.898zM439.605 253v-23.273h9.182c1.765 0 3.269.337 4.512 1.012 1.242.666 2.189 1.594 2.84 2.784.66 1.182.989 2.545.989 4.091 0 1.545-.333 2.909-1 4.091-.667 1.181-1.632 2.102-2.898 2.761-1.257.659-2.78.989-4.568.989h-5.852v-3.944h5.057c.947 0 1.727-.163 2.341-.488.621-.334 1.083-.792 1.386-1.375.311-.591.466-1.269.466-2.034 0-.773-.155-1.447-.466-2.023-.303-.583-.765-1.034-1.386-1.352-.622-.326-1.409-.489-2.364-.489h-3.318V253h-4.921zm34.618-23.273h4.921v15.114c0 1.697-.406 3.182-1.216 4.454-.803 1.273-1.928 2.266-3.375 2.978-1.447.704-3.133 1.057-5.057 1.057-1.932 0-3.621-.353-5.068-1.057-1.447-.712-2.572-1.705-3.375-2.978-.803-1.272-1.205-2.757-1.205-4.454v-15.114h4.921v14.693c0 .887.193 1.675.579 2.364a4.23 4.23 0 001.659 1.625c.712.394 1.542.591 2.489.591.954 0 1.784-.197 2.489-.591a4.147 4.147 0 001.647-1.625c.394-.689.591-1.477.591-2.364v-14.693zm7.607 4.057v-4.057h19.113v4.057h-7.125V253h-4.863v-19.216h-7.125z" fill="#000"></path><ellipse cx="936.169" cy="241.991" rx="194.137" ry="110.218" fill="#F5FAFF"></ellipse><rect x="749.124" y="176.688" width="112.286" height="37.823" rx="2.364" fill="#7F7F7F"></rect><path d="M788.702 200.143v-10.87h4.288c.821 0 1.522.147 2.102.44a3.05 3.05 0 011.332 1.237c.308.531.462 1.155.462 1.874 0 .721-.156 1.342-.467 1.862-.311.517-.763.913-1.353 1.189-.588.276-1.299.414-2.134.414h-2.871v-1.847h2.499c.439 0 .804-.06 1.094-.18.29-.12.506-.301.647-.541.145-.241.218-.54.218-.897 0-.361-.073-.666-.218-.913a1.328 1.328 0 00-.653-.563c-.29-.131-.656-.196-1.098-.196H791v8.991h-2.298zm5.87-4.947l2.701 4.947h-2.536l-2.644-4.947h2.479zm5.336 4.947h-2.463l3.752-10.87h2.962l3.747 10.87h-2.463l-2.722-8.386h-.085l-2.728 8.386zm-.154-4.273h5.817v1.794h-5.817v-1.794zm10.336 4.273l-3.11-10.87h2.511l1.799 7.552h.09l1.985-7.552h2.15l1.979 7.568h.096l1.799-7.568h2.511l-3.111 10.87h-2.239l-2.07-7.107h-.085l-2.065 7.107h-2.24z" fill="#fff"></path><rect x="880.321" y="176.688" width="112.286" height="37.823" rx="2.364" fill="#F39800"></rect><path d="M936.036 193.078h-2.325a2.262 2.262 0 00-.26-.801 2.04 2.04 0 00-.504-.605 2.211 2.211 0 00-.711-.382 2.709 2.709 0 00-.865-.133c-.563 0-1.053.14-1.471.419-.417.276-.741.68-.971 1.21-.23.528-.345 1.168-.345 1.922 0 .775.115 1.426.345 1.953.234.527.559.925.977 1.194.417.269.9.403 1.449.403.307 0 .592-.04.854-.122.266-.081.501-.2.706-.355.205-.159.375-.352.51-.579a2.25 2.25 0 00.286-.775l2.325.011a4.336 4.336 0 01-1.412 2.68c-.4.361-.877.648-1.433.86-.552.209-1.176.313-1.874.313-.969 0-1.836-.219-2.6-.658-.761-.439-1.362-1.074-1.805-1.905-.438-.832-.658-1.838-.658-3.02 0-1.186.223-2.194.669-3.026.446-.831 1.051-1.464 1.815-1.9.764-.438 1.624-.658 2.579-.658.63 0 1.214.089 1.752.266a4.45 4.45 0 011.438.774c.418.337.758.749 1.019 1.237.266.488.436 1.047.51 1.677zm.758-1.91v-1.895h8.927v1.895h-3.328v8.975h-2.271v-8.975h-3.328z" fill="#fff"></path><rect x="1010.93" y="176.688" width="112.286" height="37.823" rx="2.364" fill="#7F7F7F"></rect><path d="M1037.34 192.399c-.05-.428-.23-.761-.55-.998-.32-.237-.76-.355-1.31-.355-.38 0-.69.053-.95.159-.26.102-.46.246-.6.43-.13.184-.2.392-.2.626-.01.195.04.364.12.509.1.146.22.271.38.377.16.103.34.193.55.271.21.074.43.138.67.191l.98.234c.47.106.91.247 1.3.424.4.177.74.395 1.03.653.29.258.52.563.68.913.16.35.24.752.25 1.205-.01.665-.18 1.242-.51 1.73-.34.485-.82.862-1.45 1.13-.62.266-1.38.398-2.26.398-.88 0-1.64-.134-2.3-.403-.64-.269-1.15-.667-1.51-1.194-.36-.531-.55-1.187-.57-1.969h2.22c.03.364.13.669.32.913.18.24.43.423.74.546.32.121.67.181 1.07.181.39 0 .73-.057 1.01-.17.29-.113.52-.271.68-.472.16-.202.24-.434.24-.696a.928.928 0 00-.22-.615c-.14-.167-.35-.308-.63-.425a6.05 6.05 0 00-1-.318l-1.18-.298c-.92-.222-1.64-.571-2.17-1.045-.54-.474-.8-1.113-.8-1.916 0-.658.18-1.233.53-1.725.36-.492.85-.876 1.47-1.152.62-.276 1.33-.414 2.12-.414.81 0 1.51.138 2.12.414.6.276 1.07.66 1.41 1.152.33.492.51 1.061.52 1.709h-2.2zm3.42 7.744v-10.87h7.32v1.895h-5.03v2.59h4.65v1.894h-4.65v2.596h5.05v1.895h-7.34zm18.26-7.065h-2.32c-.04-.3-.13-.568-.26-.801a2.145 2.145 0 00-1.22-.987 2.656 2.656 0 00-.86-.133c-.57 0-1.06.14-1.47.419-.42.276-.74.68-.97 1.21-.23.528-.35 1.168-.35 1.922 0 .775.12 1.426.35 1.953.23.527.55.925.97 1.194.42.269.9.403 1.45.403.31 0 .59-.04.86-.122.26-.081.5-.2.7-.355.21-.159.38-.352.51-.579.14-.226.23-.485.29-.775l2.32.011c-.06.499-.21.98-.45 1.444-.24.46-.56.872-.96 1.236-.4.361-.88.648-1.43.86-.55.209-1.18.313-1.88.313-.97 0-1.83-.219-2.6-.658-.76-.439-1.36-1.074-1.8-1.905-.44-.832-.66-1.838-.66-3.02 0-1.186.22-2.194.67-3.026.45-.831 1.05-1.464 1.81-1.9.77-.438 1.63-.658 2.58-.658.63 0 1.22.089 1.76.266a4.35 4.35 0 011.43.774c.42.337.76.749 1.02 1.237.27.488.44 1.047.51 1.677zm7.89-3.805h2.3v7.059c0 .792-.19 1.486-.57 2.08-.38.595-.9 1.058-1.58 1.391-.67.329-1.46.493-2.36.493-.9 0-1.69-.164-2.37-.493-.67-.333-1.2-.796-1.57-1.391-.38-.594-.57-1.288-.57-2.08v-7.059h2.3v6.862c0 .414.09.782.27 1.104.19.322.45.575.78.759.33.184.72.276 1.16.276.45 0 .83-.092 1.16-.276.34-.184.59-.437.77-.759.19-.322.28-.69.28-1.104v-6.862zm3.71 10.87v-10.87h4.29c.82 0 1.52.147 2.1.44.59.29 1.03.703 1.33 1.237.31.531.47 1.155.47 1.874 0 .721-.16 1.342-.47 1.862-.31.517-.76.913-1.36 1.189-.58.276-1.29.414-2.13.414h-2.87v-1.847h2.5c.44 0 .8-.06 1.09-.18a1.3 1.3 0 00.65-.541c.15-.241.22-.54.22-.897 0-.361-.07-.666-.22-.913a1.334 1.334 0 00-.65-.563c-.29-.131-.66-.196-1.1-.196h-1.55v8.991h-2.3zm5.87-4.947l2.7 4.947h-2.53l-2.65-4.947h2.48zm5.76-5.923v10.87h-2.3v-10.87h2.3zm1 1.895v-1.895h8.93v1.895h-3.33v8.975h-2.27v-8.975h-3.33zm9.29-1.895h2.57l2.48 4.681h.11l2.47-4.681h2.58l-3.97 7.027v3.843h-2.28V196.3l-3.96-7.027z" fill="#fff"></path><rect x="880.321" y="228.693" width="112.286" height="37.823" rx="2.364" fill="#7F7F7F"></rect><path d="M913.805 252.148v-10.869h7.197v1.894h-4.899v2.591h4.421v1.894h-4.421v4.49h-2.298zm10.565-10.869v10.869h-2.298v-10.869h2.298zm1.415 10.869v-10.869h2.298v8.975h4.66v1.894h-6.958zm6.232-8.975v-1.894h8.928v1.894h-3.328v8.975h-2.272v-8.975h-3.328zm9.922 8.975v-10.869h7.324v1.894h-5.026v2.591h4.649v1.894h-4.649v2.596h5.047v1.894h-7.345zm8.675 0v-10.869h4.289c.821 0 1.521.147 2.101.44.584.29 1.028.703 1.333 1.237.307.531.461 1.155.461 1.873 0 .722-.155 1.343-.467 1.863-.311.517-.762.913-1.353 1.189-.587.276-1.299.414-2.134.414h-2.871v-1.847h2.5c.439 0 .803-.06 1.093-.18.29-.121.506-.301.648-.542.145-.24.217-.539.217-.897 0-.361-.072-.665-.217-.912a1.337 1.337 0 00-.653-.563c-.29-.131-.657-.196-1.099-.196h-1.55v8.99h-2.298zm5.87-4.946l2.702 4.946h-2.537l-2.643-4.946h2.478z" fill="#fff"></path><rect x="880.321" y="280.7" width="112.286" height="37.823" rx="2.364" fill="#7F7F7F"></rect><path d="M923.415 296.412c-.042-.429-.225-.761-.547-.998-.322-.237-.759-.356-1.311-.356-.375 0-.691.053-.95.159a1.34 1.34 0 00-.594.43 1.033 1.033 0 00-.202.627.898.898 0 00.122.509c.092.145.218.271.377.377.159.103.343.193.552.271.209.074.432.138.669.191l.976.233c.475.106.91.248 1.306.425s.74.394 1.03.653c.29.258.515.562.674.913.163.35.246.751.249 1.204-.003.666-.173 1.242-.509 1.731-.333.484-.814.861-1.444 1.13-.626.266-1.382.398-2.266.398-.878 0-1.642-.134-2.293-.403-.648-.269-1.154-.667-1.518-1.194-.361-.531-.55-1.187-.568-1.969h2.224c.025.364.129.668.313.912.188.241.437.423.748.547.315.12.671.181 1.067.181a2.76 2.76 0 001.014-.17 1.55 1.55 0 00.674-.473 1.09 1.09 0 00.239-.695.906.906 0 00-.218-.616c-.141-.166-.35-.307-.626-.424a6.416 6.416 0 00-1.003-.319l-1.184-.297c-.916-.223-1.64-.571-2.171-1.045-.53-.475-.794-1.113-.79-1.916-.004-.659.171-1.234.525-1.725.357-.492.848-.876 1.47-1.152.623-.276 1.331-.414 2.123-.414.807 0 1.511.138 2.113.414.605.276 1.075.66 1.411 1.152.337.491.51 1.061.521 1.709h-2.203zm12.513-3.126v10.869h-1.985l-4.729-6.841h-.08v6.841h-2.298v-10.869h2.017l4.692 6.836h.095v-6.836h2.288zm3.296 10.869h-2.463l3.753-10.869h2.961l3.747 10.869h-2.462l-2.723-8.386h-.085l-2.728 8.386zm-.154-4.272h5.817v1.794h-5.817v-1.794zm7.243-4.703v-1.894h8.927v1.894h-3.328v8.975h-2.272v-8.975h-3.327z" fill="#fff"></path><rect x="749.124" y="228.693" width="112.286" height="37.823" rx="2.364" fill="#7F7F7F"></rect><path d="M775.53 244.405c-.042-.428-.225-.761-.547-.998-.322-.237-.759-.356-1.311-.356-.375 0-.691.053-.95.16a1.333 1.333 0 00-.594.43 1.03 1.03 0 00-.202.626.898.898 0 00.122.509c.092.145.218.271.377.377.159.103.343.193.552.271.209.074.432.138.669.191l.976.233c.475.107.91.248 1.306.425s.74.395 1.03.653c.29.258.515.562.674.913.163.35.246.752.249 1.205-.003.665-.173 1.242-.509 1.73-.333.485-.814.861-1.444 1.13-.626.266-1.382.398-2.266.398-.878 0-1.642-.134-2.293-.403-.648-.269-1.154-.667-1.518-1.194-.361-.531-.55-1.187-.568-1.969h2.224c.025.364.129.668.313.913.188.24.437.422.748.546.315.121.671.181 1.067.181a2.76 2.76 0 001.014-.17c.29-.113.515-.271.674-.472.159-.202.239-.434.239-.696a.902.902 0 00-.218-.615c-.141-.167-.35-.308-.626-.425a6.285 6.285 0 00-1.003-.318l-1.184-.298c-.916-.223-1.64-.571-2.17-1.045-.531-.474-.795-1.113-.791-1.916-.004-.658.171-1.233.525-1.725.358-.492.848-.876 1.47-1.152.623-.276 1.331-.414 2.123-.414.807 0 1.511.138 2.113.414.605.276 1.075.66 1.411 1.152.337.492.51 1.061.521 1.709h-2.203zm3.421 7.743v-10.869h7.324v1.894h-5.026v2.591h4.65v1.894h-4.65v2.596h5.048v1.894h-7.346zm18.266-7.064h-2.325a2.255 2.255 0 00-.26-.801 2.025 2.025 0 00-.504-.605 2.192 2.192 0 00-.711-.382 2.704 2.704 0 00-.865-.133c-.563 0-1.053.14-1.47.419-.418.276-.742.679-.972 1.21-.23.527-.345 1.168-.345 1.922 0 .774.115 1.426.345 1.953.234.527.559.925.977 1.194.418.269.901.403 1.449.403.308 0 .593-.04.854-.122.266-.081.501-.2.706-.355.206-.16.375-.352.51-.579a2.25 2.25 0 00.286-.775l2.325.011c-.06.499-.21.98-.451 1.443-.237.46-.557.873-.961 1.237a4.5 4.5 0 01-1.433.86c-.552.209-1.176.313-1.873.313-.97 0-1.837-.219-2.601-.658-.761-.439-1.362-1.074-1.804-1.905-.439-.832-.659-1.839-.659-3.02 0-1.186.223-2.194.669-3.026.446-.831 1.051-1.465 1.815-1.9.765-.439 1.624-.658 2.58-.658.63 0 1.213.089 1.751.265a4.458 4.458 0 011.439.775c.417.336.757.749 1.019 1.237.265.488.435 1.047.509 1.677zm7.886-3.805h2.298v7.059c0 .792-.189 1.486-.568 2.08-.375.595-.9 1.058-1.576 1.391-.676.329-1.463.493-2.362.493-.902 0-1.691-.164-2.367-.493-.676-.333-1.201-.796-1.576-1.391-.375-.594-.563-1.288-.563-2.08v-7.059h2.298v6.862c0 .414.091.782.271 1.104.184.322.442.575.775.759.332.184.72.276 1.162.276.446 0 .834-.092 1.163-.276.332-.184.589-.437.769-.759.184-.322.276-.69.276-1.104v-6.862zm3.713 10.869v-10.869h4.289c.82 0 1.521.147 2.101.44.584.29 1.028.703 1.333 1.237.307.531.461 1.155.461 1.873 0 .722-.155 1.343-.467 1.863-.311.517-.762.913-1.353 1.189-.588.276-1.299.414-2.134.414h-2.871v-1.847h2.5c.438 0 .803-.06 1.093-.18.29-.121.506-.301.648-.542.145-.24.217-.539.217-.897 0-.361-.072-.665-.217-.912a1.337 1.337 0 00-.653-.563c-.29-.131-.657-.196-1.099-.196h-1.55v8.99h-2.298zm5.87-4.946l2.702 4.946h-2.537l-2.643-4.946h2.478zm5.761-5.923v10.869h-2.299v-10.869h2.299zm1 1.894v-1.894h8.928v1.894h-3.328v8.975h-2.272v-8.975h-3.328zm9.285-1.894h2.574l2.479 4.681h.106l2.478-4.681h2.574l-3.964 7.027v3.842h-2.282v-3.842l-3.965-7.027z" fill="#fff"></path><rect x="1010.93" y="228.693" width="112.286" height="37.823" rx="2.364" fill="#7F7F7F"></rect><path d="M1051.44 252.148h-3.86v-10.869h3.89c1.09 0 2.03.217 2.82.653.79.431 1.4 1.052 1.82 1.862.43.811.65 1.78.65 2.909 0 1.132-.22 2.105-.65 2.919a4.367 4.367 0 01-1.83 1.874c-.79.435-1.74.652-2.84.652zm-1.56-1.969h1.46c.68 0 1.25-.12 1.72-.361.46-.244.81-.621 1.05-1.13.23-.513.35-1.175.35-1.985 0-.803-.12-1.46-.35-1.969-.24-.51-.58-.885-1.05-1.125-.46-.241-1.03-.361-1.71-.361h-1.47v6.931zm17.19-8.9v10.869h-1.98l-4.73-6.841h-.08v6.841h-2.3v-10.869h2.02l4.69 6.836h.1v-6.836h2.28zm3.3 10.869h-2.46l3.75-10.869h2.96l3.75 10.869h-2.46l-2.73-8.385h-.08l-2.73 8.385zm-.15-4.272h5.81v1.794h-5.81v-1.794zm7.24-4.703v-1.894h8.93v1.894h-3.33v8.975h-2.27v-8.975h-3.33z" fill="#fff"></path><path d="M880.322 195.6l-11.82-6.824v13.648l11.82-6.824zm-14.406 1.182a1.182 1.182 0 000-2.364v2.364zm9.604-2.364a1.182 1.182 0 100 2.364v-2.364zm-14.405 2.364h4.801v-2.364h-4.801v2.364zm150.695-1.182l-11.815-6.824v13.648l11.815-6.824zm-14.401 1.182a1.182 1.182 0 000-2.364v2.364zm9.601-2.364a1.182 1.182 0 000 2.364v-2.364zm-14.403 2.364h4.802v-2.364h-4.802v2.364zm0 50.823l11.823 6.825v-13.649l-11.823 6.824zm4.802 1.182a1.182 1.182 0 100-2.363v2.363zm9.601-2.363a1.182 1.182 0 000 2.363v-2.363zm0 2.363h4.8v-2.363h-4.8v2.363z" fill="#2ECC71"></path><path d="M1067.07 227.808l5.12-8.865h-10.24l5.12 8.865zm.89-3.325a.89.89 0 00-1.78 0h1.78zm-1.78-6.648a.89.89 0 001.78 0h-1.78zm1.78 0v-3.324h-1.78v3.324h1.78z" fill="#000"></path><path d="M861.41 247.605l11.82 6.825v-13.649l-11.82 6.824zm4.802 1.182a1.182 1.182 0 100-2.363v2.363zm9.603-2.363a1.182 1.182 0 000 2.363v-2.363zm0 2.363h4.802v-2.363h-4.802v2.363zm4.506 52.006l-17.73 10.236v-20.472l17.73 10.236zm-74.464-33.686a1.773 1.773 0 013.546 0h-3.546zm3.546 33.686v-1.773 1.773zm0-29.475a1.773 1.773 0 11-3.546 0h3.546zm-3.546 8.421a1.773 1.773 0 013.546 0h-3.546zm3.546 7.979a1.772 1.772 0 01-3.546 0h3.546zm-3.546 7.535a1.773 1.773 0 113.546 0h-3.546zm3.546 3.767a1.772 1.772 0 11-3.276 1.358l3.276-1.358zm-1.357 3.276a1.773 1.773 0 111.358-3.275l-1.358 3.275zm4.903-3.276a1.773 1.773 0 010 3.546v-3.546zm7.092 3.546a1.773 1.773 0 010-3.546v3.546zm7.092-3.546a1.773 1.773 0 010 3.546v-3.546zm7.091 3.546a1.772 1.772 0 010-3.546v3.546zm7.092-3.546a1.773 1.773 0 010 3.546v-3.546zm7.092 3.546a1.773 1.773 0 010-3.546v3.546zm7.092-3.546a1.773 1.773 0 010 3.546v-3.546zm7.092 3.546a1.773 1.773 0 110-3.546v3.546zm7.091-3.546a1.773 1.773 0 010 3.546v-3.546zm7.092 3.546a1.773 1.773 0 010-3.546v3.546zm-67.372-35.459v4.211h-3.546v-4.211h3.546zm0 12.632v4.211h-3.546v-4.211h3.546zm0 4.211v3.768h-3.546v-3.768h3.546zm0 11.303v3.767h-3.546v-3.767h3.546zm0 3.767l-3.276 1.358a3.549 3.549 0 01-.27-1.358h3.546zm.001.001l-.001-.001v3.546c-.477 0-.937-.095-1.357-.27l1.358-3.275zm-.001-.001h3.546v3.546h-3.546v-3.546zm10.638 0h7.092v3.546h-7.092v-3.546zm14.183 0h7.092v3.546h-7.092v-3.546zm14.184 0h7.092v3.546h-7.092v-3.546zm14.184 0h7.091v3.546h-7.091v-3.546zm-56.144-124.105l-10.236-17.73h20.472l-10.236 17.73zm1.773-22.458v-1.773 1.773zm126.47 0v1.773-1.773zm3.546-60.54a1.773 1.773 0 01-3.546 0h3.546zm-3.546 7.836a1.773 1.773 0 013.546 0h-3.546zm3.546 7.836a1.773 1.773 0 01-3.546 0h3.546zm-3.546 7.835a1.773 1.773 0 013.546 0h-3.546zm3.546 7.836a1.773 1.773 0 01-3.546 0h3.546zm-3.546 7.835a1.772 1.772 0 013.546 0h-3.546zm3.546 7.836a1.773 1.773 0 01-3.546 0h3.546zm-3.546 7.836a1.773 1.773 0 113.546 0h-3.546zm3.276 5.275a1.773 1.773 0 11-3.275-1.358l3.275 1.358zm-3.276-1.357a1.772 1.772 0 111.358 3.275l-1.358-3.275zm-3.513 3.545a1.773 1.773 0 010-3.546v3.546zm-7.026-3.546a1.773 1.773 0 010 3.546v-3.546zm-7.026 3.546a1.773 1.773 0 010-3.546v3.546zm-7.026-3.546a1.773 1.773 0 010 3.546v-3.546zm-7.026 3.546a1.773 1.773 0 110-3.546v3.546zm-7.026-3.546a1.772 1.772 0 010 3.546v-3.546zm-7.027 3.546a1.773 1.773 0 010-3.546v3.546zm-7.026-3.546a1.773 1.773 0 010 3.546v-3.546zm-7.026 3.546a1.773 1.773 0 010-3.546v3.546zm-7.026-3.546a1.773 1.773 0 010 3.546v-3.546zm-7.026 3.546a1.773 1.773 0 010-3.546v3.546zm-7.026-3.546a1.773 1.773 0 010 3.546v-3.546zm-7.026 3.546a1.773 1.773 0 010-3.546v3.546zm-7.026-3.546a1.773 1.773 0 010 3.546v-3.546zm-7.026 3.546a1.773 1.773 0 110-3.546v3.546zm-7.027-3.546a1.773 1.773 0 110 3.546v-3.546zm-7.026 3.546a1.773 1.773 0 010-3.546v3.546zm-7.026-3.546a1.773 1.773 0 010 3.546v-3.546zm-3.512 3.546a1.774 1.774 0 01-1.359-3.276l1.359 3.276zm-3.277-1.358a1.773 1.773 0 013.275 1.359l-3.275-1.359zm3.276 6.529a1.773 1.773 0 01-3.546 0h3.546zm-3.546 10.342a1.772 1.772 0 013.546 0h-3.546zM938.237 88v3.918h-3.546V88h3.546zm0 11.753v7.836h-3.546v-7.836h3.546zm0 15.671v7.836h-3.546v-7.836h3.546zm0 15.671v7.836h-3.546v-7.836h3.546zm0 15.672v3.917h-3.546v-3.917h3.546zm0 3.917c0 .478-.095.938-.27 1.358l-3.275-1.358h-.001 3.546zm-2.188 3.276a3.53 3.53 0 01-1.358.27v-3.546.001l1.358 3.275zm-1.358.27h-3.513v-3.546h3.513v3.546zm-10.539 0h-7.026v-3.546h7.026v3.546zm-14.052 0h-7.026v-3.546h7.026v3.546zm-14.052 0h-7.027v-3.546h7.027v3.546zm-14.053 0h-7.026v-3.546h7.026v3.546zm-14.052 0h-7.026v-3.546h7.026v3.546zm-14.052 0h-7.026v-3.546h7.026v3.546zm-14.052 0h-7.026v-3.546h7.026v3.546zm-14.053 0h-7.026v-3.546h7.026v3.546zm-14.052 0h-3.513v-3.546h3.513v3.546zm-3.513 0h.001l-1.359-3.276c.421-.174.881-.27 1.358-.27v3.546zm-.001.001l.001-.001h-3.546c0-.477.096-.937.27-1.358l3.275 1.359zm.001-.001v5.171h-3.546v-5.171h3.546zM936.464 387l10.236-17.729h-20.472L936.464 387zm1.773-3.424a1.773 1.773 0 10-3.546 0h3.546zm-3.546-6.848a1.773 1.773 0 103.546 0h-3.546zm3.546-6.847a1.772 1.772 0 10-3.546 0h3.546zm-3.546-6.848a1.773 1.773 0 003.546 0h-3.546zm3.546-6.848a1.773 1.773 0 10-3.546 0h3.546zm-3.546-6.848a1.773 1.773 0 103.546 0h-3.546zm3.546-6.847a1.773 1.773 0 10-3.546 0h3.546zm-3.546-6.848a1.773 1.773 0 003.546 0h-3.546zm3.546-6.848a1.773 1.773 0 10-3.546 0h3.546zm-3.546-6.847a1.772 1.772 0 003.546 0h-3.546zm3.546 54.781v-6.847h-3.546v6.847h3.546zm0-13.695v-6.848h-3.546v6.848h3.546zm0-13.696v-6.847h-3.546v6.847h3.546zm0-13.695v-6.848h-3.546v6.848h3.546zm0-13.695v-3.424h-3.546v3.424h3.546z" fill="#2ECC71"></path><path d="M1054.97 320.364c0 2.538-.48 4.697-1.45 6.477-.95 1.78-2.25 3.14-3.9 4.079-1.65.932-3.5 1.398-5.55 1.398-2.07 0-3.92-.47-5.57-1.409-1.64-.939-2.94-2.299-3.9-4.079-.95-1.781-1.43-3.936-1.43-6.466 0-2.538.48-4.697 1.43-6.478.96-1.78 2.26-3.136 3.9-4.068 1.65-.939 3.5-1.409 5.57-1.409 2.05 0 3.9.47 5.55 1.409 1.65.932 2.95 2.288 3.9 4.068.97 1.781 1.45 3.94 1.45 6.478zm-4.99 0c0-1.644-.25-3.031-.74-4.159-.48-1.129-1.17-1.985-2.06-2.569-.88-.583-1.92-.875-3.11-.875s-2.23.292-3.11.875c-.89.584-1.58 1.44-2.07 2.569-.49 1.128-.73 2.515-.73 4.159 0 1.644.24 3.03.73 4.159s1.18 1.985 2.07 2.568c.88.583 1.92.875 3.11.875s2.23-.292 3.11-.875c.89-.583 1.58-1.439 2.06-2.568.49-1.129.74-2.515.74-4.159zm22.53-11.637h4.92v15.114c0 1.697-.4 3.182-1.21 4.454-.81 1.273-1.93 2.266-3.38 2.978-1.45.704-3.13 1.057-5.06 1.057-1.93 0-3.62-.353-5.06-1.057-1.45-.712-2.58-1.705-3.38-2.978-.8-1.272-1.2-2.757-1.2-4.454v-15.114h4.92v14.693c0 .887.19 1.675.58 2.364.39.689.94 1.231 1.66 1.625.71.394 1.54.591 2.48.591.96 0 1.79-.197 2.49-.591a4.13 4.13 0 001.65-1.625c.4-.689.59-1.477.59-2.364v-14.693zm7.61 4.057v-4.057h19.11v4.057h-7.12V332h-4.87v-19.216h-7.12zM1101.9 332v-23.273h9.19c1.76 0 3.26.337 4.51 1.012 1.24.666 2.19 1.594 2.84 2.784.66 1.182.99 2.545.99 4.091 0 1.545-.34 2.909-1 4.091-.67 1.181-1.64 2.102-2.9 2.761-1.26.659-2.78.989-4.57.989h-5.85v-3.944h5.06c.94 0 1.72-.163 2.34-.488.62-.334 1.08-.792 1.38-1.375.31-.591.47-1.269.47-2.034 0-.773-.16-1.447-.47-2.023-.3-.583-.76-1.034-1.38-1.352-.63-.326-1.41-.489-2.37-.489h-3.32V332h-4.92zm34.62-23.273h4.92v15.114c0 1.697-.4 3.182-1.21 4.454-.81 1.273-1.93 2.266-3.38 2.978-1.45.704-3.13 1.057-5.06 1.057-1.93 0-3.62-.353-5.06-1.057-1.45-.712-2.58-1.705-3.38-2.978-.8-1.272-1.2-2.757-1.2-4.454v-15.114h4.92v14.693c0 .887.19 1.675.58 2.364.39.689.94 1.231 1.66 1.625.71.394 1.54.591 2.48.591.96 0 1.79-.197 2.49-.591a4.13 4.13 0 001.65-1.625c.39-.689.59-1.477.59-2.364v-14.693zm7.61 4.057v-4.057h19.11v4.057h-7.12V332h-4.87v-19.216h-7.12z" fill="#000"></path><ellipse cx="248.137" cy="766.781" rx="194.137" ry="110.218" fill="#F5FAFF"></ellipse><rect x="110.734" y="701.478" width="112.286" height="37.823" rx="2.364" fill="#7F7F7F"></rect><path d="M150.312 724.933v-10.87h4.289c.821 0 1.521.147 2.101.44a3.065 3.065 0 011.333 1.237c.307.531.461 1.155.461 1.874 0 .721-.155 1.342-.467 1.863-.311.516-.762.912-1.353 1.188-.587.276-1.299.414-2.134.414h-2.871v-1.847h2.5c.439 0 .803-.06 1.093-.18.29-.12.506-.301.648-.541.145-.241.217-.54.217-.897 0-.361-.072-.666-.217-.913a1.337 1.337 0 00-.653-.563c-.29-.131-.657-.196-1.099-.196h-1.55v8.991h-2.298zm5.87-4.947l2.702 4.947h-2.537l-2.643-4.947h2.478zm5.336 4.947h-2.463l3.753-10.87h2.961l3.747 10.87h-2.462l-2.723-8.386h-.085l-2.728 8.386zm-.154-4.273h5.817v1.794h-5.817v-1.794zm10.337 4.273l-3.11-10.87h2.51l1.799 7.552h.091l1.985-7.552h2.149l1.98 7.568h.095l1.8-7.568h2.51l-3.11 10.87h-2.24l-2.07-7.107h-.085l-2.064 7.107h-2.24z" fill="#fff"></path><rect x="273.254" y="701.478" width="112.286" height="37.823" rx="2.364" fill="#7F7F7F"></rect><path d="M313.764 724.933h-3.853v-10.87h3.885c1.094 0 2.035.217 2.824.653a4.392 4.392 0 011.82 1.863c.428.81.642 1.779.642 2.908 0 1.132-.214 2.105-.642 2.919a4.41 4.41 0 01-1.831 1.874c-.792.435-1.741.653-2.845.653zm-1.555-1.969h1.46c.679 0 1.251-.121 1.714-.361a2.328 2.328 0 001.051-1.131c.237-.513.356-1.175.356-1.985 0-.803-.119-1.459-.356-1.969-.234-.509-.582-.885-1.046-1.125-.463-.241-1.035-.361-1.714-.361h-1.465v6.932zm17.192-8.901v10.87h-1.985l-4.729-6.842h-.08v6.842h-2.298v-10.87h2.017l4.692 6.836h.095v-6.836h2.288zm3.296 10.87h-2.463l3.753-10.87h2.961l3.747 10.87h-2.462l-2.723-8.386h-.085l-2.728 8.386zm-.154-4.273h5.817v1.794h-5.817v-1.794zm7.242-4.702v-1.895h8.928v1.895h-3.328v8.975h-2.272v-8.975h-3.328z" fill="#fff"></path><rect x="110.734" y="794.262" width="112.286" height="37.823" rx="2.364" fill="#F39800"></rect><path d="M166.448 810.653h-2.324a2.287 2.287 0 00-.26-.802 2.028 2.028 0 00-.505-.605 2.211 2.211 0 00-.711-.382 2.7 2.7 0 00-.865-.133c-.562 0-1.052.14-1.47.419-.418.276-.741.68-.971 1.211-.23.527-.345 1.167-.345 1.921 0 .775.115 1.426.345 1.953.233.527.559.925.976 1.194.418.269.901.404 1.449.404.308 0 .593-.041.855-.122.265-.082.5-.2.706-.356.205-.159.375-.352.509-.579.138-.226.234-.484.287-.774l2.324.01a4.332 4.332 0 01-1.411 2.68c-.4.361-.878.648-1.433.86-.552.209-1.177.313-1.874.313-.969 0-1.836-.219-2.601-.658-.76-.438-1.362-1.074-1.804-1.905-.439-.832-.658-1.838-.658-3.02 0-1.185.223-2.194.668-3.025.446-.832 1.051-1.465 1.816-1.9.764-.439 1.624-.659 2.579-.659.63 0 1.214.089 1.752.266.541.177 1.02.435 1.438.775.417.336.757.748 1.019 1.236.265.489.435 1.048.509 1.678zm.758-1.911v-1.895h8.928v1.895h-3.328v8.975h-2.272v-8.975h-3.328z" fill="#fff"></path><rect x="273.254" y="794.262" width="112.286" height="37.823" rx="2.364" fill="#7F7F7F"></rect><path d="M298.517 806.847h2.835l2.993 7.303h.127l2.994-7.303h2.834v10.87h-2.229v-7.075h-.09l-2.813 7.022h-1.518l-2.813-7.049h-.09v7.102h-2.23v-10.87zm15.074 10.87h-2.463l3.753-10.87h2.961l3.747 10.87h-2.462l-2.723-8.386h-.085l-2.728 8.386zm-.154-4.273h5.817v1.794h-5.817v-1.794zm18.076-6.597v10.87h-1.985l-4.728-6.842h-.08v6.842h-2.298v-10.87h2.017l4.691 6.836h.096v-6.836h2.287zm8.631 3.514a2.378 2.378 0 00-.313-.685 2.116 2.116 0 00-1.152-.833 2.758 2.758 0 00-.812-.112c-.556 0-1.044.138-1.465.414-.417.276-.743.678-.977 1.205-.233.524-.35 1.164-.35 1.921 0 .758.115 1.401.345 1.932.23.531.556.936.977 1.216.421.276.918.414 1.491.414.52 0 .964-.092 1.332-.276.372-.188.655-.451.85-.791.198-.34.297-.741.297-1.205l.467.069h-2.803v-1.73h4.549v1.369c0 .955-.202 1.776-.605 2.463a4.115 4.115 0 01-1.667 1.581c-.707.368-1.518.552-2.43.552-1.019 0-1.915-.224-2.686-.674a4.686 4.686 0 01-1.805-1.926c-.428-.835-.642-1.826-.642-2.972 0-.882.128-1.667.382-2.357a5.047 5.047 0 011.083-1.762 4.682 4.682 0 011.619-1.099 5.252 5.252 0 012.001-.377c.615 0 1.189.091 1.719.271a4.567 4.567 0 011.412.754 4.08 4.08 0 011.014 1.162c.262.446.43.938.504 1.476h-2.335zm3.686 7.356v-10.87h2.298v8.975h4.66v1.895h-6.958zm8.004 0v-10.87h7.325v1.895h-5.027v2.59h4.65v1.895h-4.65v2.595h5.048v1.895h-7.346z" fill="#fff"></path><path d="M273.254 813.174l-17.73-10.236v20.472l17.73-10.236zm-47.094 1.773a1.773 1.773 0 000-3.546v3.546zm6.279-3.546a1.773 1.773 0 000 3.546v-3.546zm6.279 3.546a1.773 1.773 0 100-3.546v3.546zm6.28-3.546a1.773 1.773 0 100 3.546v-3.546zm6.279 3.546a1.773 1.773 0 000-3.546v3.546zm6.279-3.546a1.773 1.773 0 000 3.546v-3.546zm6.279 3.546a1.773 1.773 0 000-3.546v3.546zm6.279-3.546a1.773 1.773 0 000 3.546v-3.546zm-47.093 3.546h3.139v-3.546h-3.139v3.546zm9.418 0h6.279v-3.546h-6.279v3.546zm12.559 0h6.279v-3.546h-6.279v3.546zm12.558 0h6.279v-3.546h-6.279v3.546zm-146.822-93.376l-17.73-10.236v20.472l17.73-10.236zm-33.095 43.733h1.773-1.773zm0-41.96h-1.773 1.773zM20.68 768.85a1.773 1.773 0 000-3.546v3.546zm7.358-3.546a1.773 1.773 0 000 3.546v-3.546zm7.359 3.546a1.773 1.773 0 000-3.546v3.546zm7.358-3.546a1.773 1.773 0 000 3.546v-3.546zm7.358 3.546a1.773 1.773 0 000-3.546v3.546zm7.359-3.546a1.773 1.773 0 000 3.546v-3.546zm7.358 3.546a1.773 1.773 0 000-3.546v3.546zm7.358-3.546a1.773 1.773 0 000 3.546v-3.546zm5.037 3.276a1.773 1.773 0 10-1.358-3.275l1.358 3.275zm-1.357-3.277a1.773 1.773 0 003.275 1.359l-3.275-1.359zm3.545-3.496a1.773 1.773 0 00-3.546 0h3.546zm-3.546-6.993a1.773 1.773 0 003.546 0h-3.546zm3.546-6.993a1.773 1.773 0 00-3.546 0h3.546zm-3.546-6.994a1.772 1.772 0 103.546 0h-3.546zm3.546-6.993a1.773 1.773 0 00-3.546 0h3.546zm-3.546-6.993a1.773 1.773 0 003.546 0h-3.546zm3.546-3.496a1.773 1.773 0 00-3.276-1.359l3.276 1.359zm-1.358-3.277a1.773 1.773 0 101.359 3.276l-1.359-3.276zm5.273 3.276a1.773 1.773 0 000-3.546v3.546zm7.83-3.546a1.773 1.773 0 000 3.546v-3.546zm7.831 3.546a1.773 1.773 0 000-3.546v3.546zm7.831-3.546a1.773 1.773 0 000 3.546v-3.546zM17 768.85h3.68v-3.546H17v3.546zm11.037 0h7.359v-3.546h-7.359v3.546zm14.717 0h7.358v-3.546h-7.358v3.546zm14.717 0h7.358v-3.546H57.47v3.546zm14.716 0h3.68v-3.546h-3.68v3.546zm3.68 0c.477 0 .936-.096 1.357-.27l-1.358-3.275v-.001 3.546zm3.275-2.188c.175-.421.27-.881.27-1.358h-3.546l.001-.001 3.275 1.359zm.27-1.358v-3.497h-3.546v3.497h3.546zm0-10.49v-6.993h-3.546v6.993h3.546zm0-13.987v-6.993h-3.546v6.993h3.546zm0-13.986v-3.497h-3.546v3.497h3.546zm0-3.497v.001l-3.276-1.359c-.174.421-.27.881-.27 1.358h3.546zm0 0v-3.546c-.477 0-.937.096-1.358.27l1.359 3.276zm0 0h3.915v-3.546h-3.915v3.546zm11.746 0h7.83v-3.546h-7.83v3.546zM329.397 739.3l-10.236 17.73h20.473l-10.237-17.73zm1.773 51.527a1.772 1.772 0 10-3.545 0h3.545zm-3.545-6.871a1.772 1.772 0 103.545 0h-3.545zm3.545-6.87a1.773 1.773 0 10-3.545 0h3.545zm-3.545-6.87a1.772 1.772 0 103.545 0h-3.545zm3.545-6.87a1.773 1.773 0 10-3.545 0h3.545zm-3.545-6.87a1.772 1.772 0 103.545 0h-3.545zm3.545-6.87a1.773 1.773 0 10-3.545 0h3.545zm-3.545-6.87a1.773 1.773 0 003.545 0h-3.545zm3.545 51.526v-3.435h-3.545v3.435h3.545zm0-10.306v-6.87h-3.545v6.87h3.545zm0-13.74v-6.87h-3.545v6.87h3.545zm0-13.74v-6.87h-3.545v6.87h3.545zm-164.884 37.786l10.236-17.73H156.05l10.236 17.73zm1.773-3.435a1.773 1.773 0 10-3.546 0h3.546zm-3.546-6.871a1.773 1.773 0 103.546 0h-3.546zm3.546-6.87a1.773 1.773 0 00-3.546 0h3.546zm-3.546-6.87a1.773 1.773 0 003.546 0h-3.546zm3.546-6.87a1.773 1.773 0 00-3.546 0h3.546zm-3.546-6.87a1.773 1.773 0 003.546 0h-3.546zm3.546-6.87a1.773 1.773 0 00-3.546 0h3.546zm-3.546-6.87a1.774 1.774 0 003.546 0h-3.546zm3.546 41.22v-6.87h-3.546v6.87h3.546zm0-13.74v-6.87h-3.546v6.87h3.546zm0-13.74v-6.87h-3.546v6.87h3.546zm0-13.74V739.3h-3.546v3.436h3.546zM248.433 619l-10.236 17.729h20.472L248.433 619zm-1.773 3.558a1.773 1.773 0 103.546 0h-3.546zm3.546 7.115a1.773 1.773 0 00-3.546 0h3.546zm-3.546 7.116a1.773 1.773 0 103.546 0h-3.546zm3.546 7.115a1.773 1.773 0 00-3.546 0h3.546zm-3.546 7.116a1.773 1.773 0 103.546 0h-3.546zm3.546 7.115a1.773 1.773 0 00-3.546 0h3.546zm-3.546 7.116a1.772 1.772 0 003.546 0h-3.546zm3.546 7.115a1.773 1.773 0 00-3.546 0h3.546zm-3.546 7.115a1.772 1.772 0 103.546 0h-3.546zm3.546 7.116a1.773 1.773 0 00-3.546 0h3.546zm-3.546 7.115a1.772 1.772 0 103.546 0h-3.546zm3.546 7.116a1.773 1.773 0 00-3.546 0h3.546zm-3.546 7.115a1.773 1.773 0 103.546 0h-3.546zm3.546 7.116a1.773 1.773 0 00-3.546 0h3.546zm-3.277 4.915a1.773 1.773 0 003.276-1.358l-3.276 1.358zm3.277-1.357a1.773 1.773 0 10-1.358 3.276l1.358-3.276zm2.881 3.545a1.773 1.773 0 100-3.546v3.546zm5.762-3.546a1.773 1.773 0 100 3.546v-3.546zm5.762 3.546a1.773 1.773 0 100-3.546v3.546zm5.762-3.546a1.773 1.773 0 000 3.546v-3.546zm-23.713-88.943v7.116h3.546v-7.116h-3.546zm0 14.231v7.116h3.546v-7.116h-3.546zm0 14.231v7.116h3.546v-7.116h-3.546zm0 14.231v7.115h3.546v-7.115h-3.546zm0 14.231v7.115h3.546v-7.115h-3.546zm0 14.231v7.115h3.546v-7.115h-3.546zm0 14.231v3.557h3.546v-3.557h-3.546zm0 3.557c0 .478.095.938.269 1.358l3.276-1.358h.001-3.546zm2.188 3.277c.42.174.88.269 1.358.269v-3.546.001l-1.358 3.276zm1.358.269h2.881v-3.546h-2.881v3.546zm8.643 0h5.762v-3.546h-5.762v3.546zm11.524 0h2.881v-3.546h-2.881v3.546z" fill="#2ECC71"></path><path d="M331.325 681v-23.273h9.181c1.765 0 3.269.337 4.512 1.012 1.242.666 2.189 1.594 2.841 2.784.659 1.182.988 2.545.988 4.091 0 1.545-.333 2.909-1 4.091-.666 1.181-1.632 2.102-2.897 2.761-1.258.659-2.781.989-4.569.989h-5.852v-3.944h5.057c.947 0 1.727-.163 2.341-.488.621-.334 1.083-.792 1.386-1.375.311-.591.466-1.269.466-2.034 0-.773-.155-1.447-.466-2.023-.303-.583-.765-1.034-1.386-1.352-.621-.326-1.409-.489-2.364-.489h-3.318V681h-4.92zm20.242 0v-23.273h9.182c1.758 0 3.258.315 4.5.943 1.25.622 2.201 1.504 2.852 2.648.659 1.137.989 2.474.989 4.012 0 1.545-.333 2.875-1 3.988-.667 1.106-1.633 1.955-2.898 2.546-1.257.591-2.78.886-4.568.886h-6.148v-3.955h5.353c.939 0 1.719-.128 2.341-.386.621-.257 1.083-.644 1.386-1.159.311-.515.466-1.155.466-1.92 0-.773-.155-1.425-.466-1.955-.303-.53-.769-.932-1.398-1.205-.621-.28-1.405-.42-2.352-.42h-3.318V681h-4.921zm12.568-10.591L369.92 681h-5.432l-5.659-10.591h5.306zM372.091 681v-23.273h15.682v4.057h-10.761v5.546h9.954v4.056h-9.954v5.557h10.807V681h-15.728zm32.357 0v3.67h-15.284V681h15.284zm1.535 0v-23.273h9.182c1.757 0 3.257.315 4.5.943 1.25.622 2.201 1.504 2.852 2.648.659 1.137.989 2.474.989 4.012 0 1.545-.334 2.875-1 3.988-.667 1.106-1.633 1.955-2.898 2.546-1.257.591-2.78.886-4.568.886h-6.148v-3.955h5.352c.94 0 1.72-.128 2.341-.386.622-.257 1.084-.644 1.387-1.159.31-.515.466-1.155.466-1.92 0-.773-.156-1.425-.466-1.955-.303-.53-.769-.932-1.398-1.205-.621-.28-1.405-.42-2.352-.42h-3.318V681h-4.921zm12.568-10.591L424.335 681h-5.431l-5.66-10.591h5.307zm29.342-1.045c0 2.538-.481 4.697-1.443 6.477-.954 1.78-2.257 3.14-3.909 4.079-1.644.932-3.492 1.398-5.545 1.398-2.068 0-3.925-.47-5.568-1.409-1.644-.939-2.944-2.299-3.898-4.079-.955-1.781-1.432-3.936-1.432-6.466 0-2.538.477-4.697 1.432-6.478.954-1.78 2.254-3.136 3.898-4.068 1.643-.939 3.5-1.409 5.568-1.409 2.053 0 3.901.47 5.545 1.409 1.652.932 2.955 2.288 3.909 4.068.962 1.781 1.443 3.94 1.443 6.478zm-4.988 0c0-1.644-.246-3.031-.739-4.159-.485-1.129-1.17-1.985-2.057-2.569-.886-.583-1.924-.875-3.113-.875-1.19 0-2.228.292-3.114.875-.886.584-1.576 1.44-2.068 2.569-.485 1.128-.727 2.515-.727 4.159 0 1.644.242 3.03.727 4.159.492 1.129 1.182 1.985 2.068 2.568.886.583 1.924.875 3.114.875 1.189 0 2.227-.292 3.113-.875.887-.583 1.572-1.439 2.057-2.568.493-1.129.739-2.515.739-4.159zm22.532-11.637h4.921v15.114c0 1.697-.405 3.182-1.216 4.454-.803 1.273-1.928 2.266-3.375 2.978-1.447.704-3.133 1.057-5.057 1.057-1.932 0-3.621-.353-5.068-1.057-1.447-.712-2.572-1.705-3.375-2.978-.803-1.272-1.205-2.757-1.205-4.454v-15.114h4.921v14.693c0 .887.193 1.675.579 2.364a4.23 4.23 0 001.659 1.625c.713.394 1.542.591 2.489.591.955 0 1.784-.197 2.489-.591a4.147 4.147 0 001.647-1.625c.394-.689.591-1.477.591-2.364v-14.693zm7.607 4.057v-4.057h19.113v4.057h-7.125V681h-4.863v-19.216h-7.125zm26.706-4.057V681h-4.921v-23.273h4.921zm23.038 0V681h-4.25l-10.125-14.648h-.171V681h-4.92v-23.273h4.318l10.046 14.637h.204v-14.637h4.898zm19.021 7.523a5.12 5.12 0 00-.67-1.466 4.158 4.158 0 00-1.057-1.091 4.532 4.532 0 00-1.409-.693 5.964 5.964 0 00-1.739-.239c-1.189 0-2.235.296-3.136.887-.894.591-1.591 1.45-2.091 2.579-.5 1.121-.75 2.493-.75 4.114s.246 3 .738 4.136c.493 1.137 1.19 2.004 2.091 2.603.902.59 1.966.886 3.193.886 1.114 0 2.065-.197 2.853-.591.795-.402 1.401-.966 1.818-1.693.424-.727.636-1.587.636-2.58l1 .148h-6v-3.705h9.739v2.932c0 2.046-.432 3.803-1.296 5.273a8.823 8.823 0 01-3.568 3.386c-1.515.788-3.25 1.182-5.204 1.182-2.182 0-4.099-.481-5.75-1.443-1.652-.97-2.94-2.345-3.864-4.125-.917-1.788-1.375-3.909-1.375-6.364 0-1.886.273-3.568.818-5.045.553-1.485 1.326-2.743 2.318-3.773a10.03 10.03 0 013.466-2.352c1.319-.538 2.747-.807 4.284-.807 1.319 0 2.546.193 3.682.58a9.786 9.786 0 013.023 1.613 8.735 8.735 0 012.17 2.489 8.441 8.441 0 011.08 3.159h-5z" fill="#000"></path><ellipse cx="592.153" cy="503.205" rx="194.137" ry="110.218" fill="#E6E6E6"></ellipse><rect x="454.75" y="437.901" width="112.286" height="37.823" rx="2.364" fill="#7F7F7F"></rect><path d="M480.013 450.487h2.834l2.993 7.303h.128l2.993-7.303h2.834v10.869h-2.229v-7.074h-.09l-2.813 7.021h-1.518l-2.813-7.048h-.09v7.101h-2.229v-10.869zm15.073 10.869h-2.463l3.753-10.869h2.961l3.748 10.869h-2.463l-2.723-8.385h-.085l-2.728 8.385zm-.154-4.272h5.817v1.794h-5.817v-1.794zm18.077-6.597v10.869h-1.985l-4.729-6.841h-.08v6.841h-2.298v-10.869h2.017l4.692 6.836h.095v-6.836h2.288zm8.63 3.513a2.385 2.385 0 00-.313-.684 1.934 1.934 0 00-.494-.51 2.14 2.14 0 00-.658-.324 2.792 2.792 0 00-.812-.111c-.555 0-1.044.138-1.465.414-.417.276-.743.677-.976 1.205-.234.523-.351 1.164-.351 1.921 0 .757.115 1.401.345 1.932.23.531.556.936.977 1.215.421.276.918.414 1.491.414.52 0 .964-.092 1.332-.276.372-.187.655-.451.85-.791.198-.339.297-.741.297-1.204l.467.069h-2.802v-1.731h4.548v1.37c0 .955-.202 1.776-.605 2.462a4.12 4.12 0 01-1.666 1.582c-.708.368-1.518.552-2.431.552-1.019 0-1.915-.225-2.686-.674a4.673 4.673 0 01-1.804-1.927c-.429-.835-.643-1.825-.643-2.972 0-.881.128-1.666.382-2.356a5.047 5.047 0 011.083-1.762 4.668 4.668 0 011.619-1.099 5.252 5.252 0 012.001-.377c.616 0 1.189.09 1.72.271.53.177 1.001.428 1.411.753.414.326.752.713 1.014 1.163.262.446.43.937.504 1.475h-2.335zm3.686 7.356v-10.869h2.299v8.975h4.66v1.894h-6.959zm8.004 0v-10.869h7.325v1.894h-5.026v2.591h4.649v1.894h-4.649v2.596h5.047v1.894h-7.346z" fill="#fff"></path><rect x="454.75" y="530.686" width="112.286" height="37.823" rx="2.364" fill="#7F7F7F"></rect><path d="M488.233 554.141v-10.87h7.197v1.895h-4.899v2.59h4.421v1.894h-4.421v4.491h-2.298zm10.565-10.87v10.87H496.5v-10.87h2.298zm1.415 10.87v-10.87h2.298v8.975h4.66v1.895h-6.958zm6.233-8.975v-1.895h8.927v1.895h-3.328v8.975h-2.272v-8.975h-3.327zm9.921 8.975v-10.87h7.324v1.895h-5.026v2.59h4.649v1.894h-4.649v2.596h5.048v1.895h-7.346zm8.675 0v-10.87h4.289c.821 0 1.521.147 2.102.44a3.062 3.062 0 011.332 1.237c.308.531.462 1.155.462 1.874 0 .721-.156 1.342-.467 1.863-.312.516-.763.912-1.354 1.188-.587.276-1.298.414-2.133.414h-2.872v-1.847h2.5c.439 0 .803-.06 1.093-.18.29-.12.506-.301.648-.541.145-.241.217-.54.217-.897 0-.361-.072-.666-.217-.913a1.333 1.333 0 00-.653-.563c-.29-.131-.656-.196-1.099-.196h-1.549v8.991h-2.299zm5.871-4.947l2.701 4.947h-2.537l-2.643-4.947h2.479z" fill="#fff"></path><rect x="617.27" y="530.686" width="112.286" height="37.823" rx="2.364" fill="#7F7F7F"></rect><path d="M643.676 546.397c-.042-.428-.225-.761-.547-.998-.322-.237-.759-.355-1.311-.355-.375 0-.691.053-.95.159a1.333 1.333 0 00-.594.43 1.03 1.03 0 00-.202.626.901.901 0 00.122.51c.092.145.218.27.377.376.159.103.343.193.552.271.209.074.432.138.669.191l.976.234c.475.106.91.247 1.306.424s.74.395 1.03.653c.29.258.515.563.674.913.163.35.246.752.249 1.205-.003.665-.173 1.242-.509 1.73-.333.485-.814.862-1.444 1.13-.626.266-1.382.399-2.266.399-.878 0-1.642-.135-2.293-.404-.648-.269-1.154-.667-1.518-1.194-.361-.531-.55-1.187-.568-1.969h2.224c.025.364.129.669.313.913.188.24.437.423.748.546.315.121.671.181 1.067.181a2.76 2.76 0 001.014-.17c.29-.113.515-.271.674-.472.159-.202.239-.434.239-.696a.902.902 0 00-.218-.615c-.141-.167-.35-.308-.626-.425a6.285 6.285 0 00-1.003-.318l-1.184-.298c-.916-.222-1.64-.571-2.17-1.045-.531-.474-.795-1.113-.791-1.916-.004-.658.171-1.233.525-1.725.358-.492.848-.876 1.47-1.152.623-.276 1.331-.414 2.123-.414.807 0 1.511.138 2.113.414.605.276 1.075.66 1.411 1.152.337.492.51 1.061.521 1.709h-2.203zm3.421 7.744v-10.87h7.324v1.895h-5.026v2.59h4.65v1.894h-4.65v2.596h5.048v1.895h-7.346zm18.266-7.065h-2.325a2.262 2.262 0 00-.26-.801 2.025 2.025 0 00-.504-.605 2.211 2.211 0 00-.711-.382 2.704 2.704 0 00-.865-.133c-.563 0-1.053.14-1.47.419-.418.276-.742.68-.972 1.21-.23.528-.345 1.168-.345 1.922 0 .775.115 1.426.345 1.953.234.527.559.925.977 1.194.418.269.901.403 1.449.403.308 0 .593-.04.854-.122.266-.081.501-.2.706-.355.206-.159.375-.352.51-.579.138-.226.233-.484.286-.775l2.325.011a4.318 4.318 0 01-1.412 2.68 4.5 4.5 0 01-1.433.86c-.552.209-1.176.313-1.873.313-.97 0-1.837-.219-2.601-.658-.761-.439-1.362-1.074-1.804-1.905-.439-.832-.659-1.838-.659-3.02 0-1.186.223-2.194.669-3.026.446-.831 1.051-1.464 1.815-1.9.765-.438 1.624-.658 2.58-.658.63 0 1.213.089 1.751.266a4.438 4.438 0 011.439.775c.417.336.757.748 1.019 1.236.265.488.435 1.048.509 1.677zm7.886-3.805h2.298v7.059c0 .792-.189 1.486-.568 2.08-.375.595-.9 1.058-1.576 1.391-.676.329-1.463.494-2.362.494-.902 0-1.691-.165-2.367-.494-.676-.333-1.201-.796-1.576-1.391-.375-.594-.563-1.288-.563-2.08v-7.059h2.298v6.862c0 .414.091.782.271 1.104.184.322.442.575.775.759.332.184.72.276 1.162.276.446 0 .834-.092 1.163-.276.332-.184.589-.437.769-.759.184-.322.276-.69.276-1.104v-6.862zm3.713 10.87v-10.87h4.289c.82 0 1.521.147 2.101.44a3.065 3.065 0 011.333 1.237c.307.531.461 1.155.461 1.874 0 .721-.155 1.342-.467 1.863-.311.516-.762.912-1.353 1.188-.588.276-1.299.414-2.134.414h-2.871v-1.847h2.5c.438 0 .803-.06 1.093-.18.29-.12.506-.301.648-.541.145-.241.217-.54.217-.897 0-.361-.072-.666-.217-.913a1.337 1.337 0 00-.653-.563c-.29-.131-.657-.196-1.099-.196h-1.55v8.991h-2.298zm5.87-4.947l2.702 4.947h-2.537l-2.643-4.947h2.478zm5.761-5.923v10.87h-2.299v-10.87h2.299zm1 1.895v-1.895h8.928v1.895h-3.328v8.975h-2.272v-8.975h-3.328zm9.285-1.895h2.574l2.479 4.681h.106l2.478-4.681h2.574l-3.964 7.027v3.843h-2.282v-3.843l-3.965-7.027z" fill="#fff"></path><path d="M617.27 549.598l-17.73-10.236v20.472l17.73-10.236zm-47.094 1.773a1.773 1.773 0 000-3.546v3.546zm6.279-3.546a1.773 1.773 0 100 3.546v-3.546zm6.279 3.546a1.773 1.773 0 000-3.546v3.546zm6.279-3.546a1.773 1.773 0 100 3.546v-3.546zm6.279 3.546a1.773 1.773 0 100-3.546v3.546zm6.28-3.546a1.772 1.772 0 100 3.546v-3.546zm6.279 3.546a1.773 1.773 0 000-3.546v3.546zm6.279-3.546a1.773 1.773 0 100 3.546v-3.546zm-47.094 3.546h3.14v-3.546h-3.14v3.546zm9.419 0h6.279v-3.546h-6.279v3.546zm12.558 0h6.279v-3.546h-6.279v3.546zm12.559 0h6.279v-3.546h-6.279v3.546zm-147.413-93.376l-17.73-10.236v20.472l17.73-10.236zm-32.504 43.733h1.773-1.773zm0-41.96h-1.773 1.773zm-56.975 45.506a1.773 1.773 0 000-3.546v3.546zm7.36-3.546a1.773 1.773 0 100 3.546v-3.546zm7.361 3.546a1.773 1.773 0 000-3.546v3.546zm7.36-3.546a1.773 1.773 0 100 3.546v-3.546zm7.36 3.546a1.773 1.773 0 000-3.546v3.546zm7.36-3.546a1.773 1.773 0 100 3.546v-3.546zm7.361 3.546a1.772 1.772 0 000-3.546v3.546zm7.36-3.546a1.773 1.773 0 100 3.546v-3.546zm5.038 3.276a1.773 1.773 0 00-1.359-3.276l1.359 3.276zm-1.357-3.277a1.773 1.773 0 003.275 1.359l-3.275-1.359zm3.545-3.496a1.773 1.773 0 00-3.546 0h3.546zm-3.546-6.993a1.773 1.773 0 003.546 0h-3.546zm3.546-6.993a1.773 1.773 0 10-3.546 0h3.546zm-3.546-6.994a1.773 1.773 0 003.546 0h-3.546zm3.546-6.993a1.773 1.773 0 00-3.546 0h3.546zm-3.546-6.993a1.773 1.773 0 003.546 0h-3.546zm3.545-3.496a1.773 1.773 0 00-3.275-1.359l3.275 1.359zm-1.357-3.277a1.774 1.774 0 001.358 3.275l-1.358-3.275zm5.199 3.276a1.773 1.773 0 000-3.546v3.546zm7.683-3.546a1.773 1.773 0 000 3.546v-3.546zm7.683 3.546a1.773 1.773 0 000-3.546v3.546zm7.682-3.546a1.772 1.772 0 000 3.546v-3.546zM361 505.274h3.68v-3.546H361v3.546zm11.04 0h7.361v-3.546h-7.361v3.546zm14.721 0h7.36v-3.546h-7.36v3.546zm14.72 0h7.361v-3.546h-7.361v3.546zm14.721 0h3.68v-3.546h-3.68v3.546zm3.68 0c.477 0 .937-.096 1.358-.27l-1.359-3.276h.001v3.546zm3.276-2.188c.174-.421.27-.881.27-1.358h-3.546l.001-.001 3.275 1.359zm.27-1.358v-3.497h-3.546v3.497h3.546zm0-10.49v-6.993h-3.546v6.993h3.546zm0-13.987v-6.993h-3.546v6.993h3.546zm0-13.986v-3.497h-3.546v3.497h3.546zm0-3.497l-.001.001-3.275-1.359c-.175.421-.27.881-.27 1.358h3.546zm0-.001v.001-3.546c-.478 0-.937.096-1.358.27l1.358 3.275zm0 .001h3.841v-3.546h-3.841v3.546zm11.524 0h7.683v-3.546h-7.683v3.546zM821 503.501l-17.729 10.236v-20.472L821 503.501zm-67.805 44.324h-1.773 1.773zm0-42.551h1.773-1.773zm-20.906 42.551a1.773 1.773 0 110 3.546v-3.546zm5.467 3.546a1.773 1.773 0 110-3.546v3.546zm5.466-3.546a1.773 1.773 0 110 3.546v-3.546zm5.467 3.546a1.773 1.773 0 110-3.546v3.546zm2.732-3.546a1.774 1.774 0 011.359 3.276l-1.359-3.276zm3.277 1.357a1.773 1.773 0 11-3.275-1.358l3.275 1.358zm-3.276-4.903a1.773 1.773 0 013.546 0h-3.546zm3.546-7.092a1.773 1.773 0 01-3.546 0h3.546zm-3.546-7.092a1.773 1.773 0 013.546 0h-3.546zm3.546-7.091a1.772 1.772 0 01-3.546 0h3.546zm-3.546-7.092a1.773 1.773 0 013.546 0h-3.546zm3.546-7.092a1.773 1.773 0 01-3.546 0h3.546zm-3.277-4.904a1.774 1.774 0 013.276 1.359l-3.276-1.359zm3.277 1.357a1.773 1.773 0 01-1.358-3.275l1.358 3.275zm3.301-3.545a1.773 1.773 0 010 3.546v-3.546zm6.603 3.546a1.772 1.772 0 010-3.546v3.546zm6.604-3.546a1.773 1.773 0 010 3.546v-3.546zm6.603 3.546a1.773 1.773 0 010-3.546v3.546zm6.603-3.546a1.773 1.773 0 010 3.546v-3.546zm6.603 3.546a1.773 1.773 0 010-3.546v3.546zm6.604-3.546a1.773 1.773 0 010 3.546v-3.546zm6.603 3.546a1.773 1.773 0 010-3.546v3.546zm6.603-3.546a1.773 1.773 0 010 3.546v-3.546zm6.603 3.546a1.773 1.773 0 010-3.546v3.546zm-88.142 42.551h2.733v3.546h-2.733v-3.546zm8.2 0h5.466v3.546h-5.466v-3.546zm10.933 0h2.733v3.546h-2.733v-3.546zm2.733 0h-.001l1.359 3.276c-.421.174-.881.27-1.358.27v-3.546zm.001-.001l-.001.001h3.546c0 .477-.096.937-.27 1.357l-3.275-1.358zm-.001.001v-3.546h3.546v3.546h-3.546zm0-10.638v-7.092h3.546v7.092h-3.546zm0-14.183v-7.092h3.546v7.092h-3.546zm0-14.184v-3.546h3.546v3.546h-3.546zm0-3.546c0-.477.095-.937.269-1.358l3.276 1.359.001-.001h-3.546zm2.188-3.276c.42-.174.88-.27 1.358-.27v3.546-.001l-1.358-3.275zm1.358-.27h3.301v3.546h-3.301v-3.546zm9.904 0h6.604v3.546h-6.604v-3.546zm13.207 0h6.603v3.546h-6.603v-3.546zm13.206 0h6.604v3.546h-6.604v-3.546zm13.207 0h6.603v3.546h-6.603v-3.546zm-294.19 28.958l10.236-17.73h-20.472l10.236 17.73zm1.773-3.436a1.772 1.772 0 00-3.546 0h3.546zm-3.546-6.87a1.773 1.773 0 003.546 0h-3.546zm3.546-6.87a1.773 1.773 0 00-3.546 0h3.546zm-3.546-6.87a1.773 1.773 0 003.546 0h-3.546zm3.546-6.87a1.773 1.773 0 00-3.546 0h3.546zm-3.546-6.87a1.773 1.773 0 003.546 0h-3.546zm3.546-6.87a1.773 1.773 0 10-3.546 0h3.546zm-3.546-6.871a1.773 1.773 0 103.546 0h-3.546zm3.546 41.221v-6.87h-3.546v6.87h3.546zm0-13.74v-6.87h-3.546v6.87h3.546zm0-13.74v-6.87h-3.546v6.87h3.546zm0-13.741v-3.435h-3.546v3.435h3.546z" fill="#2ECC71"></path><path d="M613.06 430v-23.273h15.409v4.057h-10.488v5.546h9.465v4.056h-9.465V430h-4.921zm39.629-11.636c0 2.538-.481 4.697-1.443 6.477-.955 1.78-2.258 3.14-3.909 4.079-1.644.932-3.493 1.398-5.546 1.398-2.068 0-3.924-.47-5.568-1.409-1.644-.939-2.943-2.299-3.897-4.079-.955-1.781-1.432-3.936-1.432-6.466 0-2.538.477-4.697 1.432-6.478.954-1.78 2.253-3.136 3.897-4.068 1.644-.939 3.5-1.409 5.568-1.409 2.053 0 3.902.47 5.546 1.409 1.651.932 2.954 2.288 3.909 4.068.962 1.781 1.443 3.94 1.443 6.478zm-4.988 0c0-1.644-.247-3.031-.739-4.159-.485-1.129-1.171-1.985-2.057-2.569-.886-.583-1.924-.875-3.114-.875-1.189 0-2.227.292-3.113.875-.887.584-1.576 1.44-2.068 2.569-.485 1.128-.728 2.515-.728 4.159 0 1.644.243 3.03.728 4.159.492 1.129 1.181 1.985 2.068 2.568.886.583 1.924.875 3.113.875 1.19 0 2.228-.292 3.114-.875.886-.583 1.572-1.439 2.057-2.568.492-1.129.739-2.515.739-4.159zM655.858 430v-23.273h9.182c1.757 0 3.257.315 4.5.943 1.25.622 2.201 1.504 2.852 2.648.659 1.137.989 2.474.989 4.012 0 1.545-.334 2.875-1 3.988-.667 1.106-1.633 1.955-2.898 2.546-1.257.591-2.78.886-4.568.886h-6.148v-3.955h5.352c.94 0 1.72-.128 2.341-.386.622-.257 1.084-.644 1.387-1.159.31-.515.466-1.155.466-1.92 0-.773-.156-1.425-.466-1.955-.303-.53-.769-.932-1.398-1.205-.621-.28-1.405-.42-2.352-.42h-3.318V430h-4.921zm12.568-10.591L674.21 430h-5.431l-5.66-10.591h5.307zM681.621 430l-6.659-23.273h5.375l3.852 16.171h.193l4.25-16.171h4.602l4.239 16.205h.205l3.852-16.205h5.375L700.246 430h-4.796l-4.432-15.216h-.181L686.416 430h-4.795zm29.109 0h-5.273l8.034-23.273h6.341L727.855 430h-5.273l-5.829-17.955h-.182L710.73 430zm-.33-9.148h12.455v3.841H710.4v-3.841zM730.18 430v-23.273h9.182c1.758 0 3.258.315 4.5.943 1.25.622 2.201 1.504 2.852 2.648.659 1.137.989 2.474.989 4.012 0 1.545-.333 2.875-1 3.988-.667 1.106-1.633 1.955-2.898 2.546-1.257.591-2.78.886-4.568.886h-6.148v-3.955h5.353c.939 0 1.719-.128 2.34-.386.622-.257 1.084-.644 1.387-1.159.31-.515.466-1.155.466-1.92 0-.773-.156-1.425-.466-1.955-.303-.53-.769-.932-1.398-1.205-.621-.28-1.405-.42-2.352-.42h-3.318V430h-4.921zm12.568-10.591L748.532 430h-5.431l-5.659-10.591h5.306zM758.954 430h-8.25v-23.273h8.318c2.341 0 4.356.466 6.046 1.398 1.689.924 2.988 2.254 3.898 3.989.916 1.734 1.375 3.81 1.375 6.227 0 2.424-.459 4.507-1.375 6.25-.91 1.742-2.216 3.079-3.921 4.011-1.697.932-3.727 1.398-6.091 1.398zm-3.329-4.216h3.125c1.454 0 2.678-.257 3.67-.773 1-.522 1.75-1.329 2.25-2.42.508-1.099.761-2.515.761-4.25 0-1.72-.253-3.125-.761-4.216-.5-1.091-1.246-1.894-2.239-2.409-.992-.515-2.215-.773-3.67-.773h-3.136v14.841z" fill="#000"></path><ellipse cx="936.17" cy="766.782" rx="194.137" ry="110.218" fill="#F5FAFF"></ellipse><rect x="880.322" y="701.479" width="112.286" height="37.823" rx="2.364" fill="#7F7F7F"></rect><path d="M905.585 714.064h2.834l2.994 7.303h.127l2.994-7.303h2.834v10.87h-2.229v-7.075h-.09l-2.813 7.022h-1.518l-2.813-7.049h-.091v7.102h-2.229v-10.87zm15.074 10.87h-2.463l3.753-10.87h2.961l3.747 10.87h-2.462l-2.723-8.386h-.085l-2.728 8.386zm-.154-4.273h5.817v1.794h-5.817v-1.794zm18.076-6.597v10.87h-1.985l-4.729-6.842h-.079v6.842h-2.298v-10.87h2.016l4.692 6.836h.096v-6.836h2.287zm8.631 3.513a2.412 2.412 0 00-.313-.684 1.934 1.934 0 00-.494-.51 2.14 2.14 0 00-.658-.324 2.792 2.792 0 00-.812-.111c-.556 0-1.044.138-1.465.414-.418.276-.743.678-.977 1.205-.233.523-.35 1.164-.35 1.921 0 .757.115 1.401.345 1.932.23.531.556.936.977 1.215.421.276.918.414 1.491.414.52 0 .964-.092 1.332-.276a1.97 1.97 0 00.849-.79c.199-.34.298-.742.298-1.205l.467.069h-2.803v-1.73h4.549v1.369c0 .955-.202 1.776-.605 2.463a4.128 4.128 0 01-1.667 1.581c-.707.368-1.518.552-2.431.552-1.019 0-1.914-.224-2.685-.674-.772-.453-1.373-1.095-1.805-1.926-.428-.836-.642-1.826-.642-2.973 0-.881.127-1.666.382-2.356a5.032 5.032 0 011.083-1.762 4.672 4.672 0 011.619-1.099 5.245 5.245 0 012.001-.377c.615 0 1.189.09 1.719.271a4.567 4.567 0 011.412.754 4.08 4.08 0 011.014 1.162c.262.446.43.938.504 1.475h-2.335zm3.686 7.357v-10.87h2.298v8.975h4.66v1.895h-6.958zm8.004 0v-10.87h7.325v1.895H961.2v2.59h4.65v1.894h-4.65v2.596h5.048v1.895h-7.346z" fill="#fff"></path><rect x="880.322" y="794.262" width="112.286" height="37.823" rx="2.364" fill="#7F7F7F"></rect><path d="M923.416 809.973c-.042-.428-.225-.761-.547-.998-.322-.237-.759-.355-1.311-.355-.375 0-.691.053-.95.159a1.34 1.34 0 00-.594.43 1.032 1.032 0 00-.202.626.9.9 0 00.122.51c.092.145.218.27.377.377.159.102.343.192.552.27.209.075.432.138.669.191l.976.234c.475.106.91.247 1.306.424s.74.395 1.03.653c.29.259.515.563.674.913.162.35.246.752.249 1.205-.003.665-.173 1.242-.509 1.73-.333.485-.814.862-1.444 1.131-.626.265-1.382.398-2.266.398-.878 0-1.642-.135-2.293-.404-.648-.269-1.154-.667-1.518-1.194-.361-.531-.55-1.187-.568-1.969h2.224c.025.365.129.669.313.913.188.241.437.423.748.547.315.12.671.18 1.067.18a2.76 2.76 0 001.014-.17c.29-.113.515-.27.674-.472.159-.202.239-.434.239-.695a.903.903 0 00-.218-.616c-.141-.166-.35-.308-.626-.425a6.423 6.423 0 00-1.003-.318l-1.184-.297c-.916-.223-1.64-.572-2.171-1.046-.53-.474-.794-1.113-.79-1.916-.004-.658.171-1.233.525-1.725.357-.492.848-.876 1.47-1.152.623-.276 1.331-.414 2.123-.414.807 0 1.511.138 2.113.414.605.276 1.075.66 1.411 1.152.337.492.51 1.062.521 1.709h-2.203zm12.513-3.126v10.87h-1.985l-4.729-6.842h-.08v6.842h-2.298v-10.87h2.017l4.692 6.836h.095v-6.836h2.288zm3.296 10.87h-2.463l3.753-10.87h2.961l3.747 10.87h-2.462l-2.723-8.386h-.085l-2.728 8.386zm-.154-4.273h5.817v1.794h-5.817v-1.794zm7.243-4.702v-1.895h8.927v1.895h-3.328v8.975h-2.272v-8.975h-3.327z" fill="#fff"></path><path d="M1177 767.076l-17.73 10.236V756.84l17.73 10.236zm-79.79 44.324h1.78-1.78zm0-42.551h1.78-1.78zM996.566 811.4a1.773 1.773 0 010 3.546V811.4zm7.324 3.546a1.77 1.77 0 01-1.77-1.773c0-.979.79-1.773 1.77-1.773v3.546zm7.32-3.546c.98 0 1.78.794 1.78 1.773 0 .979-.8 1.773-1.78 1.773V811.4zm7.33 3.546a1.77 1.77 0 01-1.77-1.773c0-.979.79-1.773 1.77-1.773v3.546zm7.32-3.546c.98 0 1.77.794 1.77 1.773a1.77 1.77 0 01-1.77 1.773V811.4zm7.33 3.546c-.98 0-1.78-.794-1.78-1.773 0-.979.8-1.773 1.78-1.773v3.546zm7.32-3.546c.98 0 1.77.794 1.77 1.773a1.77 1.77 0 01-1.77 1.773V811.4zm7.32 3.546a1.77 1.77 0 01-1.77-1.773c0-.979.79-1.773 1.77-1.773v3.546zm7.33-3.546c.98 0 1.77.794 1.77 1.773a1.77 1.77 0 01-1.77 1.773V811.4zm7.32 3.546a1.77 1.77 0 01-1.77-1.773c0-.979.79-1.773 1.77-1.773v3.546zm7.33-3.546c.97 0 1.77.794 1.77 1.773 0 .979-.8 1.773-1.77 1.773V811.4zm7.32 3.546a1.77 1.77 0 01-1.77-1.773c0-.979.79-1.773 1.77-1.773v3.546zm7.32-3.546c.98 0 1.78.794 1.78 1.773 0 .979-.8 1.773-1.78 1.773V811.4zm7.33 3.546c-.98 0-1.78-.794-1.78-1.773 0-.979.8-1.773 1.78-1.773v3.546zm3.66-3.545a1.78 1.78 0 012.32.958c.37.905-.06 1.942-.96 2.317l-1.36-3.275zm3.28 1.357a1.78 1.78 0 01-2.32.958 1.773 1.773 0 01-.96-2.317l3.28 1.359zm-3.28-4.904c0-.979.79-1.773 1.77-1.773s1.78.794 1.78 1.773h-3.55zm3.55-7.092c0 .979-.8 1.773-1.78 1.773a1.77 1.77 0 01-1.77-1.773h3.55zm-3.55-7.092c0-.979.79-1.772 1.77-1.772s1.78.793 1.78 1.772h-3.55zm3.55-7.091c0 .979-.8 1.773-1.78 1.773a1.77 1.77 0 01-1.77-1.773h3.55zm-3.55-7.092c0-.979.79-1.773 1.77-1.773s1.78.794 1.78 1.773h-3.55zm3.55-7.092c0 .979-.8 1.773-1.78 1.773a1.77 1.77 0 01-1.77-1.773h3.55zm-3.28-4.904a1.773 1.773 0 012.32-.958c.9.375 1.33 1.412.95 2.317l-3.27-1.359zm3.28 1.358a1.773 1.773 0 01-2.32-.959c-.38-.904.05-1.942.96-2.317l1.36 3.276zm3.25-3.546c.97 0 1.77.794 1.77 1.773 0 .98-.8 1.773-1.77 1.773v-3.546zm6.5 3.546c-.98 0-1.78-.793-1.78-1.773 0-.979.8-1.773 1.78-1.773v3.546zm6.5-3.546c.98 0 1.77.794 1.77 1.773 0 .98-.79 1.773-1.77 1.773v-3.546zm6.5 3.546a1.77 1.77 0 01-1.77-1.773c0-.979.79-1.773 1.77-1.773v3.546zm6.5-3.546c.98 0 1.77.794 1.77 1.773 0 .98-.79 1.773-1.77 1.773v-3.546zm6.5 3.546a1.77 1.77 0 01-1.77-1.773c0-.979.79-1.773 1.77-1.773v3.546zm6.5-3.546c.98 0 1.78.794 1.78 1.773 0 .98-.8 1.773-1.78 1.773v-3.546zm6.5 3.546c-.97 0-1.77-.793-1.77-1.773 0-.979.8-1.773 1.77-1.773v3.546zm6.51-3.546c.97 0 1.77.794 1.77 1.773 0 .98-.8 1.773-1.77 1.773v-3.546zm6.5 3.546c-.98 0-1.78-.793-1.78-1.773 0-.979.8-1.773 1.78-1.773v3.546zm6.5-3.546c.98 0 1.77.794 1.77 1.773 0 .98-.79 1.773-1.77 1.773v-3.546zm6.5 3.546a1.77 1.77 0 01-1.77-1.773c0-.979.79-1.773 1.77-1.773v3.546zM992.904 811.4h3.662v3.546h-3.662V811.4zm10.986 0h7.32v3.546h-7.32V811.4zm14.65 0h7.32v3.546h-7.32V811.4zm14.65 0h7.32v3.546h-7.32V811.4zm14.64 0h7.33v3.546h-7.33V811.4zm14.65 0h7.33v3.546h-7.33V811.4zm14.65 0h7.32v3.546h-7.32V811.4zm14.65 0h3.66v3.546h-3.66V811.4zm3.66 0v.001l1.36 3.275c-.42.174-.88.27-1.36.27V811.4zm0-.001v.001h3.55c0 .477-.1.937-.27 1.358l-3.28-1.359zm0 .001v-3.546h3.55v3.546h-3.55zm0-10.638v-7.092h3.55v7.092h-3.55zm0-14.183v-7.092h3.55v7.092h-3.55zm0-14.184v-3.546h3.55v3.546h-3.55zm0-3.546c0-.477.09-.937.27-1.358l3.27 1.359.01-.001h-3.55zm2.19-3.276c.42-.174.88-.27 1.36-.27v3.546l-1.36-3.276zm1.36-.27h3.25v3.546h-3.25v-3.546zm9.75 0h6.5v3.546h-6.5v-3.546zm13 0h6.5v3.546h-6.5v-3.546zm13 0h6.5v3.546h-6.5v-3.546zm13 0h6.51v3.546h-6.51v-3.546zm13.01 0h6.5v3.546h-6.5v-3.546zm-224.285 29.55l10.236-17.73h-20.472l10.236 17.73zm1.773-3.436a1.772 1.772 0 00-3.546 0h3.546zm-3.546-6.87a1.773 1.773 0 003.546 0h-3.546zm3.546-6.87a1.773 1.773 0 10-3.546 0h3.546zm-3.546-6.87a1.773 1.773 0 003.546 0h-3.546zm3.546-6.87a1.773 1.773 0 10-3.546 0h3.546zm-3.546-6.87a1.773 1.773 0 003.546 0h-3.546zm3.546-6.87a1.772 1.772 0 10-3.546 0h3.546zm-3.546-6.871a1.773 1.773 0 103.546 0h-3.546zm3.546 41.221v-6.87h-3.546v6.87h3.546zm0-13.74v-6.87h-3.546v6.87h3.546zm0-13.74v-6.87h-3.546v6.87h3.546zm0-13.741v-3.435h-3.546v3.435h3.546zm-1.773-41.848l10.236-17.73h-20.472l10.236 17.73zm1.773-3.479a1.773 1.773 0 10-3.546 0h3.546zm-3.546-6.956a1.773 1.773 0 003.546 0h-3.546zm3.546-6.957a1.773 1.773 0 10-3.546 0h3.546zm-3.546-6.956a1.773 1.773 0 003.546 0h-3.546zm3.546-6.957a1.772 1.772 0 00-3.546 0h3.546zm-3.546-6.956a1.773 1.773 0 003.546 0h-3.546zm3.546-6.956a1.772 1.772 0 10-3.546 0h3.546zm-3.546-6.957a1.773 1.773 0 003.546 0h-3.546zm3.546-6.956a1.772 1.772 0 10-3.546 0h3.546zm-3.546-6.957a1.773 1.773 0 003.546 0h-3.546zm3.546-6.956a1.773 1.773 0 10-3.546 0h3.546zm-3.546-6.957a1.773 1.773 0 003.546 0h-3.546zm3.546 69.565v-6.957h-3.546v6.957h3.546zm0-13.913v-6.957h-3.546v6.957h3.546zm0-13.913v-6.956h-3.546v6.956h3.546zm0-13.913v-6.956h-3.546v6.956h3.546zm0-13.913v-6.956h-3.546v6.956h3.546zm0-13.913V618h-3.546v3.478h3.546z" fill="#2ECC71"></path><path d="M613.094 787v-23.273h9.182c1.765 0 3.269.337 4.511 1.012 1.242.666 2.189 1.594 2.841 2.784.659 1.182.988 2.545.988 4.091 0 1.545-.333 2.909-1 4.091-.666 1.181-1.632 2.102-2.897 2.761-1.258.659-2.781.989-4.568.989h-5.853v-3.944h5.057c.947 0 1.727-.163 2.341-.488.621-.334 1.083-.792 1.386-1.375.311-.591.466-1.269.466-2.034 0-.773-.155-1.447-.466-2.023-.303-.583-.765-1.034-1.386-1.352-.621-.326-1.409-.489-2.364-.489h-3.318V787h-4.92zm41.629-11.636c0 2.538-.481 4.697-1.443 6.477-.955 1.78-2.258 3.14-3.909 4.079-1.644.932-3.493 1.398-5.546 1.398-2.068 0-3.924-.47-5.568-1.409-1.644-.939-2.943-2.299-3.898-4.079-.954-1.781-1.432-3.936-1.432-6.466 0-2.538.478-4.697 1.432-6.478.955-1.78 2.254-3.136 3.898-4.068 1.644-.939 3.5-1.409 5.568-1.409 2.053 0 3.902.47 5.546 1.409 1.651.932 2.954 2.288 3.909 4.068.962 1.781 1.443 3.94 1.443 6.478zm-4.989 0c0-1.644-.246-3.031-.738-4.159-.485-1.129-1.171-1.985-2.057-2.569-.887-.583-1.924-.875-3.114-.875-1.189 0-2.227.292-3.113.875-.887.584-1.576 1.44-2.069 2.569-.485 1.128-.727 2.515-.727 4.159 0 1.644.242 3.03.727 4.159.493 1.129 1.182 1.985 2.069 2.568.886.583 1.924.875 3.113.875 1.19 0 2.227-.292 3.114-.875.886-.583 1.572-1.439 2.057-2.568.492-1.129.738-2.515.738-4.159zm20.783-4.944c-.091-.916-.481-1.628-1.171-2.136-.689-.507-1.625-.761-2.806-.761-.804 0-1.482.113-2.035.341-.553.219-.977.526-1.272.92a2.215 2.215 0 00-.432 1.341c-.015.417.072.78.261 1.091.197.311.466.579.807.807.341.219.735.413 1.182.579.447.159.924.296 1.432.409l2.091.5c1.015.228 1.947.531 2.795.909a8.506 8.506 0 012.205 1.398 5.814 5.814 0 011.443 1.955c.348.75.526 1.61.534 2.579-.008 1.425-.371 2.659-1.091 3.705-.712 1.038-1.742 1.845-3.091 2.42-1.341.568-2.958.853-4.852.853-1.879 0-3.515-.288-4.909-.864-1.387-.576-2.47-1.428-3.25-2.557-.773-1.136-1.178-2.542-1.216-4.216h4.761c.053.78.277 1.432.671 1.955.401.515.935.905 1.602 1.17.674.258 1.435.387 2.284.387.833 0 1.557-.122 2.17-.364.622-.243 1.103-.58 1.444-1.011.341-.432.511-.928.511-1.489 0-.523-.155-.962-.466-1.318-.303-.356-.75-.659-1.341-.909-.583-.25-1.299-.478-2.148-.682l-2.534-.637c-1.962-.477-3.511-1.223-4.647-2.238-1.137-1.015-1.701-2.383-1.694-4.102-.007-1.41.368-2.641 1.125-3.694.766-1.053 1.815-1.875 3.148-2.466 1.333-.59 2.849-.886 4.546-.886 1.727 0 3.234.296 4.522.886 1.296.591 2.303 1.413 3.023 2.466.72 1.053 1.091 2.273 1.114 3.659h-4.716zm6.981-2.636v-4.057h19.114v4.057h-7.125V787h-4.864v-19.216h-7.125zM706.214 787v-23.273h9.182c1.757 0 3.257.315 4.5.943 1.25.622 2.2 1.504 2.852 2.648.659 1.137.989 2.474.989 4.012 0 1.545-.334 2.875-1 3.988-.667 1.106-1.633 1.955-2.898 2.546-1.258.591-2.78.886-4.568.886h-6.148v-3.955h5.352c.94 0 1.72-.128 2.341-.386.621-.257 1.083-.644 1.386-1.159.311-.515.466-1.155.466-1.92 0-.773-.155-1.425-.466-1.955-.303-.53-.768-.932-1.397-1.205-.621-.28-1.406-.42-2.353-.42h-3.318V787h-4.92zm12.568-10.591L724.566 787h-5.432l-5.659-10.591h5.307zm29.342-1.045c0 2.538-.481 4.697-1.443 6.477-.955 1.78-2.258 3.14-3.909 4.079-1.644.932-3.492 1.398-5.546 1.398-2.068 0-3.924-.47-5.568-1.409-1.644-.939-2.943-2.299-3.897-4.079-.955-1.781-1.432-3.936-1.432-6.466 0-2.538.477-4.697 1.432-6.478.954-1.78 2.253-3.136 3.897-4.068 1.644-.939 3.5-1.409 5.568-1.409 2.054 0 3.902.47 5.546 1.409 1.651.932 2.954 2.288 3.909 4.068.962 1.781 1.443 3.94 1.443 6.478zm-4.988 0c0-1.644-.247-3.031-.739-4.159-.485-1.129-1.171-1.985-2.057-2.569-.886-.583-1.924-.875-3.114-.875-1.189 0-2.227.292-3.113.875-.887.584-1.576 1.44-2.068 2.569-.485 1.128-.728 2.515-.728 4.159 0 1.644.243 3.03.728 4.159.492 1.129 1.181 1.985 2.068 2.568.886.583 1.924.875 3.113.875 1.19 0 2.228-.292 3.114-.875.886-.583 1.572-1.439 2.057-2.568.492-1.129.739-2.515.739-4.159zm22.532-11.637h4.921v15.114c0 1.697-.406 3.182-1.216 4.454-.803 1.273-1.928 2.266-3.375 2.978-1.447.704-3.133 1.057-5.057 1.057-1.932 0-3.621-.353-5.068-1.057-1.447-.712-2.572-1.705-3.375-2.978-.803-1.272-1.205-2.757-1.205-4.454v-15.114h4.921v14.693c0 .887.193 1.675.579 2.364a4.23 4.23 0 001.659 1.625c.712.394 1.542.591 2.489.591.954 0 1.784-.197 2.488-.591a4.143 4.143 0 001.648-1.625c.394-.689.591-1.477.591-2.364v-14.693zm7.607 4.057v-4.057h19.113v4.057h-7.125V787H780.4v-19.216h-7.125zm26.705-4.057V787h-4.92v-23.273h4.92zm23.039 0V787h-4.25l-10.125-14.648h-.171V787h-4.92v-23.273h4.318l10.045 14.637h.205v-14.637h4.898zm19.021 7.523a5.095 5.095 0 00-.671-1.466 4.142 4.142 0 00-1.057-1.091 4.522 4.522 0 00-1.409-.693 5.952 5.952 0 00-1.738-.239c-1.19 0-2.235.296-3.137.887-.894.591-1.591 1.45-2.091 2.579-.5 1.121-.75 2.493-.75 4.114s.247 3 .739 4.136c.493 1.137 1.19 2.004 2.091 2.603.902.59 1.966.886 3.193.886 1.114 0 2.065-.197 2.852-.591.796-.402 1.402-.966 1.819-1.693.424-.727.636-1.587.636-2.58l1 .148h-6v-3.705h9.739v2.932c0 2.046-.432 3.803-1.296 5.273a8.823 8.823 0 01-3.568 3.386c-1.515.788-3.25 1.182-5.205 1.182-2.181 0-4.098-.481-5.75-1.443-1.651-.97-2.939-2.345-3.863-4.125-.917-1.788-1.375-3.909-1.375-6.364 0-1.886.273-3.568.818-5.045.553-1.485 1.326-2.743 2.318-3.773a10.03 10.03 0 013.466-2.352c1.318-.538 2.746-.807 4.284-.807 1.318 0 2.546.193 3.682.58a9.797 9.797 0 013.023 1.613 8.735 8.735 0 012.17 2.489 8.441 8.441 0 011.08 3.159h-5z" fill="#000"></path><path fill="#326DCB" d="M248.629 390.031l113.665 113.665L248.63 617.362 134.964 503.696z"></path><path d="M203.32 498.086v-15.168h5.984c1.146 0 2.123.205 2.933.615.815.405 1.434.98 1.859 1.725.429.741.644 1.613.644 2.615 0 1.007-.217 1.874-.652 2.599-.434.721-1.064 1.274-1.888 1.659-.82.386-1.812.578-2.977.578h-4.007v-2.577h3.488c.612 0 1.121-.084 1.526-.252.405-.168.706-.42.903-.756.203-.335.304-.752.304-1.251 0-.504-.101-.928-.304-1.274-.197-.346-.501-.607-.911-.785-.404-.183-.915-.274-1.533-.274h-2.162v12.546h-3.207zm8.191-6.903l3.77 6.903h-3.54l-3.689-6.903h3.459zm18.958-.681c0 1.654-.314 3.061-.941 4.222-.622 1.16-1.471 2.046-2.547 2.658-1.072.608-2.277.911-3.615.911-1.348 0-2.557-.306-3.629-.918-1.071-.612-1.918-1.499-2.54-2.659-.622-1.16-.933-2.565-.933-4.214 0-1.654.311-3.061.933-4.221.622-1.161 1.469-2.045 2.54-2.652 1.072-.612 2.281-.918 3.629-.918 1.338 0 2.543.306 3.615.918 1.076.607 1.925 1.491 2.547 2.652.627 1.16.941 2.567.941 4.221zm-3.251 0c0-1.071-.161-1.975-.482-2.711-.316-.735-.763-1.293-1.34-1.673-.578-.381-1.254-.571-2.03-.571-.775 0-1.451.19-2.029.571-.578.38-1.027.938-1.348 1.673-.316.736-.474 1.64-.474 2.711s.158 1.975.474 2.711c.321.735.77 1.293 1.348 1.673.578.381 1.254.571 2.029.571.776 0 1.452-.19 2.03-.571.577-.38 1.024-.938 1.34-1.673.321-.736.482-1.64.482-2.711zm14.519-7.584h3.207v9.85c0 1.106-.264 2.074-.792 2.904-.524.829-1.257 1.476-2.2 1.94-.943.459-2.042.689-3.296.689-1.259 0-2.36-.23-3.303-.689-.943-.464-1.676-1.111-2.2-1.94-.523-.83-.785-1.798-.785-2.904v-9.85h3.207v9.576c0 .578.126 1.091.378 1.541a2.76 2.76 0 001.081 1.059c.464.257 1.005.385 1.622.385.622 0 1.163-.128 1.622-.385.464-.257.822-.61 1.074-1.059.257-.45.385-.963.385-1.541v-9.576zm4.792 2.644v-2.644h12.457v2.644h-4.644v12.524h-3.169v-12.524h-4.644zm17.239-2.644v15.168h-3.206v-15.168h3.206zm14.85 0v15.168h-2.77l-6.599-9.547h-.111v9.547h-3.207v-15.168h2.814l6.547 9.539h.134v-9.539h3.192zm12.231 4.903a3.347 3.347 0 00-.437-.955 2.68 2.68 0 00-.689-.711 2.96 2.96 0 00-.918-.452 3.877 3.877 0 00-1.134-.156c-.775 0-1.456.193-2.044.578-.582.385-1.036.946-1.362 1.681-.326.731-.489 1.625-.489 2.681 0 1.057.16 1.955.481 2.696.321.741.775 1.306 1.363 1.696.588.385 1.281.578 2.081.578.726 0 1.346-.129 1.859-.385.518-.262.913-.63 1.185-1.104.277-.474.415-1.034.415-1.681l.652.096h-3.911v-2.414h6.347v1.911c0 1.333-.281 2.478-.844 3.436a5.75 5.75 0 01-2.326 2.207c-.987.514-2.118.77-3.392.77-1.422 0-2.671-.313-3.747-.94-1.077-.632-1.916-1.528-2.518-2.689-.598-1.165-.896-2.547-.896-4.147 0-1.23.177-2.326.533-3.288.36-.968.864-1.788 1.511-2.459a6.499 6.499 0 012.259-1.533 7.308 7.308 0 012.792-.526c.859 0 1.659.126 2.399.377a6.388 6.388 0 011.97 1.052 5.698 5.698 0 011.415 1.622c.365.622.6 1.309.703 2.059h-3.258zm-84.372 35.265H201.1v-15.168h5.421c1.526 0 2.839.304 3.94.911a6.147 6.147 0 012.541 2.6c.597 1.13.896 2.483.896 4.058 0 1.58-.299 2.938-.896 4.074a6.167 6.167 0 01-2.555 2.614c-1.106.607-2.43.911-3.97.911zm-2.17-2.748h2.037c.947 0 1.745-.168 2.392-.503.651-.341 1.14-.867 1.466-1.578.331-.716.496-1.639.496-2.77 0-1.121-.165-2.036-.496-2.747-.326-.711-.812-1.235-1.459-1.571-.647-.335-1.444-.503-2.392-.503h-2.044v9.672zm11.49 2.748v-15.168h10.221v2.644h-7.014v3.614h6.488v2.644h-6.488v3.622h7.043v2.644h-10.25zm25.677-9.858h-3.244a3.184 3.184 0 00-.362-1.118 2.852 2.852 0 00-.704-.844 3.101 3.101 0 00-.993-.534 3.803 3.803 0 00-1.207-.185c-.785 0-1.469.195-2.051.585-.583.386-1.035.948-1.356 1.689-.32.736-.481 1.629-.481 2.681 0 1.081.161 1.99.481 2.726.326.735.781 1.291 1.363 1.666.583.375 1.257.563 2.022.563.43 0 .827-.057 1.192-.171.371-.113.699-.279.985-.496.287-.222.524-.491.711-.807.193-.316.326-.676.4-1.081l3.244.014a5.862 5.862 0 01-.629 2.015 6.062 6.062 0 01-1.341 1.726 6.314 6.314 0 01-1.999 1.199c-.771.292-1.642.437-2.615.437-1.353 0-2.562-.306-3.629-.918-1.061-.612-1.901-1.499-2.518-2.659-.612-1.16-.918-2.565-.918-4.214 0-1.654.311-3.061.933-4.221.622-1.161 1.466-2.045 2.533-2.652 1.066-.612 2.266-.918 3.599-.918.879 0 1.694.123 2.444.37a6.186 6.186 0 012.007 1.081 5.557 5.557 0 011.422 1.726c.371.681.608 1.461.711 2.34zm5.031-5.31v15.168h-3.207v-15.168h3.207zm10.39 4.362c-.059-.597-.313-1.061-.762-1.392-.45-.331-1.059-.496-1.83-.496-.523 0-.965.074-1.325.222-.361.143-.637.343-.83.6a1.448 1.448 0 00-.281.874c-.01.271.047.508.17.711.128.202.304.378.526.526.222.143.479.269.77.377.291.104.602.193.933.267l1.363.326a9.586 9.586 0 011.822.592 5.552 5.552 0 011.437.911c.405.361.718.785.94 1.274.227.489.343 1.049.348 1.681-.005.929-.242 1.733-.711 2.415-.464.676-1.135 1.202-2.014 1.577-.874.371-1.928.556-3.162.556-1.225 0-2.291-.188-3.2-.563-.903-.375-1.61-.931-2.118-1.667-.504-.74-.768-1.656-.793-2.747h3.104c.034.508.18.933.437 1.274.261.335.609.59 1.044.762.439.168.935.252 1.488.252.544 0 1.015-.079 1.415-.237.405-.158.718-.377.941-.659.222-.281.333-.605.333-.97 0-.341-.101-.627-.304-.859-.197-.232-.489-.43-.874-.593a8.833 8.833 0 00-1.399-.444l-1.652-.415c-1.279-.311-2.288-.797-3.029-1.459-.741-.661-1.109-1.553-1.104-2.673-.005-.919.24-1.721.734-2.407.498-.687 1.182-1.222 2.051-1.608.869-.385 1.857-.577 2.963-.577 1.125 0 2.108.192 2.947.577.844.386 1.501.921 1.97 1.608.469.686.711 1.481.726 2.384h-3.074zm8.169-4.362v15.168h-3.207v-15.168h3.207zm16.101 7.584c0 1.654-.313 3.061-.94 4.222-.623 1.16-1.472 2.046-2.548 2.658-1.072.608-2.276.911-3.614.911-1.348 0-2.558-.306-3.629-.918-1.072-.612-1.919-1.499-2.541-2.659-.622-1.16-.933-2.565-.933-4.214 0-1.654.311-3.061.933-4.221.622-1.161 1.469-2.045 2.541-2.652 1.071-.612 2.281-.918 3.629-.918 1.338 0 2.542.306 3.614.918 1.076.607 1.925 1.491 2.548 2.652.627 1.16.94 2.567.94 4.221zm-3.251 0c0-1.071-.161-1.975-.482-2.711-.316-.735-.762-1.293-1.34-1.673-.578-.381-1.254-.571-2.029-.571-.776 0-1.452.19-2.03.571-.577.38-1.027.938-1.348 1.673-.316.736-.474 1.64-.474 2.711s.158 1.975.474 2.711c.321.735.771 1.293 1.348 1.673.578.381 1.254.571 2.03.571.775 0 1.451-.19 2.029-.571.578-.38 1.024-.938 1.34-1.673.321-.736.482-1.64.482-2.711zm17.837-7.584v15.168h-2.769l-6.599-9.547h-.111v9.547h-3.207v-15.168h2.814l6.547 9.539h.133v-9.539h3.192z" fill="#fff"></path><path fill="#326DCB" d="M936.07 390.031l113.665 113.665L936.07 617.362 822.405 503.696z"></path><path d="M890.761 492.769v-15.168h5.984c1.145 0 2.123.205 2.933.614.814.405 1.434.981 1.859 1.726.429.741.644 1.612.644 2.614 0 1.008-.217 1.874-.652 2.6-.434.721-1.064 1.274-1.888 1.659-.82.385-1.812.578-2.977.578h-4.007v-2.578h3.488c.612 0 1.121-.084 1.526-.251.405-.168.706-.42.903-.756.203-.336.304-.753.304-1.252 0-.503-.101-.928-.304-1.273-.197-.346-.501-.608-.911-.785-.405-.183-.916-.274-1.533-.274h-2.162v12.546h-3.207zm8.191-6.903l3.77 6.903h-3.54l-3.689-6.903h3.459zm18.958-.681c0 1.654-.314 3.061-.941 4.221-.622 1.16-1.471 2.047-2.548 2.659-1.071.607-2.276.911-3.614.911-1.348 0-2.557-.306-3.629-.918-1.071-.613-1.918-1.499-2.54-2.659-.622-1.161-.933-2.565-.933-4.214 0-1.654.311-3.062.933-4.222.622-1.16 1.469-2.044 2.54-2.651 1.072-.612 2.281-.919 3.629-.919 1.338 0 2.543.307 3.614.919 1.077.607 1.926 1.491 2.548 2.651.627 1.16.941 2.568.941 4.222zm-3.252 0c0-1.072-.16-1.975-.481-2.711-.316-.736-.763-1.294-1.34-1.674-.578-.38-1.255-.57-2.03-.57-.775 0-1.451.19-2.029.57-.578.38-1.027.938-1.348 1.674-.316.736-.474 1.639-.474 2.711 0 1.071.158 1.975.474 2.71.321.736.77 1.294 1.348 1.674.578.38 1.254.57 2.029.57.775 0 1.452-.19 2.03-.57.577-.38 1.024-.938 1.34-1.674.321-.735.481-1.639.481-2.71zm14.52-7.584h3.207v9.85c0 1.106-.264 2.074-.793 2.903-.523.83-1.256 1.476-2.199 1.941-.943.459-2.042.688-3.296.688-1.259 0-2.36-.229-3.303-.688-.943-.465-1.676-1.111-2.2-1.941-.523-.829-.785-1.797-.785-2.903v-9.85h3.207v9.576c0 .578.126 1.091.378 1.54.257.45.617.803 1.081 1.059.464.257 1.005.386 1.622.386.622 0 1.163-.129 1.622-.386a2.696 2.696 0 001.074-1.059c.257-.449.385-.962.385-1.54v-9.576zm4.792 2.644v-2.644h12.457v2.644h-4.644v12.524h-3.17v-12.524h-4.643zm17.239-2.644v15.168h-3.207v-15.168h3.207zm14.849 0v15.168h-2.769l-6.599-9.547h-.111v9.547h-3.207v-15.168h2.814l6.547 9.539h.133v-9.539h3.192zm12.232 4.903a3.354 3.354 0 00-.437-.956 2.726 2.726 0 00-.689-.711 2.976 2.976 0 00-.919-.452 3.9 3.9 0 00-1.133-.155c-.775 0-1.456.193-2.044.578-.582.385-1.037.945-1.363 1.681-.325.731-.488 1.624-.488 2.681 0 1.056.16 1.955.481 2.696.321.74.775 1.306 1.363 1.696.587.385 1.281.577 2.081.577.726 0 1.345-.128 1.859-.385a2.76 2.76 0 001.185-1.103c.276-.474.415-1.035.415-1.681l.651.096h-3.91v-2.415h6.347v1.911c0 1.333-.281 2.479-.844 3.437a5.756 5.756 0 01-2.326 2.207c-.987.513-2.118.77-3.392.77-1.422 0-2.671-.314-3.747-.941-1.077-.632-1.916-1.528-2.518-2.688-.598-1.165-.897-2.548-.897-4.148 0-1.229.178-2.325.534-3.288.36-.968.864-1.787 1.51-2.459a6.545 6.545 0 012.259-1.533 7.33 7.33 0 012.792-.526c.86 0 1.659.126 2.4.378a6.4 6.4 0 011.97 1.052 5.698 5.698 0 011.415 1.622c.365.622.6 1.308.703 2.059h-3.258zm-84.372 35.265h-5.377v-15.168h5.421c1.526 0 2.839.303 3.94.911a6.142 6.142 0 012.54 2.599c.598 1.131.897 2.484.897 4.059 0 1.58-.299 2.938-.897 4.073a6.158 6.158 0 01-2.555 2.615c-1.106.607-2.429.911-3.969.911zm-2.17-2.748h2.036c.948 0 1.746-.168 2.393-.504.651-.34 1.14-.866 1.466-1.577.331-.716.496-1.639.496-2.77 0-1.121-.165-2.037-.496-2.748-.326-.711-.812-1.234-1.459-1.57-.647-.336-1.444-.504-2.392-.504h-2.044v9.673zm11.49 2.748v-15.168h10.221v2.644h-7.014v3.614h6.488v2.644h-6.488v3.622h7.043v2.644h-10.25zm25.677-9.858h-3.244a3.158 3.158 0 00-.363-1.118 2.838 2.838 0 00-.703-.845 3.11 3.11 0 00-.993-.533 3.803 3.803 0 00-1.207-.185c-.785 0-1.469.195-2.051.585-.583.385-1.035.948-1.356 1.689-.321.735-.481 1.629-.481 2.681 0 1.081.16 1.989.481 2.725.326.736.78 1.291 1.363 1.667.583.375 1.257.562 2.022.562.429 0 .827-.056 1.192-.17.371-.114.699-.279.985-.496.287-.222.524-.491.711-.807.193-.316.326-.677.4-1.082l3.244.015a5.89 5.89 0 01-.629 2.015 6.058 6.058 0 01-1.341 1.725 6.292 6.292 0 01-2 1.2c-.77.291-1.641.437-2.614.437-1.353 0-2.562-.306-3.629-.918-1.061-.613-1.901-1.499-2.518-2.659-.612-1.161-.918-2.565-.918-4.214 0-1.654.311-3.062.933-4.222.622-1.16 1.466-2.044 2.533-2.651 1.066-.612 2.266-.919 3.599-.919.879 0 1.694.124 2.444.371a6.186 6.186 0 012.007 1.081 5.546 5.546 0 011.422 1.726c.37.681.607 1.461.711 2.34zm5.031-5.31v15.168h-3.207v-15.168h3.207zm10.39 4.362c-.059-.597-.313-1.062-.762-1.392-.45-.331-1.06-.497-1.83-.497-.523 0-.965.074-1.326.223-.36.143-.636.343-.829.599a1.444 1.444 0 00-.281.874c-.01.272.046.509.17.711.128.203.304.378.526.526.222.143.479.269.77.378.291.104.602.193.933.267l1.363.325a9.658 9.658 0 011.822.593c.553.247 1.032.55 1.437.911.404.36.718.785.94 1.274.227.489.343 1.049.348 1.681-.005.928-.242 1.733-.711 2.414-.464.677-1.135 1.203-2.014 1.578-.874.37-1.928.555-3.163.555-1.224 0-2.291-.187-3.199-.563-.904-.375-1.61-.93-2.118-1.666-.504-.741-.768-1.656-.793-2.748h3.103c.035.509.181.934.437 1.274.262.336.61.59 1.045.763.439.168.935.252 1.488.252.543 0 1.015-.079 1.415-.237.405-.158.718-.378.941-.659.222-.282.333-.605.333-.97a1.26 1.26 0 00-.304-.86c-.197-.232-.489-.429-.874-.592a8.848 8.848 0 00-1.4-.444l-1.651-.415c-1.279-.311-2.289-.798-3.029-1.459-.741-.662-1.109-1.553-1.104-2.674-.005-.918.24-1.72.733-2.407.499-.686 1.183-1.222 2.052-1.607s1.856-.578 2.962-.578c1.126 0 2.109.193 2.948.578.844.385 1.501.921 1.97 1.607.469.687.711 1.481.726 2.385h-3.074zm8.169-4.362v15.168h-3.207v-15.168h3.207zm16.101 7.584c0 1.654-.313 3.061-.941 4.221-.622 1.16-1.471 2.047-2.547 2.659-1.072.607-2.276.911-3.614.911-1.348 0-2.558-.306-3.629-.918-1.072-.613-1.919-1.499-2.541-2.659-.622-1.161-.933-2.565-.933-4.214 0-1.654.311-3.062.933-4.222.622-1.16 1.469-2.044 2.541-2.651 1.071-.612 2.281-.919 3.629-.919 1.338 0 2.542.307 3.614.919 1.076.607 1.925 1.491 2.547 2.651.628 1.16.941 2.568.941 4.222zm-3.251 0c0-1.072-.161-1.975-.482-2.711-.316-.736-.763-1.294-1.34-1.674-.578-.38-1.254-.57-2.029-.57-.776 0-1.452.19-2.03.57-.577.38-1.027.938-1.348 1.674-.316.736-.474 1.639-.474 2.711 0 1.071.158 1.975.474 2.71.321.736.771 1.294 1.348 1.674.578.38 1.254.57 2.03.57.775 0 1.451-.19 2.029-.57.577-.38 1.024-.938 1.34-1.674.321-.735.482-1.639.482-2.71zm17.837-7.584v15.168h-2.77l-6.598-9.547h-.112v9.547h-3.206v-15.168h2.814l6.547 9.539H980v-9.539h3.192z" fill="#fff"></path><path fill="#BDD0E9" d="M25 27h1136v60H25z"></path><path d="M470.504 68V44.727h4.92v19.216h9.977V68h-14.897zm38.16-11.636c0 2.538-.481 4.697-1.443 6.477-.955 1.78-2.258 3.14-3.909 4.08-1.644.931-3.493 1.397-5.546 1.397-2.068 0-3.924-.47-5.568-1.409-1.644-.94-2.943-2.3-3.898-4.08-.954-1.78-1.431-3.935-1.431-6.465 0-2.538.477-4.697 1.431-6.478.955-1.78 2.254-3.136 3.898-4.068 1.644-.94 3.5-1.409 5.568-1.409 2.053 0 3.902.47 5.546 1.41 1.651.931 2.954 2.287 3.909 4.067.962 1.78 1.443 3.94 1.443 6.478zm-4.989 0c0-1.644-.246-3.03-.738-4.16-.485-1.128-1.171-1.984-2.057-2.568-.886-.583-1.924-.875-3.114-.875-1.189 0-2.227.292-3.113.875-.887.584-1.576 1.44-2.069 2.569-.484 1.128-.727 2.515-.727 4.159 0 1.644.243 3.03.727 4.159.493 1.128 1.182 1.985 2.069 2.568.886.583 1.924.875 3.113.875 1.19 0 2.228-.292 3.114-.875.886-.583 1.572-1.44 2.057-2.568.492-1.13.738-2.515.738-4.16zm28.692-3.489h-4.977a4.876 4.876 0 00-.557-1.716c-.28-.508-.64-.94-1.08-1.295a4.75 4.75 0 00-1.522-.819 5.831 5.831 0 00-1.853-.284c-1.204 0-2.253.3-3.147.898-.894.591-1.587 1.455-2.08 2.591-.492 1.129-.739 2.5-.739 4.114 0 1.659.247 3.053.739 4.181.5 1.13 1.197 1.981 2.091 2.557.894.576 1.928.864 3.102.864a6.14 6.14 0 001.83-.261 4.804 4.804 0 001.511-.762 4.38 4.38 0 001.091-1.238c.296-.485.5-1.038.614-1.66l4.977.023a9.012 9.012 0 01-.966 3.091 9.273 9.273 0 01-2.057 2.648c-.856.772-1.879 1.386-3.068 1.84-1.182.448-2.519.671-4.011.671-2.076 0-3.932-.47-5.568-1.409-1.629-.94-2.917-2.3-3.864-4.08-.939-1.78-1.409-3.935-1.409-6.465 0-2.538.477-4.697 1.432-6.478.954-1.78 2.25-3.136 3.886-4.068 1.636-.94 3.477-1.409 5.523-1.409 1.348 0 2.598.19 3.75.568a9.507 9.507 0 013.079 1.66 8.54 8.54 0 012.182 2.647c.568 1.046.932 2.242 1.091 3.591zM538.993 68h-5.272l8.034-23.273h6.341L556.118 68h-5.272l-5.83-17.955h-.182L538.993 68zm-.329-9.148h12.454v3.841h-12.454v-3.84zM558.443 68V44.727h4.921v19.216h9.977V68h-14.898zm24.611 0V44.727h9.182c1.765 0 3.269.337 4.511 1.012 1.243.666 2.19 1.594 2.841 2.784.659 1.181.989 2.545.989 4.09 0 1.546-.334 2.91-1 4.092-.667 1.181-1.633 2.102-2.898 2.76-1.258.66-2.78.99-4.568.99h-5.852V56.51h5.056c.947 0 1.728-.163 2.341-.488.621-.334 1.084-.792 1.387-1.375.31-.591.466-1.27.466-2.034 0-.773-.156-1.447-.466-2.023-.303-.583-.766-1.034-1.387-1.352-.621-.326-1.409-.489-2.363-.489h-3.319V68h-4.92zm20.243 0V44.727h9.182c1.757 0 3.257.315 4.5.944 1.25.62 2.2 1.503 2.852 2.647.659 1.137.988 2.474.988 4.012 0 1.545-.333 2.875-1 3.988-.666 1.106-1.632 1.955-2.897 2.546-1.258.59-2.781.886-4.568.886h-6.148v-3.955h5.352c.94 0 1.72-.128 2.341-.386.621-.258 1.083-.644 1.386-1.159.311-.515.466-1.155.466-1.92 0-.773-.155-1.425-.466-1.955-.303-.53-.769-.932-1.397-1.205-.622-.28-1.406-.42-2.353-.42h-3.318V68h-4.92zm12.568-10.59L621.649 68h-5.432l-5.659-10.59h5.307zm29.342-1.046c0 2.538-.481 4.697-1.443 6.477-.955 1.78-2.258 3.14-3.909 4.08-1.644.931-3.493 1.397-5.546 1.397-2.068 0-3.924-.47-5.568-1.409-1.644-.94-2.943-2.3-3.898-4.08-.954-1.78-1.431-3.935-1.431-6.465 0-2.538.477-4.697 1.431-6.478.955-1.78 2.254-3.136 3.898-4.068 1.644-.94 3.5-1.409 5.568-1.409 2.053 0 3.902.47 5.546 1.41 1.651.931 2.954 2.287 3.909 4.067.962 1.78 1.443 3.94 1.443 6.478zm-4.989 0c0-1.644-.246-3.03-.738-4.16-.485-1.128-1.171-1.984-2.057-2.568-.886-.583-1.924-.875-3.114-.875-1.189 0-2.227.292-3.113.875-.887.584-1.576 1.44-2.068 2.569-.485 1.128-.728 2.515-.728 4.159 0 1.644.243 3.03.728 4.159.492 1.128 1.181 1.985 2.068 2.568.886.583 1.924.875 3.113.875 1.19 0 2.228-.292 3.114-.875.886-.583 1.572-1.44 2.057-2.568.492-1.13.738-2.515.738-4.16zm28.692-3.489h-4.977a4.876 4.876 0 00-.557-1.716c-.28-.508-.64-.94-1.08-1.295a4.74 4.74 0 00-1.522-.819 5.827 5.827 0 00-1.853-.284c-1.204 0-2.253.3-3.147.898-.894.591-1.587 1.455-2.08 2.591-.492 1.129-.738 2.5-.738 4.114 0 1.659.246 3.053.738 4.181.5 1.13 1.197 1.981 2.091 2.557.894.576 1.928.864 3.102.864a6.14 6.14 0 001.83-.261 4.804 4.804 0 001.511-.762 4.38 4.38 0 001.091-1.238c.296-.485.5-1.038.614-1.66l4.977.023a9.012 9.012 0 01-.966 3.091 9.273 9.273 0 01-2.057 2.648c-.856.772-1.878 1.386-3.068 1.84-1.182.448-2.519.671-4.011.671-2.076 0-3.932-.47-5.568-1.409-1.629-.94-2.917-2.3-3.864-4.08-.939-1.78-1.409-3.935-1.409-6.465 0-2.538.477-4.697 1.432-6.478.954-1.78 2.25-3.136 3.886-4.068 1.636-.94 3.477-1.409 5.523-1.409 1.348 0 2.598.19 3.75.568a9.507 9.507 0 013.079 1.66 8.526 8.526 0 012.182 2.647c.568 1.046.932 2.242 1.091 3.591zM671.963 68V44.727h15.681v4.057h-10.761v5.546h9.955v4.056h-9.955v5.557h10.807V68h-15.727zm31.742-16.58c-.091-.916-.481-1.628-1.17-2.136-.69-.508-1.625-.761-2.807-.761-.803 0-1.481.113-2.034.34-.553.22-.977.527-1.273.921a2.215 2.215 0 00-.432 1.341c-.015.417.072.78.262 1.09.197.311.466.58.807.808.34.22.734.413 1.181.58.447.158.925.295 1.432.408l2.091.5c1.015.228 1.947.53 2.796.91a8.491 8.491 0 012.204 1.397 5.812 5.812 0 011.443 1.955c.349.75.527 1.61.534 2.58-.007 1.423-.371 2.658-1.091 3.704-.712 1.038-1.742 1.844-3.09 2.42-1.341.569-2.959.852-4.853.852-1.878 0-3.515-.287-4.909-.863-1.386-.576-2.469-1.428-3.25-2.557-.773-1.136-1.178-2.542-1.216-4.216h4.762c.053.78.276 1.432.67 1.955.402.515.936.905 1.602 1.17.675.258 1.436.386 2.284.386.834 0 1.557-.12 2.171-.363.621-.242 1.102-.58 1.443-1.011.341-.432.511-.928.511-1.49 0-.522-.155-.961-.465-1.317-.303-.356-.75-.66-1.341-.91-.584-.25-1.3-.477-2.148-.681l-2.534-.637c-1.962-.477-3.512-1.223-4.648-2.238-1.136-1.015-1.701-2.383-1.693-4.102-.008-1.41.367-2.64 1.125-3.694.765-1.053 1.814-1.875 3.148-2.466 1.333-.59 2.848-.886 4.545-.886 1.727 0 3.235.296 4.523.886 1.295.591 2.303 1.413 3.023 2.466.719 1.053 1.09 2.273 1.113 3.66h-4.716zm20.493 0c-.091-.916-.481-1.628-1.17-2.136-.69-.508-1.625-.761-2.807-.761-.803 0-1.481.113-2.034.34-.553.22-.978.527-1.273.921a2.215 2.215 0 00-.432 1.341c-.015.417.072.78.262 1.09.197.311.465.58.806.808.341.22.735.413 1.182.58.447.158.924.295 1.432.408l2.091.5a14.73 14.73 0 012.795.91 8.48 8.48 0 012.205 1.397 5.812 5.812 0 011.443 1.955c.349.75.527 1.61.534 2.58-.007 1.423-.371 2.658-1.091 3.704-.712 1.038-1.742 1.844-3.091 2.42-1.341.569-2.958.852-4.852.852-1.879 0-3.515-.287-4.909-.863-1.386-.576-2.47-1.428-3.25-2.557-.773-1.136-1.178-2.542-1.216-4.216h4.761c.053.78.277 1.432.671 1.955.401.515.936.905 1.602 1.17.674.258 1.436.386 2.284.386.834 0 1.557-.12 2.171-.363.621-.242 1.102-.58 1.443-1.011.341-.432.511-.928.511-1.49 0-.522-.155-.961-.466-1.317-.303-.356-.75-.66-1.341-.91-.583-.25-1.299-.477-2.147-.681l-2.534-.637c-1.962-.477-3.512-1.223-4.648-2.238-1.136-1.015-1.701-2.383-1.693-4.102-.008-1.41.367-2.64 1.125-3.694.765-1.053 1.814-1.875 3.147-2.466 1.334-.59 2.849-.886 4.546-.886 1.727 0 3.235.296 4.523.886 1.295.591 2.303 1.413 3.022 2.466.72 1.053 1.091 2.273 1.114 3.66h-4.716z" fill="#000"></path></svg>