<svg viewBox="0 0 1200 900" fill="none" xmlns="http://www.w3.org/2000/svg"><path fill="#fff" d="M0 0h1200v900H0z"></path><g clip-path="url(#clip0_1_160)"><path fill-rule="evenodd" clip-rule="evenodd" d="M411.402 690.981a9.403 9.403 0 019.404 9.403v35.733a9.404 9.404 0 01-9.404 9.404H80.403A9.403 9.403 0 0171 736.117v-35.733a9.403 9.403 0 019.403-9.403h330.999z" fill="#D2D2D2"></path><path fill="#A3A3A3" d="M129.299 702.266h7.523v7.523h-7.523zm0 11.283h7.523v7.523h-7.523zm0 11.284h7.523v7.523h-7.523zm11.287-22.567h7.523v7.523h-7.523zm0 11.283h7.523v7.523h-7.523zm0 11.284h7.523v7.523h-7.523zm11.283-22.567h7.523v7.523h-7.523zm0 11.283h7.523v7.523h-7.523zm0 11.284h7.523v7.523h-7.523zm11.284-22.567h7.523v7.523h-7.523zm0 11.283h7.523v7.523h-7.523zm0 11.284h7.523v7.523h-7.523zm11.284-22.567h7.523v7.523h-7.523zm0 11.283h7.523v7.523h-7.523zm0 11.284h7.523v7.523h-7.523zm11.284-22.567h7.523v7.523h-7.523zm0 11.283h7.523v7.523h-7.523zm0 11.284h7.523v7.523h-7.523zm11.286-22.567h7.523v7.523h-7.523zm0 11.283h7.523v7.523h-7.523zm0 11.284h7.523v7.523h-7.523zm11.281-22.567h7.523v7.523h-7.523zm0 11.283h7.523v7.523h-7.523zm0 11.284h7.523v7.523h-7.523zm11.284-22.567h7.523v7.523h-7.523zm0 11.283h7.523v7.523h-7.523zm0 11.284h7.523v7.523h-7.523zm11.286-22.567h7.523v7.523h-7.523zm0 11.283h7.523v7.523h-7.523zm0 11.284h7.523v7.523h-7.523zm11.284-22.567h7.523v7.523h-7.523zm0 11.283h7.523v7.523h-7.523zm0 11.284h7.523v7.523h-7.523zm11.284-22.567h7.523v7.523h-7.523zm0 11.283h7.523v7.523h-7.523zm0 11.284h7.523v7.523h-7.523zm11.284-22.567h7.523v7.523h-7.523zm0 11.283h7.523v7.523h-7.523zm0 11.284h7.523v7.523h-7.523zm11.283-22.567h7.523v7.523h-7.523zm0 11.283h7.523v7.523h-7.523zm0 11.284h7.523v7.523h-7.523zm11.286-22.567h7.523v7.523h-7.523zm0 11.283h7.523v7.523h-7.523zm0 11.284h7.523v7.523h-7.523zm11.282-22.567h7.523v7.523h-7.523zm0 11.283h7.523v7.523h-7.523zm0 11.284h7.523v7.523h-7.523zm11.284-22.567h7.523v7.523h-7.523zm0 11.283h7.523v7.523h-7.523zm0 11.284h7.523v7.523h-7.523zm11.286-22.567h7.523v7.523h-7.523zm0 11.283h7.523v7.523h-7.523zm0 11.284h7.523v7.523h-7.523zm11.284-22.567h7.523v7.523h-7.523zm0 11.283h7.523v7.523h-7.523zm0 11.284h7.523v7.523h-7.523zm11.283-22.567h7.523v7.523h-7.523zm0 11.283h7.523v7.523h-7.523zm0 11.284h7.523v7.523h-7.523zm11.284-22.567h7.523v7.523h-7.523zm0 11.283h7.523v7.523h-7.523zm0 11.284h7.523v7.523h-7.523zm11.284-22.567h7.523v7.523h-7.523zm0 11.283h7.523v7.523h-7.523zm0 11.284h7.523v7.523h-7.523zm11.284-22.567h7.523v7.523h-7.523zm0 11.283h7.523v7.523h-7.523zm0 11.284h7.523v7.523h-7.523zm11.283-22.567h7.523v7.523h-7.523zm0 11.283h7.523v7.523h-7.523zm0 11.284h7.523v7.523h-7.523zm11.284-22.567h7.523v7.523h-7.523zm0 11.283h7.523v7.523h-7.523zm0 11.284h7.523v7.523h-7.523z"></path></g><g clip-path="url(#clip1_1_160)"><path fill-rule="evenodd" clip-rule="evenodd" d="M411.402 751.163a9.403 9.403 0 019.404 9.403v35.733a9.403 9.403 0 01-9.404 9.403H80.403A9.403 9.403 0 0171 796.299v-35.733a9.403 9.403 0 019.403-9.403h330.999z" fill="#326CE5"></path><path fill="#fff" d="M129.299 762.446h7.523v7.523h-7.523zm0 11.284h7.523v7.523h-7.523zm0 11.284h7.523v7.523h-7.523zm11.287-22.568h7.523v7.523h-7.523zm0 11.284h7.523v7.523h-7.523zm0 11.284h7.523v7.523h-7.523zm11.283-22.568h7.523v7.523h-7.523zm0 11.284h7.523v7.523h-7.523zm0 11.284h7.523v7.523h-7.523zm11.284-22.568h7.523v7.523h-7.523zm0 11.284h7.523v7.523h-7.523zm0 11.284h7.523v7.523h-7.523zm11.284-22.568h7.523v7.523h-7.523zm0 11.284h7.523v7.523h-7.523zm0 11.284h7.523v7.523h-7.523zm11.284-22.568h7.523v7.523h-7.523zm0 11.284h7.523v7.523h-7.523zm0 11.284h7.523v7.523h-7.523zm11.286-22.568h7.523v7.523h-7.523zm0 11.284h7.523v7.523h-7.523zm0 11.284h7.523v7.523h-7.523zm11.281-22.568h7.523v7.523h-7.523zm0 11.284h7.523v7.523h-7.523zm0 11.284h7.523v7.523h-7.523zm11.284-22.568h7.523v7.523h-7.523zm0 11.284h7.523v7.523h-7.523zm0 11.284h7.523v7.523h-7.523zm11.286-22.568h7.523v7.523h-7.523zm0 11.284h7.523v7.523h-7.523zm0 11.284h7.523v7.523h-7.523zm11.284-22.568h7.523v7.523h-7.523zm0 11.284h7.523v7.523h-7.523zm0 11.284h7.523v7.523h-7.523zm11.284-22.568h7.523v7.523h-7.523zm0 11.284h7.523v7.523h-7.523zm0 11.284h7.523v7.523h-7.523zm11.284-22.568h7.523v7.523h-7.523zm0 11.284h7.523v7.523h-7.523zm0 11.284h7.523v7.523h-7.523zm11.283-22.568h7.523v7.523h-7.523zm0 11.284h7.523v7.523h-7.523zm0 11.284h7.523v7.523h-7.523zm11.286-22.568h7.523v7.523h-7.523zm0 11.284h7.523v7.523h-7.523zm0 11.284h7.523v7.523h-7.523zm11.282-22.568h7.523v7.523h-7.523zm0 11.284h7.523v7.523h-7.523zm0 11.284h7.523v7.523h-7.523zm11.284-22.568h7.523v7.523h-7.523zm0 11.284h7.523v7.523h-7.523zm0 11.284h7.523v7.523h-7.523zm11.286-22.568h7.523v7.523h-7.523zm0 11.284h7.523v7.523h-7.523zm0 11.284h7.523v7.523h-7.523zm11.284-22.568h7.523v7.523h-7.523zm0 11.284h7.523v7.523h-7.523zm0 11.284h7.523v7.523h-7.523zm11.283-22.568h7.523v7.523h-7.523zm0 11.284h7.523v7.523h-7.523zm0 11.284h7.523v7.523h-7.523zm11.284-22.568h7.523v7.523h-7.523zm0 11.284h7.523v7.523h-7.523zm0 11.284h7.523v7.523h-7.523zm11.284-22.568h7.523v7.523h-7.523zm0 11.284h7.523v7.523h-7.523zm0 11.284h7.523v7.523h-7.523zm11.284-22.568h7.523v7.523h-7.523zm0 11.284h7.523v7.523h-7.523zm0 11.284h7.523v7.523h-7.523zm11.283-22.568h7.523v7.523h-7.523zm0 11.284h7.523v7.523h-7.523zm0 11.284h7.523v7.523h-7.523zm11.284-22.568h7.523v7.523h-7.523zm0 11.284h7.523v7.523h-7.523zm0 11.284h7.523v7.523h-7.523z"></path></g><g clip-path="url(#clip2_1_160)"><path fill-rule="evenodd" clip-rule="evenodd" d="M411.402 76a9.403 9.403 0 019.404 9.403v590.533a9.403 9.403 0 01-9.404 9.403H80.403A9.403 9.403 0 0171 675.936V85.403A9.403 9.403 0 0180.403 76h330.999z" fill="#D2D2D2"></path><path fill="#A3A3A3" d="M84.164 87.284h7.523v7.523h-7.523zm0 11.284h7.523v7.523h-7.523zm0 11.284h7.523v7.523h-7.523zm11.284-22.568h7.523v7.523h-7.523zm0 11.284h7.523v7.523h-7.523zm0 11.284h7.523v7.523h-7.523zm11.286-22.568h7.523v7.523h-7.523zm0 11.284h7.523v7.523h-7.523zm0 11.284h7.523v7.523h-7.523zm11.282-22.568h7.523v7.523h-7.523zm0 11.284h7.523v7.523h-7.523zm0 11.284h7.523v7.523h-7.523zm11.283-22.568h7.523v7.523h-7.523zm0 11.284h7.523v7.523h-7.523zm0 11.284h7.523v7.523h-7.523zm11.287-22.568h7.523v7.523h-7.523zm0 11.284h7.523v7.523h-7.523zm0 11.284h7.523v7.523h-7.523zm11.283-22.568h7.523v7.523h-7.523zm0 11.284h7.523v7.523h-7.523zm0 11.284h7.523v7.523h-7.523zm11.284-22.568h7.523v7.523h-7.523zm0 11.284h7.523v7.523h-7.523zm0 11.284h7.523v7.523h-7.523zm11.284-22.568h7.523v7.523h-7.523zm0 11.284h7.523v7.523h-7.523zm0 11.284h7.523v7.523h-7.523zm11.284-22.568h7.523v7.523h-7.523zm0 11.284h7.523v7.523h-7.523zm0 11.284h7.523v7.523h-7.523zm11.286-22.568h7.523v7.523h-7.523zm0 11.284h7.523v7.523h-7.523zm0 11.284h7.523v7.523h-7.523zm11.281-22.568h7.523v7.523h-7.523zm0 11.284h7.523v7.523h-7.523zm0 11.284h7.523v7.523h-7.523zm11.284-22.568h7.523v7.523h-7.523zm0 11.284h7.523v7.523h-7.523zm0 11.284h7.523v7.523h-7.523zm11.286-22.568h7.523v7.523h-7.523zm0 11.284h7.523v7.523h-7.523zm0 11.284h7.523v7.523h-7.523zm11.284-22.568h7.523v7.523h-7.523zm0 11.284h7.523v7.523h-7.523zm0 11.284h7.523v7.523h-7.523zm11.284-22.568h7.523v7.523h-7.523zm0 11.284h7.523v7.523h-7.523zm0 11.284h7.523v7.523h-7.523zm11.284-22.568h7.523v7.523h-7.523zm0 11.284h7.523v7.523h-7.523zm0 11.284h7.523v7.523h-7.523zm11.283-22.568h7.523v7.523h-7.523zm0 11.284h7.523v7.523h-7.523zm0 11.284h7.523v7.523h-7.523zm11.286-22.568h7.523v7.523h-7.523zm0 11.284h7.523v7.523h-7.523zm0 11.284h7.523v7.523h-7.523zm11.282-22.568h7.523v7.523h-7.523zm0 11.284h7.523v7.523h-7.523zm0 11.284h7.523v7.523h-7.523zm11.284-22.568h7.523v7.523h-7.523zm0 11.284h7.523v7.523h-7.523zm0 11.284h7.523v7.523h-7.523zm11.286-22.568h7.523v7.523h-7.523zm0 11.284h7.523v7.523h-7.523zm0 11.284h7.523v7.523h-7.523zm11.284-22.568h7.523v7.523h-7.523zm0 11.284h7.523v7.523h-7.523zm0 11.284h7.523v7.523h-7.523zm11.283-22.568h7.523v7.523h-7.523zm0 11.284h7.523v7.523h-7.523zm0 11.284h7.523v7.523h-7.523zm11.284-22.568h7.523v7.523h-7.523zm0 11.284h7.523v7.523h-7.523zm0 11.284h7.523v7.523h-7.523zm11.284-22.568h7.523v7.523h-7.523zm0 11.284h7.523v7.523h-7.523zm0 11.284h7.523v7.523h-7.523zm11.284-22.568h7.523v7.523h-7.523zm0 11.284h7.523v7.523h-7.523zm0 11.284h7.523v7.523h-7.523zm11.283-22.568h7.523v7.523h-7.523zm0 11.284h7.523v7.523h-7.523zm0 11.284h7.523v7.523h-7.523zm11.284-22.568h7.523v7.523h-7.523zm0 11.284h7.523v7.523h-7.523zm0 11.284h7.523v7.523h-7.523zm-315.953 554.8h7.523v7.523h-7.523zm11.284 0h7.523v7.523h-7.523zm11.286 0h7.523v7.523h-7.523zm11.282 0h7.523v7.523h-7.523zm11.283 0h7.523v7.523h-7.523zm11.287 0h7.523v7.523h-7.523zm11.283 0h7.523v7.523h-7.523zm11.284 0h7.523v7.523h-7.523zm11.284 0h7.523v7.523h-7.523zm11.284 0h7.523v7.523h-7.523zm11.286 0h7.523v7.523h-7.523zm11.281 0h7.523v7.523h-7.523zm11.284 0h7.523v7.523h-7.523zm11.286 0h7.523v7.523h-7.523zm11.284 0h7.523v7.523h-7.523zm11.284 0h7.523v7.523h-7.523zm11.284 0h7.523v7.523h-7.523zm11.283 0h7.523v7.523h-7.523zm11.286 0h7.523v7.523h-7.523zm11.282 0h7.523v7.523h-7.523zm11.284 0h7.523v7.523h-7.523zm11.286 0h7.523v7.523h-7.523zm11.284 0h7.523v7.523h-7.523zm11.283 0h7.523v7.523h-7.523zm11.284 0h7.523v7.523h-7.523zm11.284 0h7.523v7.523h-7.523zm11.284 0h7.523v7.523h-7.523zm11.283 0h7.523v7.523h-7.523zm11.284 0h7.523v7.523h-7.523z"></path><rect x="84.164" y="130.54" width="323.476" height="522.828" rx="3.761" fill="#fff"></rect></g><path fill-rule="evenodd" clip-rule="evenodd" d="M104.868 716.071h4.466v-4.061h-4.466v4.061zm-5.278 0h4.466v-4.061H99.59v4.061zm-5.278 0h4.467v-4.061h-4.467v4.061zm-5.28 0H93.5v-4.061h-4.467v4.061zm-5.278 0h4.467v-4.061h-4.467v4.061zm5.278-4.872H93.5v-4.061h-4.467v4.061zm5.28 0h4.467v-4.061h-4.467v4.061zm5.278 0h4.466v-4.061H99.59v4.061zm0-4.873h4.466v-4.06H99.59v4.06zm23.166 7.377c-.975-.653-3.216-.892-4.941-.567-.222-1.624-1.127-3.033-2.774-4.306l-.947-.631-.632.947c-.809 1.22-1.213 2.91-1.08 4.53.059.57.247 1.59.833 2.487-.586.314-1.745.748-3.272.719H80.57l-.058.339c-.276 1.628-.27 6.71 3.03 10.616 2.507 2.969 6.268 4.474 11.175 4.474 10.639 0 18.51-4.897 22.196-13.799 1.45.029 4.571.008 6.174-3.055.042-.07.138-.254.418-.834l.153-.318-.902-.602z" fill="#A3A3A3"></path><path d="M101.444 760.618a2.331 2.331 0 00-.884.224l-12.064 5.779a2.294 2.294 0 00-1.248 1.555l-2.976 12.98a2.281 2.281 0 00.444 1.941l8.35 10.407a2.314 2.314 0 001.804.863l13.39-.003c.702 0 1.365-.317 1.803-.862l8.347-10.408a2.285 2.285 0 00.446-1.941l-2.981-12.98a2.292 2.292 0 00-1.248-1.555l-12.065-5.776a2.332 2.332 0 00-1.118-.224z" fill="#326CE5" stroke="#fff" stroke-width=".94"></path><path fill-rule="evenodd" clip-rule="evenodd" d="M101.563 765.035c-.399 0-.722.36-.722.804l.001.011.001.009-.001.06c-.001.045-.002.09-.001.126.006.169.033.311.06.457.013.075.027.151.039.231l.001.01c.06.501.11.916.079 1.303-.031.147-.138.281-.234.374l-.017.306a9.286 9.286 0 00-6.024 2.903 9.887 9.887 0 01-.26-.185.93.93 0 00-.052.008c-.113.017-.23.036-.377-.05-.32-.215-.61-.512-.961-.869l-.013-.013c-.055-.058-.105-.116-.155-.173-.097-.112-.192-.222-.32-.332a3.28 3.28 0 00-.117-.095l-.043-.034a.859.859 0 00-.504-.19.699.699 0 00-.575.255c-.249.313-.169.791.177 1.067l.006.005.005.003.043.035c.037.031.076.063.107.086.135.1.263.168.392.237.068.036.136.072.207.114.431.267.79.489 1.073.756.1.106.125.283.14.384l.005.034.232.207a9.385 9.385 0 00-1.474 6.53l-.302.088-.029.038c-.077.101-.177.233-.281.276-.368.116-.78.159-1.278.212l-.017.001c-.081.007-.159.01-.236.013a3.018 3.018 0 00-.456.043 2.097 2.097 0 00-.135.031l-.058.014-.006.001-.006.002-.005.002c-.426.103-.7.495-.611.881.088.387.504.622.932.529l.005-.001h.006a.254.254 0 00.013-.005l.056-.012c.046-.01.094-.02.131-.03.164-.044.298-.101.434-.16.07-.03.14-.06.214-.089l.02-.007c.47-.169.86-.309 1.24-.364.142-.011.291.076.382.129l.032.018.315-.054a9.416 9.416 0 004.164 5.212l-.131.315c.047.123.1.289.064.41-.14.364-.38.748-.653 1.177-.045.067-.09.129-.135.191a2.99 2.99 0 00-.253.388c-.018.034-.04.081-.06.124v.001a2.81 2.81 0 01-.032.069c-.186.398-.05.857.307 1.029.358.173.804-.01.996-.408l.002-.002v-.001l.03-.061c.021-.043.044-.088.06-.124.067-.154.104-.294.143-.436.02-.074.04-.149.065-.227.056-.143.106-.288.154-.43.113-.334.22-.649.405-.87.072-.086.19-.12.31-.152l.164-.297a9.309 9.309 0 006.664.017l.083.149.071.129a.965.965 0 00.05.016c.109.033.224.067.319.208.194.333.328.725.488 1.198l.007.02c.024.076.045.15.065.223.039.144.077.284.145.44.016.038.04.086.062.131h.001v.001l.015.029.012.025c.192.4.638.583.998.41.356-.173.492-.631.307-1.029l-.014-.028-.014-.03c-.022-.047-.046-.099-.066-.137a3.05 3.05 0 00-.251-.385 5.32 5.32 0 01-.137-.192c-.273-.428-.5-.785-.64-1.149-.05-.162-.007-.271.036-.376l.02-.051a1.016 1.016 0 01-.082-.191 3.337 3.337 0 00-.039-.101 9.415 9.415 0 004.163-5.249c.093.015.256.043.308.054l.045-.03c.093-.065.191-.133.36-.12.379.055.769.195 1.237.363l.022.008c.076.029.147.06.217.091.135.058.268.116.431.16.033.009.076.017.117.026h.001l.068.014.014.005.011.001c.428.092.844-.142.932-.529.088-.386-.185-.778-.611-.881l-.078-.019a2.013 2.013 0 00-.132-.031 3.015 3.015 0 00-.456-.043c-.077-.003-.155-.006-.237-.013l-.015-.001c-.498-.053-.911-.096-1.279-.212-.134-.052-.233-.199-.291-.284a.907.907 0 01-.021-.03l-.291-.085a9.363 9.363 0 00-.152-3.379 9.357 9.357 0 00-1.353-3.135l.147-.132.109-.099.004-.052c.008-.114.016-.233.132-.358.284-.267.642-.488 1.074-.756.071-.042.14-.078.208-.115.13-.069.258-.136.392-.236.031-.023.07-.055.107-.085l.052-.043c.347-.277.426-.755.178-1.068-.249-.312-.731-.342-1.077-.065l-.045.035c-.04.032-.084.066-.116.094-.129.111-.225.222-.323.334-.05.057-.099.114-.154.172l-.025.026c-.345.351-.633.644-.948.857-.123.072-.297.058-.401.05l-.037-.002-.275.196a9.457 9.457 0 00-5.994-2.903 20.517 20.517 0 01-.017-.323l-.039-.037c-.084-.077-.172-.157-.197-.325-.03-.379.019-.787.077-1.275l.005-.038c.011-.08.025-.156.039-.231.027-.146.053-.288.06-.457.001-.038 0-.086-.001-.133l-.001-.073c0-.444-.323-.804-.722-.804zm-.904 5.614l-.214 3.797-.016.008a.637.637 0 01-1.01.489l-.007.003-3.105-2.207a7.431 7.431 0 014.352-2.09zm6.136 2.091a7.494 7.494 0 00-4.326-2.091l.214 3.791.003.001a.637.637 0 001.012.488l.011.004 3.086-2.193zm-11.615 1.416l2.836 2.543-.003.015a.64.64 0 01-.25 1.097l-.003.012-3.635 1.052a7.471 7.471 0 011.055-4.719zm13.676 2.28a7.57 7.57 0 00-.93-2.278l-2.82 2.53.001.008a.638.638 0 00.25 1.096l.003.016 3.654 1.055c.077-.79.03-1.608-.158-2.427zm-7.875.459h1.162l.722.905-.259 1.129-1.043.503-1.046-.504-.259-1.129.723-.904zm3.871 3.108a.596.596 0 00-.39.052.64.64 0 00-.308.828l-.005.006 1.459 3.534a7.468 7.468 0 003.011-3.791l-3.76-.637-.007.008zm-6.461.005a.637.637 0 01.575.889l.011.014-1.444 3.498a7.49 7.49 0 01-3-3.764l3.727-.634.006.007a.663.663 0 01.125-.01zm3.447 1.595a.633.633 0 00-.836.274h-.004l-1.833 3.322a7.45 7.45 0 004.075.21c.251-.057.496-.125.735-.205l-1.838-3.329h-.014a.632.632 0 00-.285-.272z" fill="#fff"></path><path d="M100.841 765.839h.47-.47zm.722-.804v-.471.471zm-.721.815l-.467.051.467-.051zm.001.009l.47.005v-.015l-.47.01zm-.001.06l-.471-.01v.01h.471zm0 0l.47.01v-.01h-.47zm-.001.126l.47-.018-.47.018zm.06.457l-.463.085.007.035.012.034.444-.154zm0 0l.462-.086-.007-.035-.011-.034-.444.155zm.039.231l.467-.056-.002-.01-.465.066zm.001.01l.467-.056-.467.056zm.079 1.303l.46.096.006-.029.003-.029-.469-.038zm-.234.374l-.328-.337-.132.128-.01.183.47.026zm-.017.306l.038.469.408-.034.023-.409-.469-.026zm-1.306.201l-.104-.458.104.458zm-4.718 2.702l-.265.388.332.228.276-.294-.343-.322zm-.26-.185l.28-.378-.154-.114-.19.026.064.466zm-.052.008l.074.464-.074-.464zm-.377-.05l-.263.39.012.008.014.008.237-.406zm-.961-.869l.335-.329-.335.329zm-.013-.013l-.342.323.007.007.335-.33zm-.155-.173l.355-.308-.355.308zm-.32-.332l-.307.356.307-.356zm-.117-.095l.29-.37-.004-.002-.286.372zm0 0l-.291.37.004.003.287-.373zm-.043-.034l-.294.368.003.002.29-.37zm-.504-.19l-.016.47.016-.47zm-.575.255l-.368-.292.368.292zm.177 1.067l-.293.368.293-.368zm.006.005l.273-.383-.008-.006-.265.389zm.005.003l.299-.363-.013-.01-.013-.01-.273.383zm.043.035l.3-.362-.002-.001-.298.363zm.107.086l.28-.378-.28.378zm.392.237l-.22.415.22-.415zm.207.114l.247-.4-.009-.005-.239.405zm1.073.756l.344-.321-.01-.011-.011-.01-.323.342zm.14.384l-.465.069.465-.069zm.005.034l-.464.076.027.163.124.111.313-.35zm.232.207l.392.26.224-.339-.302-.271-.314.35zm-1.474 6.53l.132.451.392-.114-.058-.404-.466.067zm-.302.088l-.132-.451-.148.043-.094.123.374.285zm-.029.038l-.374-.285v.001l.374.284zm-.281.276l.141.448.02-.006.018-.007-.18-.435zm-1.278.212l.049.467-.05-.467zm-.017.001l.04.469.01-.001-.05-.468zm-.236.013v.47h.019l-.019-.47zm0 0v-.47h-.018l.018.47zm-.456.043l-.088-.462.088.462zm-.135.031l.1.46.011-.003-.111-.457zm0 0l-.1-.46-.01.003-.01.002.12.455zm0 0l.112.457.008-.002-.12-.455zm0 0l.111.457-.111-.457zm-.058.014l-.108-.458-.006.002.114.456zm-.006.001l-.115-.456-.007.002-.008.003.13.451zm-.006.002l.13.452-.13-.452zm-.005.002l.11.457.01-.003.009-.002-.13-.452zm-.611.881l-.459.105.459-.105zm.932.529l.1.46.005-.002-.105-.458zm.005-.001l.05.468h.001l-.05-.468zm.006 0l.102.458h.003l-.105-.458zm.007-.003l-.17-.439.17.439zm.006-.002l-.098-.46-.014.003.112.457zm.056-.012l.098.46.008-.002.008-.002-.114-.456zm0 0l-.098-.46-.009.002-.008.002.115.456zm.131-.03l.122.454-.122-.454zm.434-.16l-.186-.432.186.432zm.214-.089l-.159-.442-.01.003.17.439zm.02-.007l.16.442-.16-.442zm1.24-.364l-.038-.469-.015.001-.015.003.067.465zm.382.129l.238-.406-.001-.001-.237.407zm0 0l-.237.405.002.002.235-.407zm0 0l.237-.407-.236.407zm.032.018l-.23.41.145.081.165-.028-.08-.463zm.315-.054l.447-.144-.125-.389-.402.069.08.464zm4.164 5.212l.434.18.157-.376-.35-.208-.241.404zm-.131.315l-.434-.18-.073.174.068.176.439-.17zm.064.41l.439.168.007-.018.005-.019-.451-.131zm-.653 1.177l.39.261.006-.008-.396-.253zm-.135.191l-.38-.277.38.277zm-.253.388l.416.219-.416-.219zm-.06.124l.427.198v-.001l-.427-.197zm0 .001l-.427-.198v.001l.427.197zm-.032.069l-.424-.203-.002.005.426.198zm.307 1.029l-.205.423.205-.423zm.996-.408l-.416-.219-.004.007-.003.007.423.205zm.002-.002l.424.203.046-.096v-.107h-.47zm0-.001l-.423-.206-.047.097v.109h.47zm.03-.061l.42.21-.42-.21zm0 0l-.42-.21.42.21zm.06-.124l-.432-.187.431.187zm.143-.436l-.454-.122.454.122zm.065-.227l-.437-.174-.007.016-.005.016.449.142zm.154-.43l.445.151.003-.01-.448-.141zm0 0l-.446-.151-.003.011.449.14zm.405-.87l-.361-.302.36.302zm.31-.152l.123.454.193-.052.097-.175-.412-.227zm.164-.297l.17-.439-.384-.147-.198.359.412.227zm5.425.391l-.104-.458.104.458zm1.239-.374l.41-.231-.199-.352-.378.143.167.44zm.083.149l-.412.227.003.006.409-.233zm0 0l.412-.227-.004-.006-.408.233zm.071.129l-.407.236.09.155.171.056.146-.447zm.05.016l.136-.451-.136.451zm.319.208l.406-.237-.008-.013-.008-.012-.39.262zm.488 1.198l-.445.151.445-.151zm.007.02l.449-.142-.004-.01-.445.152zm.065.223l-.454.124.003.012.005.013.446-.149zm0 0l.453-.124-.003-.012-.004-.013-.446.149zm.145.44l.431-.188-.431.188zm.062.131l-.421.208.001.002.42-.21zm.001 0l.421-.208-.001-.002-.42.21zm0 .001l.422-.208-.001-.001-.421.209zm.015.029l.422-.206-.001-.002-.421.208zm.012.025l.423-.204-.001-.003-.422.207zm.998.41l.204.423-.204-.423zm.307-1.029l.426-.199-.002-.003-.424.202zm-.014-.028l-.425.201.001.001.424-.202zm-.014-.03l-.425.2v.001l.425-.201zm-.066-.137l-.416.219.416-.219zm-.251-.385l.379-.277-.379.277zm-.137-.192l-.396.253.005.009.391-.262zm-.64-1.149l-.449.14.005.015.005.014.439-.169zm.036-.376l-.436-.176.436.176zm.02-.051l.44.165.098-.262-.184-.211-.354.308zm-.082-.191l.441-.163-.441.163zm-.039-.101l-.239-.405-.351.208.156.377.434-.18zm4.163-5.249l.073-.465-.399-.062-.122.385.448.142zm.308.054l-.092.461.19.038.162-.107-.26-.392zm.045-.03l.269.385-.269-.385zm.36-.12l.067-.465-.015-.003-.015-.001-.037.469zm1.237.363l-.159.443.159-.443zm.022.008l.168-.439-.009-.003-.159.442zm.217.091l.187-.432-.187.432zm.431.16l.122-.454h-.001l-.121.454zm.117.026l-.092.461.008.001.084-.462zm.001 0l.092-.461-.008-.002-.084.463zm.068.014l.112-.457-.011-.002-.101.459zm.014.005l-.104.458h.001l.103-.458zm.011.001l-.105.458.006.002.099-.46zm.932-.529l.458.104-.458-.104zm-.611-.881l.11-.457-.006-.002-.104.459zm-.078-.019l.114-.457-.01-.002-.104.459zm0 0l-.114.456.01.002.104-.458zm0 0l.114-.457h-.001l-.113.457zm-.132-.031l-.088.462.088-.462zm-.456-.043l-.019.47.019-.47zm-.237-.013l-.049.468.01.001.039-.469zm-.015-.001l-.049.467.049-.467zm-1.279-.212l-.17.438.014.006.014.004.142-.448zm-.291-.284l-.391.261.002.003.389-.264zm0 0l.391-.261-.002-.003-.389.264zm-.021-.03l.385-.271-.095-.134-.158-.046-.132.451zm-.291-.085l-.466-.064-.056.402.39.113.132-.451zm-.152-3.379l.459-.105-.459.105zm-1.353-3.135l-.316-.348-.3.273.226.336.39-.261zm.147-.132l.314.35.001-.001-.315-.349zm0 0l-.314-.351v.001l.314.35zm.109-.099l.319.346.133-.123.017-.181-.469-.042zm.004-.052l-.469-.032.469.032zm.132-.358l-.322-.342-.011.01-.011.012.344.32zm1.074-.756l.247.4h.001l-.248-.4zm0 0l-.239-.405-.009.006.248.399zm.208-.115l.221.415h.001l-.222-.415zm0 0l-.21-.42-.012.006.222.414zm0 0l.211.421.01-.006-.221-.415zm.392-.236l-.279-.378.279.378zm.107-.085l-.3-.363.3.363zm.052-.043l-.293-.368-.002.002.295.366zm.178-1.068l-.368.293.368-.293zm-1.077-.065l.29.37.003-.002-.293-.368zm-.045.035l.29.37h.001l-.291-.37zm-.116.094l.307.356-.307-.356zm-.323.334l.354.309-.354-.309zm-.154.172l.336.329.007-.007-.343-.322zm-.025.026l-.336-.33.336.33zm-.948.857l.237.406.013-.008.013-.009-.263-.389zm-.401.05l.037-.469h-.007l-.03.469zm0 0l-.036.469.007.001.029-.47zm-.037-.002l.027-.47-.165-.01-.136.097.274.383zm-.275.196l-.34.324.281.296.333-.238-.274-.382zm-5.994-2.903l-.469.031.027.402.401.035.041-.468zm-.017-.323l.47-.019-.008-.189-.136-.131-.326.339zm-.039-.037l-.317.347.317-.347zm-.197-.325l-.468.038.001.015.002.015.465-.068zm.077-1.275l.467.056-.467-.056zm.005-.038l-.466-.066-.001.01.467.056zm.039-.231l-.462-.086.462.086zm.06-.457l-.47-.018.47.018zm-.001-.133l-.47.009.47-.009zm-.001-.073h-.47v.002l.47-.002zm-1.84 8.607l.21.42.244-.122.015-.271-.469-.027zm.214-3.797l.469.027.032-.561-.558.067.057.467zm-.23 3.805l-.211-.421-.247.124-.012.277.47.02zm-1.01.489l.277-.38-.231-.169-.257.128.21.421zm-.007.003l-.272.383.23.164.253-.127-.21-.42zm-3.105-2.207l-.33-.335-.4.393.457.325.273-.383zm3.582-1.957l.105.459-.105-.459zm2.58-.133l.057-.466-.558-.069.031.562.47-.027zm4.326 2.091l.272.383.458-.325-.401-.393-.329.335zm-4.112 1.7l-.469.026.015.272.244.122.21-.42zm.003.001l.47-.019-.012-.277-.247-.124-.211.42zm.139.37l-.368.293.368-.293zm.873.118l.186-.432-.247-.106-.216.158.277.38zm.011.004l-.185.432.242.104.216-.153-.273-.383zm-5.693 1.766l.461.092.053-.263-.2-.179-.314.35zm-2.836-2.543l.314-.35-.42-.377-.295.482.401.245zm2.833 2.558l-.461-.092-.053.268.205.179.309-.355zm.08.879l.368.292-.368-.292zm-.33.218l-.124-.454-.265.073-.067.267.456.114zm-.003.012l.13.452.26-.075.066-.263-.456-.114zm-3.635 1.052l-.467.051.06.556.538-.156-.13-.451zm13.801-4.717l.4-.246-.295-.48-.419.376.314.35zm.93 2.278l-.458.105.458-.105zm-3.75.252l-.314-.35-.2.179.052.263.462-.092zm.001.008l.309.354.205-.179-.053-.267-.461.092zm-.202.339l-.459-.105.459.105zm.452.757l.461-.092-.057-.284-.28-.077-.124.453zm.003.016l-.461.092.056.28.275.08.13-.452zm3.654 1.055l-.131.451.543.157.055-.562-.467-.046zm-6.871-1.968l.368-.293-.141-.177h-.227v.47zm-1.162 0v-.47h-.225l-.141.176.366.294zm1.884.905l.459.105.05-.221-.141-.177-.368.293zm-.259 1.129l.204.424.204-.098.05-.221-.458-.105zm-1.043.503l-.204.423.204.099.204-.099-.204-.423zm-1.046-.504l-.458.105.05.22.204.098.204-.423zm-.259-1.129l-.367-.294-.142.177.05.222.459-.105zm4.448 2.193l-.024-.47.024.47zm.146.011l-.085.462.277.051.176-.22-.368-.293zm-.39.052l-.204-.423.204.423zm-.308.828l.376.281.163-.217-.107-.25-.432.186zm-.005.006l-.377-.282-.16.214.102.247.435-.179zm1.459 3.534l-.434.179.214.519.474-.302-.254-.396zm3.011-3.791l.443.157.187-.527-.552-.094-.078.464zm-3.76-.637l.078-.464-.273-.046-.173.216.368.294zm-5.857.509l-.459.104.459-.104zm-.611-.496l.007-.471-.007.471zm.575.889l-.431-.186-.11.255.17.219.371-.288zm.011.014l.435.179.104-.252-.167-.215-.372.288zm-1.444 3.498l-.254.396.474.305.215-.521-.435-.18zm-3-3.764l-.08-.464-.554.095.191.528.442-.159zm3.727-.634l.367-.294-.173-.216-.273.046.079.464zm.006.007l-.367.294.175.22.277-.051-.085-.463zm3.274 1.522l.017.47-.017-.47zm.298.063l.204-.423-.204.423zm-.836.274v.47h.282l.132-.249-.414-.221zm-.004 0v-.47h-.277l-.134.243.411.227zm-1.833 3.322l-.411-.227-.271.491.53.181.152-.445zm4.075.21l-.104-.458.104.458zm.735-.205l.149.445.535-.179-.273-.494-.411.228zm-1.838-3.329l.412-.227-.134-.243h-.278v.47zm-.014 0l-.415.222.133.248h.282v-.47zm-.812-16.036c0-.233.159-.334.252-.334v-.941c-.705.001-1.192.62-1.192 1.275h.94zm-.002-.041l.001.008.001.033h-.94l.002.044.002.018.934-.103zm.004.051l-.002-.036-.002-.015-.934.103-.001-.005-.001-.027.94-.02zm-.001.08l.001-.065-.941-.01v.055l.94.02zm0-.01h-.941.941zm0 0h-.941.941zm0 0h-.941.941zm0 0h-.941.941zm0 0h-.941.941zm0 0h-.941.941zm0 0h-.941.941zm-.001.108c-.001-.019 0-.049.001-.098l-.94-.019c-.001.039-.003.1-.001.152l.94-.035zm.052.389a2.608 2.608 0 01-.052-.389l-.94.035c.008.208.041.382.067.525l.925-.171zm-.018-.069l-.888.309.888-.309zm.06.32a5.442 5.442 0 00-.042-.251l-.925.171c.014.076.026.143.036.212l.931-.132zm.003.02l-.001-.01-.934.112.001.01.934-.112zm.081 1.397c.035-.443-.022-.909-.081-1.397l-.934.112c.062.514.104.879.077 1.209l.938.076zm-.376.674c.115-.112.307-.328.367-.616l-.92-.192c.001-.004-.002.01-.023.041a.628.628 0 01-.079.092l.655.675zm.125-.006l.017-.306-.939-.052-.017.306.939.052zm-1.67.634a8.881 8.881 0 011.239-.191l-.077-.937a9.913 9.913 0 00-1.371.211l.209.917zm-4.48 2.565a8.814 8.814 0 014.48-2.565l-.209-.917a9.756 9.756 0 00-4.956 2.838l.685.644zm-.883-.129c.045.033.19.137.275.195l.53-.776a9.384 9.384 0 01-.246-.175l-.56.756zm.302.094l.04-.006-.126-.932-.061.009.147.929zm-.688-.108c.299.175.563.128.688.108l-.147-.929-.06.009h-.013l.01.002-.004-.002-.474.812zm-1.06-.945c.342.347.667.682 1.034.929l.526-.78c-.273-.183-.53-.442-.889-.808l-.67.659zm-.012-.013l.012.013.671-.659-.013-.013-.67.659zm-.175-.195c.049.056.105.121.168.188l.684-.645c-.047-.05-.091-.101-.142-.159l-.71.616zm-.272-.284c.099.085.174.171.272.284l.71-.616c-.095-.11-.21-.245-.368-.38l-.614.712zm-.1-.081l.1.081.614-.712c-.042-.037-.097-.079-.134-.109l-.58.74zm.003.003l.573-.745-.573.745zm-.047-.037l.043.034.581-.739-.043-.034-.581.739zm-.229-.09c.07.002.153.029.226.088l.587-.735a1.33 1.33 0 00-.78-.293l-.033.94zm-.191.078c.037-.047.102-.081.191-.078l.033-.94a1.166 1.166 0 00-.96.433l.736.585zm.103.407c-.181-.145-.162-.333-.103-.407l-.736-.585c-.438.551-.26 1.318.252 1.727l.587-.735zm-.023-.017l.004.003.019.014-.587.735a.432.432 0 00.034.025l.53-.777zm.013.009l-.005-.003-.546.766.005.003.546-.766zm.068.055l-.042-.035-.597.727.043.035.596-.727zm.089.071a2.35 2.35 0 01-.088-.07l-.598.725c.033.028.083.069.126.101l.56-.756zm.333.2a2.494 2.494 0 01-.333-.2l-.56.756c.167.123.323.206.451.274l.442-.83zm.224.124c-.08-.047-.157-.088-.224-.124l-.442.83c.069.037.128.068.189.104l.477-.81zm1.158.819c-.326-.306-.728-.553-1.149-.814l-.495.8c.443.274.757.47 1 .699l.644-.685zm.282.657c-.007-.048-.021-.149-.053-.255a.95.95 0 00-.208-.381l-.687.642c-.013-.013-.017-.022-.016-.02l.01.026a.93.93 0 01.024.126l.93-.138zm.004.027l-.004-.027-.93.138.006.041.928-.152zm.082-.067l-.232-.207-.627.7.231.207.627-.7zm-1.322 6.813a8.914 8.914 0 011.4-6.203l-.784-.52a9.856 9.856 0 00-1.547 6.857l.93-.134zm-.636.606l.302-.088-.263-.903-.303.089.264.902zm.213-.128l.029-.038-.748-.57-.029.038.748.57zm-.476.426a.938.938 0 00.315-.23c.067-.072.126-.149.162-.197l-.75-.568a1.739 1.739 0 01-.12.144c-.003.002.009-.008.035-.019l.358.87zm-1.408.244c.484-.051.949-.098 1.37-.231l-.283-.896c-.313.099-.675.138-1.185.192l.098.935zm-.016.002l.016-.002-.098-.935-.017.002.099.935zm-.267.015c.075-.003.163-.006.257-.014l-.079-.937c-.07.006-.137.008-.215.011l.037.94zm-.019 0v-.94.94zm-.369.035c.126-.024.238-.029.387-.035l-.037-.94c-.144.006-.322.013-.525.051l.175.924zm-.11.026c.05-.013.086-.021.11-.026l-.175-.924c-.053.01-.116.026-.159.036l.224.914zm-.013.002l-.198-.919.198.919zm.02-.004l-.239-.91.24.91zm-.008.002l-.223-.914.223.914zm-.061.015l.061-.015-.223-.914-.054.013.216.916zm0 0l.006-.002-.228-.912-.007.001.229.913zm.01-.003l.005-.002-.259-.903-.005.001.259.904zm-.006.002l.005-.002-.258-.904-.005.001.258.905zm-.282.325c-.02-.092.042-.267.263-.32l-.22-.914c-.63.152-1.115.762-.96 1.443l.917-.209zm.374.174c-.221.047-.353-.082-.374-.174l-.916.209c.154.68.854 1.021 1.49.884l-.2-.919zm.054-.009h-.004l-.01.002c-.008.001-.025.003-.045.008l.21.916-.04.008-.01.001-.1-.935zm-.046.008l.038-.007.008-.001.102.935.004-.001.01-.001c.008-.001.024-.003.043-.008l-.205-.917zm-.06.017a.643.643 0 01.057-.017l.21.917a.471.471 0 00.052-.015l.014-.005.006-.002-.338-.878zm.064-.02a.417.417 0 00-.046.014l-.012.004-.005.002.338.878a.34.34 0 01-.05.015l-.225-.913zm.069-.015l-.055.012.197.92.055-.012-.197-.92zm-.016.004l.23.912-.23-.912zm.124-.028c-.022.006-.056.013-.107.024l.195.92c.042-.009.104-.022.156-.036l-.244-.908zm.37-.138c-.138.059-.243.104-.37.138l.244.908c.2-.054.364-.124.498-.182l-.372-.864zm.232-.096c-.085.033-.164.067-.232.096l.372.864a4.47 4.47 0 01.197-.082l-.337-.878zm.03-.011l-.02.008.317.885.02-.008-.317-.885zm1.33-.386c-.437.063-.874.222-1.33.386l.318.885c.48-.173.823-.294 1.147-.341l-.135-.93zm.687.187c-.043-.025-.13-.076-.233-.118a.952.952 0 00-.424-.073l.074.938a.084.084 0 01-.025-.001.927.927 0 01.135.067l.473-.813zm0 .001l-.474.811.475-.811zm0-.001h-.001l-.471.814.471-.814zm.025.015a.3.3 0 01-.025-.015l-.473.813.038.022.46-.82zm.005-.108l-.315.055.16.926.315-.054-.16-.927zm4.484 5.272a8.95 8.95 0 01-3.957-4.952l-.895.288a9.886 9.886 0 004.372 5.472l.48-.808zm.063.9l.131-.316-.868-.361-.131.316.868.361zm.081.36a.903.903 0 00.009-.429 1.784 1.784 0 00-.085-.281l-.878.339a.81.81 0 01.041.129l.003.022s0-.017.008-.043l.902.263zm-.708 1.299c.268-.42.536-.845.696-1.262l-.878-.337c-.12.312-.332.656-.61 1.093l.792.506zm-.151.215c.044-.061.094-.13.145-.207l-.781-.522-.124.175.76.554zm-.217.33c.061-.116.128-.209.217-.33l-.76-.554c-.086.118-.192.261-.289.445l.832.439zm-.049.102c.022-.047.038-.081.05-.102l-.833-.439c-.025.048-.052.108-.07.148l.853.393zm0 .001l-.853-.395.853.395zm-.036.076l.036-.076-.854-.394a6.142 6.142 0 01-.029.063l.847.407zm.088.401c-.084-.04-.182-.198-.085-.406l-.853-.397c-.274.588-.1 1.347.53 1.65l.408-.847zm.369-.189c-.1.209-.285.23-.369.189l-.409.847c.634.306 1.34-.038 1.625-.627l-.847-.409zm.001 0a.459.459 0 01.125-.16l.007-.005.001-.001v-.001.001l-.006.005-.024.021a.434.434 0 00-.097.126l.833.437a.503.503 0 01-.097.126c-.01.009-.018.017-.023.02l-.005.004-.002.002.003-.002.007-.006a.434.434 0 00.126-.161l-.848-.406zm-.046.202v.001h.94v-.001h-.94zm0 0h.94-.94zm.08-.271l-.033.065.846.411.027-.056-.84-.42zm0 0l.84.42-.84-.42zm0 0l.84.42-.84-.42zm0 0l.84.42-.84-.42zm0 0l.84.42-.84-.42zm0 0l.84.42-.84-.42zm0 0l.84.42-.84-.42zm0 0l.84.42-.84-.42zm.048-.101c-.01.021-.025.054-.049.101l.841.42c.02-.039.049-.096.07-.146l-.862-.375zm.12-.371a2.561 2.561 0 01-.12.371l.862.375c.083-.19.129-.361.167-.501l-.908-.245zm.071-.247c-.028.089-.05.174-.07.247l.908.245a4.68 4.68 0 01.059-.208l-.897-.284zm.157-.439a7.904 7.904 0 01-.145.407l.874.348c.062-.156.115-.313.162-.453l-.89-.302zm-.003.011l.897.281-.897-.281zm.493-1.032c-.253.302-.385.712-.49 1.021l.89.302c.123-.36.204-.58.321-.72l-.721-.603zm.55-.304c-.088.023-.366.084-.55.304l.721.603c-.027.032-.05.04-.037.034l.037-.013.073-.02-.244-.908zm-.127-.07l-.163.297.824.454.163-.297-.824-.454zm5.733.16a8.843 8.843 0 01-5.152-.372l-.337.878a9.782 9.782 0 005.697.411l-.208-.917zm1.176-.356a8.941 8.941 0 01-1.176.356l.208.917c.45-.103.883-.235 1.301-.394l-.333-.879zm.661.362l-.084-.153-.82.461.081.146.823-.454zm-.003-.006l-.817.466.817-.466zm.07.127a14.624 14.624 0 00-.066-.121l-.824.454.076.138.814-.471zm-.221-.2l-.04-.012-.292.894.06.019.272-.901zm.573.397c-.194-.288-.452-.36-.573-.397l-.272.901.057.018.013.005a.068.068 0 00-.007-.005l.002.003.78-.525zm.544 1.308c-.157-.46-.305-.901-.528-1.283l-.812.475c.165.283.284.626.449 1.111l.891-.303zm.006.02l-.006-.02-.891.303.007.02.89-.303zm.073.251c-.02-.072-.042-.154-.07-.241l-.896.284c.021.066.039.131.059.205l.907-.248zm-.007-.025l-.892.298.892-.298zm.13.401a2.676 2.676 0 01-.123-.376l-.907.248c.039.141.085.313.168.504l.862-.376zm.053.11a2.8 2.8 0 01-.053-.11l-.862.376c.022.05.052.11.072.151l.843-.417zm-.001-.001v-.001l-.841.421v.001l.841-.421zm.001.002l-.843.417.001.001.842-.418zm.015.03l-.014-.029-.843.416.014.03.843-.417zm.013.026l-.012-.024-.845.413.012.024.845-.413zm.371.193c-.084.041-.269.019-.37-.19l-.847.407c.284.591.992.936 1.626.63l-.409-.847zm.086-.406c.097.208-.001.365-.086.406l.409.847c.629-.304.803-1.063.529-1.651l-.852.398zm-.012-.025l.013.028.849-.404-.013-.028-.849.404zm-.015-.031l.014.03.851-.402-.015-.03-.85.402zm-.057-.119l.057.118.851-.4c-.021-.044-.051-.107-.076-.156l-.832.438zm-.215-.326c.088.12.154.212.215.326l.832-.438c-.097-.184-.202-.326-.288-.443l-.759.555zm-.148-.208c.052.077.104.147.148.208l.759-.555a5.52 5.52 0 01-.125-.176l-.782.523zm-.688-1.242c.161.417.416.815.683 1.233l.793-.505c-.28-.44-.478-.754-.598-1.066l-.878.338zm.039-.721c-.048.118-.152.363-.049.692l.898-.28-.001-.004-.001.011.004-.013.021-.055-.872-.351zm.015-.039l-.015.039.872.351.024-.061-.881-.329zm-.082.137c.015.038.033.089.051.132.009.022.02.049.033.075.007.014.035.073.084.129l.709-.617a.278.278 0 01.029.037l.014.021a.101.101 0 01.008.016l-.007-.017a1.167 1.167 0 01-.018-.046l-.021-.057-.882.327zm-.032-.085l.032.085.882-.327-.045-.118-.869.36zm4.149-5.571a8.947 8.947 0 01-3.954 4.986l.479.81a9.886 9.886 0 004.371-5.512l-.896-.284zm.849-.265c-.061-.012-.23-.042-.328-.058l-.146.929c.089.014.244.042.289.051l.185-.922zm-.317.045a.456.456 0 01-.035.024l.519.784.054-.037-.538-.771zm.666-.203c-.346-.027-.563.131-.666.203l.538.771.049-.033.012-.007-.01.003c-.005.001-.004 0 .003.001l.074-.938zm1.359.39c-.456-.164-.893-.323-1.329-.386l-.135.93c.324.047.665.168 1.146.341l.318-.885zm.022.008l-.022-.008-.318.885.022.008.318-.885zm.245.101a6.765 6.765 0 00-.236-.098l-.337.878c.065.025.127.052.199.083l.374-.863zm.365.138a2.573 2.573 0 01-.365-.138l-.374.863c.133.058.296.129.496.183l.243-.908zm.089.019l-.088-.019-.244.908c.051.013.11.025.147.033l.185-.922zm-.008-.002l-.169.925.169-.925zm.085.018a1.528 1.528 0 00-.077-.016l-.185.922.06.012.202-.918zm.018.005a.432.432 0 01.044.013l.01.003.003.002v-.001h-.001l-.003-.001-.012-.005c-.011-.003-.027-.009-.048-.014l-.224.914-.04-.012-.009-.004h-.001l.007.002.014.005a.43.43 0 00.051.015l.209-.917zm.011.002l-.027-.006-.018-.002-.01-.002h-.005.002l.007.001.015.002.023.005-.206.917.026.005.017.003a.05.05 0 00.011.001.01.01 0 01.004.001h-.002l-.007-.001a.197.197 0 00-.015-.003l-.025-.005.21-.916zm.368-.175c-.021.092-.152.221-.374.173l-.198.92c.634.137 1.334-.204 1.489-.885l-.917-.208zm-.263-.32c.222.053.284.228.263.32l.917.208c.155-.68-.329-1.29-.959-1.442l-.221.914zm-.08-.02l.086.021.209-.917-.068-.017-.227.913zm.009.002l.208-.917-.208.917zm-.01-.002l.228-.912-.228.912zm0 0l.228-.912v-.001l-.228.913zm0 0l.228-.913-.228.913zm-.106-.025c.022.004.056.012.106.025l.227-.913c-.041-.01-.104-.026-.157-.036l-.176.924zm-.387-.035c.149.006.261.011.387.035l.176-.924c-.204-.038-.381-.045-.526-.051l-.037.94zm-.257-.014c.094.008.181.011.257.014l.037-.94c-.078-.003-.146-.005-.216-.011l-.078.937zm-.025-.003l.015.002.098-.935-.015-.002-.098.935zm-1.372-.231c.422.134.887.18 1.372.231l.098-.935c-.511-.053-.873-.093-1.187-.192l-.283.896zm-.538-.468c.027.041.084.125.158.206a.942.942 0 00.352.252l.34-.876c.018.006.025.013.023.011l-.019-.018a.923.923 0 01-.076-.103l-.778.528zm-.002-.003l.782-.522-.782.522zm-.014-.02l.016.023.778-.528-.025-.037-.769.542zm-.039.095l.292.085.263-.902-.292-.085-.263.902zm-.478-3.725a8.904 8.904 0 01.144 3.21l.931.128a9.845 9.845 0 00-.158-3.548l-.917.21zm-1.285-2.979a8.911 8.911 0 011.285 2.979l.917-.21a9.837 9.837 0 00-1.421-3.292l-.781.523zm.223-.744l-.149.135.633.695.144-.129-.628-.701zm0 .001h-.001l.63.699-.629-.699zm.105-.095a5.83 5.83 0 01-.105.094l.628.701.114-.103-.637-.692zm-.147.262a1.016 1.016 0 01-.003.042l.937.084.005-.063-.939-.063zm.257-.646c-.236.253-.248.52-.257.646l.939.063.004-.059a.128.128 0 01.003-.015l-.004.009.003-.003-.688-.641zm1.17-.835c-.42.26-.823.507-1.148.813l.645.685c.242-.229.555-.425.998-.699l-.495-.799zm0 0l.496.799v-.001l-.496-.798zm.236-.131c-.068.036-.146.077-.227.125l.478.81c.06-.036.12-.068.19-.105l-.441-.83zm-.002.001l.444.829-.444-.829zm.012-.006l.421.841-.421-.841zm.323-.194a2.57 2.57 0 01-.333.199l.441.83c.128-.067.285-.15.451-.273l-.559-.756zm.086-.07l-.086.07.559.756c.043-.032.093-.073.126-.101l-.599-.725zm.057-.046l-.057.046.599.725.048-.039-.59-.732zm.105-.409c.059.074.078.262-.103.407l.587.735c.511-.409.69-1.176.251-1.727l-.735.585zm-.416.01c.18-.144.357-.084.416-.01l.735-.585c-.438-.551-1.225-.55-1.738-.14l.587.735zm-.047.037l.044-.035-.581-.739-.044.035.581.739zm-.1.08l.099-.08-.58-.74c-.037.03-.091.071-.133.108l.614.712zm-.276.287c.1-.114.176-.2.276-.287l-.614-.712c-.158.136-.274.27-.371.382l.709.617zm-.165.185a6.71 6.71 0 00.165-.185l-.709-.617c-.05.057-.094.107-.141.157l.685.645zm-.033.033l.026-.026-.671-.659-.026.026.671.659zm-1.02.917c.362-.244.685-.575 1.02-.917l-.671-.659c-.353.361-.607.616-.875.797l.526.779zm-.7.13c.049.004.15.012.26.005a.943.943 0 00.414-.118l-.474-.812c.016-.01.025-.012.024-.011l-.025.003a.975.975 0 01-.126-.004l-.073.937zm.007.001l.059-.939-.059.939zm-.036-.003l.029.002.073-.937-.047-.004-.055.939zm.027.109l.274-.196-.547-.765-.274.197.547.764zm-6.309-2.817a8.986 8.986 0 015.695 2.759l.681-.648a9.926 9.926 0 00-6.293-3.047l-.083.936zm-.446-.772c.003.055.011.233.018.335l.938-.062a16.952 16.952 0 01-.016-.311l-.94.038zm.114.291l.031.029.651-.678a6.288 6.288 0 00-.048-.045l-.634.694zm-.345-.604c.05.343.252.519.345.604l.634-.694a.464.464 0 01-.043-.041l-.01-.01.005.008c.001.004 0 .004-.001-.003l-.93.136zm.076-1.399c-.058.475-.115.933-.079 1.369l.937-.076c-.026-.323.015-.68.075-1.181l-.933-.112zm.004-.038l-.004.038.933.112.005-.038-.934-.112zm.044-.261c-.014.074-.03.159-.043.251l.931.132c.01-.069.022-.136.037-.212l-.925-.171zm.052-.389a2.608 2.608 0 01-.052.389l.925.171c.026-.143.059-.317.067-.525l-.94-.035zm-.001-.106c.001.051.002.085.001.106l.94.035c.002-.054 0-.117-.001-.159l-.94.018zm-.001-.08l.001.08.94-.018-.001-.066-.94.004zm-.252-.336c.093 0 .252.1.252.334h.94c0-.655-.487-1.275-1.192-1.275v.941zm-.649 8.968l.214-3.797-.938-.053-.215 3.797.939.053zm-.274.401l.015-.008-.421-.84-.016.007.422.841zm-.847.661c.597 0 1.081-.473 1.106-1.061l-.94-.04a.167.167 0 01-.166.161v.94zm-.652-.213c.183.134.41.213.652.213v-.94a.16.16 0 01-.097-.032l-.555.759zm.482.044l.006-.003-.421-.841-.006.003.421.841zm-3.589-2.244l3.106 2.207.545-.767-3.106-2.207-.545.767zm3.75-2.798a7.9 7.9 0 00-3.807 2.08l.66.669a6.959 6.959 0 013.356-1.832l-.208-.917zm.818-.142c-.27.033-.543.079-.817.142l.209.917c.239-.055.48-.096.722-.125l-.114-.934zm1.809.934a7.019 7.019 0 014.055 1.96l.658-.671a7.962 7.962 0 00-4.598-2.222l-.115.933zm.742 3.297l-.215-3.79-.939.053.215 3.79.939-.053zm-.256-.392l-.003-.002-.421.841.003.002.421-.841zm.296.497a.163.163 0 01-.037-.096l-.939.039c.009.229.09.454.24.643l.736-.586zm.228.031a.167.167 0 01-.228-.031l-.736.586a1.107 1.107 0 001.519.204l-.555-.759zm.474-.048l-.011-.004-.371.864.011.004.371-.864zm2.628-2.144l-3.086 2.193.545.766 3.085-2.193-.544-.766zm-8.193 3.992l-2.836-2.543-.627.7 2.835 2.543.628-.7zm.144.457l.003-.015-.922-.184-.003.015.922.184zm-.013 1.079a1.108 1.108 0 00-.14-1.525l-.617.709a.168.168 0 01.021.231l.736.585zm-.574.379c.219-.06.423-.188.574-.379l-.736-.585a.168.168 0 01-.086.057l.248.907zm.33-.327l.002-.012-.912-.228-.003.012.912.228zm-3.961 1.389l3.635-1.051-.262-.904-3.635 1.052.262.903zm.523-5.415a7.938 7.938 0 00-1.121 5.015l.934-.102c-.173-1.59.2-3.134.99-4.422l-.803-.491zm12.746.493c.395.642.695 1.359.873 2.137l.916-.21a7.996 7.996 0 00-.988-2.419l-.801.492zm-2.106 2.634l2.821-2.53-.628-.7-2.82 2.53.627.7zm.149-.434l-.001-.008-.923.184.002.008.922-.184zm-.205.535a.168.168 0 01.053-.089l-.618-.709c-.171.15-.298.352-.352.589l.917.209zm.118.2a.169.169 0 01-.118-.2l-.917-.209a1.11 1.11 0 00.787 1.316l.248-.907zm.34.377l-.003-.016-.922.184.003.016.922-.184zm3.323.695l-3.654-1.055-.26.904 3.653 1.054.261-.903zm-.746-1.87c.176.769.22 1.536.148 2.276l.935.092a7.981 7.981 0 00-.167-2.578l-.916.21zm-6.255-.116h-1.162v.941h1.162v-.941zm1.09 1.082l-.722-.905-.735.587.722.904.735-.586zm-.169 1.527l.26-1.129-.917-.21-.259 1.129.916.21zm-1.297.821l1.043-.502-.408-.847-1.043.502.408.847zm-1.454-.504l1.046.504.408-.847-1.046-.504-.408.847zm-.513-1.447l.259 1.129.916-.211-.259-1.129-.916.211zm.815-1.303l-.724.904.734.588.723-.904-.733-.588zm4.115 3.86c.005 0 .017 0 .037.004l.171-.925a1.091 1.091 0 00-.256-.018l.048.939zm-.063.018a.16.16 0 01.063-.018l-.048-.939a1.1 1.1 0 00-.424.11l.409.847zm-.081.218a.168.168 0 01.081-.218l-.409-.847a1.109 1.109 0 00-.536 1.436l.864-.371zm-.061.473l.005-.006-.753-.563-.005.006.753.563zm1.518 3.073l-1.46-3.534-.869.359 1.46 3.534.869-.359zm2.132-3.768a6.983 6.983 0 01-2.82 3.551l.507.793a7.936 7.936 0 003.2-4.03l-.887-.314zm-3.395-.017l3.76.638.157-.928-3.76-.637-.157.927zm.44-.162l.006-.008-.735-.587-.006.008.735.587zm-5.76.104a1.108 1.108 0 00-1.062-.863l-.014.941a.167.167 0 01.16.13l.916-.208zm-.061.682c.089-.208.115-.445.061-.682l-.916.208a.163.163 0 01-.01.103l.864.371zm-.05-.459l-.011-.014-.743.576.01.014.744-.576zm-1.381 3.966l1.444-3.499-.87-.359-1.443 3.499.869.359zm-3.878-3.785a7.964 7.964 0 003.189 4.001l.509-.791a7.021 7.021 0 01-2.813-3.529l-.885.319zm4.091-1.257l-3.727.634.157.927 3.728-.634-.158-.927zm.453.178l-.007-.008-.735.587.007.008.734-.587zm-.236-.188a1.114 1.114 0 00-.217.019l.17.925c.013-.003.025-.003.033-.003l.014-.941zm3.159 2.473a.16.16 0 01.076.016l.409-.846a1.087 1.087 0 00-.519-.11l.034.94zm-.141.088a.167.167 0 01.141-.088l-.034-.94a1.106 1.106 0 00-.936.585l.829.443zm-.418.249h.004v-.94h-.004v.94zm-1.42 3.079l1.832-3.322-.823-.454-1.833 3.322.823.454zm3.558-.475a6.98 6.98 0 01-3.819-.197l-.303.89a7.925 7.925 0 004.331.224l-.209-.917zm.689-.193a7.196 7.196 0 01-.689.193l.209.917c.265-.061.525-.133.779-.219l-.299-.891zm-2.1-2.655l1.838 3.328.823-.455-1.837-3.328-.824.455zm.398.242h.014v-.94h-.014v.94zm-.49-.319a.158.158 0 01.075.071l.83-.443a1.096 1.096 0 00-.496-.474l-.409.846z" fill="#fff"></path><path fill-rule="evenodd" clip-rule="evenodd" d="M520.751 431.391l-99.945 321.936.079 52.855L520.751 823h81.764V431.391h-81.764z" fill="#D0E1E2"></path><path fill-rule="evenodd" clip-rule="evenodd" d="M518.829 439.819a8.91 8.91 0 018.909-8.909H853.96a8.91 8.91 0 018.909 8.909v374.273A8.909 8.909 0 01853.96 823H527.738a8.909 8.909 0 01-8.909-8.908V439.819z" fill="#EEF8F9"></path><g clip-path="url(#clip3_1_160)"><rect x="529.399" y="443.403" width="321.937" height="118.204" rx="2.673" fill="#53777A"></rect><path d="M676.78 490.304c-2.022-16.78-14.722-26.429-31.537-26.429-19.191 0-33.842 13.552-33.842 37.32 0 23.697 14.402 37.319 33.842 37.319 18.625 0 29.87-12.381 31.537-25.755l-15.538-.071c-1.454 7.769-7.556 12.239-15.75 12.239-11.033 0-18.518-8.195-18.518-23.732 0-15.113 7.379-23.733 18.624-23.733 8.408 0 14.474 4.86 15.644 12.842h15.538zm10.282 47.217h15.361v-25.755h11.21l13.764 25.755h16.957l-15.432-28.238c8.266-3.548 12.842-10.749 12.842-20.682 0-14.438-9.543-23.732-26.038-23.732h-28.664v72.652zm15.361-38.1v-21.994h10.358c8.869 0 13.161 3.937 13.161 11.174 0 7.201-4.292 10.82-13.09 10.82h-10.429zm64.824-34.552h-15.361v72.652h15.361v-72.652z" fill="#FEFFFE"></path></g><g clip-path="url(#clip4_1_160)"><rect x="529.399" y="567.373" width="321.937" height="118.204" rx="2.673" fill="#53777A"></rect><path d="M673.309 614.273c-2.022-16.779-14.722-26.429-31.537-26.429-19.192 0-33.843 13.552-33.843 37.32 0 23.697 14.403 37.319 33.843 37.319 18.624 0 29.869-12.381 31.537-25.755l-15.538-.07c-1.455 7.768-7.556 12.238-15.751 12.238-11.032 0-18.518-8.194-18.518-23.732 0-15.112 7.379-23.733 18.625-23.733 8.407 0 14.473 4.86 15.644 12.842h15.538zm71.05-25.435h-15.29v45.691h-.639l-31.359-45.691h-13.48v72.652h15.36v-45.727h.532l31.608 45.727h13.268v-72.652zm27.318 0h-15.361v72.652h15.361v-72.652z" fill="#FEFFFE"></path></g><g clip-path="url(#clip5_1_160)"><rect x="529.399" y="691.342" width="321.937" height="118.204" rx="2.673" fill="#53777A"></rect><path d="M676.829 738.243c-2.022-16.78-14.722-26.429-31.537-26.429-19.192 0-33.843 13.552-33.843 37.319 0 23.698 14.403 37.32 33.843 37.32 18.624 0 29.87-12.381 31.537-25.755l-15.538-.071c-1.454 7.769-7.556 12.239-15.751 12.239-11.032 0-18.517-8.195-18.517-23.733 0-15.112 7.378-23.732 18.624-23.732 8.407 0 14.474 4.86 15.644 12.842h15.538zm49.694-4.541h14.722c-.213-12.948-10.855-21.888-27.032-21.888-15.928 0-27.599 8.798-27.528 21.994-.035 10.714 7.521 16.851 19.795 19.795l7.911 1.987c7.911 1.915 12.31 4.186 12.345 9.081-.035 5.322-5.073 8.94-12.877 8.94-7.982 0-13.729-3.689-14.226-10.962H684.77c.39 15.716 11.635 23.839 29.266 23.839 17.737 0 28.167-8.478 28.202-21.781-.035-12.097-9.152-18.518-21.781-21.356l-6.527-1.561c-6.315-1.454-11.601-3.796-11.494-9.01 0-4.683 4.15-8.124 11.671-8.124 7.343 0 11.849 3.335 12.416 9.046zm40.675-20.894h-15.361v72.651h15.361v-72.651z" fill="#FEFFFE"></path></g><path d="M133.088 868h9.21v-12.38l4.531-5.53L158.762 868h11.019l-16.358-24.058 16.167-19.506h-11.04l-15.677 19.208h-.575v-19.208h-9.21V868zm59.3-13.911c.021 4.381-2.978 6.679-6.233 6.679-3.424 0-5.637-2.404-5.658-6.254v-19.187h-9.061v20.804c.021 7.636 4.488 12.294 11.061 12.294 4.913 0 8.444-2.531 9.912-6.36h.34V868h8.7v-32.673h-9.061v18.762zM208.135 868h8.934v-5.233h.404c1.255 2.723 3.999 5.765 9.274 5.765 7.445 0 13.252-5.892 13.252-16.826 0-11.231-6.062-16.804-13.231-16.804-5.466 0-8.083 3.254-9.295 5.913h-.277v-16.379h-9.061V868zm8.87-16.336c0-5.829 2.467-9.551 6.871-9.551 4.488 0 6.87 3.892 6.87 9.551 0 5.7-2.425 9.657-6.87 9.657-4.361 0-6.871-3.829-6.871-9.657zm43.197 16.974c8.084 0 13.529-3.935 14.805-9.997l-8.381-.553c-.914 2.488-3.254 3.786-6.275 3.786-4.53 0-7.402-2.999-7.402-7.871v-.021h22.25v-2.489c0-11.103-6.722-16.591-15.358-16.591-9.615 0-15.847 6.828-15.847 16.911 0 10.359 6.147 16.825 16.208 16.825zm-7.253-20.271c.191-3.723 3.02-6.701 7.041-6.701 3.935 0 6.658 2.808 6.679 6.701h-13.72zm36.492-23.931h-9.062V868h9.062v-43.564zm21.415 44.202c8.083 0 13.529-3.935 14.805-9.997l-8.381-.553c-.914 2.488-3.254 3.786-6.275 3.786-4.531 0-7.402-2.999-7.402-7.871v-.021h22.25v-2.489c0-11.103-6.722-16.591-15.358-16.591-9.615 0-15.847 6.828-15.847 16.911 0 10.359 6.147 16.825 16.208 16.825zm-7.253-20.271c.191-3.723 3.02-6.701 7.041-6.701 3.935 0 6.658 2.808 6.679 6.701h-13.72zm44.809-13.04h-6.148v-7.828h-9.061v7.828h-4.467v6.807h4.467v17.017c-.043 6.403 4.318 9.572 10.891 9.296 2.339-.085 3.999-.553 4.913-.851l-1.425-6.743c-.447.085-1.404.298-2.255.298-1.808 0-3.063-.681-3.063-3.191v-15.826h6.148v-6.807zM988.788 493c7.069 0 11.352-4.373 11.352-11.623 0-7.227-4.283-11.577-11.284-11.577h-8.292V493h8.224zm-3.319-4.203v-14.794h3.127c4.35 0 6.649 2.22 6.649 7.374 0 5.177-2.299 7.42-6.661 7.42h-3.115zm25.341 4.543c5.28 0 8.56-3.614 8.56-8.972 0-5.392-3.28-8.995-8.56-8.995-5.28 0-8.56 3.603-8.56 8.995 0 5.358 3.28 8.972 8.56 8.972zm.02-3.738c-2.43 0-3.68-2.232-3.68-5.268 0-3.036 1.25-5.279 3.68-5.279 2.39 0 3.64 2.243 3.64 5.279s-1.25 5.268-3.64 5.268zm18.81 3.738c4.63 0 7.55-2.719 7.77-6.718h-4.55c-.28 1.858-1.51 2.9-3.16 2.9-2.26 0-3.72-1.892-3.72-5.222 0-3.285 1.47-5.166 3.72-5.166 1.76 0 2.9 1.167 3.16 2.9h4.55c-.2-4.021-3.25-6.661-7.79-6.661-5.28 0-8.54 3.659-8.54 8.995 0 5.29 3.2 8.972 8.56 8.972zm10.13-.34h4.82v-5.528l1.31-1.484 4.74 7.012h5.66l-6.79-9.867 6.46-7.533h-5.54l-5.57 6.604h-.27V469.8h-4.82V493zm25.05.34c4.3 0 7.2-2.096 7.88-5.324l-4.46-.295c-.49 1.325-1.74 2.016-3.34 2.016-2.42 0-3.95-1.597-3.95-4.191v-.011h11.85v-1.326c0-5.913-3.58-8.836-8.18-8.836-5.12 0-8.44 3.637-8.44 9.006 0 5.517 3.28 8.961 8.64 8.961zm-3.87-10.796c.1-1.982 1.61-3.568 3.75-3.568 2.1 0 3.55 1.495 3.56 3.568h-7.31zM1075.22 493h4.82v-9.844c0-2.141 1.57-3.614 3.7-3.614.67 0 1.58.113 2.04.261v-4.282a7.234 7.234 0 00-1.52-.17c-1.95 0-3.55 1.133-4.18 3.285h-.18V475.6h-4.68V493zm15.57-3.172h-3.99l-.05 1.269c-.14 3.081-1.02 6.242-1.35 7.567h3.12c.55-1.371 1.84-4.588 2.14-7.59l.13-1.246zM913.994 532.34c4.633 0 7.544-2.719 7.771-6.718h-4.554c-.283 1.858-1.507 2.9-3.161 2.9-2.254 0-3.715-1.892-3.715-5.222 0-3.285 1.472-5.166 3.715-5.166 1.768 0 2.9 1.167 3.161 2.9h4.554c-.204-4.021-3.251-6.661-7.794-6.661-5.279 0-8.541 3.659-8.541 8.995 0 5.29 3.206 8.972 8.564 8.972zm17.989 0c5.279 0 8.564-3.614 8.564-8.972 0-5.392-3.285-8.995-8.564-8.995s-8.564 3.603-8.564 8.995c0 5.358 3.285 8.972 8.564 8.972zm.023-3.738c-2.436 0-3.682-2.232-3.682-5.268 0-3.036 1.246-5.279 3.682-5.279 2.39 0 3.636 2.243 3.636 5.279s-1.246 5.268-3.636 5.268zm15.772-6.661c.011-2.243 1.348-3.557 3.296-3.557 1.938 0 3.104 1.268 3.093 3.398V532h4.826v-11.079c0-4.055-2.379-6.548-6.004-6.548-2.583 0-4.452 1.269-5.234 3.297h-.204v-3.07h-4.599V532h4.826v-10.059zm23.54-7.341h-3.274v-4.169h-4.825v4.169h-2.379v3.625h2.379v9.062c-.023 3.41 2.299 5.098 5.8 4.951a9.391 9.391 0 002.616-.453l-.758-3.591c-.238.045-.748.158-1.201.158-.963 0-1.632-.362-1.632-1.699v-8.428h3.274V514.6zm7.373 17.729c2.571 0 4.236-1.122 5.086-2.742h.136V532h4.576v-11.736c0-4.146-3.511-5.891-7.386-5.891-4.168 0-6.91 1.994-7.578 5.166l4.463.363c.329-1.156 1.36-2.006 3.093-2.006 1.642 0 2.583.827 2.583 2.255v.068c0 1.121-1.19 1.268-4.214 1.563-3.444.317-6.537 1.473-6.537 5.358 0 3.444 2.458 5.189 5.778 5.189zm1.382-3.331c-1.484 0-2.549-.691-2.549-2.016 0-1.36 1.121-2.028 2.82-2.266 1.054-.147 2.776-.396 3.354-.782v1.847c0 1.824-1.507 3.217-3.625 3.217zM991.5 532h4.826v-17.4H991.5V532zm2.424-19.643c1.439 0 2.617-1.099 2.617-2.447 0-1.337-1.178-2.435-2.617-2.435-1.427 0-2.605 1.098-2.605 2.435 0 1.348 1.178 2.447 2.605 2.447zm10.356 9.584c.02-2.243 1.35-3.557 3.3-3.557 1.94 0 3.1 1.268 3.09 3.398V532h4.83v-11.079c0-4.055-2.38-6.548-6-6.548-2.59 0-4.46 1.269-5.24 3.297h-.2v-3.07h-4.601V532h4.821v-10.059zm22.22 10.399c4.3 0 7.2-2.096 7.88-5.324l-4.46-.295c-.49 1.325-1.73 2.016-3.34 2.016-2.41 0-3.94-1.597-3.94-4.191v-.011h11.85v-1.326c0-5.913-3.58-8.836-8.18-8.836-5.12 0-8.44 3.637-8.44 9.006 0 5.517 3.27 8.961 8.63 8.961zm-3.86-10.796c.1-1.982 1.61-3.568 3.75-3.568 2.09 0 3.54 1.495 3.55 3.568h-7.3zM1036.9 532h4.83v-9.844c0-2.141 1.56-3.614 3.69-3.614.67 0 1.59.113 2.04.261v-4.282a7.234 7.234 0 00-1.52-.17c-1.95 0-3.54 1.133-4.18 3.285h-.18V514.6h-4.68V532zm17.92.283c2.81 0 4.27-1.62 4.94-3.07h.21V532h4.75v-23.2h-4.81v8.723h-.15c-.64-1.416-2.04-3.15-4.95-3.15-3.82 0-7.04 2.968-7.04 8.95 0 5.822 3.09 8.96 7.05 8.96zm1.53-3.84c-2.36 0-3.66-2.107-3.66-5.143 0-3.013 1.27-5.086 3.66-5.086 2.35 0 3.66 1.982 3.66 5.086s-1.33 5.143-3.66 5.143zm16.85.385h-3.98l-.06 1.269c-.14 3.081-1.02 6.242-1.35 7.567h3.13c.54-1.371 1.83-4.588 2.14-7.59l.12-1.246zm24.24-11.906c-.64-5.358-4.7-8.439-10.07-8.439-6.13 0-10.8 4.327-10.8 11.917 0 7.567 4.6 11.917 10.8 11.917 5.95 0 9.54-3.953 10.07-8.224l-4.96-.023c-.46 2.481-2.41 3.909-5.03 3.909-3.52 0-5.91-2.617-5.91-7.579 0-4.826 2.36-7.579 5.95-7.579 2.68 0 4.62 1.552 4.99 4.101h4.96zm2.79 15.078h4.9v-8.224h3.58l4.4 8.224h5.41l-4.92-9.017c2.63-1.133 4.1-3.433 4.1-6.604 0-4.611-3.05-7.579-8.32-7.579h-9.15V532zm4.9-12.166v-7.024h3.31c2.83 0 4.2 1.258 4.2 3.569 0 2.299-1.37 3.455-4.18 3.455h-3.33zm20.2-11.034h-4.9V532h4.9v-23.2zm14.06 9.686h-10.58v3.828h10.58v-3.828zm24.79 1.914c0-7.59-4.72-11.917-10.87-11.917-6.18 0-10.86 4.327-10.86 11.917 0 7.556 4.68 11.917 10.86 11.917 6.15 0 10.87-4.327 10.87-11.917zm-4.98 0c0 4.916-2.33 7.579-5.89 7.579-3.57 0-5.89-2.663-5.89-7.579s2.32-7.579 5.89-7.579c3.56 0 5.89 2.663 5.89 7.579zm-219.232 76.2h-3.456v-1.167c0-1.178.476-1.869 1.892-1.869.578 0 1.167.125 1.552.249l.85-3.625c-.601-.181-1.926-.476-3.41-.476-3.274 0-5.709 1.847-5.709 5.631v1.257h-2.459v3.625h2.459V614h4.825v-13.775h3.456V596.6zm7.04-5.8h-4.825V614h4.825v-23.2zm8.095 23.529c2.571 0 4.237-1.122 5.086-2.742h.136V614h4.577v-11.736c0-4.146-3.512-5.891-7.386-5.891-4.169 0-6.91 1.994-7.579 5.166l4.463.363c.329-1.156 1.36-2.006 3.093-2.006 1.643 0 2.583.827 2.583 2.255v.068c0 1.121-1.19 1.268-4.214 1.563-3.444.317-6.537 1.473-6.537 5.358 0 3.444 2.459 5.189 5.778 5.189zm1.382-3.331c-1.484 0-2.549-.691-2.549-2.016 0-1.36 1.122-2.028 2.821-2.266 1.053-.147 2.775-.396 3.353-.782v1.847c0 1.824-1.507 3.217-3.625 3.217zm16.253-7.057c.012-2.243 1.348-3.557 3.297-3.557 1.937 0 3.104 1.268 3.092 3.398V614h4.826v-11.079c0-4.055-2.379-6.548-6.004-6.548-2.583 0-4.452 1.269-5.233 3.297h-.204v-3.07h-4.599V614h4.825v-10.059zm19.111 0c.012-2.243 1.348-3.557 3.297-3.557 1.937 0 3.104 1.268 3.092 3.398V614h4.822v-11.079c0-4.055-2.37-6.548-6-6.548-2.583 0-4.452 1.269-5.233 3.297h-.204v-3.07h-4.599V614h4.825v-10.059zm22.211 10.399c4.31 0 7.21-2.096 7.89-5.324l-4.46-.295c-.49 1.325-1.74 2.016-3.35 2.016-2.41 0-3.94-1.597-3.94-4.191v-.011h11.85v-1.326c0-5.913-3.58-8.836-8.18-8.836-5.12 0-8.44 3.637-8.44 9.006 0 5.517 3.28 8.961 8.63 8.961zm-3.86-10.796c.1-1.982 1.61-3.568 3.75-3.568 2.1 0 3.55 1.495 3.56 3.568h-7.31zm19.09-12.744h-4.82V614h4.82v-23.2zm8.38 20.028h-3.99l-.05 1.269c-.14 3.081-1.02 6.242-1.35 7.567h3.12c.55-1.371 1.84-4.588 2.15-7.59l.12-1.246zm17.1 3.512c4.63 0 7.55-2.719 7.77-6.718h-4.55c-.29 1.858-1.51 2.9-3.16 2.9-2.26 0-3.72-1.892-3.72-5.222 0-3.285 1.47-5.166 3.72-5.166 1.76 0 2.9 1.167 3.16 2.9h4.55c-.2-4.021-3.25-6.661-7.79-6.661-5.28 0-8.54 3.659-8.54 8.995 0 5.29 3.2 8.972 8.56 8.972zm15.09-.011c2.57 0 4.24-1.122 5.09-2.742h.13V614h4.58v-11.736c0-4.146-3.51-5.891-7.39-5.891-4.17 0-6.91 1.994-7.58 5.166l4.47.363c.33-1.156 1.36-2.006 3.09-2.006 1.64 0 2.58.827 2.58 2.255v.068c0 1.121-1.19 1.268-4.21 1.563-3.44.317-6.54 1.473-6.54 5.358 0 3.444 2.46 5.189 5.78 5.189zm1.38-3.331c-1.48 0-2.55-.691-2.55-2.016 0-1.36 1.13-2.028 2.82-2.266 1.06-.147 2.78-.396 3.36-.782v1.847c0 1.824-1.51 3.217-3.63 3.217zm16.26-20.198h-4.83V614h4.83v-23.2zm3.13 23.2h4.82v-17.4h-4.82V614zm2.42-19.643c1.44 0 2.62-1.099 2.62-2.447 0-1.337-1.18-2.435-2.62-2.435-1.42 0-2.6 1.098-2.6 2.435 0 1.348 1.18 2.447 2.6 2.447zm13.4 19.983c4.63 0 7.54-2.719 7.77-6.718h-4.55c-.29 1.858-1.51 2.9-3.16 2.9-2.26 0-3.72-1.892-3.72-5.222 0-3.285 1.47-5.166 3.72-5.166 1.76 0 2.9 1.167 3.16 2.9h4.55c-.2-4.021-3.25-6.661-7.79-6.661-5.28 0-8.55 3.659-8.55 8.995 0 5.29 3.21 8.972 8.57 8.972zm17.99 0c5.28 0 8.56-3.614 8.56-8.972 0-5.392-3.28-8.995-8.56-8.995-5.28 0-8.57 3.603-8.57 8.995 0 5.358 3.29 8.972 8.57 8.972zm.02-3.738c-2.43 0-3.68-2.232-3.68-5.268 0-3.036 1.25-5.279 3.68-5.279 2.39 0 3.64 2.243 3.64 5.279s-1.25 5.268-3.64 5.268zm16.19.226h-3.99l-.05 1.269c-.14 3.081-1.02 6.242-1.35 7.567h3.13c.54-1.371 1.83-4.588 2.14-7.59l.12-1.246zM918.017 653l1.722-5.29h8.371l1.722 5.29h5.256l-7.997-23.2h-6.321l-8.009 23.2h5.256zm2.968-9.119l2.855-8.779h.181l2.855 8.779h-5.891zM940.002 653h4.781l4.407-15.168h.181L953.789 653h4.78l6.639-23.2h-5.359l-3.84 16.154h-.204L951.58 629.8h-4.588l-4.237 16.12h-.192l-3.841-16.12h-5.358l6.638 23.2zm39.465-16.528h4.701c-.068-4.135-3.466-6.989-8.632-6.989-5.086 0-8.813 2.809-8.79 7.023-.012 3.421 2.401 5.381 6.321 6.321l2.526.635c2.526.611 3.931 1.336 3.942 2.9-.011 1.699-1.62 2.854-4.112 2.854-2.549 0-4.384-1.178-4.542-3.5h-4.747c.125 5.018 3.716 7.613 9.346 7.613 5.664 0 8.994-2.708 9.006-6.956-.012-3.863-2.923-5.913-6.956-6.819l-2.084-.499c-2.017-.464-3.705-1.212-3.671-2.877 0-1.496 1.326-2.594 3.727-2.594 2.345 0 3.784 1.064 3.965 2.888zm18.335 3.014h-10.58v3.828h10.58v-3.828zm23.938-1.564c-.64-5.358-4.7-8.439-10.07-8.439-6.13 0-10.81 4.327-10.81 11.917 0 7.567 4.6 11.917 10.81 11.917 5.95 0 9.54-3.953 10.07-8.224l-4.96-.023c-.46 2.481-2.41 3.909-5.03 3.909-3.52 0-5.91-2.617-5.91-7.579 0-4.826 2.35-7.579 5.94-7.579 2.69 0 4.63 1.552 5 4.101h4.96zm22.19-8.122h-4.88v14.591h-.21l-10.01-14.591h-4.3V653h4.9v-14.602h.17L1039.69 653h4.24v-23.2zm8.23 0h-4.91V653h4.91v-23.2zm8.45 20.028h-3.98l-.06 1.269c-.14 3.081-1.02 6.242-1.35 7.567h3.13c.54-1.371 1.83-4.588 2.14-7.59l.12-1.246zm17.1 3.512c4.64 0 7.55-2.719 7.77-6.718h-4.55c-.28 1.858-1.51 2.9-3.16 2.9-2.25 0-3.72-1.892-3.72-5.222 0-3.285 1.48-5.166 3.72-5.166 1.77 0 2.9 1.167 3.16 2.9h4.55c-.2-4.021-3.25-6.661-7.79-6.661-5.28 0-8.54 3.659-8.54 8.995 0 5.29 3.21 8.972 8.56 8.972zm10.13-.34h4.83v-17.4h-4.83V653zm2.43-19.643c1.43 0 2.61-1.099 2.61-2.447 0-1.337-1.18-2.435-2.61-2.435s-2.61 1.098-2.61 2.435c0 1.348 1.18 2.447 2.61 2.447zm10.36-3.557h-4.83V653h4.83v-23.2zm3.13 23.2h4.82v-17.4h-4.82V653zm2.42-19.643c1.44 0 2.62-1.099 2.62-2.447 0-1.337-1.18-2.435-2.62-2.435-1.42 0-2.6 1.098-2.6 2.435 0 1.348 1.18 2.447 2.6 2.447zm16.7 12.234c.01 2.334-1.59 3.557-3.32 3.557-1.83 0-3.01-1.28-3.02-3.33V635.6h-4.82v11.079c.01 4.067 2.39 6.548 5.89 6.548 2.61 0 4.49-1.348 5.28-3.388h.18V653h4.63v-17.4h-4.82v9.991zm7.95 7.409h4.82v-10.445c0-1.925 1.23-3.205 2.84-3.205 1.58 0 2.65 1.087 2.65 2.798V653h4.67v-10.626c0-1.801 1.04-3.024 2.79-3.024 1.54 0 2.7.962 2.7 2.9V653h4.81v-11.702c0-3.772-2.24-5.925-5.48-5.925-2.55 0-4.53 1.303-5.25 3.297h-.18c-.55-2.016-2.33-3.297-4.72-3.297-2.35 0-4.12 1.247-4.85 3.297h-.2v-3.07h-4.6V653zm-176.258 79.922c-.646-5.358-4.701-8.439-10.071-8.439-6.128 0-10.807 4.327-10.807 11.917 0 7.567 4.6 11.917 10.807 11.917 5.948 0 9.539-3.953 10.071-8.224l-4.962-.023c-.464 2.481-2.413 3.909-5.029 3.909-3.523 0-5.914-2.617-5.914-7.579 0-4.826 2.357-7.579 5.948-7.579 2.684 0 4.621 1.552 4.995 4.101h4.962zm10.623 15.418c4.305 0 7.205-2.096 7.885-5.324l-4.463-.295c-.488 1.325-1.734 2.016-3.342 2.016-2.413 0-3.942-1.597-3.942-4.191v-.011h11.849v-1.326c0-5.913-3.58-8.836-8.179-8.836-5.12 0-8.44 3.637-8.44 9.006 0 5.517 3.274 8.961 8.632 8.961zm-3.862-10.796c.102-1.982 1.608-3.568 3.749-3.568 2.096 0 3.546 1.495 3.557 3.568h-7.306zm14.265 16.981h4.826v-9.312h.147c.668 1.45 2.13 3.07 4.939 3.07 3.965 0 7.057-3.138 7.057-8.96 0-5.982-3.228-8.95-7.046-8.95-2.911 0-4.304 1.734-4.95 3.15h-.215V730.6h-4.758v23.925zm4.724-15.225c0-3.104 1.314-5.086 3.659-5.086 2.39 0 3.659 2.073 3.659 5.086 0 3.036-1.292 5.143-3.659 5.143-2.322 0-3.659-2.039-3.659-5.143zm19.555-1.359c.012-2.243 1.383-3.557 3.353-3.557 1.96 0 3.12 1.257 3.1 3.398V748h4.83v-11.079c.01-4.078-2.39-6.548-6.02-6.548-2.63 0-4.4 1.247-5.195 3.297h-.204v-8.87h-4.689V748h4.825v-10.059zM1014.32 748h4.9v-9.584h9.44v-4.044h-9.44v-5.528h10.46V724.8h-15.36V748zm30.51-16.528h4.7c-.07-4.135-3.47-6.989-8.63-6.989-5.09 0-8.82 2.809-8.79 7.023-.01 3.421 2.4 5.381 6.32 6.321l2.52.635c2.53.611 3.93 1.336 3.95 2.9-.02 1.699-1.62 2.854-4.12 2.854-2.54 0-4.38-1.178-4.54-3.5h-4.74c.12 5.018 3.71 7.613 9.34 7.613 5.66 0 9-2.708 9.01-6.956-.01-3.863-2.93-5.913-6.96-6.819l-2.08-.499c-2.02-.464-3.71-1.212-3.67-2.877 0-1.496 1.32-2.594 3.72-2.594 2.35 0 3.79 1.064 3.97 2.888zm12.74 13.356h-3.99l-.06 1.269c-.13 3.081-1.02 6.242-1.34 7.567h3.12c.55-1.371 1.84-4.588 2.14-7.59l.13-1.246zM1070.9 748l1.72-5.29h8.37l1.72 5.29h5.26l-8-23.2h-6.32l-8.01 23.2h5.26zm2.96-9.119l2.86-8.779h.18l2.85 8.779h-5.89zm19.02 9.119h4.78l4.41-15.168h.18l4.42 15.168h4.78l6.64-23.2h-5.36l-3.84 16.154h-.21l-4.22-16.154h-4.59l-4.24 16.12h-.19l-3.84-16.12h-5.36l6.64 23.2zm39.47-16.528h4.7c-.07-4.135-3.47-6.989-8.63-6.989-5.09 0-8.82 2.809-8.8 7.023-.01 3.421 2.41 5.381 6.33 6.321l2.52.635c2.53.611 3.93 1.336 3.94 2.9-.01 1.699-1.62 2.854-4.11 2.854-2.55 0-4.38-1.178-4.54-3.5h-4.75c.13 5.018 3.72 7.613 9.35 7.613 5.66 0 8.99-2.708 9-6.956-.01-3.863-2.92-5.913-6.95-6.819l-2.09-.499c-2.01-.464-3.7-1.212-3.67-2.877 0-1.496 1.33-2.594 3.73-2.594 2.35 0 3.78 1.064 3.97 2.888zM937.28 787h15.678v-4.044h-10.773v-5.54h9.923v-4.044h-9.923v-5.528h10.727V763.8H937.28V787zm18.799 0h9.912c5.211 0 7.987-2.719 7.987-6.412 0-3.432-2.459-5.505-5.098-5.63v-.226c2.413-.544 4.191-2.255 4.191-4.985 0-3.477-2.582-5.947-7.703-5.947h-9.289V787zm4.905-4.01v-6.163h4.112c2.357 0 3.818 1.36 3.818 3.274 0 1.745-1.19 2.889-3.931 2.889h-3.999zm0-9.482v-5.743h3.727c2.175 0 3.41 1.121 3.41 2.798 0 1.835-1.495 2.945-3.5 2.945h-3.637zm28.038-3.036h4.701c-.068-4.135-3.466-6.989-8.632-6.989-5.086 0-8.813 2.809-8.791 7.023-.011 3.421 2.402 5.381 6.321 6.321l2.527.635c2.526.611 3.93 1.336 3.942 2.9-.012 1.699-1.62 2.854-4.112 2.854-2.549 0-4.384-1.178-4.543-3.5h-4.746c.124 5.018 3.715 7.613 9.345 7.613 5.664 0 8.995-2.708 9.006-6.956-.011-3.863-2.923-5.913-6.955-6.819l-2.085-.499c-2.016-.464-3.704-1.212-3.67-2.877 0-1.496 1.325-2.594 3.727-2.594 2.345 0 3.784 1.064 3.965 2.888zm12.738 13.356h-3.987l-.056 1.269c-.136 3.081-1.02 6.242-1.348 7.567h3.126c.545-1.371 1.835-4.588 2.145-7.59l.12-1.246zm25.46-14.228h-5.11l-3.6 12.45h-.18l-3.61-12.45h-5.1l6.08 17.4h5.44l6.08-17.4zm14.41.872h4.71c-.07-4.135-3.47-6.989-8.64-6.989-5.08 0-8.81 2.809-8.79 7.023-.01 3.421 2.4 5.381 6.32 6.321l2.53.635c2.53.611 3.93 1.336 3.94 2.9-.01 1.699-1.62 2.854-4.11 2.854-2.55 0-4.38-1.178-4.54-3.5h-4.75c.13 5.018 3.72 7.613 9.35 7.613 5.66 0 8.99-2.708 9-6.956-.01-3.863-2.92-5.913-6.95-6.819l-2.09-.499c-2.01-.464-3.7-1.212-3.67-2.877 0-1.496 1.33-2.594 3.73-2.594 2.34 0 3.78 1.064 3.96 2.888zm7.5 23.053h4.82v-9.312h.15c.67 1.45 2.13 3.07 4.94 3.07 3.97 0 7.06-3.138 7.06-8.96 0-5.982-3.23-8.95-7.05-8.95-2.91 0-4.3 1.734-4.95 3.15h-.21V769.6h-4.76v23.925zm4.72-15.225c0-3.104 1.32-5.086 3.66-5.086 2.39 0 3.66 2.073 3.66 5.086 0 3.036-1.29 5.143-3.66 5.143-2.32 0-3.66-2.039-3.66-5.143zm19.56-1.359c.01-2.243 1.38-3.557 3.35-3.557 1.96 0 3.12 1.257 3.1 3.398V787h4.83v-11.079c.01-4.078-2.39-6.548-6.01-6.548-2.64 0-4.41 1.247-5.2 3.297h-.21v-8.87h-4.69V787h4.83v-10.059zm22.27 10.399c4.31 0 7.21-2.096 7.89-5.324l-4.46-.295c-.49 1.325-1.74 2.016-3.35 2.016-2.41 0-3.94-1.597-3.94-4.191v-.011h11.85v-1.326c0-5.913-3.58-8.836-8.18-8.836-5.12 0-8.44 3.637-8.44 9.006 0 5.517 3.28 8.961 8.63 8.961zm-3.86-10.796c.1-1.982 1.61-3.568 3.75-3.568 2.1 0 3.55 1.495 3.56 3.568h-7.31zM1106.09 787h4.82v-9.844c0-2.141 1.57-3.614 3.7-3.614.66 0 1.58.113 2.04.261v-4.282a7.388 7.388 0 00-1.52-.17c-1.95 0-3.55 1.133-4.18 3.285h-.18V769.6h-4.68V787zm19.44.34c4.3 0 7.2-2.096 7.88-5.324l-4.46-.295c-.49 1.325-1.74 2.016-3.34 2.016-2.42 0-3.95-1.597-3.95-4.191v-.011h11.85v-1.326c0-5.913-3.58-8.836-8.18-8.836-5.12 0-8.44 3.637-8.44 9.006 0 5.517 3.28 8.961 8.64 8.961zm-3.87-10.796c.11-1.982 1.61-3.568 3.75-3.568 2.1 0 3.55 1.495 3.56 3.568h-7.31z" fill="#000"></path></svg>