<svg viewBox="0 0 1200 900" fill="none" xmlns="http://www.w3.org/2000/svg"><path fill="#fff" d="M0 0h1200v900H0z"></path><rect x="641.98" y="273.98" width="487.04" height="487.04" rx="18.62" fill="#CEE2F6" stroke="#76AADF" stroke-width="1.96"></rect><rect x="677.98" y="273.98" width="417.04" height="260.04" rx="3.92" fill="#FFF2C5" stroke="#AD9E6A" stroke-width="1.96"></rect><rect x="677.98" y="571.98" width="176.04" height="157.04" rx="3.92" fill="#FFF2C5" stroke="#AD9E6A" stroke-width="1.96"></rect><rect x="697.98" y="571.98" width="156.8" height="81.34" rx="3.92" fill="#D6E9CE" stroke="#7C9D6E" stroke-width="1.96"></rect><path d="M751.563 610.178c4.278 0 7.161-2.083 7.836-5.292l-4.436-.292c-.484 1.317-1.722 2.003-3.321 2.003-2.398 0-3.918-1.587-3.918-4.165v-.011H759.5v-1.317c0-5.877-3.557-8.782-8.128-8.782-5.089 0-8.387 3.614-8.387 8.95 0 5.483 3.253 8.906 8.578 8.906zm-3.839-10.729c.102-1.971 1.599-3.547 3.727-3.547 2.083 0 3.524 1.486 3.535 3.547h-7.262zm23.094-6.902h-3.253v-4.143h-4.796v4.143h-2.364v3.603h2.364v9.006c-.023 3.389 2.285 5.067 5.764 4.92a9.322 9.322 0 002.601-.45l-.755-3.569c-.236.045-.743.158-1.193.158-.957 0-1.621-.361-1.621-1.689v-8.376h3.253v-3.603zm7.282 7.296c.012-2.23 1.374-3.535 3.333-3.535 1.947 0 3.096 1.249 3.085 3.377v10.155h4.796v-11.011c.011-4.053-2.376-6.507-5.979-6.507-2.623 0-4.379 1.239-5.167 3.276h-.203v-8.815h-4.661v23.057h4.796v-9.997zm22.973 10.503c5.798 0 9.3-4.413 9.311-12.012.011-7.543-3.535-11.866-9.311-11.866-5.786 0-9.299 4.312-9.31 11.866-.023 7.577 3.501 12.001 9.31 12.012zm0-4.041c-2.645 0-4.356-2.657-4.345-7.971.011-5.235 1.711-7.869 4.345-7.869 2.624 0 4.335 2.634 4.335 7.869.011 5.314-1.7 7.971-4.335 7.971zm-63.141 15.825h-3.165l-3.944 2.497v2.987l3.648-2.287h.093v12.733h3.368v-15.93zm4.03 15.93h3.477l6.611-13.138v-2.792h-11.177v2.754h7.692v.108l-6.603 13.068zm12.01 0h11.356v-2.754h-6.689v-.109l2.325-2.279c3.275-2.986 4.154-4.48 4.154-6.292 0-2.761-2.256-4.714-5.67-4.714-3.345 0-5.639 1.999-5.632 5.126h3.197c-.008-1.524.957-2.458 2.411-2.458 1.4 0 2.443.871 2.443 2.271 0 1.268-.778 2.139-2.225 3.532l-5.67 5.25v2.427zm15.378.202c.995 0 1.859-.832 1.866-1.867-.007-1.019-.871-1.851-1.866-1.851-1.027 0-1.875.832-1.867 1.851a1.862 1.862 0 001.867 1.867zm9.11-16.132h-3.165l-3.944 2.497v2.987l3.648-2.287h.094v12.733h3.367v-15.93zm4.03 15.93h3.477l6.611-13.138v-2.792h-11.177v2.754h7.693v.108l-6.604 13.068zm11.24.202c.996 0 1.859-.832 1.867-1.867-.008-1.019-.871-1.851-1.867-1.851-1.027 0-1.874.832-1.867 1.851a1.863 1.863 0 001.867 1.867zm9.111-16.132h-3.166l-3.943 2.497v2.987l3.648-2.287h.093v12.733h3.368v-15.93zm4.533 16.132c.996 0 1.859-.832 1.867-1.867-.008-1.019-.871-1.851-1.867-1.851-1.027 0-1.874.832-1.867 1.851a1.863 1.863 0 001.867 1.867zm4.17-.202H822.9v-2.754h-6.689v-.109l2.325-2.279c3.275-2.986 4.154-4.48 4.154-6.292 0-2.761-2.256-4.714-5.67-4.714-3.345 0-5.64 1.999-5.632 5.126h3.197c-.008-1.524.957-2.458 2.411-2.458 1.4 0 2.443.871 2.443 2.271 0 1.268-.778 2.139-2.225 3.532l-5.67 5.25v2.427z" fill="#000"></path><rect x="697.98" y="482.98" width="156.8" height="51.94" rx="3.92" fill="#D6E9CE" stroke="#7C9D6E" stroke-width="1.96"></rect><path d="M750.815 501.727h-5.077l-3.58 12.373h-.18l-3.592-12.373h-5.066l6.046 17.293h5.404l6.045-17.293zm8.737 17.63c4.278 0 7.161-2.082 7.836-5.291l-4.436-.293c-.484 1.317-1.722 2.004-3.321 2.004-2.398 0-3.918-1.587-3.918-4.165v-.012h11.776v-1.317c0-5.877-3.557-8.781-8.128-8.781-5.089 0-8.387 3.614-8.387 8.95 0 5.483 3.253 8.905 8.578 8.905zm-3.839-10.729c.102-1.97 1.599-3.546 3.727-3.546 2.083 0 3.524 1.486 3.535 3.546h-7.262zm23.094-6.901h-3.253v-4.143h-4.796v4.143h-2.364v3.603h2.364v9.006c-.023 3.389 2.285 5.066 5.764 4.92a9.36 9.36 0 002.601-.45l-.755-3.569c-.236.045-.743.157-1.193.157-.957 0-1.621-.36-1.621-1.688v-8.376h3.253v-3.603zm7.282 7.295c.012-2.229 1.374-3.535 3.333-3.535 1.947 0 3.096 1.25 3.085 3.378v10.155h4.796v-11.011c.011-4.053-2.376-6.507-5.979-6.507-2.623 0-4.379 1.238-5.167 3.276h-.203v-8.815h-4.661v23.057h4.796v-9.998zm22.973 10.504c5.798 0 9.3-4.413 9.311-12.012.011-7.543-3.535-11.866-9.311-11.866-5.786 0-9.299 4.311-9.31 11.866-.023 7.576 3.501 12.001 9.31 12.012zm0-4.042c-2.645 0-4.356-2.656-4.345-7.97.011-5.235 1.711-7.87 4.345-7.87 2.624 0 4.335 2.635 4.335 7.87.011 5.314-1.7 7.97-4.335 7.97z" fill="#000"></path><rect x="917.98" y="571.98" width="176.04" height="157.04" rx="3.92" fill="#FFF2C5" stroke="#AD9E6A" stroke-width="1.96"></rect><rect x="917.98" y="571.98" width="156.8" height="81.34" rx="3.92" fill="#D6E9CE" stroke="#7C9D6E" stroke-width="1.96"></rect><path d="M971.563 610.178c4.278 0 7.161-2.083 7.836-5.292l-4.436-.292c-.484 1.317-1.722 2.003-3.321 2.003-2.398 0-3.918-1.587-3.918-4.165v-.011H979.5v-1.317c0-5.877-3.557-8.782-8.128-8.782-5.089 0-8.387 3.614-8.387 8.95 0 5.483 3.253 8.906 8.578 8.906zm-3.839-10.729c.102-1.971 1.599-3.547 3.727-3.547 2.083 0 3.524 1.486 3.535 3.547h-7.262zm23.094-6.902h-3.253v-4.143h-4.796v4.143h-2.364v3.603h2.364v9.006c-.023 3.389 2.285 5.067 5.764 4.92a9.322 9.322 0 002.601-.45l-.755-3.569c-.236.045-.743.158-1.193.158-.957 0-1.621-.361-1.621-1.689v-8.376h3.253v-3.603zm7.282 7.296c.012-2.23 1.374-3.535 3.33-3.535 1.95 0 3.1 1.249 3.09 3.377v10.155h4.79v-11.011c.01-4.053-2.37-6.507-5.97-6.507-2.63 0-4.384 1.239-5.172 3.276h-.203v-8.815h-4.661v23.057h4.796v-9.997zm22.97 10.503c5.8 0 9.3-4.413 9.31-12.012.02-7.543-3.53-11.866-9.31-11.866-5.78 0-9.3 4.312-9.31 11.866-.02 7.577 3.5 12.001 9.31 12.012zm0-4.041c-2.64 0-4.35-2.657-4.34-7.971.01-5.235 1.71-7.869 4.34-7.869s4.34 2.634 4.34 7.869c.01 5.314-1.7 7.971-4.34 7.971zm-63.213 15.825h-3.165l-3.944 2.497v2.987l3.648-2.287h.093v12.733h3.368v-15.93zm4.03 15.93h3.477l6.611-13.138v-2.792h-11.177v2.754h7.693v.108l-6.604 13.068zm12.01 0h11.356v-2.754h-6.689v-.109l2.325-2.279c3.275-2.986 4.154-4.48 4.154-6.292 0-2.761-2.256-4.714-5.67-4.714-3.345 0-5.639 1.999-5.632 5.126h3.197c-.008-1.524.957-2.458 2.411-2.458 1.4 0 2.443.871 2.443 2.271 0 1.268-.778 2.139-2.225 3.532l-5.67 5.25v2.427zm15.378.202c.995 0 1.859-.832 1.867-1.867-.008-1.019-.872-1.851-1.867-1.851-1.027 0-1.875.832-1.867 1.851a1.862 1.862 0 001.867 1.867zm9.111-16.132h-3.166l-3.944 2.497v2.987l3.648-2.287h.094v12.733h3.368v-15.93zm4.034 15.93h3.47l6.61-13.138v-2.792h-11.17v2.754h7.69v.108l-6.6 13.068zm11.24.202c.99 0 1.85-.832 1.86-1.867-.01-1.019-.87-1.851-1.86-1.851-1.03 0-1.88.832-1.87 1.851-.01 1.035.84 1.867 1.87 1.867zm9.11-16.132h-3.17l-3.94 2.497v2.987l3.64-2.287h.1v12.733h3.37v-15.93zm4.53 16.132c.99 0 1.86-.832 1.87-1.867-.01-1.019-.88-1.851-1.87-1.851-1.03 0-1.88.832-1.87 1.851-.01 1.035.84 1.867 1.87 1.867zm9.56.015c3.58 0 6.14-1.967 6.13-4.69.01-1.983-1.25-3.399-3.59-3.694v-.125c1.78-.319 3.01-1.579 3-3.368.01-2.512-2.19-4.488-5.49-4.488-3.27 0-5.72 1.914-5.77 4.667h3.23c.04-1.213 1.15-1.999 2.53-1.999 1.36 0 2.27.825 2.26 2.022.01 1.253-1.06 2.101-2.59 2.101h-1.49v2.473h1.49c1.8 0 2.93.902 2.92 2.186.01 1.267-1.08 2.139-2.62 2.139-1.48 0-2.6-.778-2.66-1.945h-3.39c.06 2.785 2.54 4.721 6.04 4.721z" fill="#000"></path><rect x="917.98" y="482.98" width="156.8" height="51.94" rx="3.92" fill="#D6E9CE" stroke="#7C9D6E" stroke-width="1.96"></rect><path d="M974.608 501.727h-5.078l-3.58 12.373h-.18l-3.591-12.373h-5.066l6.045 17.293h5.404l6.046-17.293zm8.737 17.63c4.278 0 7.16-2.082 7.836-5.291l-4.436-.293c-.484 1.317-1.723 2.004-3.321 2.004-2.398 0-3.918-1.587-3.918-4.165v-.012h11.776v-1.317c0-5.877-3.558-8.781-8.128-8.781-5.089 0-8.388 3.614-8.388 8.95 0 5.483 3.254 8.905 8.579 8.905zm-3.839-10.729c.101-1.97 1.599-3.546 3.726-3.546 2.083 0 3.524 1.486 3.535 3.546h-7.261zm23.094-6.901h-3.254v-4.143h-4.796v4.143h-2.364v3.603h2.364v9.006c-.022 3.389 2.286 5.066 5.76 4.92a9.472 9.472 0 002.61-.45l-.76-3.569c-.24.045-.74.157-1.19.157-.96 0-1.624-.36-1.624-1.688v-8.376h3.254v-3.603zm7.28 7.295c.01-2.229 1.38-3.535 3.33-3.535 1.95 0 3.1 1.25 3.09 3.378v10.155h4.8v-11.011c.01-4.053-2.38-6.507-5.98-6.507-2.63 0-4.38 1.238-5.17 3.276h-.2v-8.815h-4.66v23.057h4.79v-9.998zm22.7-13.059h-4.59l-5.7 3.614v4.323l5.28-3.31h.13v18.43h4.88v-23.057z" fill="#000"></path><path d="M707.516 752v-15.68h6.186c1.19 0 2.203.227 3.04.681a4.622 4.622 0 011.914 1.876c.444.796.666 1.715.666 2.756 0 1.042-.225 1.96-.674 2.757-.449.796-1.1 1.416-1.952 1.86-.847.444-1.873.666-3.078.666h-3.943v-2.656h3.407c.638 0 1.164-.11 1.577-.33.419-.224.73-.533.934-.926.21-.398.314-.855.314-1.371 0-.52-.104-.974-.314-1.362a2.09 2.09 0 00-.934-.911c-.418-.22-.949-.33-1.592-.33h-2.236V752h-3.315zm18.335.23c-1.189 0-2.217-.253-3.085-.758a5.182 5.182 0 01-1.998-2.129c-.47-.913-.705-1.972-.705-3.177 0-1.215.235-2.277.705-3.185a5.122 5.122 0 011.998-2.129c.868-.51 1.896-.765 3.085-.765 1.19 0 2.216.255 3.078.765a5.109 5.109 0 012.006 2.129c.47.908.705 1.97.705 3.185 0 1.205-.235 2.264-.705 3.177a5.169 5.169 0 01-2.006 2.129c-.862.505-1.888.758-3.078.758zm.016-2.527c.541 0 .992-.153 1.355-.459.362-.312.635-.735.819-1.271.189-.536.283-1.146.283-1.83 0-.684-.094-1.294-.283-1.83-.184-.536-.457-.959-.819-1.271-.363-.311-.814-.467-1.355-.467-.546 0-1.006.156-1.378.467-.368.312-.646.735-.835 1.271-.184.536-.276 1.146-.276 1.83 0 .684.092 1.294.276 1.83.189.536.467.959.835 1.271.372.306.832.459 1.378.459zm11.54 2.488a4.435 4.435 0 01-2.427-.689c-.72-.464-1.291-1.146-1.715-2.044-.418-.903-.628-2.011-.628-3.323 0-1.347.217-2.468.651-3.361.434-.898 1.011-1.569 1.73-2.013a4.428 4.428 0 012.381-.674c.659 0 1.208.112 1.647.337a3.15 3.15 0 011.071.827c.276.326.485.648.628.964h.1v-5.895h3.254V752h-3.216v-1.883h-.138c-.153.326-.37.65-.651.972a3.227 3.227 0 01-1.079.788c-.439.21-.975.314-1.608.314zm1.034-2.595c.525 0 .97-.143 1.332-.429.367-.291.648-.697.842-1.217.199-.521.299-1.131.299-1.83 0-.699-.097-1.307-.291-1.822-.194-.516-.475-.914-.842-1.195-.368-.28-.815-.421-1.34-.421-.536 0-.988.146-1.355.437-.368.291-.646.694-.835 1.209-.189.516-.283 1.113-.283 1.792 0 .684.094 1.289.283 1.815.194.52.472.928.835 1.225.367.29.819.436 1.355.436zM756.017 752h-5.559v-15.68h5.605c1.577 0 2.935.314 4.073.942a6.351 6.351 0 012.626 2.687c.617 1.169.926 2.567.926 4.196 0 1.633-.309 3.037-.926 4.211a6.366 6.366 0 01-2.642 2.702c-1.143.628-2.511.942-4.103.942zm-2.244-2.84h2.106c.98 0 1.804-.174 2.473-.521.674-.352 1.179-.896 1.516-1.631.342-.74.513-1.694.513-2.863 0-1.159-.171-2.106-.513-2.841-.337-.735-.84-1.276-1.509-1.623-.668-.347-1.492-.521-2.472-.521h-2.114v10zm19.188-3.959V752h-3.262v-11.76h3.109v2.075h.138a3.275 3.275 0 011.309-1.623c.612-.404 1.355-.605 2.228-.605.817 0 1.529.179 2.136.536a3.64 3.64 0 011.416 1.531c.337.658.506 1.445.506 2.358V752h-3.262v-6.906c.005-.72-.179-1.281-.551-1.684-.373-.409-.886-.613-1.539-.613a2.35 2.35 0 00-1.164.283 1.977 1.977 0 00-.781.827c-.183.358-.278.789-.283 1.294zm14.823 7.029c-1.21 0-2.251-.245-3.124-.735a5.043 5.043 0 01-2.006-2.098c-.469-.909-.704-1.983-.704-3.223 0-1.21.235-2.272.704-3.185a5.216 5.216 0 011.983-2.137c.858-.51 1.863-.765 3.017-.765a6.14 6.14 0 012.167.375 4.82 4.82 0 011.761 1.11c.505.495.898 1.118 1.179 1.868.28.746.421 1.618.421 2.619v.896h-9.93v-2.022h6.86c0-.469-.103-.885-.307-1.248a2.198 2.198 0 00-.85-.85c-.357-.209-.773-.313-1.248-.313-.495 0-.934.114-1.316.344a2.422 2.422 0 00-.889.911 2.577 2.577 0 00-.329 1.263v1.922c0 .582.107 1.085.322 1.508.219.424.528.751.926.98.398.23.87.345 1.417.345.362 0 .694-.051.995-.153a1.984 1.984 0 001.263-1.21l3.017.199a4.115 4.115 0 01-.942 1.899c-.47.536-1.077.954-1.822 1.256-.74.296-1.595.444-2.565.444zm13.095-11.99v2.45h-7.082v-2.45h7.082zm-5.475-2.817h3.262v10.963c0 .301.046.536.138.705a.757.757 0 00.383.344c.168.067.362.1.582.1.153 0 .306-.013.459-.039l.352-.069.513 2.428a9.493 9.493 0 01-.689.176 5.617 5.617 0 01-1.08.13c-.786.03-1.475-.074-2.067-.314a2.883 2.883 0 01-1.37-1.118c-.327-.505-.488-1.143-.483-1.914v-11.392zm10.174 7.778V752h-3.261v-11.76h3.108v2.075h.138a3.28 3.28 0 011.309-1.623c.613-.404 1.355-.605 2.228-.605.817 0 1.529.179 2.136.536.608.357 1.08.868 1.417 1.531.336.658.505 1.445.505 2.358V752h-3.262v-6.906c.005-.72-.178-1.281-.551-1.684-.373-.409-.885-.613-1.539-.613a2.35 2.35 0 00-1.164.283 1.984 1.984 0 00-.781.827c-.183.358-.278.789-.283 1.294zm19.249-1.608l-2.986.184a1.539 1.539 0 00-.33-.689 1.75 1.75 0 00-.666-.498c-.27-.127-.594-.191-.972-.191-.505 0-.932.107-1.279.322-.347.209-.52.49-.52.842 0 .281.112.518.337.712.224.194.61.349 1.156.467l2.128.429c1.143.234 1.996.612 2.557 1.133.562.52.843 1.204.843 2.052 0 .77-.228 1.447-.682 2.029-.449.581-1.067 1.036-1.853 1.362-.781.322-1.682.483-2.702.483-1.557 0-2.797-.324-3.721-.973-.919-.653-1.458-1.541-1.616-2.664l3.208-.168c.097.474.332.837.705 1.087.372.245.849.367 1.431.367.572 0 1.031-.11 1.378-.329.353-.225.531-.513.536-.865a.898.898 0 00-.375-.727c-.245-.194-.623-.342-1.133-.445l-2.036-.405c-1.149-.23-2.004-.628-2.565-1.195-.557-.566-.835-1.289-.835-2.166 0-.756.204-1.407.613-1.953.413-.546.992-.967 1.738-1.263.75-.296 1.628-.444 2.633-.444 1.486 0 2.655.314 3.507.942.857.627 1.358 1.482 1.501 2.564zM948.732 752v-15.68h6.186c1.189 0 2.203.227 3.04.681a4.622 4.622 0 011.914 1.876c.444.796.666 1.715.666 2.756 0 1.042-.225 1.96-.674 2.757-.449.796-1.1 1.416-1.952 1.86-.848.444-1.873.666-3.078.666h-3.943v-2.656h3.407c.638 0 1.164-.11 1.577-.33.419-.224.73-.533.934-.926.21-.398.314-.855.314-1.371 0-.52-.104-.974-.314-1.362a2.09 2.09 0 00-.934-.911c-.418-.22-.949-.33-1.592-.33h-2.236V752h-3.315zm18.335.23c-1.189 0-2.218-.253-3.085-.758a5.182 5.182 0 01-1.998-2.129c-.47-.913-.705-1.972-.705-3.177 0-1.215.235-2.277.705-3.185a5.122 5.122 0 011.998-2.129c.867-.51 1.896-.765 3.085-.765 1.19 0 2.215.255 3.078.765a5.115 5.115 0 012.006 2.129c.47.908.704 1.97.704 3.185 0 1.205-.234 2.264-.704 3.177a5.175 5.175 0 01-2.006 2.129c-.863.505-1.888.758-3.078.758zm.016-2.527c.541 0 .992-.153 1.355-.459.362-.312.635-.735.819-1.271.189-.536.283-1.146.283-1.83 0-.684-.094-1.294-.283-1.83-.184-.536-.457-.959-.819-1.271-.363-.311-.814-.467-1.355-.467-.547 0-1.006.156-1.379.467-.367.312-.645.735-.834 1.271-.184.536-.276 1.146-.276 1.83 0 .684.092 1.294.276 1.83.189.536.467.959.834 1.271.373.306.832.459 1.379.459zm11.54 2.488a4.435 4.435 0 01-2.427-.689c-.72-.464-1.291-1.146-1.715-2.044-.419-.903-.628-2.011-.628-3.323 0-1.347.217-2.468.651-3.361.434-.898 1.011-1.569 1.73-2.013a4.428 4.428 0 012.381-.674c.659 0 1.207.112 1.646.337.444.219.802.495 1.072.827.276.326.485.648.628.964h.1v-5.895h3.254V752h-3.216v-1.883h-.138c-.153.326-.37.65-.651.972a3.227 3.227 0 01-1.079.788c-.439.21-.975.314-1.608.314zm1.034-2.595c.525 0 .969-.143 1.332-.429.367-.291.648-.697.842-1.217.199-.521.299-1.131.299-1.83 0-.699-.097-1.307-.291-1.822-.194-.516-.475-.914-.843-1.195-.367-.28-.814-.421-1.339-.421-.536 0-.988.146-1.356.437-.367.291-.645.694-.834 1.209-.189.516-.283 1.113-.283 1.792 0 .684.094 1.289.283 1.815.194.52.472.928.834 1.225.368.29.82.436 1.356.436zM991.674 752v-15.68h6.278c1.154 0 2.118.171 2.888.513.77.342 1.35.817 1.74 1.424.38.602.58 1.296.58 2.083 0 .612-.12 1.151-.37 1.615-.24.459-.58.837-1.01 1.133-.42.291-.91.498-1.45.62v.153c.59.026 1.15.194 1.67.506.53.311.95.747 1.28 1.309.33.556.49 1.22.49 1.991 0 .832-.21 1.574-.62 2.228-.41.648-1.01 1.161-1.81 1.538-.81.378-1.793.567-2.967.567h-6.699zm3.315-2.71h2.703c.924 0 1.598-.176 2.021-.529.427-.357.637-.832.637-1.424 0-.434-.11-.816-.32-1.148a2.092 2.092 0 00-.891-.781c-.383-.189-.84-.283-1.371-.283h-2.779v4.165zm0-6.409h2.458c.454 0 .857-.079 1.21-.237.357-.163.638-.393.842-.689.209-.296.314-.651.314-1.064 0-.567-.202-1.024-.605-1.371-.398-.347-.965-.52-1.7-.52h-2.519v3.881zm17.761 2.32V752h-3.27v-11.76h3.11v2.075h.14c.26-.684.7-1.225 1.31-1.623.61-.404 1.35-.605 2.23-.605.81 0 1.53.179 2.13.536.61.357 1.08.868 1.42 1.531.34.658.5 1.445.5 2.358V752h-3.26v-6.906c.01-.72-.18-1.281-.55-1.684-.37-.409-.88-.613-1.54-.613-.44 0-.82.095-1.16.283-.33.189-.59.465-.78.827-.19.358-.28.789-.28 1.294zm14.82 7.029c-1.21 0-2.25-.245-3.13-.735a5.073 5.073 0 01-2-2.098c-.47-.909-.71-1.983-.71-3.223 0-1.21.24-2.272.71-3.185a5.222 5.222 0 011.98-2.137c.86-.51 1.86-.765 3.02-.765.77 0 1.5.125 2.16.375a4.79 4.79 0 011.77 1.11c.5.495.89 1.118 1.17 1.868.29.746.43 1.618.43 2.619v.896h-9.93v-2.022h6.86c0-.469-.11-.885-.31-1.248a2.19 2.19 0 00-.85-.85c-.36-.209-.77-.313-1.25-.313-.49 0-.93.114-1.32.344a2.42 2.42 0 00-.88.911c-.22.378-.33.799-.33 1.263v1.922c0 .582.1 1.085.32 1.508.22.424.53.751.93.98.39.23.87.345 1.41.345.36 0 .7-.051 1-.153.3-.102.56-.255.77-.46.21-.204.38-.454.49-.75l3.02.199a4.23 4.23 0 01-.94 1.899c-.47.536-1.08.954-1.83 1.256-.74.296-1.59.444-2.56.444zm13.09-11.99v2.45h-7.08v-2.45h7.08zm-5.47-2.817h3.26v10.963c0 .301.05.536.14.705.09.163.22.278.38.344.17.067.36.1.58.1.16 0 .31-.013.46-.039.16-.03.27-.053.35-.069l.52 2.428c-.17.051-.4.109-.69.176a5.7 5.7 0 01-1.08.13c-.79.03-1.48-.074-2.07-.314a2.888 2.888 0 01-1.37-1.118c-.33-.505-.49-1.143-.48-1.914v-11.392zm10.17 7.778V752h-3.26v-11.76h3.11v2.075h.14a3.24 3.24 0 011.31-1.623c.61-.404 1.35-.605 2.22-.605.82 0 1.53.179 2.14.536.61.357 1.08.868 1.42 1.531.33.658.5 1.445.5 2.358V752h-3.26v-6.906c.01-.72-.18-1.281-.55-1.684-.37-.409-.89-.613-1.54-.613-.44 0-.83.095-1.16.283-.34.189-.6.465-.78.827-.19.358-.28.789-.29 1.294zm19.25-1.608l-2.99.184a1.61 1.61 0 00-.32-.689 1.749 1.749 0 00-.67-.498c-.27-.127-.6-.191-.97-.191-.51 0-.93.107-1.28.322-.35.209-.52.49-.52.842 0 .281.11.518.33.712.23.194.61.349 1.16.467l2.13.429c1.14.234 2 .612 2.56 1.133.56.52.84 1.204.84 2.052 0 .77-.23 1.447-.68 2.029-.45.581-1.07 1.036-1.86 1.362-.78.322-1.68.483-2.7.483-1.55 0-2.8-.324-3.72-.973-.92-.653-1.46-1.541-1.61-2.664l3.2-.168c.1.474.34.837.71 1.087.37.245.85.367 1.43.367.57 0 1.03-.11 1.38-.329.35-.225.53-.513.53-.865a.893.893 0 00-.37-.727c-.25-.194-.62-.342-1.13-.445l-2.04-.405c-1.15-.23-2-.628-2.57-1.195-.55-.566-.83-1.289-.83-2.166 0-.756.2-1.407.61-1.953.42-.546.99-.967 1.74-1.263.75-.296 1.63-.444 2.63-.444 1.49 0 2.66.314 3.51.942.86.627 1.36 1.482 1.5 2.564z" fill="#948551"></path><path d="M979.468 302h3.315v-5.558h2.42l2.97 5.558h3.66l-3.331-6.094c1.784-.766 2.772-2.32 2.772-4.464 0-3.116-2.059-5.122-5.62-5.122h-6.186V302zm3.315-8.223v-4.747h2.236c1.914 0 2.84.85 2.84 2.412 0 1.554-.926 2.335-2.825 2.335h-2.251zm15.21 8.453c3.567 0 5.787-2.443 5.787-6.064 0-3.644-2.22-6.079-5.787-6.079-3.568 0-5.788 2.435-5.788 6.079 0 3.621 2.22 6.064 5.788 6.064zm.015-2.527c-1.646 0-2.488-1.508-2.488-3.56s.842-3.568 2.488-3.568c1.616 0 2.462 1.516 2.462 3.568s-.846 3.56-2.462 3.56zm12.522 2.527c3.57 0 5.79-2.443 5.79-6.064 0-3.644-2.22-6.079-5.79-6.079s-5.79 2.435-5.79 6.079c0 3.621 2.22 6.064 5.79 6.064zm.01-2.527c-1.64 0-2.48-1.508-2.48-3.56s.84-3.568 2.48-3.568c1.62 0 2.46 1.516 2.46 3.568s-.84 3.56-2.46 3.56zm13.47-9.463h-2.22v-2.817h-3.26v2.817h-1.61v2.45h1.61v6.125c-.01 2.305 1.56 3.445 3.92 3.346a6.404 6.404 0 001.77-.306l-.51-2.428c-.16.031-.51.108-.81.108-.65 0-1.11-.245-1.11-1.149v-5.696h2.22v-2.45zm9 4.961c.01-1.516.91-2.404 2.23-2.404 1.31 0 2.09.858 2.09 2.297V302h3.26v-7.488c0-2.741-1.61-4.425-4.06-4.425-1.74 0-3.01.857-3.54 2.228h-.13v-2.075h-3.11V302h3.26v-6.799zm14.82 7.029c2.91 0 4.87-1.417 5.33-3.599l-3.02-.199c-.33.896-1.17 1.363-2.25 1.363-1.64 0-2.67-1.08-2.67-2.833v-.007h8.01v-.896c0-3.997-2.42-5.972-5.53-5.972-3.46 0-5.7 2.458-5.7 6.087 0 3.728 2.21 6.056 5.83 6.056zm-2.61-7.297c.07-1.34 1.09-2.411 2.54-2.411 1.41 0 2.39 1.01 2.4 2.411h-4.94zm15.71-4.693h-2.22v-2.817h-3.26v2.817h-1.61v2.45h1.61v6.125c-.01 2.305 1.56 3.445 3.92 3.346a6.404 6.404 0 001.77-.306l-.51-2.428c-.16.031-.51.108-.81.108-.65 0-1.11-.245-1.11-1.149v-5.696h2.22v-2.45zm4.7 4.961c0-1.516.91-2.404 2.22-2.404s2.1.858 2.09 2.297V302h3.27v-7.488c0-2.741-1.61-4.425-4.06-4.425-1.75 0-3.01.857-3.54 2.228h-.14v-2.075h-3.11V302h3.27v-6.799zm19.24-1.608c-.29-2.166-2.03-3.506-5-3.506-3.01 0-4.99 1.393-4.99 3.66 0 1.76 1.11 2.901 3.4 3.361l2.04.405c1.02.207 1.49.582 1.51 1.172-.02.697-.78 1.194-1.92 1.194-1.16 0-1.93-.497-2.13-1.454l-3.21.168c.31 2.251 2.22 3.637 5.34 3.637 3.04 0 5.22-1.555 5.23-3.874-.01-1.7-1.12-2.718-3.4-3.185l-2.13-.429c-1.09-.237-1.5-.613-1.49-1.179-.01-.705.79-1.164 1.8-1.164 1.13 0 1.81.62 1.97 1.378l2.98-.184z" fill="#AD9E6A"></path><rect x="807.98" y="273.98" width="156.8" height="81.34" rx="3.92" fill="#D6E9CE" stroke="#7C9D6E" stroke-width="1.96"></rect><path d="M861.563 312.178c4.278 0 7.161-2.083 7.836-5.292l-4.436-.292c-.484 1.317-1.722 2.003-3.321 2.003-2.398 0-3.918-1.587-3.918-4.165v-.011H869.5v-1.317c0-5.877-3.557-8.782-8.128-8.782-5.089 0-8.387 3.614-8.387 8.95 0 5.483 3.253 8.906 8.578 8.906zm-3.839-10.729c.102-1.971 1.599-3.547 3.727-3.547 2.083 0 3.524 1.486 3.535 3.547h-7.262zm23.094-6.902h-3.253v-4.143h-4.796v4.143h-2.364v3.603h2.364v9.006c-.023 3.389 2.285 5.067 5.764 4.92a9.322 9.322 0 002.601-.45l-.755-3.569c-.236.045-.743.158-1.193.158-.957 0-1.621-.361-1.621-1.689v-8.376h3.253v-3.603zm7.282 7.296c.012-2.23 1.374-3.535 3.333-3.535 1.947 0 3.096 1.249 3.085 3.377v10.155h4.796v-11.011c.011-4.053-2.376-6.507-5.979-6.507-2.623 0-4.379 1.239-5.167 3.276h-.203v-8.815h-4.661v23.057h4.796v-9.997zm22.973 10.503c5.798 0 9.3-4.413 9.311-12.012.011-7.543-3.535-11.866-9.311-11.866-5.786 0-9.299 4.312-9.31 11.866-.023 7.577 3.501 12.001 9.31 12.012zm0-4.041c-2.645 0-4.356-2.657-4.345-7.971.011-5.235 1.711-7.869 4.345-7.869 2.624 0 4.335 2.634 4.335 7.869.011 5.314-1.7 7.971-4.335 7.971zm-70.047 15.825h-3.166l-3.943 2.497v2.987l3.648-2.287h.093v12.733h3.368v-15.93zm9.645 16.28c4.006 0 6.425-3.049 6.433-8.3.008-5.211-2.442-8.198-6.433-8.198-3.997 0-6.424 2.979-6.432 8.198-.016 5.235 2.419 8.292 6.432 8.3zm0-2.793c-1.827 0-3.01-1.835-3.002-5.507.008-3.616 1.182-5.436 3.002-5.436 1.813 0 2.995 1.82 2.995 5.436.008 3.672-1.174 5.507-2.995 5.507zm9.753 2.645c.995 0 1.859-.832 1.867-1.867-.008-1.019-.872-1.851-1.867-1.851-1.027 0-1.875.832-1.867 1.851a1.862 1.862 0 001.867 1.867zm9.111-16.132h-3.166l-3.944 2.497v2.987l3.648-2.287h.094v12.733h3.368v-15.93zm9.645 16.28c4.006 0 6.425-3.049 6.432-8.3.008-5.211-2.442-8.198-6.432-8.198-3.998 0-6.425 2.979-6.432 8.198-.016 5.235 2.419 8.292 6.432 8.3zm0-2.793c-1.828 0-3.01-1.835-3.002-5.507.007-3.616 1.182-5.436 3.002-5.436 1.812 0 2.995 1.82 2.995 5.436.007 3.672-1.175 5.507-2.995 5.507zm14.693 2.793c4.006 0 6.425-3.049 6.433-8.3.008-5.211-2.442-8.198-6.433-8.198-3.998 0-6.424 2.979-6.432 8.198-.016 5.235 2.419 8.292 6.432 8.3zm0-2.793c-1.827 0-3.01-1.835-3.002-5.507.008-3.616 1.182-5.436 3.002-5.436 1.813 0 2.995 1.82 2.995 5.436.008 3.672-1.175 5.507-2.995 5.507zm9.753 2.645c.995 0 1.859-.832 1.867-1.867-.008-1.019-.872-1.851-1.867-1.851-1.027 0-1.875.832-1.867 1.851a1.862 1.862 0 001.867 1.867zm9.752.148c4.006 0 6.425-3.049 6.433-8.3.007-5.211-2.443-8.198-6.433-8.198-3.998 0-6.424 2.979-6.432 8.198-.016 5.235 2.419 8.292 6.432 8.3zm0-2.793c-1.828 0-3.01-1.835-3.002-5.507.008-3.616 1.182-5.436 3.002-5.436 1.812 0 2.995 1.82 2.995 5.436.008 3.672-1.175 5.507-2.995 5.507zm9.753 2.645c.995 0 1.859-.832 1.866-1.867-.007-1.019-.871-1.851-1.866-1.851-1.027 0-1.875.832-1.867 1.851a1.862 1.862 0 001.867 1.867zm9.565.015c3.578 0 6.137-1.967 6.129-4.69.008-1.983-1.252-3.399-3.593-3.694v-.125c1.781-.319 3.01-1.579 3.002-3.368.008-2.512-2.193-4.488-5.491-4.488-3.267 0-5.725 1.914-5.771 4.667h3.228c.038-1.213 1.151-1.999 2.527-1.999 1.362 0 2.272.825 2.264 2.022.008 1.253-1.058 2.101-2.59 2.101h-1.486v2.473h1.486c1.804 0 2.932.902 2.924 2.186.008 1.267-1.081 2.139-2.621 2.139-1.486 0-2.598-.778-2.66-1.945h-3.391c.054 2.785 2.543 4.721 6.043 4.721z" fill="#000"></path><rect x="807.98" y="371.98" width="156.8" height="81.34" rx="3.92" fill="#D6E9CE" stroke="#7C9D6E" stroke-width="1.96"></rect><path d="M832.349 410.121c2.792 0 4.245-1.61 4.909-3.051h.202v2.77h4.729v-23.057h-4.785v8.669h-.146c-.642-1.407-2.027-3.13-4.92-3.13-3.794 0-7.003 2.95-7.003 8.894 0 5.787 3.074 8.905 7.014 8.905zm1.52-3.816c-2.353 0-3.636-2.094-3.636-5.111 0-2.995 1.261-5.055 3.636-5.055 2.33 0 3.636 1.97 3.636 5.055 0 3.084-1.328 5.111-3.636 5.111zm19.067 3.873c5.246 0 8.511-3.592 8.511-8.917 0-5.359-3.265-8.939-8.511-8.939-5.247 0-8.512 3.58-8.512 8.939 0 5.325 3.265 8.917 8.512 8.917zm.022-3.716c-2.42 0-3.659-2.217-3.659-5.235 0-3.017 1.239-5.246 3.659-5.246 2.376 0 3.614 2.229 3.614 5.246 0 3.018-1.238 5.235-3.614 5.235zm18.411 3.716c4.604 0 7.498-2.702 7.723-6.677h-4.526c-.281 1.847-1.497 2.883-3.141 2.883-2.24 0-3.693-1.881-3.693-5.19 0-3.265 1.464-5.134 3.693-5.134 1.756 0 2.882 1.159 3.141 2.882h4.526c-.203-3.997-3.231-6.62-7.746-6.62-5.246 0-8.488 3.637-8.488 8.939 0 5.258 3.186 8.917 8.511 8.917zm9.784-.338h4.796v-5.494l1.295-1.475 4.717 6.969h5.618l-6.744-9.806 6.417-7.487h-5.505l-5.539 6.564h-.259v-12.328h-4.796v23.057zm24.611.338c4.278 0 7.16-2.083 7.836-5.292l-4.436-.292c-.484 1.317-1.723 2.003-3.321 2.003-2.398 0-3.918-1.587-3.918-4.165v-.011h11.776v-1.317c0-5.877-3.558-8.782-8.128-8.782-5.089 0-8.388 3.614-8.388 8.95 0 5.483 3.254 8.906 8.579 8.906zm-3.839-10.729c.101-1.971 1.599-3.547 3.726-3.547 2.083 0 3.524 1.486 3.535 3.547h-7.261zm13.896 10.391h4.796v-9.784c0-2.127 1.554-3.591 3.67-3.591.664 0 1.576.113 2.027.259v-4.256a7.227 7.227 0 00-1.509-.168c-1.936 0-3.524 1.125-4.154 3.264h-.18v-3.017h-4.65v17.293zm20.958.506c5.798 0 9.299-4.413 9.31-12.012.012-7.543-3.535-11.866-9.31-11.866-5.787 0-9.299 4.312-9.311 11.866-.022 7.577 3.502 12.001 9.311 12.012zm0-4.041c-2.646 0-4.357-2.657-4.346-7.971.012-5.235 1.712-7.869 4.346-7.869 2.623 0 4.334 2.634 4.334 7.869.012 5.314-1.7 7.971-4.334 7.971zm-86.812 15.825h-3.166l-3.943 2.497v2.987l3.648-2.287h.093v12.733h3.368v-15.93zm4.03 15.93h3.476l6.612-13.138v-2.792h-11.177v2.754h7.692v.108l-6.603 13.068zm12.01 0h11.355v-2.754h-6.689v-.109l2.326-2.279c3.275-2.986 4.153-4.48 4.153-6.292 0-2.761-2.255-4.714-5.67-4.714-3.344 0-5.639 1.999-5.631 5.126h3.197c-.008-1.524.956-2.458 2.411-2.458 1.4 0 2.442.871 2.442 2.271 0 1.268-.778 2.139-2.224 3.532l-5.67 5.25v2.427zm15.377.202c.996 0 1.859-.832 1.867-1.867-.008-1.019-.871-1.851-1.867-1.851-1.026 0-1.874.832-1.866 1.851a1.862 1.862 0 001.866 1.867zm9.111-16.132h-3.166l-3.943 2.497v2.987l3.648-2.287h.093v12.733h3.368v-15.93zm4.03 15.93h3.477l6.611-13.138v-2.792h-11.177v2.754h7.692v.108l-6.603 13.068zm11.24.202c.995 0 1.859-.832 1.866-1.867-.007-1.019-.871-1.851-1.866-1.851-1.027 0-1.875.832-1.867 1.851a1.862 1.862 0 001.867 1.867zm9.11-16.132h-3.165l-3.944 2.497v2.987l3.648-2.287h.094v12.733h3.367v-15.93zm4.534 16.132c.995 0 1.859-.832 1.867-1.867-.008-1.019-.872-1.851-1.867-1.851-1.027 0-1.875.832-1.867 1.851a1.862 1.862 0 001.867 1.867zm9.11-16.132h-3.165l-3.944 2.497v2.987l3.648-2.287h.094v12.733h3.367v-15.93zM770 536h13v35h-13zm0-129h12.759v76H770z" fill="#000"></path><path d="M807.396 407.036v12.759h-35.533v-12.759h35.533z" fill="#000"></path><path fill="#D0021B" d="M1004 407h-12.759v76H1004z"></path><path d="M966.604 407.036v12.759h35.536v-12.759h-35.536zM991 536h13v35h-13z" fill="#D0021B"></path><circle cx="998" cy="571" r="15" fill="#D0021B"></circle><path d="M1052.29 709v-32.938h12.99c2.5 0 4.63.477 6.39 1.431 1.76.944 3.1 2.257 4.02 3.941.93 1.672 1.4 3.602 1.4 5.789 0 2.188-.47 4.118-1.42 5.79-.94 1.673-2.31 2.976-4.1 3.909-1.78.932-3.93 1.399-6.46 1.399h-8.29v-5.581h7.16c1.34 0 2.45-.231 3.31-.692.88-.471 1.54-1.12 1.97-1.946.44-.836.66-1.796.66-2.879 0-1.093-.22-2.047-.66-2.862-.43-.826-1.09-1.464-1.97-1.914-.88-.461-1.99-.692-3.34-.692h-4.7V709h-6.96zm38.51.482c-2.49 0-4.65-.53-6.48-1.592-1.81-1.072-3.21-2.562-4.19-4.471-.99-1.919-1.48-4.144-1.48-6.674 0-2.552.49-4.782 1.48-6.691.98-1.919 2.38-3.41 4.19-4.471 1.83-1.072 3.99-1.608 6.48-1.608 2.5 0 4.66.536 6.47 1.608 1.82 1.061 3.23 2.552 4.21 4.471.99 1.909 1.48 4.139 1.48 6.691 0 2.53-.49 4.755-1.48 6.674a10.828 10.828 0 01-4.21 4.471c-1.81 1.062-3.97 1.592-6.47 1.592zm.04-5.307c1.13 0 2.08-.322 2.84-.965.76-.654 1.34-1.544 1.72-2.67.4-1.126.6-2.407.6-3.844 0-1.436-.2-2.718-.6-3.843-.38-1.126-.96-2.016-1.72-2.67-.76-.654-1.71-.981-2.84-.981-1.15 0-2.12.327-2.9.981-.77.654-1.35 1.544-1.75 2.67-.39 1.125-.58 2.407-.58 3.843 0 1.437.19 2.718.58 3.844.4 1.126.98 2.016 1.75 2.67.78.643 1.75.965 2.9.965zm24.24 5.227c-1.88 0-3.58-.482-5.1-1.447-1.51-.976-2.71-2.408-3.6-4.295-.88-1.897-1.32-4.224-1.32-6.98 0-2.83.45-5.184 1.37-7.06.91-1.887 2.12-3.297 3.63-4.23a9.302 9.302 0 015-1.415c1.39 0 2.54.236 3.46.707.93.461 1.68 1.04 2.25 1.737.58.687 1.02 1.362 1.32 2.027h.21v-12.384h6.84V709h-6.76v-3.956h-.29c-.32.686-.78 1.367-1.37 2.042-.57.665-1.33 1.217-2.26 1.657-.93.439-2.05.659-3.38.659zm2.17-5.452c1.1 0 2.04-.3 2.8-.901.77-.611 1.36-1.463 1.77-2.557.42-1.094.62-2.375.62-3.844 0-1.469-.2-2.745-.61-3.828-.4-1.083-.99-1.919-1.77-2.509-.77-.589-1.71-.884-2.81-.884-1.13 0-2.07.305-2.85.917-.77.611-1.35 1.458-1.75 2.541-.4 1.083-.59 2.337-.59 3.763 0 1.437.19 2.708.59 3.812.41 1.094.99 1.951 1.75 2.573.78.611 1.72.917 2.85.917zm25.24 5.05v-32.938h13.19c2.43 0 4.45.359 6.07 1.077 1.62.719 2.83 1.716 3.65 2.992.81 1.265 1.22 2.723 1.22 4.374 0 1.287-.26 2.418-.77 3.394a6.645 6.645 0 01-2.13 2.38c-.89.611-1.9 1.046-3.05 1.303v.322c1.25.053 2.43.407 3.52 1.061 1.11.654 2 1.571 2.69 2.75.68 1.169 1.03 2.563 1.03 4.182 0 1.748-.44 3.308-1.31 4.68-.85 1.362-2.13 2.439-3.81 3.233-1.68.793-3.76 1.19-6.22 1.19h-14.08zm6.97-5.693h5.68c1.94 0 3.35-.37 4.24-1.11.89-.751 1.34-1.748 1.34-2.992 0-.911-.22-1.715-.66-2.412-.44-.697-1.07-1.244-1.88-1.641-.81-.396-1.77-.595-2.88-.595h-5.84v8.75zm0-13.462h5.16c.96 0 1.8-.166 2.54-.499.75-.343 1.34-.825 1.77-1.447.44-.622.66-1.367.66-2.236 0-1.19-.42-2.149-1.27-2.878-.84-.73-2.03-1.094-3.57-1.094h-5.29v8.154z" fill="#000"></path><rect x="70.98" y="273.98" width="487.04" height="487.04" rx="18.62" fill="#CEE2F6" stroke="#76AADF" stroke-width="1.96"></rect><rect x="106.98" y="273.98" width="417.04" height="260.04" rx="3.92" fill="#FFF2C5" stroke="#AD9E6A" stroke-width="1.96"></rect><rect x="106.98" y="571.98" width="176.04" height="157.04" rx="3.92" fill="#FFF2C5" stroke="#AD9E6A" stroke-width="1.96"></rect><rect x="126.98" y="571.98" width="156.8" height="81.34" rx="3.92" fill="#D6E9CE" stroke="#7C9D6E" stroke-width="1.96"></rect><path d="M180.563 610.178c4.278 0 7.161-2.083 7.836-5.292l-4.436-.292c-.484 1.317-1.722 2.003-3.321 2.003-2.398 0-3.918-1.587-3.918-4.165v-.011H188.5v-1.317c0-5.877-3.557-8.782-8.128-8.782-5.089 0-8.387 3.614-8.387 8.95 0 5.483 3.253 8.906 8.578 8.906zm-3.839-10.729c.102-1.971 1.599-3.547 3.727-3.547 2.083 0 3.524 1.486 3.535 3.547h-7.262zm23.094-6.902h-3.253v-4.143h-4.796v4.143h-2.364v3.603h2.364v9.006c-.023 3.389 2.285 5.067 5.764 4.92a9.322 9.322 0 002.601-.45l-.755-3.569c-.236.045-.743.158-1.193.158-.957 0-1.621-.361-1.621-1.689v-8.376h3.253v-3.603zm7.282 7.296c.012-2.23 1.374-3.535 3.333-3.535 1.947 0 3.096 1.249 3.085 3.377v10.155h4.796v-11.011c.011-4.053-2.376-6.507-5.979-6.507-2.623 0-4.379 1.239-5.167 3.276h-.203v-8.815h-4.661v23.057h4.796v-9.997zm22.973 10.503c5.798 0 9.3-4.413 9.311-12.012.011-7.543-3.535-11.866-9.311-11.866-5.786 0-9.299 4.312-9.31 11.866-.023 7.577 3.501 12.001 9.31 12.012zm0-4.041c-2.645 0-4.356-2.657-4.345-7.971.011-5.235 1.711-7.869 4.345-7.869 2.624 0 4.335 2.634 4.335 7.869.011 5.314-1.7 7.971-4.335 7.971zm-66.071 15.825h-3.166l-3.943 2.497v2.987l3.648-2.287h.093v12.733h3.368v-15.93zm4.03 15.93h3.476l6.612-13.138v-2.792h-11.177v2.754h7.692v.108l-6.603 13.068zm12.01 0h11.356v-2.754h-6.69v-.109l2.326-2.279c3.275-2.986 4.154-4.48 4.154-6.292 0-2.761-2.256-4.714-5.671-4.714-3.344 0-5.639 1.999-5.631 5.126h3.197c-.008-1.524.957-2.458 2.411-2.458 1.4 0 2.442.871 2.442 2.271 0 1.268-.777 2.139-2.224 3.532l-5.67 5.25v2.427zm15.377.202c.996 0 1.859-.832 1.867-1.867-.008-1.019-.871-1.851-1.867-1.851-1.026 0-1.874.832-1.866 1.851a1.862 1.862 0 001.866 1.867zm9.111-16.132h-3.165l-3.944 2.497v2.987l3.648-2.287h.093v12.733h3.368v-15.93zm4.03 15.93h3.477l6.611-13.138v-2.792h-11.177v2.754h7.692v.108l-6.603 13.068zm11.24.202c.995 0 1.859-.832 1.867-1.867-.008-1.019-.872-1.851-1.867-1.851-1.027 0-1.875.832-1.867 1.851a1.862 1.862 0 001.867 1.867zm9.752.148c4.006 0 6.425-3.049 6.433-8.3.007-5.211-2.443-8.198-6.433-8.198-3.998 0-6.424 2.979-6.432 8.198-.016 5.235 2.419 8.292 6.432 8.3zm0-2.793c-1.828 0-3.01-1.835-3.002-5.507.008-3.616 1.182-5.436 3.002-5.436 1.813 0 2.995 1.82 2.995 5.436.008 3.672-1.175 5.507-2.995 5.507zm9.753 2.645c.995 0 1.859-.832 1.866-1.867-.007-1.019-.871-1.851-1.866-1.851-1.027 0-1.875.832-1.867 1.851a1.862 1.862 0 001.867 1.867zm4.169-.202h11.356v-2.754h-6.689v-.109l2.326-2.279c3.274-2.986 4.153-4.48 4.153-6.292 0-2.761-2.255-4.714-5.67-4.714-3.344 0-5.639 1.999-5.631 5.126h3.197c-.008-1.524.956-2.458 2.411-2.458 1.4 0 2.442.871 2.442 2.271 0 1.268-.778 2.139-2.224 3.532l-5.671 5.25v2.427z" fill="#000"></path><rect x="126.98" y="482.98" width="156.8" height="51.94" rx="3.92" fill="#D6E9CE" stroke="#7C9D6E" stroke-width="1.96"></rect><path d="M179.815 501.727h-5.077l-3.58 12.373h-.18l-3.592-12.373h-5.066l6.046 17.293h5.404l6.045-17.293zm8.737 17.63c4.279 0 7.161-2.082 7.836-5.291l-4.436-.293c-.484 1.317-1.722 2.004-3.321 2.004-2.398 0-3.918-1.587-3.918-4.165v-.012h11.777v-1.317c0-5.877-3.558-8.781-8.129-8.781-5.089 0-8.387 3.614-8.387 8.95 0 5.483 3.253 8.905 8.578 8.905zm-3.839-10.729c.102-1.97 1.599-3.546 3.727-3.546 2.083 0 3.524 1.486 3.535 3.546h-7.262zm23.095-6.901h-3.254v-4.143h-4.796v4.143h-2.364v3.603h2.364v9.006c-.023 3.389 2.285 5.066 5.764 4.92a9.352 9.352 0 002.601-.45l-.755-3.569c-.236.045-.743.157-1.193.157-.957 0-1.621-.36-1.621-1.688v-8.376h3.254v-3.603zm7.282 7.295c.011-2.229 1.373-3.535 3.332-3.535 1.948 0 3.096 1.25 3.085 3.378v10.155h4.796v-11.011c.011-4.053-2.376-6.507-5.978-6.507-2.624 0-4.38 1.238-5.168 3.276h-.203v-8.815h-4.66v23.057h4.796v-9.998zm22.973 10.504c5.798 0 9.299-4.413 9.31-12.012.011-7.543-3.535-11.866-9.31-11.866-5.787 0-9.3 4.311-9.311 11.866-.022 7.576 3.501 12.001 9.311 12.012zm0-4.042c-2.646 0-4.357-2.656-4.346-7.97.011-5.235 1.711-7.87 4.346-7.87 2.623 0 4.334 2.635 4.334 7.87.011 5.314-1.7 7.97-4.334 7.97z" fill="#000"></path><rect x="346.98" y="571.98" width="176.04" height="157.04" rx="3.92" fill="#FFF2C5" stroke="#AD9E6A" stroke-width="1.96"></rect><rect x="346.98" y="571.98" width="156.8" height="81.34" rx="3.92" fill="#D6E9CE" stroke="#7C9D6E" stroke-width="1.96"></rect><path d="M400.563 610.178c4.278 0 7.161-2.083 7.836-5.292l-4.436-.292c-.484 1.317-1.722 2.003-3.321 2.003-2.398 0-3.918-1.587-3.918-4.165v-.011H408.5v-1.317c0-5.877-3.557-8.782-8.128-8.782-5.089 0-8.387 3.614-8.387 8.95 0 5.483 3.253 8.906 8.578 8.906zm-3.839-10.729c.102-1.971 1.599-3.547 3.727-3.547 2.083 0 3.524 1.486 3.535 3.547h-7.262zm23.094-6.902h-3.253v-4.143h-4.796v4.143h-2.364v3.603h2.364v9.006c-.023 3.389 2.285 5.067 5.764 4.92a9.322 9.322 0 002.601-.45l-.755-3.569c-.236.045-.743.158-1.193.158-.957 0-1.621-.361-1.621-1.689v-8.376h3.253v-3.603zm7.282 7.296c.012-2.23 1.374-3.535 3.333-3.535 1.947 0 3.096 1.249 3.085 3.377v10.155h4.796v-11.011c.011-4.053-2.376-6.507-5.979-6.507-2.623 0-4.379 1.239-5.167 3.276h-.203v-8.815h-4.661v23.057h4.796v-9.997zm22.973 10.503c5.798 0 9.3-4.413 9.311-12.012.011-7.543-3.535-11.866-9.311-11.866-5.786 0-9.299 4.312-9.31 11.866-.023 7.577 3.501 12.001 9.31 12.012zm0-4.041c-2.645 0-4.356-2.657-4.345-7.971.011-5.235 1.711-7.869 4.345-7.869 2.624 0 4.335 2.634 4.335 7.869.011 5.314-1.7 7.971-4.335 7.971zm-66.146 15.825h-3.166l-3.943 2.497v2.987l3.648-2.287h.093v12.733h3.368v-15.93zm4.03 15.93h3.476l6.612-13.138v-2.792h-11.177v2.754h7.692v.108l-6.603 13.068zm12.01 0h11.356v-2.754h-6.69v-.109l2.326-2.279c3.275-2.986 4.154-4.48 4.154-6.292 0-2.761-2.256-4.714-5.671-4.714-3.344 0-5.639 1.999-5.631 5.126h3.197c-.008-1.524.957-2.458 2.411-2.458 1.4 0 2.442.871 2.442 2.271 0 1.268-.777 2.139-2.224 3.532l-5.67 5.25v2.427zm15.377.202c.996 0 1.859-.832 1.867-1.867-.008-1.019-.871-1.851-1.867-1.851-1.026 0-1.874.832-1.866 1.851a1.862 1.862 0 001.866 1.867zm9.111-16.132h-3.165l-3.944 2.497v2.987l3.648-2.287h.093v12.733h3.368v-15.93zm4.03 15.93h3.477l6.611-13.138v-2.792h-11.177v2.754h7.692v.108l-6.603 13.068zm11.24.202c.995 0 1.859-.832 1.867-1.867-.008-1.019-.872-1.851-1.867-1.851-1.027 0-1.875.832-1.867 1.851a1.862 1.862 0 001.867 1.867zm9.752.148c4.006 0 6.425-3.049 6.433-8.3.007-5.211-2.443-8.198-6.433-8.198-3.998 0-6.424 2.979-6.432 8.198-.016 5.235 2.419 8.292 6.432 8.3zm0-2.793c-1.828 0-3.01-1.835-3.002-5.507.008-3.616 1.182-5.436 3.002-5.436 1.813 0 2.995 1.82 2.995 5.436.008 3.672-1.175 5.507-2.995 5.507zm9.753 2.645c.995 0 1.859-.832 1.866-1.867-.007-1.019-.871-1.851-1.866-1.851-1.027 0-1.875.832-1.867 1.851a1.862 1.862 0 001.867 1.867zm9.565.015c3.578 0 6.137-1.967 6.129-4.69.008-1.983-1.252-3.399-3.593-3.694v-.125c1.781-.319 3.01-1.579 3.002-3.368.008-2.512-2.193-4.488-5.491-4.488-3.267 0-5.725 1.914-5.771 4.667h3.228c.038-1.213 1.151-1.999 2.527-1.999 1.362 0 2.272.825 2.264 2.022.008 1.253-1.058 2.101-2.59 2.101h-1.486v2.473h1.486c1.804 0 2.932.902 2.924 2.186.008 1.267-1.081 2.139-2.621 2.139-1.485 0-2.598-.778-2.66-1.945h-3.391c.054 2.785 2.543 4.721 6.043 4.721z" fill="#000"></path><rect x="346.98" y="482.98" width="156.8" height="51.94" rx="3.92" fill="#D6E9CE" stroke="#7C9D6E" stroke-width="1.96"></rect><path d="M403.608 501.727h-5.078l-3.58 12.373h-.18l-3.591-12.373h-5.066l6.045 17.293h5.404l6.046-17.293zm8.737 17.63c4.278 0 7.16-2.082 7.836-5.291l-4.436-.293c-.484 1.317-1.723 2.004-3.321 2.004-2.398 0-3.918-1.587-3.918-4.165v-.012h11.776v-1.317c0-5.877-3.558-8.781-8.128-8.781-5.089 0-8.388 3.614-8.388 8.95 0 5.483 3.254 8.905 8.579 8.905zm-3.839-10.729c.101-1.97 1.599-3.546 3.726-3.546 2.083 0 3.524 1.486 3.535 3.546h-7.261zm23.094-6.901h-3.254v-4.143h-4.796v4.143h-2.364v3.603h2.364v9.006c-.022 3.389 2.286 5.066 5.765 4.92a9.35 9.35 0 002.6-.45l-.754-3.569c-.236.045-.743.157-1.193.157-.957 0-1.622-.36-1.622-1.688v-8.376h3.254v-3.603zm7.282 7.295c.011-2.229 1.374-3.535 3.332-3.535 1.948 0 3.096 1.25 3.085 3.378v10.155h4.796v-11.011c.011-4.053-2.375-6.507-5.978-6.507-2.623 0-4.379 1.238-5.167 3.276h-.203v-8.815h-4.661v23.057h4.796v-9.998zm22.694-13.059h-4.582l-5.708 3.614v4.323l5.281-3.31h.135v18.43h4.874v-23.057zm-164.201 283.98h-4.853v14.501h-.202l-9.953-14.501h-4.278V803h4.875v-14.512h.169L293.164 803h4.211v-23.057zm10.741 23.395c5.246 0 8.511-3.592 8.511-8.917 0-5.359-3.265-8.939-8.511-8.939-5.247 0-8.512 3.58-8.512 8.939 0 5.325 3.265 8.917 8.512 8.917zm.022-3.715c-2.42 0-3.659-2.218-3.659-5.235 0-3.018 1.239-5.247 3.659-5.247 2.376 0 3.614 2.229 3.614 5.247 0 3.017-1.238 5.235-3.614 5.235zm16.97 3.658c2.792 0 4.244-1.609 4.908-3.051h.203V803h4.728v-23.057h-4.784v8.669h-.147c-.641-1.407-2.026-3.13-4.919-3.13-3.794 0-7.003 2.95-7.003 8.894 0 5.787 3.073 8.905 7.014 8.905zm1.52-3.816c-2.353 0-3.637-2.094-3.637-5.111 0-2.995 1.261-5.055 3.637-5.055 2.33 0 3.636 1.97 3.636 5.055 0 3.084-1.328 5.111-3.636 5.111zm19.134 3.873c4.278 0 7.16-2.083 7.835-5.292l-4.435-.292c-.484 1.317-1.723 2.004-3.321 2.004-2.398 0-3.918-1.588-3.918-4.166v-.011h11.776v-1.317c0-5.877-3.558-8.782-8.129-8.782-5.088 0-8.387 3.614-8.387 8.951 0 5.482 3.254 8.905 8.579 8.905zm-3.839-10.729c.101-1.97 1.598-3.547 3.726-3.547 2.083 0 3.524 1.486 3.535 3.547h-7.261z" fill="#000"></path><path d="M136.795 752v-15.68h6.186c1.19 0 2.203.227 3.04.681a4.622 4.622 0 011.914 1.876c.444.796.666 1.715.666 2.756 0 1.042-.225 1.96-.674 2.757-.449.796-1.1 1.416-1.952 1.86-.847.444-1.873.666-3.078.666h-3.943v-2.656h3.407c.638 0 1.164-.11 1.577-.33.419-.224.73-.533.934-.926.21-.398.314-.855.314-1.371 0-.52-.104-.974-.314-1.362a2.09 2.09 0 00-.934-.911c-.418-.22-.949-.33-1.592-.33h-2.236V752h-3.315zm18.335.23c-1.189 0-2.217-.253-3.085-.758a5.182 5.182 0 01-1.998-2.129c-.47-.913-.705-1.972-.705-3.177 0-1.215.235-2.277.705-3.185a5.122 5.122 0 011.998-2.129c.868-.51 1.896-.765 3.085-.765 1.19 0 2.216.255 3.078.765a5.115 5.115 0 012.006 2.129c.47.908.704 1.97.704 3.185 0 1.205-.234 2.264-.704 3.177a5.175 5.175 0 01-2.006 2.129c-.862.505-1.888.758-3.078.758zm.016-2.527c.541 0 .992-.153 1.355-.459.362-.312.635-.735.819-1.271.189-.536.283-1.146.283-1.83 0-.684-.094-1.294-.283-1.83-.184-.536-.457-.959-.819-1.271-.363-.311-.814-.467-1.355-.467-.547 0-1.006.156-1.378.467-.368.312-.646.735-.835 1.271-.184.536-.276 1.146-.276 1.83 0 .684.092 1.294.276 1.83.189.536.467.959.835 1.271.372.306.831.459 1.378.459zm11.54 2.488a4.435 4.435 0 01-2.427-.689c-.72-.464-1.291-1.146-1.715-2.044-.419-.903-.628-2.011-.628-3.323 0-1.347.217-2.468.651-3.361.434-.898 1.011-1.569 1.73-2.013a4.428 4.428 0 012.381-.674c.659 0 1.208.112 1.646.337.445.219.802.495 1.072.827.276.326.485.648.628.964h.1v-5.895h3.254V752h-3.216v-1.883h-.138c-.153.326-.37.65-.651.972a3.227 3.227 0 01-1.079.788c-.439.21-.975.314-1.608.314zm1.034-2.595c.525 0 .969-.143 1.332-.429.367-.291.648-.697.842-1.217.199-.521.299-1.131.299-1.83 0-.699-.097-1.307-.291-1.822-.194-.516-.475-.914-.843-1.195-.367-.28-.814-.421-1.339-.421-.536 0-.988.146-1.356.437-.367.291-.645.694-.834 1.209-.189.516-.283 1.113-.283 1.792 0 .684.094 1.289.283 1.815.194.52.472.928.834 1.225.368.29.82.436 1.356.436zM182.44 752h-3.553l5.413-15.68h4.272l5.406 15.68h-3.553l-3.927-12.097h-.123L182.44 752zm-.222-6.163h8.391v2.588h-8.391v-2.588zm20.464-.636V752h-3.261v-11.76h3.108v2.075h.138a3.275 3.275 0 011.309-1.623c.612-.404 1.355-.605 2.228-.605.817 0 1.529.179 2.136.536a3.64 3.64 0 011.416 1.531c.337.658.506 1.445.506 2.358V752H207v-6.906c.005-.72-.178-1.281-.551-1.684-.373-.409-.886-.613-1.539-.613a2.35 2.35 0 00-1.164.283 1.984 1.984 0 00-.781.827c-.183.358-.278.789-.283 1.294zm14.823 7.029c-1.21 0-2.251-.245-3.124-.735a5.043 5.043 0 01-2.006-2.098c-.469-.909-.704-1.983-.704-3.223 0-1.21.235-2.272.704-3.185a5.216 5.216 0 011.983-2.137c.858-.51 1.863-.765 3.017-.765a6.14 6.14 0 012.167.375 4.82 4.82 0 011.761 1.11c.505.495.898 1.118 1.179 1.868.28.746.421 1.618.421 2.619v.896h-9.93v-2.022h6.86c0-.469-.102-.885-.307-1.248a2.202 2.202 0 00-.849-.85c-.358-.209-.774-.313-1.248-.313-.496 0-.935.114-1.317.344a2.412 2.412 0 00-.888.911 2.567 2.567 0 00-.33 1.263v1.922c0 .582.108 1.085.322 1.508.219.424.528.751.926.98.398.23.871.345 1.417.345.362 0 .694-.051.995-.153a1.984 1.984 0 001.263-1.21l3.017.199a4.115 4.115 0 01-.942 1.899c-.469.536-1.077.954-1.822 1.256-.74.296-1.595.444-2.565.444zm13.095-11.99v2.45h-7.082v-2.45h7.082zm-5.474-2.817h3.261v10.963c0 .301.046.536.138.705a.757.757 0 00.383.344c.168.067.362.1.582.1.153 0 .306-.013.459-.039l.352-.069.513 2.428a9.493 9.493 0 01-.689.176 5.616 5.616 0 01-1.079.13c-.787.03-1.476-.074-2.068-.314a2.888 2.888 0 01-1.37-1.118c-.327-.505-.488-1.143-.482-1.914v-11.392zm10.173 7.778V752h-3.261v-11.76h3.108v2.075h.138a3.28 3.28 0 011.309-1.623c.613-.404 1.355-.605 2.228-.605.817 0 1.529.179 2.136.536.608.357 1.08.868 1.417 1.531.337.658.505 1.445.505 2.358V752h-3.262v-6.906c.006-.72-.178-1.281-.551-1.684-.372-.409-.885-.613-1.539-.613-.439 0-.827.095-1.163.283a1.971 1.971 0 00-.781.827c-.184.358-.279.789-.284 1.294zm19.249-1.608l-2.986.184a1.539 1.539 0 00-.33-.689 1.75 1.75 0 00-.666-.498c-.27-.127-.594-.191-.972-.191-.505 0-.931.107-1.279.322-.347.209-.52.49-.52.842 0 .281.112.518.337.712.224.194.61.349 1.156.467l2.128.429c1.144.234 1.996.612 2.557 1.133.562.52.843 1.204.843 2.052 0 .77-.228 1.447-.682 2.029-.449.581-1.067 1.036-1.853 1.362-.781.322-1.681.483-2.702.483-1.557 0-2.797-.324-3.721-.973-.919-.653-1.457-1.541-1.616-2.664l3.208-.168c.097.474.332.837.705 1.087.372.245.849.367 1.431.367.572 0 1.031-.11 1.378-.329.353-.225.531-.513.536-.865a.898.898 0 00-.375-.727c-.245-.194-.622-.342-1.133-.445l-2.036-.405c-1.149-.23-2.004-.628-2.565-1.195-.557-.566-.835-1.289-.835-2.166 0-.756.204-1.407.613-1.953.413-.546.992-.967 1.738-1.263.75-.296 1.628-.444 2.633-.444 1.486 0 2.655.314 3.507.942.857.627 1.358 1.482 1.501 2.564zM376.753 752v-15.68h6.186c1.189 0 2.203.227 3.04.681a4.622 4.622 0 011.914 1.876c.444.796.666 1.715.666 2.756 0 1.042-.225 1.96-.674 2.757-.449.796-1.1 1.416-1.952 1.86-.848.444-1.874.666-3.078.666h-3.943v-2.656h3.407c.638 0 1.164-.11 1.577-.33.419-.224.73-.533.934-.926.209-.398.314-.855.314-1.371 0-.52-.105-.974-.314-1.362a2.09 2.09 0 00-.934-.911c-.418-.22-.949-.33-1.592-.33h-2.236V752h-3.315zm18.335.23c-1.189 0-2.218-.253-3.085-.758a5.19 5.19 0 01-1.999-2.129c-.469-.913-.704-1.972-.704-3.177 0-1.215.235-2.277.704-3.185a5.13 5.13 0 011.999-2.129c.867-.51 1.896-.765 3.085-.765s2.215.255 3.078.765a5.115 5.115 0 012.006 2.129c.47.908.704 1.97.704 3.185 0 1.205-.234 2.264-.704 3.177a5.175 5.175 0 01-2.006 2.129c-.863.505-1.889.758-3.078.758zm.016-2.527c.541 0 .992-.153 1.355-.459.362-.312.635-.735.819-1.271.189-.536.283-1.146.283-1.83 0-.684-.094-1.294-.283-1.83-.184-.536-.457-.959-.819-1.271-.363-.311-.814-.467-1.355-.467-.547 0-1.006.156-1.379.467-.367.312-.645.735-.834 1.271-.184.536-.276 1.146-.276 1.83 0 .684.092 1.294.276 1.83.189.536.467.959.834 1.271.373.306.832.459 1.379.459zm11.54 2.488a4.435 4.435 0 01-2.427-.689c-.72-.464-1.291-1.146-1.715-2.044-.419-.903-.628-2.011-.628-3.323 0-1.347.217-2.468.651-3.361.434-.898 1.01-1.569 1.73-2.013a4.428 4.428 0 012.381-.674c.659 0 1.207.112 1.646.337.444.219.802.495 1.072.827.276.326.485.648.628.964h.1v-5.895h3.253V752h-3.215v-1.883h-.138c-.153.326-.37.65-.651.972a3.227 3.227 0 01-1.079.788c-.439.21-.975.314-1.608.314zm1.034-2.595c.525 0 .969-.143 1.332-.429.367-.291.648-.697.842-1.217.199-.521.298-1.131.298-1.83 0-.699-.096-1.307-.29-1.822-.194-.516-.475-.914-.843-1.195-.367-.28-.814-.421-1.339-.421-.536 0-.988.146-1.356.437-.367.291-.645.694-.834 1.209-.189.516-.283 1.113-.283 1.792 0 .684.094 1.289.283 1.815.194.52.472.928.834 1.225.368.29.82.436 1.356.436zm25.852-7.786h-3.354a3.276 3.276 0 00-.375-1.157 2.94 2.94 0 00-.727-.872 3.207 3.207 0 00-1.026-.552 3.943 3.943 0 00-1.248-.191c-.812 0-1.518.202-2.121.605-.602.398-1.069.98-1.401 1.745-.332.761-.497 1.685-.497 2.772 0 1.118.165 2.057.497 2.818.337.76.807 1.334 1.409 1.722.602.388 1.299.582 2.09.582.444 0 .855-.059 1.233-.176a3.219 3.219 0 001.018-.513c.296-.23.541-.508.735-.835.199-.326.337-.699.413-1.117l3.354.015a6.065 6.065 0 01-.651 2.082 6.241 6.241 0 01-1.386 1.784 6.515 6.515 0 01-2.067 1.241c-.796.301-1.697.451-2.703.451-1.398 0-2.649-.316-3.751-.949-1.097-.633-1.965-1.549-2.603-2.749-.633-1.199-.95-2.651-.95-4.356 0-1.71.322-3.165.965-4.364.643-1.2 1.516-2.113 2.619-2.741 1.102-.633 2.342-.949 3.72-.949a8.05 8.05 0 012.527.382 6.419 6.419 0 012.075 1.118 5.764 5.764 0 011.47 1.784c.383.705.628 1.511.735 2.42zm9.194 3.391V752h-3.261v-11.76h3.108v2.075h.138a3.28 3.28 0 011.309-1.623c.613-.404 1.355-.605 2.228-.605.817 0 1.529.179 2.136.536.608.357 1.08.868 1.417 1.531.336.658.505 1.445.505 2.358V752h-3.262v-6.906c.005-.72-.178-1.281-.551-1.684-.373-.409-.886-.613-1.539-.613a2.35 2.35 0 00-1.164.283 1.984 1.984 0 00-.781.827c-.183.358-.278.789-.283 1.294zm14.823 7.029c-1.209 0-2.251-.245-3.124-.735a5.035 5.035 0 01-2.005-2.098c-.47-.909-.705-1.983-.705-3.223 0-1.21.235-2.272.705-3.185a5.207 5.207 0 011.982-2.137c.858-.51 1.864-.765 3.017-.765a6.14 6.14 0 012.167.375 4.804 4.804 0 011.761 1.11c.505.495.898 1.118 1.179 1.868.281.746.421 1.618.421 2.619v.896h-9.93v-2.022h6.86c0-.469-.102-.885-.307-1.248a2.202 2.202 0 00-.849-.85c-.358-.209-.774-.313-1.248-.313-.495 0-.934.114-1.317.344a2.412 2.412 0 00-.888.911 2.578 2.578 0 00-.33 1.263v1.922c0 .582.108 1.085.322 1.508.219.424.528.751.926.98.399.23.871.345 1.417.345.362 0 .694-.051.995-.153a1.984 1.984 0 001.263-1.21l3.017.199a4.115 4.115 0 01-.942 1.899c-.469.536-1.077.954-1.822 1.256-.74.296-1.595.444-2.565.444zm13.095-11.99v2.45h-7.082v-2.45h7.082zm-5.474-2.817h3.261v10.963c0 .301.046.536.138.705a.757.757 0 00.383.344c.168.067.362.1.582.1.153 0 .306-.013.459-.039l.352-.069.513 2.428a9.493 9.493 0 01-.689.176 5.616 5.616 0 01-1.079.13c-.786.03-1.475-.074-2.068-.314a2.888 2.888 0 01-1.37-1.118c-.327-.505-.487-1.143-.482-1.914v-11.392zm10.173 7.778V752h-3.261v-11.76h3.108v2.075h.138a3.28 3.28 0 011.309-1.623c.613-.404 1.355-.605 2.228-.605.817 0 1.529.179 2.136.536.608.357 1.08.868 1.417 1.531.337.658.505 1.445.505 2.358V752h-3.261v-6.906c.005-.72-.179-1.281-.552-1.684-.372-.409-.885-.613-1.539-.613-.439 0-.827.095-1.163.283a1.977 1.977 0 00-.781.827c-.184.358-.278.789-.284 1.294zm19.249-1.608l-2.986.184a1.547 1.547 0 00-.329-.689 1.76 1.76 0 00-.667-.498c-.27-.127-.594-.191-.972-.191-.505 0-.931.107-1.278.322-.348.209-.521.49-.521.842 0 .281.112.518.337.712.224.194.61.349 1.156.467l2.128.429c1.144.234 1.996.612 2.558 1.133.561.52.842 1.204.842 2.052 0 .77-.227 1.447-.682 2.029-.449.581-1.066 1.036-1.853 1.362-.78.322-1.681.483-2.702.483-1.557 0-2.797-.324-3.721-.973-.919-.653-1.457-1.541-1.616-2.664l3.208-.168c.097.474.332.837.705 1.087.372.245.85.367 1.431.367.572 0 1.032-.11 1.379-.329.352-.225.53-.513.536-.865a.902.902 0 00-.376-.727c-.245-.194-.622-.342-1.133-.445l-2.036-.405c-1.149-.23-2.004-.628-2.565-1.195-.557-.566-.835-1.289-.835-2.166 0-.756.204-1.407.613-1.953.413-.546.993-.967 1.738-1.263.75-.296 1.628-.444 2.634-.444 1.485 0 2.654.314 3.506.942.858.627 1.358 1.482 1.501 2.564z" fill="#948551"></path><path d="M408.468 302h3.315v-5.558h2.42l2.97 5.558h3.66l-3.331-6.094c1.784-.766 2.772-2.32 2.772-4.464 0-3.116-2.059-5.122-5.62-5.122h-6.186V302zm3.315-8.223v-4.747h2.236c1.914 0 2.84.85 2.84 2.412 0 1.554-.926 2.335-2.825 2.335h-2.251zm15.21 8.453c3.568 0 5.788-2.443 5.788-6.064 0-3.644-2.22-6.079-5.788-6.079s-5.788 2.435-5.788 6.079c0 3.621 2.22 6.064 5.788 6.064zm.015-2.527c-1.646 0-2.488-1.508-2.488-3.56s.842-3.568 2.488-3.568c1.616 0 2.458 1.516 2.458 3.568s-.842 3.56-2.458 3.56zm12.521 2.527c3.567 0 5.788-2.443 5.788-6.064 0-3.644-2.221-6.079-5.788-6.079-3.568 0-5.788 2.435-5.788 6.079 0 3.621 2.22 6.064 5.788 6.064zm.015-2.527c-1.646 0-2.488-1.508-2.488-3.56s.842-3.568 2.488-3.568c1.615 0 2.458 1.516 2.458 3.568s-.843 3.56-2.458 3.56zm13.462-9.463h-2.213v-2.817h-3.261v2.817h-1.608v2.45h1.608v6.125c-.015 2.305 1.554 3.445 3.92 3.346a6.362 6.362 0 001.768-.306l-.513-2.428c-.16.031-.505.108-.811.108-.651 0-1.103-.245-1.103-1.149v-5.696h2.213v-2.45zm9.003 4.961c.008-1.516.911-2.404 2.228-2.404 1.309 0 2.098.858 2.09 2.297V302h3.262v-7.488c0-2.741-1.608-4.425-4.058-4.425-1.746 0-3.009.857-3.537 2.228h-.138v-2.075h-3.109V302h3.262v-6.799zm14.823 7.029c2.909 0 4.869-1.417 5.329-3.599l-3.017-.199c-.329.896-1.171 1.363-2.258 1.363-1.631 0-2.665-1.08-2.665-2.833v-.007h8.009v-.896c0-3.997-2.42-5.972-5.528-5.972-3.461 0-5.704 2.458-5.704 6.087 0 3.728 2.213 6.056 5.834 6.056zm-2.611-7.297c.069-1.34 1.087-2.411 2.534-2.411 1.417 0 2.397 1.01 2.405 2.411h-4.939zm15.706-4.693h-2.213v-2.817h-3.262v2.817h-1.607v2.45h1.607v6.125c-.015 2.305 1.555 3.445 3.92 3.346a6.363 6.363 0 001.769-.306l-.513-2.428c-.161.031-.505.108-.812.108-.65 0-1.102-.245-1.102-1.149v-5.696h2.213v-2.45zm4.699 4.961c.008-1.516.911-2.404 2.228-2.404 1.309 0 2.098.858 2.09 2.297V302h3.262v-7.488c0-2.741-1.608-4.425-4.058-4.425-1.746 0-3.009.857-3.537 2.228h-.138v-2.075h-3.108V302h3.261v-6.799zm19.249-1.608c-.291-2.166-2.037-3.506-5.008-3.506-3.009 0-4.992 1.393-4.984 3.66-.008 1.76 1.103 2.901 3.399 3.361l2.037.405c1.026.207 1.493.582 1.508 1.172-.015.697-.773 1.194-1.914 1.194-1.163 0-1.937-.497-2.136-1.454l-3.208.168c.306 2.251 2.221 3.637 5.337 3.637 3.047 0 5.229-1.555 5.236-3.874-.007-1.7-1.117-2.718-3.399-3.185l-2.128-.429c-1.095-.237-1.501-.613-1.493-1.179-.008-.705.788-1.164 1.799-1.164 1.133 0 1.807.62 1.968 1.378l2.986-.184z" fill="#AD9E6A"></path><rect x="236.98" y="273.98" width="156.8" height="81.34" rx="3.92" fill="#D6E9CE" stroke="#7C9D6E" stroke-width="1.96"></rect><path d="M290.563 312.178c4.278 0 7.161-2.083 7.836-5.292l-4.436-.292c-.484 1.317-1.722 2.003-3.321 2.003-2.398 0-3.918-1.587-3.918-4.165v-.011H298.5v-1.317c0-5.877-3.557-8.782-8.128-8.782-5.089 0-8.387 3.614-8.387 8.95 0 5.483 3.253 8.906 8.578 8.906zm-3.839-10.729c.102-1.971 1.599-3.547 3.727-3.547 2.083 0 3.524 1.486 3.535 3.547h-7.262zm23.094-6.902h-3.253v-4.143h-4.796v4.143h-2.364v3.603h2.364v9.006c-.023 3.389 2.285 5.067 5.764 4.92a9.322 9.322 0 002.601-.45l-.755-3.569c-.236.045-.743.158-1.193.158-.957 0-1.621-.361-1.621-1.689v-8.376h3.253v-3.603zm7.282 7.296c.012-2.23 1.374-3.535 3.333-3.535 1.947 0 3.096 1.249 3.085 3.377v10.155h4.796v-11.011c.011-4.053-2.376-6.507-5.979-6.507-2.623 0-4.379 1.239-5.167 3.276h-.203v-8.815h-4.661v23.057h4.796v-9.997zm22.973 10.503c5.798 0 9.3-4.413 9.311-12.012.011-7.543-3.535-11.866-9.311-11.866-5.786 0-9.299 4.312-9.31 11.866-.023 7.577 3.501 12.001 9.31 12.012zm0-4.041c-2.645 0-4.356-2.657-4.345-7.971.011-5.235 1.711-7.869 4.345-7.869 2.624 0 4.335 2.634 4.335 7.869.011 5.314-1.7 7.971-4.335 7.971zm-69.972 15.825h-3.166l-3.943 2.497v2.987l3.648-2.287h.093v12.733h3.368v-15.93zm9.645 16.28c4.006 0 6.425-3.049 6.433-8.3.008-5.211-2.443-8.198-6.433-8.198-3.998 0-6.424 2.979-6.432 8.198-.016 5.235 2.419 8.292 6.432 8.3zm0-2.793c-1.828 0-3.01-1.835-3.002-5.507.008-3.616 1.182-5.436 3.002-5.436 1.813 0 2.995 1.82 2.995 5.436.008 3.672-1.175 5.507-2.995 5.507zm9.753 2.645c.995 0 1.859-.832 1.866-1.867-.007-1.019-.871-1.851-1.866-1.851-1.027 0-1.875.832-1.867 1.851a1.862 1.862 0 001.867 1.867zm9.11-16.132h-3.165l-3.944 2.497v2.987l3.648-2.287h.094v12.733h3.367v-15.93zm9.646 16.28c4.006 0 6.425-3.049 6.432-8.3.008-5.211-2.442-8.198-6.432-8.198-3.998 0-6.425 2.979-6.433 8.198-.015 5.235 2.419 8.292 6.433 8.3zm0-2.793c-1.828 0-3.01-1.835-3.002-5.507.007-3.616 1.182-5.436 3.002-5.436 1.812 0 2.994 1.82 2.994 5.436.008 3.672-1.174 5.507-2.994 5.507zm14.693 2.793c4.006 0 6.425-3.049 6.433-8.3.007-5.211-2.443-8.198-6.433-8.198-3.998 0-6.424 2.979-6.432 8.198-.016 5.235 2.419 8.292 6.432 8.3zm0-2.793c-1.828 0-3.01-1.835-3.002-5.507.008-3.616 1.182-5.436 3.002-5.436 1.813 0 2.995 1.82 2.995 5.436.008 3.672-1.175 5.507-2.995 5.507zm9.753 2.645c.995 0 1.859-.832 1.866-1.867-.007-1.019-.871-1.851-1.866-1.851-1.027 0-1.875.832-1.867 1.851a1.862 1.862 0 001.867 1.867zm9.752.148c4.006 0 6.425-3.049 6.433-8.3.007-5.211-2.443-8.198-6.433-8.198-3.998 0-6.425 2.979-6.432 8.198-.016 5.235 2.419 8.292 6.432 8.3zm0-2.793c-1.828 0-3.01-1.835-3.002-5.507.008-3.616 1.182-5.436 3.002-5.436 1.812 0 2.995 1.82 2.995 5.436.007 3.672-1.175 5.507-2.995 5.507zm9.752 2.645c.996 0 1.859-.832 1.867-1.867-.008-1.019-.871-1.851-1.867-1.851-1.026 0-1.874.832-1.866 1.851a1.862 1.862 0 001.866 1.867zm4.17-.202h11.356v-2.754h-6.689v-.109l2.326-2.279c3.274-2.986 4.153-4.48 4.153-6.292 0-2.761-2.256-4.714-5.67-4.714-3.345 0-5.639 1.999-5.631 5.126h3.196c-.007-1.524.957-2.458 2.412-2.458 1.4 0 2.442.871 2.442 2.271 0 1.268-.778 2.139-2.225 3.532l-5.67 5.25v2.427z" fill="#000"></path><rect x="236.98" y="371.98" width="156.8" height="81.34" rx="3.92" fill="#D6E9CE" stroke="#7C9D6E" stroke-width="1.96"></rect><path d="M261.349 410.121c2.792 0 4.245-1.61 4.909-3.051h.202v2.77h4.729v-23.057h-4.785v8.669h-.146c-.642-1.407-2.027-3.13-4.92-3.13-3.794 0-7.003 2.95-7.003 8.894 0 5.787 3.074 8.905 7.014 8.905zm1.52-3.816c-2.353 0-3.636-2.094-3.636-5.111 0-2.995 1.261-5.055 3.636-5.055 2.33 0 3.636 1.97 3.636 5.055 0 3.084-1.328 5.111-3.636 5.111zm19.067 3.873c5.246 0 8.511-3.592 8.511-8.917 0-5.359-3.265-8.939-8.511-8.939-5.247 0-8.512 3.58-8.512 8.939 0 5.325 3.265 8.917 8.512 8.917zm.022-3.716c-2.42 0-3.659-2.217-3.659-5.235 0-3.017 1.239-5.246 3.659-5.246 2.376 0 3.614 2.229 3.614 5.246 0 3.018-1.238 5.235-3.614 5.235zm18.411 3.716c4.604 0 7.498-2.702 7.723-6.677h-4.526c-.281 1.847-1.497 2.883-3.141 2.883-2.24 0-3.693-1.881-3.693-5.19 0-3.265 1.464-5.134 3.693-5.134 1.756 0 2.882 1.159 3.141 2.882h4.526c-.203-3.997-3.231-6.62-7.746-6.62-5.246 0-8.488 3.637-8.488 8.939 0 5.258 3.186 8.917 8.511 8.917zm9.784-.338h4.796v-5.494l1.295-1.475 4.717 6.969h5.618l-6.744-9.806 6.417-7.487h-5.505l-5.539 6.564h-.259v-12.328h-4.796v23.057zm24.611.338c4.278 0 7.16-2.083 7.836-5.292l-4.436-.292c-.484 1.317-1.723 2.003-3.321 2.003-2.398 0-3.918-1.587-3.918-4.165v-.011h11.776v-1.317c0-5.877-3.558-8.782-8.128-8.782-5.089 0-8.388 3.614-8.388 8.95 0 5.483 3.254 8.906 8.579 8.906zm-3.839-10.729c.101-1.971 1.599-3.547 3.726-3.547 2.083 0 3.524 1.486 3.535 3.547h-7.261zm13.896 10.391h4.796v-9.784c0-2.127 1.554-3.591 3.67-3.591.664 0 1.576.113 2.027.259v-4.256a7.227 7.227 0 00-1.509-.168c-1.936 0-3.524 1.125-4.154 3.264h-.18v-3.017h-4.65v17.293zm20.958.506c5.798 0 9.299-4.413 9.31-12.012.012-7.543-3.535-11.866-9.31-11.866-5.787 0-9.299 4.312-9.311 11.866-.022 7.577 3.502 12.001 9.311 12.012zm0-4.041c-2.646 0-4.357-2.657-4.346-7.971.012-5.235 1.712-7.869 4.346-7.869 2.623 0 4.334 2.634 4.334 7.869.012 5.314-1.7 7.971-4.334 7.971zm-89.743 15.825h-3.165l-3.944 2.497v2.987l3.648-2.287h.094v12.733h3.367v-15.93zm4.03 15.93h3.477l6.611-13.138v-2.792h-11.177v2.754h7.693v.108l-6.604 13.068zm12.01 0h11.356v-2.754h-6.689v-.109l2.326-2.279c3.274-2.986 4.153-4.48 4.153-6.292 0-2.761-2.256-4.714-5.67-4.714-3.345 0-5.639 1.999-5.631 5.126h3.196c-.007-1.524.957-2.458 2.412-2.458 1.4 0 2.442.871 2.442 2.271 0 1.268-.778 2.139-2.225 3.532l-5.67 5.25v2.427zm15.378.202c.996 0 1.859-.832 1.867-1.867-.008-1.019-.871-1.851-1.867-1.851-1.027 0-1.874.832-1.867 1.851a1.863 1.863 0 001.867 1.867zm9.111-16.132h-3.166l-3.943 2.497v2.987l3.647-2.287h.094v12.733h3.368v-15.93zm4.029 15.93h3.477l6.612-13.138v-2.792h-11.178v2.754h7.693v.108l-6.604 13.068zm11.24.202c.996 0 1.859-.832 1.867-1.867-.008-1.019-.871-1.851-1.867-1.851-1.026 0-1.874.832-1.866 1.851a1.862 1.862 0 001.866 1.867zm9.753.148c4.005 0 6.424-3.049 6.432-8.3.008-5.211-2.442-8.198-6.432-8.198-3.998 0-6.425 2.979-6.433 8.198-.015 5.235 2.419 8.292 6.433 8.3zm0-2.793c-1.828 0-3.01-1.835-3.003-5.507.008-3.616 1.183-5.436 3.003-5.436 1.812 0 2.994 1.82 2.994 5.436.008 3.672-1.174 5.507-2.994 5.507zm9.752 2.645c.996 0 1.859-.832 1.867-1.867-.008-1.019-.871-1.851-1.867-1.851-1.027 0-1.874.832-1.867 1.851a1.863 1.863 0 001.867 1.867zm9.111-16.132h-3.166l-3.943 2.497v2.987l3.648-2.287h.093v12.733h3.368v-15.93z" fill="#000"></path><path fill="#D0021B" d="M199 536h13v35h-13zm0-129h12.759v76H199z"></path><path d="M236.396 407.036v12.759h-35.533v-12.759h35.533z" fill="#D0021B"></path><path fill="#000" d="M433 407h-12.759v76H433z"></path><path d="M395.604 407.036v12.759h35.533v-12.759h-35.533zM420 536h13v35h-13zM310 147h13v126h-13z" fill="#000"></path><path d="M465 147v13H313v-13h152z" fill="#000"></path><path fill="#D0021B" d="M310 147h13v126h-13z"></path><path d="M465 147v13H313v-13h152zm429 0h-13v126h13z" fill="#D0021B"></path><path d="M714 147v13h177v-13H714z" fill="#D0021B"></path><path d="M688.008 102.832a45.851 45.851 0 00-14.573 2.398c-.372-24.808-17.293-46.301-41.32-52.487-24.027-6.185-49.223 4.466-61.528 26.01a34.205 34.205 0 00-59.571 22.976c0 .378.046.745.056 1.12h-.056c-24.761-.027-45.093 19.563-45.986 44.308-.892 24.744 17.976 45.749 42.674 47.506v.169h180.304c25.401 0 45.992-20.591 45.992-45.992 0-25.4-20.591-45.991-45.992-45.991v-.017z" fill="#D1E6FF" stroke="#4A90E2" stroke-width="8"></path><path d="M64.32 103V70.062h12.995c2.498 0 4.627.477 6.385 1.431 1.759.944 3.099 2.257 4.02 3.94.934 1.673 1.4 3.603 1.4 5.79 0 2.188-.472 4.118-1.415 5.79-.944 1.673-2.31 2.976-4.101 3.909-1.78.932-3.935 1.399-6.466 1.399h-8.282V86.74h7.157c1.34 0 2.444-.23 3.313-.692.879-.471 1.533-1.12 1.962-1.946.44-.836.66-1.796.66-2.879 0-1.093-.22-2.047-.66-2.862-.43-.826-1.083-1.464-1.962-1.914-.88-.461-1.995-.692-3.346-.692h-4.696V103H64.32zm38.516.482c-2.498 0-4.659-.53-6.481-1.592-1.812-1.072-3.212-2.562-4.198-4.47-.986-1.92-1.48-4.145-1.48-6.675 0-2.552.493-4.782 1.48-6.69.986-1.92 2.386-3.41 4.198-4.472 1.822-1.072 3.983-1.608 6.481-1.608 2.498 0 4.654.536 6.466 1.608 1.822 1.061 3.227 2.552 4.213 4.471.987 1.909 1.48 4.139 1.48 6.69 0 2.531-.493 4.756-1.48 6.675-.986 1.909-2.391 3.399-4.213 4.471-1.812 1.062-3.968 1.592-6.466 1.592zm.032-5.307c1.137 0 2.086-.322 2.847-.965.761-.654 1.335-1.544 1.721-2.67.397-1.126.595-2.407.595-3.844 0-1.436-.198-2.718-.595-3.843-.386-1.126-.96-2.016-1.721-2.67-.761-.654-1.71-.981-2.847-.981-1.147 0-2.112.327-2.895.98-.772.655-1.356 1.545-1.753 2.67-.386 1.126-.579 2.408-.579 3.844 0 1.437.193 2.719.58 3.844.396 1.126.98 2.016 1.752 2.67.783.643 1.748.965 2.895.965zm24.243 5.227c-1.877 0-3.576-.482-5.099-1.447-1.511-.976-2.712-2.407-3.602-4.295-.88-1.897-1.319-4.224-1.319-6.98 0-2.83.456-5.184 1.367-7.06.911-1.887 2.123-3.297 3.635-4.23a9.313 9.313 0 015.002-1.415c1.383 0 2.535.236 3.457.707.933.461 1.684 1.04 2.252 1.737.579.687 1.019 1.362 1.319 2.027h.209V70.062h6.835V103h-6.755v-3.956h-.289c-.322.686-.777 1.367-1.367 2.042-.579.665-1.335 1.217-2.268 1.657-.922.439-2.048.659-3.377.659zm2.171-5.452c1.104 0 2.037-.3 2.798-.9.772-.612 1.362-1.464 1.769-2.558.419-1.094.628-2.375.628-3.844 0-1.469-.204-2.745-.611-3.828-.408-1.082-.998-1.919-1.77-2.509-.772-.59-1.71-.884-2.814-.884-1.126 0-2.075.305-2.847.917-.772.61-1.356 1.458-1.753 2.54-.397 1.084-.595 2.338-.595 3.764 0 1.437.198 2.708.595 3.812.408 1.094.992 1.951 1.753 2.573.772.611 1.721.917 2.847.917zm30.922 5.05h-7.463l11.371-32.938h8.974L184.441 103h-7.462l-8.251-25.411h-.257L160.204 103zm-.467-12.947h17.628v5.436h-17.628v-5.436zM62.786 54h3.889v-7.598h7.48v-3.206h-7.48v-4.383h8.289v-3.206H62.786V54zm13.988 0h3.889v-6.52h2.838L86.985 54h4.293l-3.906-7.149c2.092-.898 3.25-2.72 3.25-5.236 0-3.655-2.415-6.008-6.591-6.008h-7.257V54zm3.889-9.645v-5.569h2.622c2.246 0 3.332.997 3.332 2.83 0 1.823-1.086 2.739-3.314 2.739h-2.64zm28.804.449c0-6.018-3.736-9.448-8.612-9.448-4.904 0-8.613 3.43-8.613 9.448 0 5.99 3.71 9.447 8.613 9.447 4.876 0 8.612-3.43 8.612-9.447zm-3.942 0c0 3.897-1.85 6.008-4.67 6.008-2.83 0-4.67-2.11-4.67-6.008s1.84-6.009 4.67-6.009c2.82 0 4.67 2.111 4.67 6.009zm6.018-9.197V54h3.771V41.984h.153l4.76 11.926h2.569l4.759-11.881h.153V54h3.772V35.607h-4.796l-5.065 12.358h-.216l-5.065-12.358h-4.795zm24.5 7.239c1.149 0 2.146-.961 2.155-2.156-.009-1.176-1.006-2.137-2.155-2.137-1.186 0-2.165.96-2.156 2.137a2.15 2.15 0 002.156 2.156zm0 9.017c1.149 0 2.146-.961 2.155-2.156-.009-1.176-1.006-2.137-2.155-2.137-1.186 0-2.165.96-2.156 2.137a2.15 2.15 0 002.156 2.156zm-74.036 89.95h5.63V157h3.845v-15.187h5.63v-3.206H62.008v3.206zm32.875 5.991c0-6.018-3.736-9.448-8.613-9.448-4.903 0-8.612 3.43-8.612 9.448 0 5.99 3.709 9.447 8.612 9.447 4.877 0 8.613-3.43 8.613-9.447zm-3.943 0c0 3.897-1.85 6.008-4.67 6.008-2.829 0-4.67-2.111-4.67-6.008 0-3.898 1.841-6.009 4.67-6.009 2.82 0 4.67 2.111 4.67 6.009zm8.182-1.958c1.15 0 2.147-.961 2.156-2.156-.009-1.176-1.006-2.137-2.156-2.137-1.185 0-2.164.961-2.155 2.137a2.15 2.15 0 002.155 2.156zm0 9.017c1.15 0 2.147-.961 2.156-2.156-.009-1.176-1.006-2.137-2.156-2.137-1.185 0-2.164.961-2.155 2.137a2.15 2.15 0 002.155 2.156zM64.288 206v-32.938h12.995c2.499 0 4.627.477 6.385 1.431 1.759.944 3.099 2.257 4.021 3.941.933 1.672 1.4 3.602 1.4 5.789 0 2.188-.472 4.118-1.416 5.79-.944 1.673-2.31 2.976-4.101 3.909-1.78.932-3.935 1.399-6.466 1.399h-8.282v-5.581h7.157c1.34 0 2.444-.231 3.313-.692.879-.471 1.533-1.12 1.962-1.946.44-.836.66-1.796.66-2.879 0-1.093-.22-2.047-.66-2.862-.429-.826-1.083-1.464-1.962-1.914-.88-.461-1.995-.692-3.346-.692h-4.696V206h-6.964zm38.516.482c-2.498 0-4.658-.53-6.481-1.592-1.812-1.072-3.211-2.562-4.198-4.471-.986-1.919-1.48-4.144-1.48-6.674 0-2.552.494-4.782 1.48-6.691.987-1.919 2.386-3.41 4.198-4.471 1.823-1.072 3.983-1.608 6.481-1.608 2.499 0 4.654.536 6.466 1.608 1.822 1.061 3.227 2.552 4.213 4.471.987 1.909 1.48 4.139 1.48 6.691 0 2.53-.493 4.755-1.48 6.674-.986 1.909-2.391 3.399-4.213 4.471-1.812 1.062-3.967 1.592-6.466 1.592zm.032-5.307c1.137 0 2.086-.322 2.847-.965.761-.654 1.335-1.544 1.721-2.67.397-1.126.595-2.407.595-3.844 0-1.436-.198-2.718-.595-3.843-.386-1.126-.96-2.016-1.721-2.67-.761-.654-1.71-.981-2.847-.981-1.147 0-2.112.327-2.894.981-.772.654-1.357 1.544-1.753 2.67-.386 1.125-.58 2.407-.58 3.843 0 1.437.194 2.718.58 3.844.396 1.126.98 2.016 1.753 2.67.782.643 1.747.965 2.894.965zm24.243 5.227c-1.877 0-3.576-.482-5.099-1.447-1.511-.976-2.712-2.408-3.602-4.295-.879-1.897-1.319-4.224-1.319-6.98 0-2.83.456-5.184 1.367-7.06.911-1.887 2.123-3.297 3.635-4.23a9.308 9.308 0 015.002-1.415c1.383 0 2.536.236 3.458.707.932.461 1.683 1.04 2.251 1.737.579.687 1.019 1.362 1.319 2.027h.209v-12.384h6.835V206h-6.754v-3.956h-.29c-.322.686-.777 1.367-1.367 2.042-.579.665-1.335 1.217-2.268 1.657-.922.439-2.048.659-3.377.659zm2.171-5.452c1.104 0 2.037-.3 2.799-.901.771-.611 1.361-1.463 1.769-2.557.418-1.094.627-2.375.627-3.844 0-1.469-.204-2.745-.611-3.828-.408-1.083-.997-1.919-1.769-2.509-.772-.589-1.711-.884-2.815-.884-1.126 0-2.075.305-2.847.917-.772.611-1.356 1.458-1.753 2.541-.396 1.083-.595 2.337-.595 3.763 0 1.437.199 2.708.595 3.812.408 1.094.992 1.951 1.753 2.573.772.611 1.721.917 2.847.917zm25.245 5.05v-32.938h13.188c2.423 0 4.444.359 6.063 1.077 1.619.719 2.836 1.716 3.651 2.992.815 1.265 1.222 2.723 1.222 4.374 0 1.287-.257 2.418-.772 3.394a6.653 6.653 0 01-2.123 2.38c-.89.611-1.908 1.046-3.055 1.303v.322a7.372 7.372 0 013.522 1.061c1.104.654 1.999 1.571 2.686 2.75.686 1.169 1.029 2.563 1.029 4.182 0 1.748-.434 3.308-1.303 4.68-.858 1.362-2.128 2.439-3.811 3.233-1.684.793-3.759 1.19-6.225 1.19h-14.072zm6.964-5.693h5.677c1.941 0 3.356-.37 4.246-1.11.89-.751 1.335-1.748 1.335-2.992 0-.911-.22-1.715-.66-2.412-.439-.697-1.066-1.244-1.881-1.641-.804-.396-1.764-.595-2.879-.595h-5.838v8.75zm0-13.462h5.162c.955 0 1.802-.166 2.541-.499.751-.343 1.341-.825 1.77-1.447.439-.622.659-1.367.659-2.236 0-1.19-.424-2.149-1.271-2.878-.836-.73-2.026-1.094-3.57-1.094h-5.291v8.154zM30.32 709v-32.938h12.995c2.498 0 4.627.477 6.385 1.431 1.759.944 3.099 2.257 4.02 3.941.934 1.672 1.4 3.602 1.4 5.789 0 2.188-.472 4.118-1.415 5.79-.944 1.673-2.31 2.976-4.101 3.909-1.78.932-3.935 1.399-6.466 1.399h-8.282v-5.581h7.157c1.34 0 2.444-.231 3.313-.692.879-.471 1.533-1.12 1.962-1.946.44-.836.66-1.796.66-2.879 0-1.093-.22-2.047-.66-2.862-.43-.826-1.083-1.464-1.962-1.914-.88-.461-1.995-.692-3.346-.692h-4.696V709H30.32zm38.516.482c-2.498 0-4.659-.53-6.481-1.592-1.812-1.072-3.212-2.562-4.198-4.471-.986-1.919-1.48-4.144-1.48-6.674 0-2.552.493-4.782 1.48-6.691.986-1.919 2.386-3.41 4.198-4.471 1.822-1.072 3.983-1.608 6.481-1.608 2.498 0 4.654.536 6.466 1.608 1.822 1.061 3.227 2.552 4.213 4.471.987 1.909 1.48 4.139 1.48 6.691 0 2.53-.493 4.755-1.48 6.674-.986 1.909-2.39 3.399-4.213 4.471-1.813 1.062-3.968 1.592-6.466 1.592zm.032-5.307c1.137 0 2.086-.322 2.847-.965.761-.654 1.335-1.544 1.72-2.67.398-1.126.596-2.407.596-3.844 0-1.436-.198-2.718-.595-3.843-.386-1.126-.96-2.016-1.721-2.67-.761-.654-1.71-.981-2.847-.981-1.147 0-2.112.327-2.895.981-.772.654-1.356 1.544-1.753 2.67-.386 1.125-.579 2.407-.579 3.843 0 1.437.193 2.718.58 3.844.396 1.126.98 2.016 1.752 2.67.783.643 1.748.965 2.895.965zm24.243 5.227c-1.877 0-3.576-.482-5.099-1.447-1.511-.976-2.712-2.408-3.602-4.295-.88-1.897-1.32-4.224-1.32-6.98 0-2.83.457-5.184 1.368-7.06.911-1.887 2.123-3.297 3.635-4.23a9.31 9.31 0 015.002-1.415c1.383 0 2.535.236 3.457.707.933.461 1.684 1.04 2.252 1.737.58.687 1.019 1.362 1.319 2.027h.209v-12.384h6.835V709h-6.755v-3.956h-.289c-.322.686-.778 1.367-1.367 2.042-.58.665-1.335 1.217-2.268 1.657-.922.439-2.048.659-3.377.659zm2.17-5.452c1.105 0 2.038-.3 2.8-.901.771-.611 1.361-1.463 1.769-2.557.418-1.094.627-2.375.627-3.844 0-1.469-.204-2.745-.611-3.828-.408-1.083-.998-1.919-1.77-2.509-.772-.589-1.71-.884-2.814-.884-1.126 0-2.075.305-2.847.917-.772.611-1.356 1.458-1.753 2.541-.397 1.083-.595 2.337-.595 3.763 0 1.437.198 2.708.595 3.812.407 1.094.992 1.951 1.753 2.573.772.611 1.721.917 2.847.917zm30.923 5.05h-7.463l11.371-32.938h8.974L150.441 709h-7.462l-8.251-25.411h-.257L126.204 709zm-.467-12.947h17.628v5.436h-17.628v-5.436z" fill="#000"></path></svg>