<svg viewBox="0 0 1200 800" fill="none" xmlns="http://www.w3.org/2000/svg"><g clip-path="url(#clip0_901_56)"><path fill="#fff" d="M0 0h1200v800H0z"></path><path fill="#F9F2E7" d="M-1 0h1200v800H-1z"></path><rect x="249.4" y="50.4" width="696.2" height="696.2" rx="26.6" fill="#CEE2F6" stroke="#76AADF" stroke-width="2.8"></rect><rect x="301.4" y="50.4" width="595.2" height="372.2" rx="5.6" fill="#FFF2C5" stroke="#AD9E6A" stroke-width="2.8"></rect><rect x="301.4" y="476.4" width="252.2" height="224.2" rx="5.6" fill="#FFF2C5" stroke="#AD9E6A" stroke-width="2.8"></rect><rect x="329.4" y="476.4" width="224" height="116.2" rx="5.6" fill="#D6E9CE" stroke="#7C9D6E" stroke-width="2.8"></rect><path fill="#4E7F39" d="M391 517h100v35H391z"></path><rect x="329.4" y="349.4" width="224" height="74.2" rx="5.6" fill="#D6E9CE" stroke="#7C9D6E" stroke-width="2.8"></rect><path fill="#4E7F39" d="M379 368h124v35H379z"></path><rect x="644.4" y="476.4" width="252.2" height="224.2" rx="5.6" fill="#FFF2C5" stroke="#AD9E6A" stroke-width="2.8"></rect><rect x="644.4" y="476.4" width="224" height="116.2" rx="5.6" fill="#D6E9CE" stroke="#7C9D6E" stroke-width="2.8"></rect><path fill="#4E7F39" d="M706 517h100v35H706z"></path><rect x="644.4" y="349.4" width="224" height="74.2" rx="5.6" fill="#D6E9CE" stroke="#7C9D6E" stroke-width="2.8"></rect><path fill="#4E7F39" d="M694 368h124v35H694z"></path><rect x="487.4" y="50.4" width="224" height="116.2" rx="5.6" fill="#D6E9CE" stroke="#7C9D6E" stroke-width="2.8"></rect><path fill="#4E7F39" d="M549 69h100v35H549zm-21 54h142v22H528z"></path><rect x="487.4" y="190.4" width="224" height="116.2" rx="5.6" fill="#D6E9CE" stroke="#7C9D6E" stroke-width="2.8"></rect><path fill="#4E7F39" d="M522 231h154v35H522z"></path><path fill="#D0021B" d="M433 425h18v50h-18zm0-185h18.132v108H433z"></path><path fill="#D0021B" d="M486.142 240.051v18.132h-50.493v-18.132z"></path><path fill-rule="evenodd" clip-rule="evenodd" d="M747.868 240H766v108h-18.132v-89.817h-35.009v-18.132h35.009V240z" fill="#000"></path><path fill="#000" d="M748 425h18v50h-18z"></path><rect x="324.4" y="607.4" width="205.017" height="83.2" rx="5.6" fill="#E5E5E5" stroke="#979797" stroke-width="2.8"></rect><path fill="#C4C4C4" d="M353 633h147v31H353z"></path><rect x="668.4" y="607.4" width="205.017" height="83.2" rx="5.6" fill="#E5E5E5" stroke="#979797" stroke-width="2.8"></rect><path fill="#C4C4C4" d="M697 633h147v31H697z"></path><circle cx="488" cy="249" r="15" fill="#D0021B"></circle><circle cx="107.619" cy="603.619" r="45.619" fill="#688A00"></circle><path d="M114.644 621.462v-37.858h-9.464l-9.316 5.694v8.725l8.281-4.954h.222v28.393h10.277z" fill="#fff"></path><circle cx="378.619" cy="179.619" r="45.619" fill="#688A00"></circle><path d="M393.464 197.462v-8.208h-14.788v-.221l3.549-2.958c8.632-7.191 10.832-10.925 10.832-15.306 0-7.061-5.786-11.682-14.862-11.682-8.817 0-14.547 4.898-14.529 12.865h9.76c-.018-3.179 1.923-4.954 4.769-4.954 2.828 0 4.843 1.757 4.843 4.659 0 2.68-1.719 4.418-4.51 6.728l-14.123 11.683v7.394h29.059z" fill="#fff"></path><circle cx="1022.47" cy="412.473" r="37.473" fill="#688A00"></circle><path d="M1022.15 428.004c7.61 0 12.97-3.872 12.94-9.353.03-3.811-2.52-6.499-7.53-7.046v-.242c3.7-.395 6.41-2.779 6.38-6.256.03-5.239-4.83-9.05-11.72-9.05-7.05 0-12.06 4.024-12.09 9.718h8.08c.03-1.883 1.68-3.219 4.01-3.219 2.12 0 3.61 1.29 3.58 3.097.03 1.883-1.73 3.219-4.25 3.219h-3.16v5.831h3.16c2.73 0 4.64 1.336 4.61 3.219.03 1.928-1.61 3.28-3.94 3.28-2.43 0-4.17-1.291-4.2-3.098h-8.5c.03 5.801 5.27 9.9 12.63 9.9z" fill="#fff"></path><path fill="#D8D8D8" d="M1145 475H985v23h160zm-40 36H985v23h120zM204 670H62v23h142zm15 38H62v23h157z"></path></g></svg>